<svg xmlns="http://www.w3.org/2000/svg" xmlns:xlink="http://www.w3.org/1999/xlink" width="500" zoomAndPan="magnify" viewBox="0 0 375 374.999991" height="500" preserveAspectRatio="xMidYMid meet" version="1.0"><defs><clipPath id="5dafe4b7eb"><path d="M 156 127 L 219 127 L 219 190 L 156 190 Z M 156 127 " clip-rule="nonzero"/></clipPath><clipPath id="8b078ca8a7"><path d="M 192.519531 204.519531 L 140.546875 152.546875 L 166.535156 126.5625 L 218.507812 178.535156 Z M 192.519531 204.519531 " clip-rule="nonzero"/></clipPath><clipPath id="6fb218b41e"><path d="M 192.519531 204.519531 L 140.546875 152.546875 L 166.535156 126.5625 L 218.507812 178.535156 Z M 192.519531 204.519531 " clip-rule="nonzero"/></clipPath><clipPath id="2ea56a4db0"><path d="M 162.359375 186 L 287.84375 186 L 287.84375 249.617188 L 162.359375 249.617188 Z M 162.359375 186 " clip-rule="nonzero"/></clipPath><clipPath id="4b7e232fde"><path d="M 226.644531 186.835938 L 287.433594 248.019531 C 287.699219 248.289062 287.777344 248.691406 287.632812 249.039062 C 287.488281 249.390625 287.148438 249.617188 286.769531 249.617188 L 163.351562 249.617188 C 162.972656 249.617188 162.632812 249.390625 162.488281 249.039062 C 162.339844 248.691406 162.421875 248.289062 162.6875 248.019531 L 223.472656 186.835938 C 223.894531 186.414062 224.464844 186.175781 225.058594 186.175781 C 225.65625 186.175781 226.226562 186.414062 226.644531 186.835938 Z M 226.644531 186.835938 " clip-rule="nonzero"/></clipPath><clipPath id="d4cbc46296"><path d="M 162 186 L 288 186 L 288 249.738281 L 162 249.738281 Z M 162 186 " clip-rule="nonzero"/></clipPath><clipPath id="e0a7f2595b"><path d="M 226.640625 186.835938 L 287.425781 248.015625 C 287.691406 248.28125 287.769531 248.683594 287.625 249.035156 C 287.480469 249.382812 287.136719 249.609375 286.757812 249.609375 L 163.351562 249.609375 C 162.972656 249.609375 162.632812 249.382812 162.488281 249.035156 C 162.34375 248.683594 162.421875 248.28125 162.6875 248.015625 L 223.46875 186.835938 C 223.890625 186.414062 224.460938 186.175781 225.054688 186.175781 C 225.652344 186.175781 226.222656 186.414062 226.640625 186.835938 Z M 226.640625 186.835938 " clip-rule="nonzero"/></clipPath><clipPath id="ef00fe0045"><path d="M 46.117188 186 L 171.601562 186 L 171.601562 249.617188 L 46.117188 249.617188 Z M 46.117188 186 " clip-rule="nonzero"/></clipPath><clipPath id="5eaf0a3c7f"><path d="M 110.402344 186.835938 L 171.191406 248.019531 C 171.457031 248.289062 171.535156 248.691406 171.390625 249.039062 C 171.246094 249.390625 170.90625 249.617188 170.527344 249.617188 L 47.109375 249.617188 C 46.730469 249.617188 46.390625 249.390625 46.246094 249.039062 C 46.097656 248.691406 46.179688 248.289062 46.445312 248.019531 L 107.230469 186.835938 C 107.652344 186.414062 108.222656 186.175781 108.816406 186.175781 C 109.414062 186.175781 109.984375 186.414062 110.402344 186.835938 Z M 110.402344 186.835938 " clip-rule="nonzero"/></clipPath><clipPath id="daa1d85f4d"><path d="M 46 186 L 172 186 L 172 249.738281 L 46 249.738281 Z M 46 186 " clip-rule="nonzero"/></clipPath><clipPath id="0c598b17e1"><path d="M 110.398438 186.835938 L 171.183594 248.015625 C 171.449219 248.28125 171.527344 248.683594 171.382812 249.035156 C 171.238281 249.382812 170.894531 249.609375 170.519531 249.609375 L 47.109375 249.609375 C 46.730469 249.609375 46.390625 249.382812 46.246094 249.035156 C 46.101562 248.683594 46.179688 248.28125 46.445312 248.015625 L 107.226562 186.835938 C 107.648438 186.414062 108.21875 186.175781 108.8125 186.175781 C 109.410156 186.175781 109.980469 186.414062 110.398438 186.835938 Z M 110.398438 186.835938 " clip-rule="nonzero"/></clipPath><clipPath id="6b65a46b25"><path d="M 203.480469 186 L 328.964844 186 L 328.964844 249.617188 L 203.480469 249.617188 Z M 203.480469 186 " clip-rule="nonzero"/></clipPath><clipPath id="8ed05ea062"><path d="M 267.769531 186.835938 L 328.554688 248.019531 C 328.820312 248.289062 328.902344 248.691406 328.753906 249.039062 C 328.609375 249.390625 328.269531 249.617188 327.890625 249.617188 L 204.472656 249.617188 C 204.09375 249.617188 203.753906 249.390625 203.609375 249.039062 C 203.464844 248.691406 203.542969 248.289062 203.808594 248.019531 L 264.597656 186.835938 C 265.015625 186.414062 265.585938 186.175781 266.183594 186.175781 C 266.777344 186.175781 267.347656 186.414062 267.769531 186.835938 Z M 267.769531 186.835938 " clip-rule="nonzero"/></clipPath><clipPath id="d287946347"><path d="M 203 186 L 329 186 L 329 249.738281 L 203 249.738281 Z M 203 186 " clip-rule="nonzero"/></clipPath><clipPath id="f99657b6d5"><path d="M 267.761719 186.835938 L 328.546875 248.015625 C 328.8125 248.28125 328.890625 248.683594 328.746094 249.035156 C 328.601562 249.382812 328.261719 249.609375 327.882812 249.609375 L 204.472656 249.609375 C 204.097656 249.609375 203.753906 249.382812 203.609375 249.035156 C 203.464844 248.683594 203.542969 248.28125 203.808594 248.015625 L 264.59375 186.835938 C 265.011719 186.414062 265.582031 186.175781 266.179688 186.175781 C 266.773438 186.175781 267.34375 186.414062 267.761719 186.835938 Z M 267.761719 186.835938 " clip-rule="nonzero"/></clipPath><clipPath id="4ea2beedf0"><path d="M 87.148438 186 L 212.632812 186 L 212.632812 249.617188 L 87.148438 249.617188 Z M 87.148438 186 " clip-rule="nonzero"/></clipPath><clipPath id="daf9ffb03f"><path d="M 151.4375 186.835938 L 212.222656 248.019531 C 212.492188 248.289062 212.570312 248.691406 212.425781 249.039062 C 212.277344 249.390625 211.9375 249.617188 211.558594 249.617188 L 88.140625 249.617188 C 87.765625 249.617188 87.421875 249.390625 87.277344 249.039062 C 87.132812 248.691406 87.210938 248.289062 87.476562 248.019531 L 148.265625 186.835938 C 148.683594 186.414062 149.253906 186.175781 149.851562 186.175781 C 150.445312 186.175781 151.015625 186.414062 151.4375 186.835938 Z M 151.4375 186.835938 " clip-rule="nonzero"/></clipPath><clipPath id="0b5328961b"><path d="M 87 186 L 213 186 L 213 249.738281 L 87 249.738281 Z M 87 186 " clip-rule="nonzero"/></clipPath><clipPath id="8b94c718da"><path d="M 151.433594 186.835938 L 212.214844 248.015625 C 212.480469 248.28125 212.558594 248.683594 212.414062 249.035156 C 212.269531 249.382812 211.929688 249.609375 211.550781 249.609375 L 88.144531 249.609375 C 87.765625 249.609375 87.425781 249.382812 87.277344 249.035156 C 87.132812 248.683594 87.210938 248.28125 87.480469 248.015625 L 148.261719 186.835938 C 148.679688 186.414062 149.25 186.175781 149.847656 186.175781 C 150.441406 186.175781 151.011719 186.414062 151.433594 186.835938 Z M 151.433594 186.835938 " clip-rule="nonzero"/></clipPath></defs><g clip-path="url(#5dafe4b7eb)"><g clip-path="url(#8b078ca8a7)"><g clip-path="url(#6fb218b41e)"><path fill="#d9d9d9" d="M 166.671875 178.679688 C 159.546875 171.554688 156.007812 162.242188 156.007812 152.910156 C 156.007812 143.574219 159.570312 134.238281 166.671875 127.136719 C 175.027344 135.492188 209.832031 170.300781 218.214844 178.679688 C 211.113281 185.78125 201.777344 189.34375 192.441406 189.34375 C 183.109375 189.34375 173.773438 185.78125 166.671875 178.679688 Z M 166.671875 178.679688 " fill-opacity="1" fill-rule="nonzero"/></g></g></g><g clip-path="url(#2ea56a4db0)"><g clip-path="url(#4b7e232fde)"><path fill="#3a5f7d" d="M 161.101562 185.238281 L 289.101562 185.238281 L 289.101562 249.617188 L 161.101562 249.617188 Z M 161.101562 185.238281 " fill-opacity="1" fill-rule="nonzero"/></g></g><g clip-path="url(#d4cbc46296)"><g clip-path="url(#e0a7f2595b)"><path stroke-linecap="butt" transform="matrix(0.75, 0, 0, 0.75, 161.10244, 185.239675)" fill="none" stroke-linejoin="miter" d="M 87.384253 2.12835 L 168.431133 83.701272 C 168.7853 84.055439 168.889467 84.591897 168.696758 85.060647 C 168.50405 85.524189 168.045717 85.826272 167.540508 85.826272 L 2.998831 85.826272 C 2.493622 85.826272 2.040497 85.524189 1.847789 85.060647 C 1.655081 84.591897 1.759247 84.055439 2.113414 83.701272 L 83.155086 2.12835 C 83.717586 1.56585 84.478003 1.248142 85.26967 1.248142 C 86.066545 1.248142 86.826961 1.56585 87.384253 2.12835 Z M 87.384253 2.12835 " stroke="#000000" stroke-width="2" stroke-opacity="1" stroke-miterlimit="4"/></g></g><g clip-path="url(#ef00fe0045)"><g clip-path="url(#5eaf0a3c7f)"><path fill="#3a5f7d" d="M 44.859375 185.238281 L 172.859375 185.238281 L 172.859375 249.617188 L 44.859375 249.617188 Z M 44.859375 185.238281 " fill-opacity="1" fill-rule="nonzero"/></g></g><g clip-path="url(#daa1d85f4d)"><g clip-path="url(#0c598b17e1)"><path stroke-linecap="butt" transform="matrix(0.75, 0, 0, 0.75, 44.860586, 185.239675)" fill="none" stroke-linejoin="miter" d="M 87.383808 2.12835 L 168.430689 83.701272 C 168.784855 84.055439 168.889022 84.591897 168.696314 85.060647 C 168.503605 85.524189 168.045272 85.826272 167.545272 85.826272 L 2.998386 85.826272 C 2.493178 85.826272 2.040053 85.524189 1.847344 85.060647 C 1.654636 84.591897 1.758803 84.055439 2.112969 83.701272 L 83.154641 2.12835 C 83.717141 1.56585 84.477558 1.248142 85.269225 1.248142 C 86.0661 1.248142 86.826517 1.56585 87.383808 2.12835 Z M 87.383808 2.12835 " stroke="#000000" stroke-width="2" stroke-opacity="1" stroke-miterlimit="4"/></g></g><g clip-path="url(#6b65a46b25)"><g clip-path="url(#8ed05ea062)"><path fill="#2e8b57" d="M 202.222656 185.238281 L 330.222656 185.238281 L 330.222656 249.617188 L 202.222656 249.617188 Z M 202.222656 185.238281 " fill-opacity="1" fill-rule="nonzero"/></g></g><g clip-path="url(#d287946347)"><g clip-path="url(#f99657b6d5)"><path stroke-linecap="butt" transform="matrix(0.75, 0, 0, 0.75, 202.224454, 185.239675)" fill="none" stroke-linejoin="miter" d="M 87.383025 2.12835 L 168.429905 83.701272 C 168.784072 84.055439 168.888239 84.591897 168.69553 85.060647 C 168.502822 85.524189 168.049697 85.826272 167.544488 85.826272 L 2.997603 85.826272 C 2.497603 85.826272 2.039269 85.524189 1.846561 85.060647 C 1.653853 84.591897 1.758019 84.055439 2.112186 83.701272 L 83.159066 2.12835 C 83.716358 1.56585 84.476775 1.248142 85.27365 1.248142 C 86.065316 1.248142 86.825733 1.56585 87.383025 2.12835 Z M 87.383025 2.12835 " stroke="#000000" stroke-width="2" stroke-opacity="1" stroke-miterlimit="4"/></g></g><g clip-path="url(#4ea2beedf0)"><g clip-path="url(#daf9ffb03f)"><path fill="#2e8b57" d="M 85.890625 185.238281 L 213.890625 185.238281 L 213.890625 249.617188 L 85.890625 249.617188 Z M 85.890625 185.238281 " fill-opacity="1" fill-rule="nonzero"/></g></g><g clip-path="url(#0b5328961b)"><g clip-path="url(#8b94c718da)"><path stroke-linecap="butt" transform="matrix(0.75, 0, 0, 0.75, 85.89344, 185.239675)" fill="none" stroke-linejoin="miter" d="M 87.386877 2.12835 L 168.428549 83.701272 C 168.782715 84.055439 168.886882 84.591897 168.694174 85.060647 C 168.501465 85.524189 168.04834 85.826272 167.543132 85.826272 L 3.001455 85.826272 C 2.496246 85.826272 2.043121 85.524189 1.845205 85.060647 C 1.652496 84.591897 1.756663 84.055439 2.116038 83.701272 L 83.15771 2.12835 C 83.715002 1.56585 84.475418 1.248142 85.272293 1.248142 C 86.06396 1.248142 86.824377 1.56585 87.386877 2.12835 Z M 87.386877 2.12835 " stroke="#000000" stroke-width="2" stroke-opacity="1" stroke-miterlimit="4"/></g></g><path stroke-linecap="butt" transform="matrix(0.53033, 0.53033, -0.53033, 0.53033, 166.497241, 126.671828)" fill="none" stroke-linejoin="miter" d="M -0.00103756 0.501993 L 98.2463 0.49831 " stroke="#000000" stroke-width="1" stroke-opacity="1" stroke-miterlimit="4"/><path stroke-linecap="butt" transform="matrix(-0.208574, 0.720414, -0.720414, -0.208574, 166.923289, 126.966438)" fill="none" stroke-linejoin="miter" d="M 0.24325 0.435804 C 16.149683 9.304812 32.052843 9.304003 47.95918 0.436932 " stroke="#000000" stroke-width="1" stroke-opacity="1" stroke-miterlimit="4"/><path stroke-linecap="butt" transform="matrix(0.729502, -0.174144, 0.174144, 0.729502, 180.95028, 187.258992)" fill="none" stroke-linejoin="miter" d="M 0.261242 0.424864 C 17.201778 10.862323 34.144826 10.858762 51.081693 0.428168 " stroke="#000000" stroke-width="1" stroke-opacity="1" stroke-miterlimit="4"/><path stroke-linecap="butt" transform="matrix(0.514415, 0.545781, -0.545781, 0.514415, 156.725195, 161.06829)" fill="none" stroke-linejoin="miter" d="M 0.244519 0.435518 C 16.184277 9.304033 32.123251 9.304076 48.065231 0.43922 " stroke="#000000" stroke-width="1" stroke-opacity="1" stroke-miterlimit="4"/></svg>