<svg xmlns="http://www.w3.org/2000/svg" xmlns:xlink="http://www.w3.org/1999/xlink" width="500" zoomAndPan="magnify" viewBox="0 0 375 374.999991" height="500" preserveAspectRatio="xMidYMid meet" version="1.0"><defs><g/></defs><path stroke-linecap="butt" transform="matrix(0.75, 0, 0, 0.75, 30.838644, 128.099581)" fill="none" stroke-linejoin="miter" d="M 55.82452 21.789102 L 56.808895 51.617228 C 56.897437 53.210979 57.178687 54.382854 57.652645 55.117229 C 58.126604 55.841187 58.663062 56.39327 59.272437 56.773479 C 59.897437 57.153687 60.428687 57.544312 60.876604 57.945354 C 61.329729 58.335979 61.553687 59.002646 61.553687 59.945354 C 61.553687 60.705771 61.262021 61.242229 60.689104 61.549521 C 60.126604 61.851604 59.163062 61.997437 57.808895 61.997437 L 46.923478 61.997437 C 45.553686 61.997437 44.558894 61.851604 43.939103 61.549521 C 43.329728 61.242229 43.022436 60.705771 43.022436 59.945354 C 43.022436 59.096396 43.225561 58.460979 43.626603 58.049521 C 44.027644 57.622437 44.501603 57.210979 45.04327 56.809937 C 45.584936 56.403687 46.053686 55.83077 46.454728 55.08077 C 46.860978 54.325562 47.058895 53.169312 47.058895 51.617228 L 46.491186 24.908893 L 31.584935 57.04952 C 31.298477 57.669312 30.97556 58.122437 30.621394 58.414104 C 30.277644 58.690146 29.746394 58.919312 29.032852 59.101604 C 27.574518 59.388062 26.657852 58.987021 26.28806 57.893271 L 12.574517 25.32556 L 11.663059 53.169312 C 11.616184 54.341187 11.767226 55.273479 12.110976 55.960979 C 12.465142 56.64327 12.881809 57.169312 13.350559 57.549521 C 13.824517 57.929729 14.251601 58.309937 14.626601 58.690146 C 15.006809 59.054729 15.199518 59.549521 15.199518 60.169312 C 15.199518 60.919312 14.923476 61.403687 14.371392 61.622437 C 13.829726 61.825562 13.017226 61.929729 11.939101 61.929729 L 5.65785 61.929729 C 4.475559 61.929729 3.621392 61.804729 3.105767 61.549521 C 2.590142 61.289104 2.329725 60.799521 2.329725 60.085979 C 2.329725 59.523479 2.527642 59.054729 2.933892 58.690146 C 3.334933 58.309937 3.808892 57.929729 4.34535 57.549521 C 4.887017 57.169312 5.381809 56.64327 5.829725 55.960979 C 6.277642 55.273479 6.527642 54.341187 6.574517 53.169312 L 7.918267 21.789102 C 7.965142 20.523476 7.798475 19.565143 7.418267 18.908893 C 7.038059 18.242226 6.579725 17.721393 6.038059 17.35681 C 5.496392 16.976601 5.012017 16.585976 4.590142 16.179726 C 4.163058 15.778684 3.949517 15.221393 3.949517 14.507851 C 3.949517 13.763059 4.22035 13.247434 4.762017 12.971393 C 5.3141 12.684934 6.173475 12.539101 7.350559 12.539101 L 15.543268 12.539101 C 16.866184 12.539101 17.762018 13.127643 18.235976 14.299518 L 31.517227 45.471395 L 45.923478 14.372434 C 46.496395 13.148476 47.392228 12.539101 48.610978 12.539101 L 56.392229 12.539101 C 57.610979 12.539101 58.48077 12.684934 58.996395 12.971393 C 59.517229 13.247434 59.772437 13.763059 59.772437 14.507851 C 59.772437 15.221393 59.564104 15.768268 59.13702 16.148476 C 58.709937 16.51306 58.225562 16.88806 57.689104 17.268268 C 57.147437 17.648476 56.689104 18.16931 56.308895 18.835976 C 55.939104 19.492226 55.777645 20.476601 55.82452 21.789102 Z M 72.131813 23.497435 C 70.824521 23.45056 69.777646 23.01306 68.991188 22.184935 C 68.225563 21.35681 67.860979 20.35681 67.907854 19.184935 C 67.954729 18.101601 68.340146 17.033893 69.064104 15.976601 C 69.798479 14.903684 70.730771 14.044309 71.855771 13.388059 C 72.98598 12.731809 74.14223 12.424518 75.324521 12.471393 C 76.590147 12.518268 77.647438 12.966184 78.496397 13.820351 C 79.350563 14.658893 79.777647 15.690143 79.777647 16.924518 C 79.730772 18.049518 79.324522 19.117226 78.569313 20.132851 C 77.819313 21.143268 76.866188 21.960977 75.70473 22.580768 C 74.553688 23.190143 73.366188 23.497435 72.131813 23.497435 Z M 69.735979 52.184937 L 69.735979 39.247436 C 69.735979 38.028686 69.569313 37.101603 69.235979 36.466186 C 68.913063 35.825561 68.527646 35.330769 68.079729 34.987019 C 67.631813 34.627644 67.230771 34.294311 66.871396 33.981811 C 66.527646 33.674519 66.355771 33.257852 66.355771 32.742227 C 66.355771 32.226602 66.501604 31.815144 66.803688 31.518269 C 67.110979 31.205769 67.694313 30.862019 68.543271 30.48181 C 69.532854 30.01306 70.67348 29.549519 71.959938 29.101602 C 73.262021 28.653685 74.449521 28.268269 75.532855 27.945352 C 76.61098 27.612019 77.345355 27.445352 77.720355 27.445352 C 78.803688 27.398477 79.345355 28.10681 79.345355 29.570352 L 79.277647 39.247436 L 79.277647 52.184937 C 79.277647 53.83077 79.45473 55.044312 79.808897 55.825562 C 80.168272 56.596395 80.564105 57.158896 81.001605 57.513062 C 81.449522 57.872437 81.850564 58.216187 82.209939 58.549521 C 82.564105 58.872437 82.741189 59.434937 82.741189 60.242229 C 82.741189 60.940146 82.459939 61.414104 81.897439 61.653687 C 81.334939 61.882854 80.57973 61.997437 79.637022 61.997437 L 69.527646 61.997437 C 68.491188 61.997437 67.689104 61.872437 67.110979 61.622437 C 66.548479 61.356812 66.267229 60.872437 66.267229 60.169312 C 66.267229 59.414104 66.444313 58.872437 66.803688 58.549521 C 67.157854 58.216187 67.564104 57.872437 68.012021 57.513062 C 68.459938 57.158896 68.855771 56.596395 69.199521 55.825562 C 69.558896 55.044312 69.735979 53.83077 69.735979 52.184937 Z M 124.001608 41.934936 L 126.40265 54.013062 C 126.642233 55.096395 126.959942 55.919312 127.350567 56.497437 C 127.751608 57.059937 128.168275 57.507854 128.59015 57.841187 C 129.017233 58.164104 129.381817 58.492229 129.678692 58.825562 C 129.991192 59.148479 130.147442 59.617229 130.147442 60.242229 C 130.147442 60.940146 129.860983 61.414104 129.298483 61.653687 C 128.735983 61.882854 127.980775 61.997437 127.038067 61.997437 L 117.157858 61.997437 C 116.168274 61.997437 115.381816 61.872437 114.808899 61.622437 C 114.246399 61.356812 113.965149 60.872437 113.965149 60.169312 C 113.965149 59.596396 114.142232 59.138062 114.496399 58.789104 C 114.855774 58.434937 115.256816 58.054729 115.704732 57.653687 C 116.152649 57.252646 116.496399 56.731812 116.725566 56.101604 C 116.965149 55.466187 116.965149 54.58077 116.725566 53.445354 L 114.532857 42.283895 C 114.256816 40.773478 113.881816 39.356811 113.413066 38.023478 C 112.939107 36.674519 112.256816 35.575561 111.360982 34.726602 C 110.45994 33.877644 109.235982 33.471394 107.683899 33.518269 C 105.798482 33.518269 104.137023 34.346394 102.699523 36.002644 C 101.262023 37.648478 100.543273 40.023478 100.543273 43.127645 L 100.543273 52.184937 C 100.543273 53.83077 100.720357 55.044312 101.079732 55.825562 C 101.433898 56.596395 101.829732 57.158896 102.267232 57.513062 C 102.715148 57.872437 103.105773 58.216187 103.439107 58.549521 C 103.77244 58.872437 103.939107 59.434937 103.939107 60.242229 C 103.939107 60.940146 103.668273 61.414104 103.131815 61.653687 C 102.590148 61.882854 101.824523 61.997437 100.83494 61.997437 L 90.725564 61.997437 C 89.735981 61.997437 88.944314 61.872437 88.345356 61.622437 C 87.762022 61.356812 87.465147 60.872437 87.465147 60.169312 C 87.465147 59.414104 87.642231 58.872437 88.001606 58.549521 C 88.355772 58.216187 88.772439 57.872437 89.241189 57.513062 C 89.715147 57.158896 90.121397 56.596395 90.470356 55.825562 C 90.824523 55.044312 91.001606 53.83077 91.001606 52.184937 L 91.001606 38.747436 C 91.001606 37.757853 90.814106 36.924519 90.433897 36.242227 C 90.064106 35.565144 89.522439 34.966186 88.814106 34.450561 C 88.491189 34.210977 88.183897 33.940144 87.897439 33.638061 C 87.610981 33.330769 87.465147 32.940144 87.465147 32.466186 C 87.465147 31.903686 87.631814 31.455769 87.965147 31.122435 C 88.298481 30.789102 88.887022 30.434935 89.725564 30.070352 C 90.621398 29.643269 91.621398 29.226602 92.725564 28.82556 C 93.845356 28.424519 94.881814 28.096394 95.850565 27.841185 C 96.814106 27.580769 97.485981 27.445352 97.850565 27.445352 C 98.99119 27.445352 99.558898 28.153685 99.558898 29.570352 L 99.558898 33.809936 C 100.92869 31.684935 102.626607 30.080769 104.64744 28.997435 C 106.673482 27.91931 108.814107 27.377644 111.064107 27.377644 C 113.756816 27.377644 115.933899 27.945352 117.605774 29.085977 C 119.282858 30.210977 120.616191 31.856811 121.605775 34.018269 C 122.595358 36.179727 123.392233 38.820353 124.001608 41.934936 Z M 164.001611 51.184937 C 164.704736 50.481812 165.345361 50.346395 165.933902 50.76827 C 166.522444 51.195353 166.631819 51.92452 166.262027 52.960979 C 165.788069 54.273479 164.834944 55.684937 163.397444 57.205771 C 161.959944 58.710979 160.084944 60.002646 157.772444 61.085979 C 155.465152 62.169312 152.730777 62.705771 149.579735 62.705771 C 146.235984 62.705771 143.298484 61.997437 140.782859 60.585979 C 138.262026 59.169312 136.298484 57.205771 134.881817 54.684937 C 133.46515 52.169312 132.762025 49.304728 132.762025 46.096395 C 132.762025 42.471395 133.595359 39.247436 135.262025 36.419311 C 136.939109 33.585977 139.168276 31.372435 141.939109 29.773477 C 144.720359 28.174519 147.762026 27.377644 151.06411 27.377644 C 153.892235 27.377644 156.319318 27.882852 158.34536 28.893269 C 160.366194 29.908894 161.965152 31.26306 163.137027 32.966186 C 164.324527 34.658894 165.084944 36.513061 165.418277 38.539103 C 165.647444 39.768269 165.100569 40.690144 163.777652 41.299519 C 160.199527 42.898478 156.84536 44.309936 153.704735 45.544311 C 150.574526 46.763061 147.178693 48.054728 143.506818 49.42452 C 144.256818 51.023478 145.449526 52.492229 147.09536 53.841187 C 148.75161 55.184937 150.949526 55.856812 153.683902 55.856812 C 155.850568 55.856812 157.788069 55.388062 159.50161 54.445354 C 161.225569 53.502645 162.725569 52.414104 164.001611 51.184937 Z M 147.959943 32.033894 C 145.933901 32.278686 144.376609 33.257852 143.282859 34.987019 C 142.204734 36.700561 141.663068 38.684936 141.663068 40.934936 C 141.663068 42.638061 141.850568 44.122436 142.230776 45.388061 C 144.303693 44.684936 146.334943 43.971395 148.340151 43.247436 C 150.340151 42.513061 152.28286 41.742228 154.168277 40.934936 C 154.788068 40.658894 155.272443 40.330769 155.616193 39.955769 C 155.975568 39.575561 156.03286 38.934936 155.788068 38.039103 C 155.329735 35.966186 154.329735 34.367227 152.788068 33.242227 C 151.256818 32.117227 149.647443 31.710977 147.959943 32.033894 Z M 192.538071 27.377644 C 194.564113 27.377644 196.116196 27.955769 197.19953 29.117227 C 198.288071 30.268269 198.834946 31.710977 198.834946 33.450561 C 198.834946 34.862019 198.501613 35.997436 197.834946 36.846394 C 197.178696 37.700561 196.355779 38.148478 195.366196 38.195353 C 194.517238 38.195353 193.834946 38.002644 193.314113 37.622436 C 192.798488 37.247436 192.350571 36.820353 191.970362 36.346394 C 191.590154 35.877644 191.152654 35.455769 190.657862 35.085977 C 190.163071 34.710977 189.496404 34.518269 188.657862 34.518269 C 187.381821 34.518269 186.246404 35.226602 185.25682 36.643269 C 184.272445 38.044311 183.777654 40.044311 183.777654 42.64327 L 183.777654 52.184937 C 183.777654 53.83077 183.954737 55.044312 184.308904 55.825562 C 184.668279 56.596395 185.064112 57.158896 185.501612 57.513062 C 185.949529 57.872437 186.340154 58.216187 186.673487 58.549521 C 187.006821 58.872437 187.173487 59.434937 187.173487 60.242229 C 187.173487 60.940146 186.902654 61.414104 186.360987 61.653687 C 185.824529 61.882854 185.058904 61.997437 184.06932 61.997437 L 173.959945 61.997437 C 172.970361 61.997437 172.178695 61.872437 171.579736 61.622437 C 170.991194 61.356812 170.699528 60.872437 170.699528 60.169312 C 170.699528 59.414104 170.876611 58.872437 171.235986 58.549521 C 171.590153 58.216187 172.00682 57.872437 172.47557 57.513062 C 172.949528 57.158896 173.355778 56.596395 173.699528 55.825562 C 174.058903 55.044312 174.235986 53.83077 174.235986 52.184937 L 174.235986 38.747436 C 174.235986 37.757853 174.048486 36.924519 173.668278 36.242227 C 173.298486 35.565144 172.75682 34.966186 172.043278 34.450561 C 171.725569 34.210977 171.418278 33.940144 171.131819 33.638061 C 170.845361 33.330769 170.699528 32.940144 170.699528 32.466186 C 170.699528 31.903686 170.866194 31.455769 171.199528 31.122435 C 171.532861 30.789102 172.121403 30.434935 172.959945 30.070352 C 173.855778 29.643269 174.855778 29.226602 175.959945 28.82556 C 177.074528 28.424519 178.116195 28.096394 179.084945 27.841185 C 180.048487 27.580769 180.715153 27.445352 181.084945 27.445352 C 182.22557 27.445352 182.793279 28.153685 182.793279 29.570352 L 182.793279 33.742227 C 184.105779 31.570352 185.63182 29.966185 187.381821 28.929727 C 189.131821 27.893269 190.850571 27.377644 192.538071 27.377644 Z M 240.022449 56.565145 C 240.918282 56.565145 241.366199 56.960979 241.366199 57.757854 C 241.366199 58.559937 240.985991 59.330771 240.230782 60.070354 C 239.480782 60.794312 238.548491 61.388062 237.433907 61.862021 C 236.32974 62.335979 235.215157 62.570354 234.084949 62.570354 C 231.121407 62.570354 229.121407 60.825562 228.084948 57.341187 C 226.428698 59.169312 224.480781 60.513062 222.235989 61.362021 C 220.006823 62.210979 217.829739 62.638063 215.715156 62.638063 C 213.126614 62.638063 210.85578 62.179729 208.902655 61.257854 C 206.944322 60.335979 205.433905 59.091187 204.366197 57.513062 C 203.303697 55.940145 202.777655 54.184937 202.777655 52.252645 C 202.777655 48.86202 204.189113 46.070353 207.022447 43.888061 C 209.850572 41.690144 213.762031 40.591186 218.751614 40.591186 C 219.694323 40.591186 220.574531 40.638061 221.392239 40.731811 C 222.220364 40.820353 223.225573 40.966186 224.407865 41.158894 C 223.98599 39.653686 223.491198 38.304728 222.92349 37.106811 C 222.360989 35.898477 221.584948 34.945352 220.595364 34.242227 C 219.605781 33.528686 218.215156 33.174519 216.423489 33.174519 C 214.824531 33.174519 213.303697 33.455769 211.866197 34.018269 C 210.428697 34.580769 209.07453 35.221394 207.798489 35.934936 C 207.142238 36.346394 206.553697 36.346394 206.038072 35.934936 C 205.517238 35.507852 205.517238 34.846394 206.038072 33.950561 C 206.647447 32.960977 207.60578 31.960977 208.91828 30.95056 C 210.241197 29.934935 211.845364 29.091185 213.730781 28.414102 C 215.616197 27.721394 217.694323 27.377644 219.959948 27.377644 C 222.970365 27.377644 225.345365 27.98181 227.084948 29.190144 C 228.82974 30.382852 230.163073 31.903686 231.084948 33.742227 C 232.006823 35.570352 232.725574 37.476603 233.241199 39.450561 L 236.694324 52.73702 C 237.069324 54.195354 237.532865 55.216187 238.074532 55.789104 C 238.610991 56.351604 239.262032 56.61202 240.022449 56.565145 Z M 219.527656 57.684937 C 220.850573 57.684937 222.110989 57.419312 223.303698 56.877645 C 224.512031 56.335979 225.45474 55.627645 226.137031 54.752645 C 226.824531 53.882854 227.069323 52.971395 226.876615 52.028687 C 226.782865 51.419312 226.595365 50.669312 226.308906 49.783895 C 226.032865 48.888062 225.725573 47.825562 225.39224 46.596395 C 225.163073 45.789103 224.465156 45.20577 223.303698 44.835978 C 222.157864 44.45577 221.017239 44.26827 219.892239 44.26827 C 217.392239 44.26827 215.439114 44.856811 214.022447 46.044311 C 212.610989 47.216187 211.902655 48.76827 211.902655 50.700562 C 211.94953 52.726604 212.652656 54.398479 214.006822 55.721395 C 215.376614 57.033895 217.215156 57.684937 219.527656 57.684937 Z M 247.715158 52.184937 L 247.647449 23.632852 C 247.647449 22.403685 247.480783 21.471393 247.147449 20.841185 C 246.824533 20.205768 246.439116 19.710976 245.991199 19.35681 C 245.543283 18.997435 245.142241 18.66931 244.782866 18.372435 C 244.439116 18.059935 244.267241 17.648476 244.267241 17.127643 C 244.267241 16.658893 244.428699 16.273476 244.751616 15.976601 C 245.084949 15.664101 245.673491 15.320351 246.527658 14.940143 C 247.517241 14.466184 248.642241 13.997434 249.907866 13.523476 C 251.183908 13.054726 252.360991 12.658893 253.444325 12.335976 C 254.527658 12.002643 255.256825 11.835976 255.637033 11.835976 C 256.762033 11.835976 257.324533 12.539101 257.324533 13.955768 L 257.256825 23.632852 L 257.256825 52.184937 C 257.256825 53.83077 257.433908 55.044312 257.793283 55.825562 C 258.14745 56.596395 258.543284 57.158896 258.980784 57.513062 C 259.4287 57.872437 259.819325 58.216187 260.152659 58.549521 C 260.485992 58.872437 260.652659 59.434937 260.652659 60.242229 C 260.652659 60.940146 260.387034 61.414104 259.845367 61.653687 C 259.3037 61.882854 258.538075 61.997437 257.548492 61.997437 L 247.439116 61.997437 C 246.449533 61.997437 245.657866 61.872437 245.058908 61.622437 C 244.475574 61.356812 244.178699 60.872437 244.178699 60.169312 C 244.178699 59.414104 244.360991 58.872437 244.715158 58.549521 C 245.069324 58.216187 245.485991 57.872437 245.954741 57.513062 C 246.428699 57.158896 246.834949 56.596395 247.183908 55.825562 C 247.538074 55.044312 247.715158 53.83077 247.715158 52.184937 Z M 304.527662 62.705771 C 299.72037 62.705771 295.475578 61.705771 291.798494 59.705771 C 288.126619 57.705771 285.262035 54.882854 283.189118 51.23702 C 281.12141 47.58077 280.084952 43.252645 280.084952 38.263061 C 280.084952 34.580769 280.730785 31.153685 282.017243 27.98181 C 283.314118 24.79431 285.131827 21.987018 287.470369 19.565143 C 289.803702 17.13806 292.532869 15.242226 295.663078 13.888059 C 298.788078 12.518268 302.194328 11.835976 305.87662 11.835976 C 308.084953 11.835976 309.860995 12.033893 311.204745 12.440143 C 312.548495 12.830768 313.647454 13.023476 314.501621 13.023476 C 315.387037 13.023476 316.053704 12.841184 316.501621 12.471393 C 316.949537 12.091184 317.574537 11.903684 318.381829 11.903684 C 319.038079 11.903684 319.579746 12.148476 320.001621 12.643268 C 320.428704 13.138059 320.855788 14.138059 321.277663 15.648476 C 321.657871 16.877643 322.032871 18.268268 322.402663 19.820351 C 322.782871 21.372435 323.137038 23.205768 323.470371 25.32556 C 323.610996 26.268268 323.569329 27.007852 323.350579 27.549519 C 323.142246 28.091185 322.642246 28.408894 321.850579 28.497435 C 321.090163 28.554727 320.485996 28.315144 320.038079 27.773477 C 319.590163 27.221394 319.012038 26.429727 318.314121 25.393268 C 316.715162 23.033893 314.829746 20.976601 312.652662 19.216185 C 310.491204 17.445351 307.850578 16.559935 304.735995 16.559935 C 301.725578 16.559935 299.131828 17.330768 296.954744 18.872435 C 294.793286 20.403685 293.137036 22.460977 291.985994 25.049518 C 290.840161 27.63806 290.262036 30.554727 290.262036 33.809936 C 290.262036 37.862019 290.965161 41.601603 292.366202 45.044311 C 293.782869 48.481812 295.803703 51.23702 298.439119 53.304729 C 301.084953 55.377645 304.246412 56.408895 307.928703 56.408895 C 310.850579 56.408895 313.413079 55.825562 315.621412 54.653687 C 317.840162 53.476604 319.887038 51.872437 321.762038 49.835978 C 322.340163 49.226603 322.897454 48.997437 323.433913 49.148478 C 323.975579 49.283895 324.35058 49.648478 324.558913 50.23702 C 324.777663 50.820353 324.673496 51.492228 324.246413 52.252645 C 323.397454 54.033895 322.027663 55.731812 320.142246 57.341187 C 318.256829 58.940146 315.996412 60.237021 313.360995 61.221396 C 310.725579 62.210979 307.78287 62.705771 304.527662 62.705771 Z M 335.043289 23.497435 C 333.735997 23.45056 332.689122 23.01306 331.907872 22.184935 C 331.137038 21.35681 330.772455 20.35681 330.81933 19.184935 C 330.866205 18.101601 331.251622 17.033893 331.97558 15.976601 C 332.709955 14.903684 333.642247 14.044309 334.767247 13.388059 C 335.897455 12.731809 337.053705 12.424518 338.235997 12.471393 C 339.501622 12.518268 340.558914 12.966184 341.413081 13.820351 C 342.262039 14.658893 342.689122 15.690143 342.689122 16.924518 C 342.642247 18.049518 342.241206 19.117226 341.480789 20.132851 C 340.730789 21.143268 339.777664 21.960977 338.616205 22.580768 C 337.465164 23.190143 336.277664 23.497435 335.043289 23.497435 Z M 332.647455 52.184937 L 332.647455 39.247436 C 332.647455 38.028686 332.480788 37.101603 332.147455 36.466186 C 331.824538 35.825561 331.439122 35.330769 330.991205 34.987019 C 330.543288 34.627644 330.142247 34.294311 329.782872 33.981811 C 329.439122 33.674519 329.267247 33.257852 329.267247 32.742227 C 329.267247 32.226602 329.418288 31.815144 329.715163 31.518269 C 330.027663 31.205769 330.605788 30.862019 331.454747 30.48181 C 332.44433 30.01306 333.584955 29.549519 334.871414 29.101602 C 336.173497 28.653685 337.360997 28.268269 338.44433 27.945352 C 339.522456 27.612019 340.256831 27.445352 340.637039 27.445352 C 341.715164 27.398477 342.256831 28.10681 342.256831 29.570352 L 342.189122 39.247436 L 342.189122 52.184937 C 342.189122 53.83077 342.366206 55.044312 342.720372 55.825562 C 343.079747 56.596395 343.475581 57.158896 343.913081 57.513062 C 344.360997 57.872437 344.762039 58.216187 345.121414 58.549521 C 345.475581 58.872437 345.652664 59.434937 345.652664 60.242229 C 345.652664 60.940146 345.371414 61.414104 344.808914 61.653687 C 344.246414 61.882854 343.491206 61.997437 342.548497 61.997437 L 332.439122 61.997437 C 331.407872 61.997437 330.60058 61.872437 330.027663 61.622437 C 329.459955 61.356812 329.178705 60.872437 329.178705 60.169312 C 329.178705 59.414104 329.355788 58.872437 329.715163 58.549521 C 330.06933 58.216187 330.47558 57.872437 330.923497 57.513062 C 331.371413 57.158896 331.767247 56.596395 332.110997 55.825562 C 332.470372 55.044312 332.647455 53.83077 332.647455 52.184937 Z M 371.788083 54.013062 C 372.454749 53.497437 373.022458 53.42452 373.496416 53.804729 C 373.965166 54.184937 374.079749 54.747437 373.840166 55.497437 C 373.517249 56.533895 372.887041 57.617229 371.944333 58.757854 C 371.001624 59.882854 369.798499 60.825562 368.334957 61.585979 C 366.876624 62.335979 365.157874 62.705771 363.178707 62.705771 C 360.017249 62.705771 357.548498 61.742229 355.777665 59.809937 C 354.017248 57.877646 353.13704 55.122437 353.13704 51.544312 L 353.13704 47.872437 C 353.13704 44.710978 353.163081 41.820353 353.209956 39.210978 C 353.251623 36.601602 353.298498 34.377644 353.345373 32.533894 L 351.44954 32.533894 C 350.506831 32.533894 349.85579 32.388061 349.496415 32.085977 C 349.142248 31.778686 348.965164 31.309935 348.965164 30.690144 C 348.965164 30.273477 349.043289 29.85681 349.204748 29.429727 C 349.376623 29.002644 349.652665 28.627644 350.032873 28.289102 C 351.35579 26.924519 352.803706 25.60681 354.381831 24.341185 C 355.954748 23.065143 357.475582 21.976602 358.933915 21.080768 C 359.741207 20.60681 360.32454 20.32556 360.694332 20.237018 C 361.07454 20.143268 361.360999 20.096393 361.558915 20.096393 C 362.07454 20.096393 362.470374 20.299518 362.746415 20.70056 C 363.032874 21.101601 363.157874 21.565143 363.110999 22.080768 C 363.006832 23.023477 362.933915 23.992227 362.88704 24.98181 C 362.840165 25.966185 362.79329 27.002644 362.746415 28.085977 L 369.751624 28.085977 C 370.407874 28.085977 370.970374 28.226602 371.444333 28.518269 C 371.913083 28.79431 372.027666 29.471394 371.788083 30.549519 C 371.600583 31.585977 371.230791 32.257852 370.663083 32.570352 C 370.100583 32.882852 369.465166 33.013061 368.751624 32.966186 L 362.678707 32.742227 C 362.678707 34.674519 362.678707 36.877644 362.678707 39.351603 C 362.678707 41.820353 362.657874 44.664103 362.610999 47.872437 C 362.564124 51.023478 362.834957 53.179729 363.41829 54.341187 C 364.006832 55.492229 365.105791 56.065145 366.715166 56.065145 C 367.647457 56.065145 368.538082 55.86202 369.387041 55.460979 C 370.241208 55.059937 371.038083 54.575562 371.788083 54.013062 Z M 406.980793 28.085977 L 411.861002 28.085977 C 412.89746 28.085977 413.694335 28.216185 414.262044 28.48181 C 414.824544 28.73181 415.105794 29.190144 415.105794 29.846394 C 415.105794 30.51306 414.939127 31.023477 414.605794 31.377644 C 414.282877 31.726602 413.861002 32.075561 413.345377 32.429727 C 412.829752 32.789102 412.27246 33.335977 411.673502 34.070352 C 411.08496 34.794311 410.512044 35.882852 409.949543 37.330769 L 400.975585 60.377646 C 399.699543 63.726604 398.402668 66.632854 397.079751 69.106813 C 395.767251 71.580771 394.189126 73.481813 392.350584 74.815147 C 390.512042 76.164105 388.137042 76.83598 385.225584 76.83598 C 383.76725 76.83598 382.387042 76.575563 381.084958 76.059938 C 379.788083 75.544313 378.736 74.799522 377.928708 73.83598 C 377.137041 72.86723 376.741208 71.700563 376.741208 70.330771 C 376.741208 69.112021 377.126625 67.997438 377.897458 66.987021 C 378.678708 65.971396 379.777666 65.445354 381.189125 65.398479 C 382.225583 65.398479 383.022458 65.716188 383.590167 66.346396 C 384.152667 66.981813 384.657875 67.721396 385.105792 68.570355 C 385.553709 69.424521 386.0485 70.164105 386.590167 70.799521 C 387.14225 71.42973 387.881834 71.747438 388.814125 71.747438 C 389.95475 71.747438 390.897459 71.122438 391.642251 69.86723 C 392.402667 68.622438 392.782876 67.158896 392.782876 65.466188 C 392.782876 64.664104 392.683917 63.867229 392.491209 63.085979 C 392.303709 62.315146 392.048501 61.549521 391.715167 60.794312 L 382.397458 37.263061 C 381.834958 35.856811 381.241208 34.794311 380.621417 34.070352 C 380.012042 33.335977 379.459958 32.789102 378.965166 32.429727 C 378.470375 32.075561 378.053708 31.726602 377.720375 31.377644 C 377.402666 31.023477 377.241208 30.51306 377.241208 29.846394 C 377.241208 29.143269 377.522458 28.674519 378.084958 28.445352 C 378.647458 28.205769 379.402666 28.085977 380.345375 28.085977 L 391.090167 28.085977 C 392.079751 28.085977 392.855792 28.216185 393.423501 28.48181 C 393.986001 28.73181 394.267251 29.190144 394.267251 29.846394 C 394.267251 30.51306 394.074542 31.023477 393.694334 31.377644 C 393.319334 31.726602 392.928709 32.075561 392.522459 32.429727 C 392.131834 32.789102 391.887042 33.335977 391.782876 34.070352 C 391.689126 34.794311 391.923501 35.882852 392.491209 37.330769 L 399.064126 54.148479 L 405.42871 37.330769 C 405.99121 35.882852 406.236002 34.794311 406.168293 34.070352 C 406.100585 33.335977 405.876627 32.789102 405.496418 32.429727 C 405.11621 32.075561 404.751626 31.726602 404.392251 31.377644 C 404.048501 31.023477 403.876626 30.51306 403.876626 29.846394 C 403.876626 29.143269 404.157876 28.674519 404.720376 28.445352 C 405.282877 28.205769 406.038085 28.085977 406.980793 28.085977 Z M 406.980793 28.085977 " stroke="#000000" stroke-width="3.091668" stroke-opacity="1" stroke-miterlimit="4"/><g fill="#3a5f7d" fill-opacity="1"><g transform="translate(30.838644, 174.599578)"><g><path d="M 41.875 -30.15625 L 42.609375 -7.796875 C 42.679688 -6.585938 42.894531 -5.707031 43.25 -5.15625 C 43.601562 -4.613281 44.007812 -4.203125 44.46875 -3.921875 C 44.925781 -3.640625 45.320312 -3.347656 45.65625 -3.046875 C 45.988281 -2.742188 46.15625 -2.238281 46.15625 -1.53125 C 46.15625 -0.96875 45.941406 -0.570312 45.515625 -0.34375 C 45.097656 -0.113281 44.378906 0 43.359375 0 L 35.1875 0 C 34.164062 0 33.425781 -0.113281 32.96875 -0.34375 C 32.507812 -0.570312 32.28125 -0.96875 32.28125 -1.53125 C 32.28125 -2.164062 32.425781 -2.640625 32.71875 -2.953125 C 33.019531 -3.273438 33.375 -3.585938 33.78125 -3.890625 C 34.1875 -4.191406 34.539062 -4.625 34.84375 -5.1875 C 35.144531 -5.757812 35.296875 -6.628906 35.296875 -7.796875 L 34.875 -27.828125 L 23.6875 -3.703125 C 23.476562 -3.242188 23.238281 -2.910156 22.96875 -2.703125 C 22.707031 -2.492188 22.3125 -2.316406 21.78125 -2.171875 C 20.6875 -1.960938 20 -2.265625 19.71875 -3.078125 L 9.4375 -27.5 L 8.75 -6.625 C 8.707031 -5.738281 8.816406 -5.039062 9.078125 -4.53125 C 9.347656 -4.019531 9.660156 -3.625 10.015625 -3.34375 C 10.367188 -3.0625 10.6875 -2.773438 10.96875 -2.484375 C 11.25 -2.203125 11.390625 -1.832031 11.390625 -1.375 C 11.390625 -0.8125 11.1875 -0.445312 10.78125 -0.28125 C 10.375 -0.125 9.765625 -0.046875 8.953125 -0.046875 L 4.234375 -0.046875 C 3.359375 -0.046875 2.722656 -0.144531 2.328125 -0.34375 C 1.941406 -0.539062 1.75 -0.90625 1.75 -1.4375 C 1.75 -1.851562 1.898438 -2.203125 2.203125 -2.484375 C 2.503906 -2.773438 2.859375 -3.0625 3.265625 -3.34375 C 3.671875 -3.625 4.039062 -4.019531 4.375 -4.53125 C 4.707031 -5.039062 4.890625 -5.738281 4.921875 -6.625 L 5.9375 -30.15625 C 5.96875 -31.113281 5.84375 -31.835938 5.5625 -32.328125 C 5.28125 -32.828125 4.9375 -33.21875 4.53125 -33.5 C 4.125 -33.78125 3.757812 -34.070312 3.4375 -34.375 C 3.125 -34.675781 2.96875 -35.085938 2.96875 -35.609375 C 2.96875 -36.179688 3.171875 -36.570312 3.578125 -36.78125 C 3.984375 -36.988281 4.628906 -37.09375 5.515625 -37.09375 L 11.65625 -37.09375 C 12.644531 -37.09375 13.316406 -36.65625 13.671875 -35.78125 L 23.640625 -12.40625 L 34.453125 -35.71875 C 34.878906 -36.632812 35.550781 -37.09375 36.46875 -37.09375 L 42.296875 -37.09375 C 43.210938 -37.09375 43.863281 -36.988281 44.25 -36.78125 C 44.644531 -36.570312 44.84375 -36.179688 44.84375 -35.609375 C 44.84375 -35.085938 44.679688 -34.679688 44.359375 -34.390625 C 44.046875 -34.109375 43.6875 -33.828125 43.28125 -33.546875 C 42.875 -33.265625 42.523438 -32.875 42.234375 -32.375 C 41.953125 -31.882812 41.832031 -31.144531 41.875 -30.15625 Z M 41.875 -30.15625 "/></g></g></g><g fill="#3a5f7d" fill-opacity="1"><g transform="translate(78.637625, 174.599578)"><g><path d="M 6.3125 -28.890625 C 5.320312 -28.921875 4.535156 -29.242188 3.953125 -29.859375 C 3.367188 -30.484375 3.09375 -31.238281 3.125 -32.125 C 3.164062 -32.9375 3.457031 -33.738281 4 -34.53125 C 4.550781 -35.320312 5.25 -35.960938 6.09375 -36.453125 C 6.9375 -36.953125 7.800781 -37.1875 8.6875 -37.15625 C 9.644531 -37.113281 10.441406 -36.773438 11.078125 -36.140625 C 11.710938 -35.503906 12.03125 -34.726562 12.03125 -33.8125 C 12 -32.96875 11.695312 -32.164062 11.125 -31.40625 C 10.5625 -30.644531 9.847656 -30.035156 8.984375 -29.578125 C 8.117188 -29.117188 7.226562 -28.890625 6.3125 -28.890625 Z M 4.5 -7.359375 L 4.5 -17.0625 C 4.5 -17.976562 4.375 -18.675781 4.125 -19.15625 C 3.882812 -19.632812 3.59375 -20.003906 3.25 -20.265625 C 2.914062 -20.535156 2.617188 -20.785156 2.359375 -21.015625 C 2.097656 -21.242188 1.96875 -21.550781 1.96875 -21.9375 C 1.96875 -22.332031 2.082031 -22.644531 2.3125 -22.875 C 2.539062 -23.101562 2.972656 -23.359375 3.609375 -23.640625 C 4.347656 -23.992188 5.203125 -24.335938 6.171875 -24.671875 C 7.140625 -25.003906 8.03125 -25.296875 8.84375 -25.546875 C 9.65625 -25.796875 10.207031 -25.921875 10.5 -25.921875 C 11.3125 -25.953125 11.71875 -25.421875 11.71875 -24.328125 L 11.65625 -17.0625 L 11.65625 -7.359375 C 11.65625 -6.128906 11.785156 -5.222656 12.046875 -4.640625 C 12.316406 -4.054688 12.617188 -3.628906 12.953125 -3.359375 C 13.296875 -3.097656 13.597656 -2.84375 13.859375 -2.59375 C 14.117188 -2.34375 14.25 -1.921875 14.25 -1.328125 C 14.25 -0.796875 14.035156 -0.441406 13.609375 -0.265625 C 13.191406 -0.0859375 12.628906 0 11.921875 0 L 4.34375 0 C 3.570312 0 2.972656 -0.09375 2.546875 -0.28125 C 2.117188 -0.476562 1.90625 -0.84375 1.90625 -1.375 C 1.90625 -1.9375 2.035156 -2.34375 2.296875 -2.59375 C 2.566406 -2.84375 2.867188 -3.097656 3.203125 -3.359375 C 3.535156 -3.628906 3.832031 -4.054688 4.09375 -4.640625 C 4.363281 -5.222656 4.5 -6.128906 4.5 -7.359375 Z M 4.5 -7.359375 "/></g></g></g><g fill="#3a5f7d" fill-opacity="1"><g transform="translate(94.588285, 174.599578)"><g><path d="M 29.25 -15.046875 L 31.0625 -5.984375 C 31.238281 -5.171875 31.472656 -4.550781 31.765625 -4.125 C 32.066406 -3.707031 32.375 -3.375 32.6875 -3.125 C 33.007812 -2.875 33.285156 -2.625 33.515625 -2.375 C 33.742188 -2.132812 33.859375 -1.785156 33.859375 -1.328125 C 33.859375 -0.796875 33.644531 -0.441406 33.21875 -0.265625 C 32.800781 -0.0859375 32.238281 0 31.53125 0 L 24.109375 0 C 23.367188 0 22.785156 -0.09375 22.359375 -0.28125 C 21.941406 -0.476562 21.734375 -0.84375 21.734375 -1.375 C 21.734375 -1.800781 21.863281 -2.144531 22.125 -2.40625 C 22.394531 -2.675781 22.695312 -2.957031 23.03125 -3.25 C 23.363281 -3.550781 23.617188 -3.941406 23.796875 -4.421875 C 23.972656 -4.898438 23.972656 -5.5625 23.796875 -6.40625 L 22.15625 -14.78125 C 21.945312 -15.914062 21.664062 -16.984375 21.3125 -17.984375 C 20.957031 -18.992188 20.441406 -19.816406 19.765625 -20.453125 C 19.097656 -21.085938 18.179688 -21.390625 17.015625 -21.359375 C 15.597656 -21.359375 14.347656 -20.738281 13.265625 -19.5 C 12.191406 -18.269531 11.65625 -16.488281 11.65625 -14.15625 L 11.65625 -7.359375 C 11.65625 -6.128906 11.785156 -5.222656 12.046875 -4.640625 C 12.316406 -4.054688 12.617188 -3.628906 12.953125 -3.359375 C 13.296875 -3.097656 13.585938 -2.84375 13.828125 -2.59375 C 14.078125 -2.34375 14.203125 -1.921875 14.203125 -1.328125 C 14.203125 -0.796875 14 -0.441406 13.59375 -0.265625 C 13.1875 -0.0859375 12.613281 0 11.875 0 L 4.296875 0 C 3.554688 0 2.960938 -0.09375 2.515625 -0.28125 C 2.078125 -0.476562 1.859375 -0.84375 1.859375 -1.375 C 1.859375 -1.9375 1.988281 -2.34375 2.25 -2.59375 C 2.519531 -2.84375 2.828125 -3.097656 3.171875 -3.359375 C 3.523438 -3.628906 3.832031 -4.054688 4.09375 -4.640625 C 4.363281 -5.222656 4.5 -6.128906 4.5 -7.359375 L 4.5 -17.4375 C 4.5 -18.175781 4.359375 -18.800781 4.078125 -19.3125 C 3.796875 -19.832031 3.390625 -20.285156 2.859375 -20.671875 C 2.609375 -20.847656 2.378906 -21.050781 2.171875 -21.28125 C 1.960938 -21.507812 1.859375 -21.800781 1.859375 -22.15625 C 1.859375 -22.582031 1.976562 -22.914062 2.21875 -23.15625 C 2.46875 -23.40625 2.910156 -23.671875 3.546875 -23.953125 C 4.222656 -24.273438 4.972656 -24.582031 5.796875 -24.875 C 6.628906 -25.175781 7.40625 -25.425781 8.125 -25.625 C 8.851562 -25.820312 9.359375 -25.921875 9.640625 -25.921875 C 10.492188 -25.921875 10.921875 -25.390625 10.921875 -24.328125 L 10.921875 -21.140625 C 11.941406 -22.734375 13.210938 -23.9375 14.734375 -24.75 C 16.253906 -25.5625 17.863281 -25.96875 19.5625 -25.96875 C 21.570312 -25.96875 23.203125 -25.539062 24.453125 -24.6875 C 25.710938 -23.84375 26.710938 -22.609375 27.453125 -20.984375 C 28.191406 -19.359375 28.789062 -17.378906 29.25 -15.046875 Z M 29.25 -15.046875 "/></g></g></g><g fill="#3a5f7d" fill-opacity="1"><g transform="translate(128.662288, 174.599578)"><g><path d="M 25.171875 -8.109375 C 25.703125 -8.640625 26.1875 -8.742188 26.625 -8.421875 C 27.070312 -8.109375 27.15625 -7.5625 26.875 -6.78125 C 26.519531 -5.789062 25.800781 -4.726562 24.71875 -3.59375 C 23.644531 -2.46875 22.238281 -1.5 20.5 -0.6875 C 18.769531 0.125 16.722656 0.53125 14.359375 0.53125 C 11.847656 0.53125 9.644531 0 7.75 -1.0625 C 5.863281 -2.125 4.390625 -3.597656 3.328125 -5.484375 C 2.273438 -7.378906 1.75 -9.523438 1.75 -11.921875 C 1.75 -14.640625 2.375 -17.054688 3.625 -19.171875 C 4.882812 -21.296875 6.554688 -22.957031 8.640625 -24.15625 C 10.722656 -25.363281 13 -25.96875 15.46875 -25.96875 C 17.59375 -25.96875 19.414062 -25.585938 20.9375 -24.828125 C 22.457031 -24.066406 23.65625 -23.050781 24.53125 -21.78125 C 25.414062 -20.507812 25.984375 -19.113281 26.234375 -17.59375 C 26.410156 -16.675781 26.003906 -15.988281 25.015625 -15.53125 C 22.328125 -14.332031 19.804688 -13.269531 17.453125 -12.34375 C 15.109375 -11.425781 12.5625 -10.457031 9.8125 -9.4375 C 10.375 -8.226562 11.269531 -7.117188 12.5 -6.109375 C 13.738281 -5.109375 15.382812 -4.609375 17.4375 -4.609375 C 19.0625 -4.609375 20.519531 -4.960938 21.8125 -5.671875 C 23.101562 -6.378906 24.222656 -7.191406 25.171875 -8.109375 Z M 13.140625 -22.46875 C 11.617188 -22.289062 10.453125 -21.554688 9.640625 -20.265625 C 8.828125 -18.984375 8.421875 -17.492188 8.421875 -15.796875 C 8.421875 -14.523438 8.5625 -13.410156 8.84375 -12.453125 C 10.40625 -12.984375 11.9375 -13.519531 13.4375 -14.0625 C 14.9375 -14.613281 16.394531 -15.191406 17.8125 -15.796875 C 18.269531 -16.003906 18.628906 -16.25 18.890625 -16.53125 C 19.160156 -16.8125 19.207031 -17.289062 19.03125 -17.96875 C 18.675781 -19.519531 17.921875 -20.71875 16.765625 -21.5625 C 15.617188 -22.414062 14.410156 -22.71875 13.140625 -22.46875 Z M 13.140625 -22.46875 "/></g></g></g><g fill="#3a5f7d" fill-opacity="1"><g transform="translate(157.013124, 174.599578)"><g><path d="M 18.234375 -25.96875 C 19.753906 -25.96875 20.921875 -25.535156 21.734375 -24.671875 C 22.546875 -23.804688 22.953125 -22.71875 22.953125 -21.40625 C 22.953125 -20.351562 22.703125 -19.503906 22.203125 -18.859375 C 21.710938 -18.222656 21.097656 -17.890625 20.359375 -17.859375 C 19.710938 -17.859375 19.195312 -18 18.8125 -18.28125 C 18.425781 -18.5625 18.09375 -18.878906 17.8125 -19.234375 C 17.53125 -19.585938 17.203125 -19.90625 16.828125 -20.1875 C 16.453125 -20.46875 15.945312 -20.609375 15.3125 -20.609375 C 14.363281 -20.609375 13.515625 -20.078125 12.765625 -19.015625 C 12.023438 -17.960938 11.65625 -16.460938 11.65625 -14.515625 L 11.65625 -7.359375 C 11.65625 -6.128906 11.785156 -5.222656 12.046875 -4.640625 C 12.316406 -4.054688 12.617188 -3.628906 12.953125 -3.359375 C 13.296875 -3.097656 13.585938 -2.84375 13.828125 -2.59375 C 14.078125 -2.34375 14.203125 -1.921875 14.203125 -1.328125 C 14.203125 -0.796875 14 -0.441406 13.59375 -0.265625 C 13.1875 -0.0859375 12.613281 0 11.875 0 L 4.296875 0 C 3.554688 0 2.960938 -0.09375 2.515625 -0.28125 C 2.078125 -0.476562 1.859375 -0.84375 1.859375 -1.375 C 1.859375 -1.9375 1.988281 -2.34375 2.25 -2.59375 C 2.519531 -2.84375 2.828125 -3.097656 3.171875 -3.359375 C 3.523438 -3.628906 3.832031 -4.054688 4.09375 -4.640625 C 4.363281 -5.222656 4.5 -6.128906 4.5 -7.359375 L 4.5 -17.4375 C 4.5 -18.175781 4.359375 -18.800781 4.078125 -19.3125 C 3.796875 -19.832031 3.390625 -20.285156 2.859375 -20.671875 C 2.609375 -20.847656 2.378906 -21.050781 2.171875 -21.28125 C 1.960938 -21.507812 1.859375 -21.800781 1.859375 -22.15625 C 1.859375 -22.582031 1.976562 -22.914062 2.21875 -23.15625 C 2.46875 -23.40625 2.910156 -23.671875 3.546875 -23.953125 C 4.222656 -24.273438 4.972656 -24.582031 5.796875 -24.875 C 6.628906 -25.175781 7.40625 -25.425781 8.125 -25.625 C 8.851562 -25.820312 9.359375 -25.921875 9.640625 -25.921875 C 10.492188 -25.921875 10.921875 -25.390625 10.921875 -24.328125 L 10.921875 -21.203125 C 11.910156 -22.828125 13.054688 -24.023438 14.359375 -24.796875 C 15.671875 -25.578125 16.960938 -25.96875 18.234375 -25.96875 Z M 18.234375 -25.96875 "/></g></g></g><g fill="#3a5f7d" fill-opacity="1"><g transform="translate(181.60152, 174.599578)"><g><path d="M 29.25 -4.078125 C 29.925781 -4.078125 30.265625 -3.78125 30.265625 -3.1875 C 30.265625 -2.582031 29.976562 -2.003906 29.40625 -1.453125 C 28.84375 -0.910156 28.144531 -0.460938 27.3125 -0.109375 C 26.488281 0.242188 25.648438 0.421875 24.796875 0.421875 C 22.578125 0.421875 21.078125 -0.882812 20.296875 -3.5 C 19.054688 -2.125 17.597656 -1.113281 15.921875 -0.46875 C 14.242188 0.164062 12.613281 0.484375 11.03125 0.484375 C 9.082031 0.484375 7.375 0.140625 5.90625 -0.546875 C 4.4375 -1.242188 3.304688 -2.179688 2.515625 -3.359375 C 1.722656 -4.546875 1.328125 -5.863281 1.328125 -7.3125 C 1.328125 -9.851562 2.382812 -11.945312 4.5 -13.59375 C 6.625 -15.238281 9.554688 -16.0625 13.296875 -16.0625 C 14.003906 -16.0625 14.664062 -16.023438 15.28125 -15.953125 C 15.90625 -15.878906 16.660156 -15.773438 17.546875 -15.640625 C 17.222656 -16.765625 16.847656 -17.773438 16.421875 -18.671875 C 16.003906 -19.578125 15.421875 -20.296875 14.671875 -20.828125 C 13.929688 -21.359375 12.890625 -21.625 11.546875 -21.625 C 10.347656 -21.625 9.207031 -21.410156 8.125 -20.984375 C 7.050781 -20.566406 6.039062 -20.09375 5.09375 -19.5625 C 4.59375 -19.238281 4.148438 -19.234375 3.765625 -19.546875 C 3.378906 -19.867188 3.378906 -20.367188 3.765625 -21.046875 C 4.222656 -21.785156 4.945312 -22.535156 5.9375 -23.296875 C 6.925781 -24.054688 8.125 -24.691406 9.53125 -25.203125 C 10.945312 -25.710938 12.503906 -25.96875 14.203125 -25.96875 C 16.460938 -25.96875 18.242188 -25.515625 19.546875 -24.609375 C 20.859375 -23.710938 21.859375 -22.578125 22.546875 -21.203125 C 23.234375 -19.828125 23.773438 -18.394531 24.171875 -16.90625 L 26.765625 -6.9375 C 27.046875 -5.84375 27.390625 -5.082031 27.796875 -4.65625 C 28.203125 -4.238281 28.6875 -4.046875 29.25 -4.078125 Z M 13.890625 -3.234375 C 14.878906 -3.234375 15.820312 -3.4375 16.71875 -3.84375 C 17.625 -4.25 18.332031 -4.773438 18.84375 -5.421875 C 19.351562 -6.078125 19.535156 -6.757812 19.390625 -7.46875 C 19.328125 -7.925781 19.1875 -8.488281 18.96875 -9.15625 C 18.757812 -9.832031 18.53125 -10.628906 18.28125 -11.546875 C 18.101562 -12.148438 17.582031 -12.59375 16.71875 -12.875 C 15.851562 -13.15625 15 -13.296875 14.15625 -13.296875 C 12.28125 -13.296875 10.8125 -12.851562 9.75 -11.96875 C 8.6875 -11.09375 8.15625 -9.929688 8.15625 -8.484375 C 8.195312 -6.960938 8.726562 -5.707031 9.75 -4.71875 C 10.769531 -3.726562 12.148438 -3.234375 13.890625 -3.234375 Z M 13.890625 -3.234375 "/></g></g></g><g fill="#3a5f7d" fill-opacity="1"><g transform="translate(212.072042, 174.599578)"><g><path d="M 4.5625 -7.359375 L 4.5 -28.78125 C 4.5 -29.695312 4.375 -30.394531 4.125 -30.875 C 3.882812 -31.351562 3.59375 -31.722656 3.25 -31.984375 C 2.914062 -32.253906 2.617188 -32.503906 2.359375 -32.734375 C 2.097656 -32.960938 1.96875 -33.269531 1.96875 -33.65625 C 1.96875 -34.007812 2.085938 -34.300781 2.328125 -34.53125 C 2.578125 -34.757812 3.019531 -35.015625 3.65625 -35.296875 C 4.394531 -35.648438 5.238281 -36.003906 6.1875 -36.359375 C 7.144531 -36.710938 8.03125 -37.007812 8.84375 -37.25 C 9.65625 -37.5 10.207031 -37.625 10.5 -37.625 C 11.34375 -37.625 11.765625 -37.097656 11.765625 -36.046875 L 11.71875 -28.78125 L 11.71875 -7.359375 C 11.71875 -6.128906 11.847656 -5.222656 12.109375 -4.640625 C 12.378906 -4.054688 12.679688 -3.628906 13.015625 -3.359375 C 13.347656 -3.097656 13.632812 -2.84375 13.875 -2.59375 C 14.125 -2.34375 14.25 -1.921875 14.25 -1.328125 C 14.25 -0.796875 14.046875 -0.441406 13.640625 -0.265625 C 13.234375 -0.0859375 12.660156 0 11.921875 0 L 4.34375 0 C 3.601562 0 3.007812 -0.09375 2.5625 -0.28125 C 2.125 -0.476562 1.90625 -0.84375 1.90625 -1.375 C 1.90625 -1.9375 2.035156 -2.34375 2.296875 -2.59375 C 2.566406 -2.84375 2.878906 -3.097656 3.234375 -3.359375 C 3.585938 -3.628906 3.894531 -4.054688 4.15625 -4.640625 C 4.425781 -5.222656 4.5625 -6.128906 4.5625 -7.359375 Z M 4.5625 -7.359375 "/></g></g></g><g fill="#3a5f7d" fill-opacity="1"><g transform="translate(228.181695, 174.599578)"><g/></g></g><g fill="#3a5f7d" fill-opacity="1"><g transform="translate(238.780136, 174.599578)"><g><path d="M 20.453125 0.53125 C 16.847656 0.53125 13.664062 -0.21875 10.90625 -1.71875 C 8.15625 -3.21875 6.003906 -5.335938 4.453125 -8.078125 C 2.898438 -10.816406 2.125 -14.0625 2.125 -17.8125 C 2.125 -20.5625 2.609375 -23.128906 3.578125 -25.515625 C 4.546875 -27.898438 5.90625 -30.003906 7.65625 -31.828125 C 9.40625 -33.648438 11.453125 -35.070312 13.796875 -36.09375 C 16.148438 -37.113281 18.707031 -37.625 21.46875 -37.625 C 23.125 -37.625 24.457031 -37.472656 25.46875 -37.171875 C 26.476562 -36.878906 27.300781 -36.734375 27.9375 -36.734375 C 28.601562 -36.734375 29.101562 -36.875 29.4375 -37.15625 C 29.769531 -37.4375 30.238281 -37.578125 30.84375 -37.578125 C 31.34375 -37.578125 31.75 -37.390625 32.0625 -37.015625 C 32.382812 -36.648438 32.703125 -35.898438 33.015625 -34.765625 C 33.296875 -33.847656 33.578125 -32.804688 33.859375 -31.640625 C 34.148438 -30.472656 34.414062 -29.09375 34.65625 -27.5 C 34.769531 -26.800781 34.742188 -26.25 34.578125 -25.84375 C 34.421875 -25.4375 34.039062 -25.195312 33.4375 -25.125 C 32.875 -25.082031 32.425781 -25.265625 32.09375 -25.671875 C 31.757812 -26.078125 31.328125 -26.671875 30.796875 -27.453125 C 29.585938 -29.222656 28.171875 -30.769531 26.546875 -32.09375 C 24.921875 -33.414062 22.941406 -34.078125 20.609375 -34.078125 C 18.347656 -34.078125 16.40625 -33.503906 14.78125 -32.359375 C 13.15625 -31.210938 11.910156 -29.664062 11.046875 -27.71875 C 10.179688 -25.769531 9.75 -23.578125 9.75 -21.140625 C 9.75 -18.109375 10.28125 -15.300781 11.34375 -12.71875 C 12.40625 -10.132812 13.925781 -8.066406 15.90625 -6.515625 C 17.882812 -4.960938 20.25 -4.1875 23 -4.1875 C 25.1875 -4.1875 27.109375 -4.628906 28.765625 -5.515625 C 30.429688 -6.398438 31.972656 -7.597656 33.390625 -9.109375 C 33.816406 -9.578125 34.234375 -9.753906 34.640625 -9.640625 C 35.046875 -9.535156 35.328125 -9.257812 35.484375 -8.8125 C 35.640625 -8.375 35.5625 -7.875 35.25 -7.3125 C 34.613281 -5.96875 33.585938 -4.695312 32.171875 -3.5 C 30.753906 -2.300781 29.054688 -1.328125 27.078125 -0.578125 C 25.097656 0.160156 22.890625 0.53125 20.453125 0.53125 Z M 20.453125 0.53125 "/></g></g></g><g fill="#3a5f7d" fill-opacity="1"><g transform="translate(275.821706, 174.599578)"><g><path d="M 6.3125 -28.890625 C 5.320312 -28.921875 4.535156 -29.242188 3.953125 -29.859375 C 3.367188 -30.484375 3.09375 -31.238281 3.125 -32.125 C 3.164062 -32.9375 3.457031 -33.738281 4 -34.53125 C 4.550781 -35.320312 5.25 -35.960938 6.09375 -36.453125 C 6.9375 -36.953125 7.800781 -37.1875 8.6875 -37.15625 C 9.644531 -37.113281 10.441406 -36.773438 11.078125 -36.140625 C 11.710938 -35.503906 12.03125 -34.726562 12.03125 -33.8125 C 12 -32.96875 11.695312 -32.164062 11.125 -31.40625 C 10.5625 -30.644531 9.847656 -30.035156 8.984375 -29.578125 C 8.117188 -29.117188 7.226562 -28.890625 6.3125 -28.890625 Z M 4.5 -7.359375 L 4.5 -17.0625 C 4.5 -17.976562 4.375 -18.675781 4.125 -19.15625 C 3.882812 -19.632812 3.59375 -20.003906 3.25 -20.265625 C 2.914062 -20.535156 2.617188 -20.785156 2.359375 -21.015625 C 2.097656 -21.242188 1.96875 -21.550781 1.96875 -21.9375 C 1.96875 -22.332031 2.082031 -22.644531 2.3125 -22.875 C 2.539062 -23.101562 2.972656 -23.359375 3.609375 -23.640625 C 4.347656 -23.992188 5.203125 -24.335938 6.171875 -24.671875 C 7.140625 -25.003906 8.03125 -25.296875 8.84375 -25.546875 C 9.65625 -25.796875 10.207031 -25.921875 10.5 -25.921875 C 11.3125 -25.953125 11.71875 -25.421875 11.71875 -24.328125 L 11.65625 -17.0625 L 11.65625 -7.359375 C 11.65625 -6.128906 11.785156 -5.222656 12.046875 -4.640625 C 12.316406 -4.054688 12.617188 -3.628906 12.953125 -3.359375 C 13.296875 -3.097656 13.597656 -2.84375 13.859375 -2.59375 C 14.117188 -2.34375 14.25 -1.921875 14.25 -1.328125 C 14.25 -0.796875 14.035156 -0.441406 13.609375 -0.265625 C 13.191406 -0.0859375 12.628906 0 11.921875 0 L 4.34375 0 C 3.570312 0 2.972656 -0.09375 2.546875 -0.28125 C 2.117188 -0.476562 1.90625 -0.84375 1.90625 -1.375 C 1.90625 -1.9375 2.035156 -2.34375 2.296875 -2.59375 C 2.566406 -2.84375 2.867188 -3.097656 3.203125 -3.359375 C 3.535156 -3.628906 3.832031 -4.054688 4.09375 -4.640625 C 4.363281 -5.222656 4.5 -6.128906 4.5 -7.359375 Z M 4.5 -7.359375 "/></g></g></g><g fill="#3a5f7d" fill-opacity="1"><g transform="translate(291.772366, 174.599578)"><g><path d="M 17.90625 -5.984375 C 18.40625 -6.378906 18.832031 -6.429688 19.1875 -6.140625 C 19.539062 -5.859375 19.628906 -5.4375 19.453125 -4.875 C 19.203125 -4.09375 18.722656 -3.28125 18.015625 -2.4375 C 17.304688 -1.59375 16.40625 -0.882812 15.3125 -0.3125 C 14.21875 0.25 12.929688 0.53125 11.453125 0.53125 C 9.078125 0.53125 7.226562 -0.191406 5.90625 -1.640625 C 4.582031 -3.085938 3.921875 -5.15625 3.921875 -7.84375 L 3.921875 -10.59375 C 3.921875 -12.96875 3.9375 -15.132812 3.96875 -17.09375 C 4.007812 -19.050781 4.046875 -20.71875 4.078125 -22.09375 L 2.65625 -22.09375 C 1.945312 -22.09375 1.457031 -22.207031 1.1875 -22.4375 C 0.925781 -22.675781 0.796875 -23.023438 0.796875 -23.484375 C 0.796875 -23.796875 0.859375 -24.109375 0.984375 -24.421875 C 1.109375 -24.742188 1.3125 -25.03125 1.59375 -25.28125 C 2.582031 -26.300781 3.664062 -27.289062 4.84375 -28.25 C 6.03125 -29.207031 7.171875 -30.019531 8.265625 -30.6875 C 8.867188 -31.039062 9.3125 -31.25 9.59375 -31.3125 C 9.875 -31.382812 10.085938 -31.421875 10.234375 -31.421875 C 10.617188 -31.421875 10.914062 -31.269531 11.125 -30.96875 C 11.34375 -30.675781 11.429688 -30.332031 11.390625 -29.9375 C 11.316406 -29.238281 11.265625 -28.515625 11.234375 -27.765625 C 11.203125 -27.023438 11.164062 -26.25 11.125 -25.4375 L 16.375 -25.4375 C 16.875 -25.4375 17.296875 -25.328125 17.640625 -25.109375 C 17.992188 -24.898438 18.082031 -24.390625 17.90625 -23.578125 C 17.769531 -22.804688 17.488281 -22.304688 17.0625 -22.078125 C 16.644531 -21.847656 16.171875 -21.75 15.640625 -21.78125 L 11.078125 -21.9375 C 11.078125 -20.488281 11.078125 -18.835938 11.078125 -16.984375 C 11.078125 -15.128906 11.0625 -13 11.03125 -10.59375 C 10.988281 -8.226562 11.1875 -6.613281 11.625 -5.75 C 12.070312 -4.882812 12.894531 -4.453125 14.09375 -4.453125 C 14.800781 -4.453125 15.472656 -4.601562 16.109375 -4.90625 C 16.742188 -5.207031 17.34375 -5.566406 17.90625 -5.984375 Z M 17.90625 -5.984375 "/></g></g></g><g fill="#3a5f7d" fill-opacity="1"><g transform="translate(312.28036, 174.599578)"><g><path d="M 23.796875 -25.4375 L 27.453125 -25.4375 C 28.234375 -25.4375 28.832031 -25.335938 29.25 -25.140625 C 29.675781 -24.953125 29.890625 -24.609375 29.890625 -24.109375 C 29.890625 -23.617188 29.765625 -23.238281 29.515625 -22.96875 C 29.273438 -22.707031 28.957031 -22.441406 28.5625 -22.171875 C 28.175781 -21.910156 27.757812 -21.503906 27.3125 -20.953125 C 26.875 -20.410156 26.441406 -19.59375 26.015625 -18.5 L 19.296875 -1.21875 C 18.335938 1.289062 17.363281 3.472656 16.375 5.328125 C 15.382812 7.179688 14.203125 8.609375 12.828125 9.609375 C 11.453125 10.617188 9.664062 11.125 7.46875 11.125 C 6.375 11.125 5.34375 10.929688 4.375 10.546875 C 3.40625 10.160156 2.617188 9.601562 2.015625 8.875 C 1.410156 8.15625 1.109375 7.28125 1.109375 6.25 C 1.109375 5.332031 1.398438 4.492188 1.984375 3.734375 C 2.566406 2.972656 3.390625 2.578125 4.453125 2.546875 C 5.234375 2.546875 5.832031 2.78125 6.25 3.25 C 6.675781 3.726562 7.054688 4.285156 7.390625 4.921875 C 7.722656 5.566406 8.09375 6.125 8.5 6.59375 C 8.90625 7.070312 9.460938 7.3125 10.171875 7.3125 C 11.023438 7.3125 11.734375 6.84375 12.296875 5.90625 C 12.859375 4.96875 13.140625 3.863281 13.140625 2.59375 C 13.140625 2 13.066406 1.410156 12.921875 0.828125 C 12.785156 0.242188 12.59375 -0.332031 12.34375 -0.90625 L 5.359375 -18.546875 C 4.929688 -19.609375 4.488281 -20.410156 4.03125 -20.953125 C 3.570312 -21.503906 3.15625 -21.910156 2.78125 -22.171875 C 2.40625 -22.441406 2.09375 -22.707031 1.84375 -22.96875 C 1.601562 -23.238281 1.484375 -23.617188 1.484375 -24.109375 C 1.484375 -24.640625 1.691406 -24.992188 2.109375 -25.171875 C 2.535156 -25.347656 3.101562 -25.4375 3.8125 -25.4375 L 11.875 -25.4375 C 12.613281 -25.4375 13.191406 -25.335938 13.609375 -25.140625 C 14.035156 -24.953125 14.25 -24.609375 14.25 -24.109375 C 14.25 -23.617188 14.109375 -23.238281 13.828125 -22.96875 C 13.546875 -22.707031 13.253906 -22.441406 12.953125 -22.171875 C 12.660156 -21.910156 12.476562 -21.503906 12.40625 -20.953125 C 12.332031 -20.410156 12.507812 -19.59375 12.9375 -18.5 L 17.859375 -5.890625 L 22.625 -18.5 C 23.050781 -19.59375 23.238281 -20.410156 23.1875 -20.953125 C 23.132812 -21.503906 22.96875 -21.910156 22.6875 -22.171875 C 22.40625 -22.441406 22.128906 -22.707031 21.859375 -22.96875 C 21.597656 -23.238281 21.46875 -23.617188 21.46875 -24.109375 C 21.46875 -24.640625 21.675781 -24.992188 22.09375 -25.171875 C 22.519531 -25.347656 23.085938 -25.4375 23.796875 -25.4375 Z M 23.796875 -25.4375 "/></g></g></g><g fill="#3a5f7d" fill-opacity="1"><g transform="translate(342.697998, 174.599578)"><g/></g></g><path stroke-linecap="butt" transform="matrix(0.488717, 0, 0, 0.488717, 133.714376, 193.973308)" fill="none" stroke-linejoin="miter" d="M 59.619761 23.058091 L 60.666826 54.90967 C 60.762741 56.620144 61.06647 57.867031 61.570021 58.650332 C 62.073571 59.42564 62.649058 60.00912 63.304473 60.416756 C 63.967881 60.824392 64.535375 61.240022 65.014947 61.671636 C 65.494519 62.087266 65.734305 62.798631 65.734305 63.805732 C 65.734305 64.621005 65.422583 65.188498 64.815125 65.524199 C 64.207667 65.843914 63.18458 66.003771 61.737871 66.003771 L 50.108248 66.003771 C 48.645553 66.003771 47.582501 65.843914 46.919093 65.524199 C 46.271671 65.188498 45.943963 64.621005 45.943963 63.805732 C 45.943963 62.902538 46.159771 62.223144 46.591386 61.783537 C 47.023001 61.327943 47.526551 60.888335 48.102038 60.45672 C 48.677524 60.025106 49.181075 59.409655 49.61269 58.610368 C 50.044305 57.803088 50.260112 56.564194 50.260112 54.90967 L 49.652654 26.391117 L 33.730861 60.712492 C 33.427132 61.3759 33.083439 61.863465 32.699781 62.167194 C 32.332109 62.46293 31.764615 62.710709 31.005293 62.902538 C 29.446684 63.21426 28.471554 62.782645 28.079903 61.615686 L 13.428976 26.830724 L 12.453846 56.564194 C 12.405889 57.819074 12.565746 58.818183 12.933418 59.553526 C 13.317076 60.272885 13.756684 60.840378 14.260234 61.248014 C 14.763785 61.655651 15.219379 62.055294 15.619022 62.46293 C 16.026658 62.854581 16.234473 63.38211 16.234473 64.045518 C 16.234473 64.844805 15.938737 65.364341 15.347264 65.596135 C 14.771778 65.811942 13.900555 65.923842 12.749582 65.923842 L 6.043566 65.923842 C 4.780693 65.923842 3.869506 65.787963 3.317998 65.524199 C 2.76649 65.236456 2.48674 64.716919 2.48674 63.957597 C 2.48674 63.350139 2.702547 62.854581 3.134162 62.46293 C 3.557784 62.055294 4.061335 61.655651 4.644814 61.248014 C 5.220301 60.840378 5.74783 60.272885 6.227402 59.553526 C 6.706974 58.818183 6.970739 57.819074 7.018696 56.564194 L 8.457412 23.058091 C 8.505369 21.707296 8.329526 20.676216 7.92189 19.980836 C 7.514254 19.269471 7.026689 18.717963 6.451202 18.31832 C 5.867723 17.918677 5.356179 17.495055 4.900586 17.071433 C 4.444992 16.639818 4.221192 16.040353 4.221192 15.28103 C 4.221192 14.481743 4.508935 13.938228 5.084422 13.642492 C 5.675894 13.338763 6.595074 13.178906 7.849954 13.178906 L 16.602145 13.178906 C 18.008889 13.178906 18.968034 13.810342 19.471584 15.05723 L 33.658925 48.347525 L 49.045196 15.137158 C 49.652654 13.834321 50.611798 13.178906 51.914636 13.178906 L 60.227219 13.178906 C 61.530056 13.178906 62.457229 13.338763 63.008737 13.642492 C 63.560245 13.938228 63.832002 14.481743 63.832002 15.28103 C 63.832002 16.040353 63.608202 16.623832 63.152608 17.031468 C 62.697015 17.423119 62.185471 17.822762 61.609985 18.230398 C 61.026506 18.638035 60.538941 19.197535 60.131304 19.908901 C 59.739654 20.60428 59.563811 21.659339 59.619761 23.058091 Z M 103.908243 54.446084 C 104.659572 53.702747 105.346959 53.550882 105.970403 54.006476 C 106.601839 54.462069 106.713739 55.237378 106.322089 56.348386 C 105.818538 57.747138 104.803444 59.25779 103.26082 60.880342 C 101.72619 62.486909 99.727973 63.869675 97.258177 65.020648 C 94.78838 66.179614 91.870983 66.755101 88.505986 66.755101 C 84.933174 66.755101 81.79997 66.003771 79.114366 64.493119 C 76.420769 62.982467 74.318645 60.880342 72.807993 58.186746 C 71.297341 55.501142 70.546011 52.439874 70.546011 49.010933 C 70.546011 45.142385 71.43322 41.697459 73.215629 38.676155 C 75.014025 35.654851 77.387906 33.296955 80.345268 31.586481 C 83.318615 29.876007 86.563719 29.028763 90.088574 29.028763 C 93.109878 29.028763 95.70756 29.564285 97.865635 30.643323 C 100.031702 31.730353 101.734183 33.177062 102.989063 34.991443 C 104.251936 36.797831 105.067209 38.780062 105.418895 40.946129 C 105.666674 42.25696 105.083194 43.240083 103.668457 43.895498 C 99.847866 45.597979 96.267061 47.108631 92.910056 48.427454 C 89.569037 49.730292 85.940275 51.105065 82.02377 52.56776 C 82.823057 54.278233 84.101916 55.852828 85.852354 57.283552 C 87.62677 58.722268 89.968681 59.441626 92.894071 59.441626 C 95.204009 59.441626 97.274162 58.938076 99.104529 57.930974 C 100.942889 56.923873 102.549455 55.764907 103.908243 54.446084 Z M 86.779526 34.000327 C 84.613459 34.256099 82.950943 35.311157 81.783984 37.149517 C 80.633011 38.979884 80.049532 41.097994 80.049532 43.503847 C 80.049532 45.326221 80.257346 46.908809 80.65699 48.259604 C 82.871014 47.508274 85.045074 46.748952 87.17917 45.973644 C 89.321259 45.190342 91.391411 44.367077 93.405614 43.503847 C 94.069022 43.208111 94.588559 42.864418 94.956231 42.456782 C 95.339888 42.049145 95.395838 41.369751 95.140066 40.410607 C 94.652502 38.196583 93.581457 36.494102 91.934926 35.287179 C 90.304381 34.088249 88.577922 33.656634 86.779526 34.000327 Z M 148.348589 14.689558 L 148.276654 25.024336 L 148.108803 54.613934 C 148.108803 56.012686 148.332604 57.043766 148.788197 57.707174 C 149.243791 58.362589 149.763327 58.842161 150.338813 59.14589 C 150.9143 59.441626 151.433836 59.721377 151.88943 59.977148 C 152.337031 60.224927 152.568824 60.616578 152.568824 61.176079 C 152.568824 62.079273 151.737565 63.006445 150.083042 63.957597 C 149.379669 64.309283 148.492461 64.700933 147.405431 65.132548 C 146.326394 65.564163 145.239364 65.915849 144.144341 66.187607 C 143.065304 66.467357 142.178095 66.611229 141.474723 66.611229 C 140.419664 66.611229 139.652349 66.259543 139.172777 65.55617 C 138.693205 64.844805 138.405461 63.709818 138.309547 62.151209 L 138.237611 60.640556 C 137.030688 62.343037 135.432115 63.805732 133.44189 65.020648 C 131.451666 66.227571 128.973877 66.779079 126.00053 66.683165 C 123.091126 66.635208 120.485451 65.891871 118.191498 64.453155 C 115.905538 63.014438 114.115135 61.048193 112.828284 58.538432 C 111.549425 56.020679 110.909995 53.151239 110.909995 49.938106 C 110.909995 46.653037 111.477489 43.73564 112.604483 41.185916 C 113.739471 38.620205 115.250123 36.430159 117.136439 34.623771 C 119.030749 32.80939 121.092909 31.418631 123.330912 30.459487 C 125.568915 29.500342 127.790933 29.028763 129.996964 29.028763 C 131.555573 29.028763 133.018268 29.204606 134.385049 29.556292 C 135.743836 29.899986 136.958752 30.379558 138.013811 30.979023 L 138.013811 25.104265 C 138.013811 23.785442 137.837968 22.77834 137.478289 22.082961 C 137.126603 21.379588 136.702981 20.836073 136.223408 20.460409 C 135.743836 20.076751 135.328207 19.725065 134.976521 19.40535 C 134.632828 19.077642 134.456985 18.638035 134.456985 18.078534 C 134.456985 17.574983 134.616842 17.167347 134.936557 16.847632 C 135.264264 16.519925 135.887708 16.14426 136.798895 15.744616 C 137.853954 15.241066 139.068869 14.737515 140.443643 14.233964 C 141.834402 13.730414 143.105268 13.306792 144.256241 12.963098 C 145.4232 12.603419 146.214494 12.427576 146.614137 12.427576 C 147.773103 12.427576 148.348589 13.178906 148.348589 14.689558 Z M 130.460551 60.192956 C 132.722532 60.192956 134.488956 59.377683 135.767815 57.747138 C 137.054667 56.100607 137.805996 54.126369 138.013811 51.81643 L 138.013811 47.284474 C 137.965854 45.725865 137.813989 44.215213 137.550225 42.768503 C 137.310439 41.305809 136.910795 40.050928 136.351294 38.99587 C 134.792685 35.518972 132.274932 33.776527 128.798034 33.776527 C 126.232323 33.776527 124.234106 34.823593 122.79539 36.909731 C 121.37266 38.99587 120.661294 41.801366 120.661294 45.326221 C 120.661294 48.403475 121.108895 51.049115 122.004096 53.287118 C 122.915283 55.525121 124.122206 57.235595 125.632858 58.426532 C 127.14351 59.609476 128.750077 60.192956 130.460551 60.192956 Z M 162.743745 24.880465 C 161.344993 24.832507 160.225991 24.360928 159.394733 23.481713 C 158.571468 22.594504 158.179817 21.52346 158.227774 20.276573 C 158.283724 19.117607 158.691361 17.974627 159.466669 16.847632 C 160.24997 15.704652 161.249078 14.785472 162.448009 14.0821 C 163.654932 13.38672 164.885833 13.059013 166.156699 13.10697 C 167.507494 13.154927 168.634489 13.634499 169.545676 14.545686 C 170.44887 15.440887 170.904463 16.543903 170.904463 17.862726 C 170.856506 19.061657 170.424891 20.204637 169.617611 21.291667 C 168.818325 22.370704 167.795237 23.241927 166.556343 23.905335 C 165.333434 24.552757 164.062568 24.880465 162.743745 24.880465 Z M 160.186027 55.517128 L 160.186027 41.697459 C 160.186027 40.394622 160.010184 39.411499 159.650505 38.732105 C 159.306811 38.044718 158.891182 37.517189 158.419603 37.149517 C 157.940031 36.765859 157.508416 36.414173 157.124759 36.078473 C 156.757087 35.750765 156.573251 35.311157 156.573251 34.751657 C 156.573251 34.200149 156.733108 33.768534 157.052823 33.448819 C 157.38053 33.113119 158.003974 32.745447 158.915161 32.337811 C 159.97022 31.83426 161.185135 31.346695 162.559909 30.867123 C 163.950668 30.387551 165.221534 29.979914 166.372507 29.636221 C 167.531473 29.276542 168.306781 29.100699 168.714417 29.100699 C 169.86539 29.052742 170.44887 29.804071 170.44887 31.362681 L 170.368941 41.697459 L 170.368941 55.517128 C 170.368941 57.275559 170.56077 58.570404 170.944427 59.401662 C 171.328085 60.224927 171.751707 60.832385 172.215293 61.20805 C 172.694866 61.591708 173.12648 61.95938 173.502145 62.319059 C 173.885803 62.662752 174.077632 63.262217 174.077632 64.117454 C 174.077632 64.868784 173.773903 65.372334 173.174438 65.628106 C 172.56698 65.875885 171.767693 66.003771 170.760591 66.003771 L 159.962227 66.003771 C 158.859211 66.003771 157.995981 65.867892 157.38053 65.596135 C 156.781065 65.308391 156.485329 64.796848 156.485329 64.045518 C 156.485329 63.238239 156.669165 62.662752 157.052823 62.319059 C 157.43648 61.95938 157.860102 61.591708 158.339674 61.20805 C 158.819247 60.832385 159.242869 60.224927 159.61054 59.401662 C 159.994198 58.570404 160.186027 57.275559 160.186027 55.517128 Z M 218.142313 60.192956 C 219.093465 60.192956 219.573037 60.616578 219.573037 61.471815 C 219.573037 62.327052 219.173393 63.150317 218.358121 63.933618 C 217.558834 64.708926 216.567718 65.348356 215.376781 65.851906 C 214.193837 66.355457 213.002899 66.611229 211.803969 66.611229 C 208.6308 66.611229 206.496705 64.748891 205.393689 61.024214 C 203.619272 62.982467 201.541126 64.41319 199.143266 65.316384 C 196.761391 66.227571 194.44346 66.683165 192.181478 66.683165 C 189.415946 66.683165 186.994107 66.187607 184.899975 65.204484 C 182.813837 64.221361 181.199277 62.894545 180.056297 61.20805 C 178.929303 59.529548 178.361809 57.651224 178.361809 55.589064 C 178.361809 51.968295 179.872461 48.986955 182.893765 46.653037 C 185.915069 44.311127 190.095339 43.136175 195.426582 43.136175 C 196.433684 43.136175 197.368849 43.184133 198.240072 43.28804 C 199.12728 43.383954 200.198325 43.535819 201.469191 43.743633 C 201.013597 42.137067 200.486068 40.690358 199.87861 39.419492 C 199.279145 38.124647 198.447887 37.109553 197.392828 36.358223 C 196.337769 35.598901 194.851096 35.215243 192.932808 35.215243 C 191.230327 35.215243 189.607774 35.518972 188.073144 36.118437 C 186.538513 36.717902 185.091804 37.405289 183.725023 38.164611 C 183.021651 38.604219 182.398207 38.604219 181.846699 38.164611 C 181.295192 37.709018 181.295192 37.005646 181.846699 36.046501 C 182.494122 34.991443 183.525202 33.920398 184.923954 32.841361 C 186.338691 31.754331 188.049165 30.85913 190.063368 30.131779 C 192.077571 29.396435 194.291595 29.028763 196.713434 29.028763 C 199.93456 29.028763 202.468299 29.668193 204.322645 30.963037 C 206.184983 32.233903 207.615706 33.856455 208.598829 35.822701 C 209.581952 37.772961 210.349267 39.811142 210.900775 41.921259 L 214.585487 56.1086 C 214.985131 57.66721 215.480688 58.75424 216.056175 59.36969 C 216.631661 59.969156 217.327041 60.248906 218.142313 60.192956 Z M 196.249848 61.391886 C 197.664585 61.391886 199.007387 61.104143 200.286246 60.528656 C 201.573098 59.95317 202.580199 59.193847 203.30755 58.258682 C 204.042894 57.331509 204.306659 56.356379 204.098844 55.349278 C 204.00293 54.701855 203.803108 53.902569 203.491386 52.95941 C 203.19565 52.000266 202.875935 50.865279 202.516256 49.546456 C 202.268477 48.691219 201.525141 48.059782 200.286246 47.668132 C 199.055344 47.260495 197.840429 47.060674 196.641498 47.060674 C 193.97188 47.060674 191.885742 47.69211 190.37509 48.954983 C 188.864438 50.209864 188.113108 51.87238 188.113108 53.93454 C 188.161065 56.092615 188.904402 57.883017 190.359104 59.297755 C 191.821799 60.696507 193.780052 61.391886 196.249848 61.391886 Z M 196.249848 61.391886 " stroke="#000000" stroke-width="3.301668" stroke-opacity="1" stroke-miterlimit="4"/><g fill="#3a5f7d" fill-opacity="1"><g transform="translate(133.714376, 226.228626)"><g><path d="M 29.125 -20.984375 L 29.640625 -5.421875 C 29.691406 -4.585938 29.835938 -3.976562 30.078125 -3.59375 C 30.328125 -3.21875 30.613281 -2.929688 30.9375 -2.734375 C 31.257812 -2.535156 31.535156 -2.332031 31.765625 -2.125 C 32.003906 -1.914062 32.125 -1.5625 32.125 -1.0625 C 32.125 -0.675781 31.972656 -0.398438 31.671875 -0.234375 C 31.378906 -0.078125 30.875 0 30.15625 0 L 24.484375 0 C 23.773438 0 23.257812 -0.078125 22.9375 -0.234375 C 22.613281 -0.398438 22.453125 -0.675781 22.453125 -1.0625 C 22.453125 -1.507812 22.554688 -1.84375 22.765625 -2.0625 C 22.972656 -2.28125 23.21875 -2.492188 23.5 -2.703125 C 23.789062 -2.921875 24.039062 -3.222656 24.25 -3.609375 C 24.457031 -4.003906 24.5625 -4.609375 24.5625 -5.421875 L 24.265625 -19.359375 L 16.484375 -2.578125 C 16.335938 -2.265625 16.171875 -2.03125 15.984375 -1.875 C 15.796875 -1.726562 15.519531 -1.609375 15.15625 -1.515625 C 14.394531 -1.367188 13.914062 -1.578125 13.71875 -2.140625 L 6.5625 -19.140625 L 6.078125 -4.609375 C 6.054688 -3.992188 6.132812 -3.507812 6.3125 -3.15625 C 6.5 -2.800781 6.71875 -2.523438 6.96875 -2.328125 C 7.21875 -2.128906 7.4375 -1.929688 7.625 -1.734375 C 7.820312 -1.535156 7.921875 -1.273438 7.921875 -0.953125 C 7.921875 -0.566406 7.78125 -0.316406 7.5 -0.203125 C 7.21875 -0.0859375 6.796875 -0.03125 6.234375 -0.03125 L 2.953125 -0.03125 C 2.335938 -0.03125 1.894531 -0.0976562 1.625 -0.234375 C 1.351562 -0.367188 1.21875 -0.625 1.21875 -1 C 1.21875 -1.289062 1.320312 -1.535156 1.53125 -1.734375 C 1.738281 -1.929688 1.984375 -2.128906 2.265625 -2.328125 C 2.546875 -2.523438 2.800781 -2.800781 3.03125 -3.15625 C 3.269531 -3.507812 3.398438 -3.992188 3.421875 -4.609375 L 4.125 -20.984375 C 4.15625 -21.648438 4.070312 -22.15625 3.875 -22.5 C 3.675781 -22.84375 3.4375 -23.109375 3.15625 -23.296875 C 2.875 -23.492188 2.617188 -23.695312 2.390625 -23.90625 C 2.171875 -24.125 2.0625 -24.414062 2.0625 -24.78125 C 2.0625 -25.175781 2.203125 -25.445312 2.484375 -25.59375 C 2.765625 -25.738281 3.210938 -25.8125 3.828125 -25.8125 L 8.109375 -25.8125 C 8.796875 -25.8125 9.265625 -25.503906 9.515625 -24.890625 L 16.453125 -8.625 L 23.96875 -24.859375 C 24.257812 -25.492188 24.726562 -25.8125 25.375 -25.8125 L 29.421875 -25.8125 C 30.066406 -25.8125 30.523438 -25.738281 30.796875 -25.59375 C 31.066406 -25.445312 31.203125 -25.175781 31.203125 -24.78125 C 31.203125 -24.414062 31.085938 -24.132812 30.859375 -23.9375 C 30.640625 -23.738281 30.390625 -23.539062 30.109375 -23.34375 C 29.828125 -23.144531 29.585938 -22.875 29.390625 -22.53125 C 29.191406 -22.1875 29.101562 -21.671875 29.125 -20.984375 Z M 29.125 -20.984375 "/></g></g></g><g fill="#3a5f7d" fill-opacity="1"><g transform="translate(166.975786, 226.228626)"><g><path d="M 17.515625 -5.640625 C 17.878906 -6.003906 18.210938 -6.078125 18.515625 -5.859375 C 18.828125 -5.640625 18.890625 -5.257812 18.703125 -4.71875 C 18.453125 -4.03125 17.953125 -3.289062 17.203125 -2.5 C 16.453125 -1.71875 15.472656 -1.039062 14.265625 -0.46875 C 13.066406 0.09375 11.644531 0.375 10 0.375 C 8.25 0.375 6.710938 0.00390625 5.390625 -0.734375 C 4.078125 -1.472656 3.050781 -2.5 2.3125 -3.8125 C 1.582031 -5.132812 1.21875 -6.628906 1.21875 -8.296875 C 1.21875 -10.191406 1.648438 -11.875 2.515625 -13.34375 C 3.390625 -14.820312 4.550781 -15.976562 6 -16.8125 C 7.457031 -17.644531 9.046875 -18.0625 10.765625 -18.0625 C 12.242188 -18.0625 13.507812 -17.796875 14.5625 -17.265625 C 15.625 -16.742188 16.460938 -16.039062 17.078125 -15.15625 C 17.691406 -14.269531 18.082031 -13.300781 18.25 -12.25 C 18.375 -11.601562 18.09375 -11.117188 17.40625 -10.796875 C 15.539062 -9.960938 13.789062 -9.226562 12.15625 -8.59375 C 10.519531 -7.957031 8.742188 -7.28125 6.828125 -6.5625 C 7.210938 -5.726562 7.835938 -4.957031 8.703125 -4.25 C 9.566406 -3.550781 10.707031 -3.203125 12.125 -3.203125 C 13.257812 -3.203125 14.273438 -3.445312 15.171875 -3.9375 C 16.066406 -4.4375 16.847656 -5.003906 17.515625 -5.640625 Z M 9.140625 -15.640625 C 8.085938 -15.515625 7.273438 -15.003906 6.703125 -14.109375 C 6.140625 -13.210938 5.859375 -12.171875 5.859375 -10.984375 C 5.859375 -10.097656 5.957031 -9.328125 6.15625 -8.671875 C 7.238281 -9.035156 8.300781 -9.40625 9.34375 -9.78125 C 10.394531 -10.164062 11.410156 -10.566406 12.390625 -10.984375 C 12.710938 -11.128906 12.960938 -11.300781 13.140625 -11.5 C 13.328125 -11.695312 13.359375 -12.03125 13.234375 -12.5 C 12.992188 -13.582031 12.472656 -14.414062 11.671875 -15 C 10.867188 -15.59375 10.023438 -15.804688 9.140625 -15.640625 Z M 9.140625 -15.640625 "/></g></g></g><g fill="#3a5f7d" fill-opacity="1"><g transform="translate(186.704004, 226.228626)"><g><path d="M 19.5 -25.078125 L 19.46875 -20.015625 L 19.390625 -5.5625 C 19.390625 -4.875 19.5 -4.367188 19.71875 -4.046875 C 19.945312 -3.734375 20.203125 -3.503906 20.484375 -3.359375 C 20.765625 -3.210938 21.015625 -3.078125 21.234375 -2.953125 C 21.460938 -2.828125 21.578125 -2.628906 21.578125 -2.359375 C 21.578125 -1.921875 21.171875 -1.46875 20.359375 -1 C 20.015625 -0.820312 19.578125 -0.628906 19.046875 -0.421875 C 18.515625 -0.210938 17.984375 -0.0390625 17.453125 0.09375 C 16.929688 0.226562 16.5 0.296875 16.15625 0.296875 C 15.632812 0.296875 15.253906 0.125 15.015625 -0.21875 C 14.785156 -0.5625 14.648438 -1.113281 14.609375 -1.875 L 14.5625 -2.625 C 13.976562 -1.78125 13.195312 -1.0625 12.21875 -0.46875 C 11.25 0.113281 10.039062 0.378906 8.59375 0.328125 C 7.164062 0.304688 5.890625 -0.0507812 4.765625 -0.75 C 3.648438 -1.457031 2.78125 -2.425781 2.15625 -3.65625 C 1.53125 -4.882812 1.21875 -6.285156 1.21875 -7.859375 C 1.21875 -9.453125 1.492188 -10.875 2.046875 -12.125 C 2.597656 -13.382812 3.332031 -14.457031 4.25 -15.34375 C 5.175781 -16.226562 6.1875 -16.898438 7.28125 -17.359375 C 8.375 -17.828125 9.460938 -18.0625 10.546875 -18.0625 C 11.304688 -18.0625 12.019531 -17.972656 12.6875 -17.796875 C 13.351562 -17.628906 13.941406 -17.398438 14.453125 -17.109375 L 14.453125 -19.984375 C 14.453125 -20.617188 14.363281 -21.109375 14.1875 -21.453125 C 14.019531 -21.804688 13.816406 -22.070312 13.578125 -22.25 C 13.347656 -22.4375 13.144531 -22.609375 12.96875 -22.765625 C 12.800781 -22.929688 12.71875 -23.148438 12.71875 -23.421875 C 12.71875 -23.660156 12.796875 -23.859375 12.953125 -24.015625 C 13.117188 -24.179688 13.421875 -24.363281 13.859375 -24.5625 C 14.378906 -24.800781 14.976562 -25.046875 15.65625 -25.296875 C 16.332031 -25.546875 16.953125 -25.753906 17.515625 -25.921875 C 18.078125 -26.097656 18.457031 -26.1875 18.65625 -26.1875 C 19.21875 -26.1875 19.5 -25.816406 19.5 -25.078125 Z M 10.765625 -2.84375 C 11.867188 -2.84375 12.734375 -3.238281 13.359375 -4.03125 C 13.992188 -4.832031 14.359375 -5.800781 14.453125 -6.9375 L 14.453125 -9.140625 C 14.429688 -9.898438 14.359375 -10.632812 14.234375 -11.34375 C 14.109375 -12.0625 13.910156 -12.679688 13.640625 -13.203125 C 12.878906 -14.898438 11.648438 -15.75 9.953125 -15.75 C 8.703125 -15.75 7.722656 -15.238281 7.015625 -14.21875 C 6.316406 -13.195312 5.96875 -11.828125 5.96875 -10.109375 C 5.96875 -8.609375 6.1875 -7.3125 6.625 -6.21875 C 7.070312 -5.125 7.664062 -4.285156 8.40625 -3.703125 C 9.144531 -3.128906 9.929688 -2.84375 10.765625 -2.84375 Z M 10.765625 -2.84375 "/></g></g></g><g fill="#3a5f7d" fill-opacity="1"><g transform="translate(208.865985, 226.228626)"><g><path d="M 4.390625 -20.09375 C 3.703125 -20.125 3.15625 -20.351562 2.75 -20.78125 C 2.34375 -21.207031 2.148438 -21.726562 2.171875 -22.34375 C 2.203125 -22.90625 2.40625 -23.460938 2.78125 -24.015625 C 3.164062 -24.578125 3.648438 -25.03125 4.234375 -25.375 C 4.828125 -25.71875 5.429688 -25.875 6.046875 -25.84375 C 6.710938 -25.820312 7.265625 -25.585938 7.703125 -25.140625 C 8.148438 -24.703125 8.375 -24.164062 8.375 -23.53125 C 8.34375 -22.9375 8.128906 -22.375 7.734375 -21.84375 C 7.347656 -21.320312 6.851562 -20.898438 6.25 -20.578125 C 5.644531 -20.253906 5.023438 -20.09375 4.390625 -20.09375 Z M 3.140625 -5.125 L 3.140625 -11.875 C 3.140625 -12.507812 3.050781 -12.992188 2.875 -13.328125 C 2.707031 -13.660156 2.503906 -13.914062 2.265625 -14.09375 C 2.035156 -14.28125 1.828125 -14.453125 1.640625 -14.609375 C 1.453125 -14.773438 1.359375 -14.992188 1.359375 -15.265625 C 1.359375 -15.535156 1.4375 -15.75 1.59375 -15.90625 C 1.757812 -16.070312 2.0625 -16.253906 2.5 -16.453125 C 3.019531 -16.691406 3.617188 -16.925781 4.296875 -17.15625 C 4.972656 -17.394531 5.59375 -17.597656 6.15625 -17.765625 C 6.71875 -17.941406 7.097656 -18.03125 7.296875 -18.03125 C 7.867188 -18.050781 8.15625 -17.679688 8.15625 -16.921875 L 8.109375 -11.875 L 8.109375 -5.125 C 8.109375 -4.257812 8.203125 -3.625 8.390625 -3.21875 C 8.578125 -2.820312 8.785156 -2.53125 9.015625 -2.34375 C 9.242188 -2.15625 9.453125 -1.972656 9.640625 -1.796875 C 9.828125 -1.628906 9.921875 -1.335938 9.921875 -0.921875 C 9.921875 -0.554688 9.769531 -0.3125 9.46875 -0.1875 C 9.175781 -0.0625 8.785156 0 8.296875 0 L 3.03125 0 C 2.488281 0 2.066406 -0.0664062 1.765625 -0.203125 C 1.472656 -0.335938 1.328125 -0.585938 1.328125 -0.953125 C 1.328125 -1.347656 1.414062 -1.628906 1.59375 -1.796875 C 1.78125 -1.972656 1.988281 -2.15625 2.21875 -2.34375 C 2.457031 -2.53125 2.671875 -2.820312 2.859375 -3.21875 C 3.046875 -3.625 3.140625 -4.257812 3.140625 -5.125 Z M 3.140625 -5.125 "/></g></g></g><g fill="#3a5f7d" fill-opacity="1"><g transform="translate(219.965414, 226.228626)"><g><path d="M 20.359375 -2.84375 C 20.828125 -2.84375 21.0625 -2.632812 21.0625 -2.21875 C 21.0625 -1.789062 20.863281 -1.382812 20.46875 -1 C 20.070312 -0.625 19.582031 -0.3125 19 -0.0625 C 18.425781 0.175781 17.84375 0.296875 17.25 0.296875 C 15.707031 0.296875 14.664062 -0.613281 14.125 -2.4375 C 13.257812 -1.476562 12.242188 -0.773438 11.078125 -0.328125 C 9.910156 0.109375 8.773438 0.328125 7.671875 0.328125 C 6.316406 0.328125 5.128906 0.0859375 4.109375 -0.390625 C 3.085938 -0.867188 2.300781 -1.519531 1.75 -2.34375 C 1.195312 -3.164062 0.921875 -4.082031 0.921875 -5.09375 C 0.921875 -6.863281 1.65625 -8.316406 3.125 -9.453125 C 4.601562 -10.597656 6.644531 -11.171875 9.25 -11.171875 C 9.75 -11.171875 10.210938 -11.144531 10.640625 -11.09375 C 11.066406 -11.050781 11.585938 -10.976562 12.203125 -10.875 C 11.984375 -11.664062 11.722656 -12.375 11.421875 -13 C 11.128906 -13.625 10.722656 -14.117188 10.203125 -14.484375 C 9.691406 -14.859375 8.96875 -15.046875 8.03125 -15.046875 C 7.195312 -15.046875 6.40625 -14.894531 5.65625 -14.59375 C 4.90625 -14.300781 4.203125 -13.972656 3.546875 -13.609375 C 3.203125 -13.390625 2.894531 -13.390625 2.625 -13.609375 C 2.351562 -13.828125 2.351562 -14.171875 2.625 -14.640625 C 2.9375 -15.148438 3.4375 -15.671875 4.125 -16.203125 C 4.8125 -16.734375 5.644531 -17.175781 6.625 -17.53125 C 7.613281 -17.882812 8.695312 -18.0625 9.875 -18.0625 C 11.457031 -18.0625 12.703125 -17.75 13.609375 -17.125 C 14.515625 -16.5 15.207031 -15.707031 15.6875 -14.75 C 16.164062 -13.789062 16.539062 -12.796875 16.8125 -11.765625 L 18.625 -4.828125 C 18.820312 -4.066406 19.0625 -3.535156 19.34375 -3.234375 C 19.625 -2.941406 19.960938 -2.8125 20.359375 -2.84375 Z M 9.65625 -2.25 C 10.34375 -2.25 11 -2.390625 11.625 -2.671875 C 12.257812 -2.953125 12.753906 -3.320312 13.109375 -3.78125 C 13.460938 -4.238281 13.59375 -4.710938 13.5 -5.203125 C 13.445312 -5.515625 13.347656 -5.90625 13.203125 -6.375 C 13.054688 -6.84375 12.894531 -7.394531 12.71875 -8.03125 C 12.59375 -8.457031 12.226562 -8.765625 11.625 -8.953125 C 11.03125 -9.148438 10.4375 -9.25 9.84375 -9.25 C 8.539062 -9.25 7.519531 -8.941406 6.78125 -8.328125 C 6.039062 -7.710938 5.671875 -6.90625 5.671875 -5.90625 C 5.703125 -4.84375 6.070312 -3.96875 6.78125 -3.28125 C 7.5 -2.59375 8.457031 -2.25 9.65625 -2.25 Z M 9.65625 -2.25 "/></g></g></g><g fill="#3a5f7d" fill-opacity="1"><g transform="translate(241.171012, 226.228626)"><g/></g></g></svg>