<svg xmlns="http://www.w3.org/2000/svg" xmlns:xlink="http://www.w3.org/1999/xlink" width="500" zoomAndPan="magnify" viewBox="0 0 375 374.999991" height="500" preserveAspectRatio="xMidYMid meet" version="1.0"><defs><g/><clipPath id="ca7c5632ef"><path d="M 159 63 L 216 63 L 216 120 L 159 120 Z M 159 63 " clip-rule="nonzero"/></clipPath><clipPath id="5761d76bae"><path d="M 192.003906 132.667969 L 145.863281 86.53125 L 169.199219 63.195312 L 215.335938 109.335938 Z M 192.003906 132.667969 " clip-rule="nonzero"/></clipPath><clipPath id="b69c3069c6"><path d="M 192.003906 132.667969 L 145.863281 86.53125 L 169.199219 63.195312 L 215.335938 109.335938 Z M 192.003906 132.667969 " clip-rule="nonzero"/></clipPath><clipPath id="248943cb12"><path d="M 165 116.277344 L 277.296875 116.277344 L 277.296875 173.132812 L 165 173.132812 Z M 165 116.277344 " clip-rule="nonzero"/></clipPath><clipPath id="360f847623"><path d="M 222.78125 116.972656 L 276.992188 171.535156 C 277.257812 171.804688 277.339844 172.207031 277.191406 172.554688 C 277.046875 172.90625 276.707031 173.132812 276.328125 173.132812 L 166.066406 173.132812 C 165.6875 173.132812 165.347656 172.90625 165.203125 172.554688 C 165.054688 172.207031 165.136719 171.804688 165.402344 171.535156 L 219.613281 116.972656 C 220.03125 116.550781 220.601562 116.3125 221.199219 116.3125 C 221.792969 116.3125 222.363281 116.550781 222.78125 116.972656 Z M 222.78125 116.972656 " clip-rule="nonzero"/></clipPath><clipPath id="5f20da49a0"><path d="M 165 116 L 277.949219 116 L 277.949219 173.125 L 165 173.125 Z M 165 116 " clip-rule="nonzero"/></clipPath><clipPath id="4bebb209f4"><path d="M 222.78125 116.972656 L 276.988281 171.53125 C 277.253906 171.796875 277.332031 172.199219 277.1875 172.550781 C 277.042969 172.898438 276.699219 173.125 276.320312 173.125 L 166.070312 173.125 C 165.691406 173.125 165.351562 172.898438 165.207031 172.550781 C 165.0625 172.199219 165.140625 171.796875 165.40625 171.53125 L 219.609375 116.972656 C 220.03125 116.550781 220.601562 116.3125 221.195312 116.3125 C 221.792969 116.3125 222.363281 116.550781 222.78125 116.972656 Z M 222.78125 116.972656 " clip-rule="nonzero"/></clipPath><clipPath id="edd9453d3d"><path d="M 60.65625 116.277344 L 173 116.277344 L 173 173.132812 L 60.65625 173.132812 Z M 60.65625 116.277344 " clip-rule="nonzero"/></clipPath><clipPath id="1edbfee70a"><path d="M 118.496094 116.972656 L 172.707031 171.535156 C 172.972656 171.804688 173.050781 172.207031 172.90625 172.554688 C 172.761719 172.90625 172.417969 173.132812 172.042969 173.132812 L 61.777344 173.132812 C 61.398438 173.132812 61.058594 172.90625 60.914062 172.554688 C 60.769531 172.207031 60.847656 171.804688 61.113281 171.535156 L 115.324219 116.972656 C 115.742188 116.550781 116.3125 116.3125 116.910156 116.3125 C 117.503906 116.3125 118.074219 116.550781 118.496094 116.972656 Z M 118.496094 116.972656 " clip-rule="nonzero"/></clipPath><clipPath id="1b514de2ce"><path d="M 60 116 L 173 116 L 173 173.125 L 60 173.125 Z M 60 116 " clip-rule="nonzero"/></clipPath><clipPath id="28f52c1097"><path d="M 118.496094 116.972656 L 172.699219 171.53125 C 172.964844 171.796875 173.042969 172.199219 172.898438 172.550781 C 172.753906 172.898438 172.414062 173.125 172.035156 173.125 L 61.785156 173.125 C 61.40625 173.125 61.0625 172.898438 60.917969 172.550781 C 60.773438 172.199219 60.851562 171.796875 61.121094 171.53125 L 115.324219 116.972656 C 115.742188 116.550781 116.3125 116.3125 116.910156 116.3125 C 117.503906 116.3125 118.074219 116.550781 118.496094 116.972656 Z M 118.496094 116.972656 " clip-rule="nonzero"/></clipPath><clipPath id="6b3baa5aff"><path d="M 202 116.277344 L 314.191406 116.277344 L 314.191406 173.132812 L 202 173.132812 Z M 202 116.277344 " clip-rule="nonzero"/></clipPath><clipPath id="c6cfb46ec4"><path d="M 259.675781 116.972656 L 313.886719 171.535156 C 314.152344 171.804688 314.230469 172.207031 314.085938 172.554688 C 313.941406 172.90625 313.601562 173.132812 313.222656 173.132812 L 202.957031 173.132812 C 202.582031 173.132812 202.238281 172.90625 202.09375 172.554688 C 201.949219 172.207031 202.027344 171.804688 202.292969 171.535156 L 256.503906 116.972656 C 256.925781 116.550781 257.496094 116.3125 258.089844 116.3125 C 258.6875 116.3125 259.257812 116.550781 259.675781 116.972656 Z M 259.675781 116.972656 " clip-rule="nonzero"/></clipPath><clipPath id="9407f4d63b"><path d="M 202 116 L 314.839844 116 L 314.839844 173.125 L 202 173.125 Z M 202 116 " clip-rule="nonzero"/></clipPath><clipPath id="4edc2b3944"><path d="M 259.675781 116.972656 L 313.878906 171.53125 C 314.144531 171.796875 314.226562 172.199219 314.078125 172.550781 C 313.933594 172.898438 313.59375 173.125 313.214844 173.125 L 202.964844 173.125 C 202.585938 173.125 202.246094 172.898438 202.101562 172.550781 C 201.953125 172.199219 202.035156 171.796875 202.300781 171.53125 L 256.503906 116.972656 C 256.921875 116.550781 257.496094 116.3125 258.089844 116.3125 C 258.683594 116.3125 259.253906 116.550781 259.675781 116.972656 Z M 259.675781 116.972656 " clip-rule="nonzero"/></clipPath><clipPath id="c6daeda992"><path d="M 97.46875 116.277344 L 209.824219 116.277344 L 209.824219 173.132812 L 97.46875 173.132812 Z M 97.46875 116.277344 " clip-rule="nonzero"/></clipPath><clipPath id="c3294d434a"><path d="M 155.308594 116.972656 L 209.519531 171.535156 C 209.785156 171.804688 209.863281 172.207031 209.71875 172.554688 C 209.574219 172.90625 209.230469 173.132812 208.855469 173.132812 L 98.589844 173.132812 C 98.214844 173.132812 97.871094 172.90625 97.726562 172.554688 C 97.582031 172.207031 97.660156 171.804688 97.925781 171.535156 L 152.136719 116.972656 C 152.554688 116.550781 153.128906 116.3125 153.722656 116.3125 C 154.316406 116.3125 154.890625 116.550781 155.308594 116.972656 Z M 155.308594 116.972656 " clip-rule="nonzero"/></clipPath><clipPath id="bb1ba08121"><path d="M 97 116 L 210 116 L 210 173.125 L 97 173.125 Z M 97 116 " clip-rule="nonzero"/></clipPath><clipPath id="7c4c764661"><path d="M 155.308594 116.972656 L 209.511719 171.53125 C 209.777344 171.796875 209.855469 172.199219 209.710938 172.550781 C 209.566406 172.898438 209.226562 173.125 208.847656 173.125 L 98.597656 173.125 C 98.21875 173.125 97.878906 172.898438 97.730469 172.550781 C 97.585938 172.199219 97.664062 171.796875 97.933594 171.53125 L 152.136719 116.972656 C 152.554688 116.550781 153.125 116.3125 153.722656 116.3125 C 154.316406 116.3125 154.886719 116.550781 155.308594 116.972656 Z M 155.308594 116.972656 " clip-rule="nonzero"/></clipPath></defs><path stroke-linecap="butt" transform="matrix(0.75, 0, 0, 0.75, 30.838644, 199.852604)" fill="none" stroke-linejoin="miter" d="M 55.82452 21.790279 L 56.808895 51.613197 C 56.897437 53.212156 57.178687 54.378823 57.652645 55.118406 C 58.126604 55.842364 58.663062 56.394448 59.272437 56.774656 C 59.897437 57.154864 60.428687 57.545489 60.876604 57.946531 C 61.329729 58.337156 61.553687 59.003823 61.553687 59.946531 C 61.553687 60.706948 61.262021 61.243406 60.689104 61.550698 C 60.126604 61.852781 59.163062 61.998615 57.808895 61.998615 L 46.923478 61.998615 C 45.553686 61.998615 44.558894 61.852781 43.939103 61.550698 C 43.329728 61.243406 43.022436 60.706948 43.022436 59.946531 C 43.022436 59.097573 43.225561 58.462156 43.626603 58.050698 C 44.027644 57.623614 44.501603 57.212156 45.04327 56.805906 C 45.584936 56.404864 46.053686 55.831948 46.454728 55.081948 C 46.860978 54.321531 47.058895 53.165281 47.058895 51.613197 L 46.491186 24.910071 L 31.584935 57.050698 C 31.298477 57.670489 30.97556 58.123615 30.621394 58.410073 C 30.277644 58.686115 29.746394 58.915281 29.032852 59.102781 C 27.574518 59.38924 26.657852 58.988198 26.28806 57.894448 L 12.574517 25.326737 L 11.663059 53.165281 C 11.616184 54.342364 11.767226 55.274656 12.110976 55.962156 C 12.465142 56.639239 12.881809 57.170489 13.350559 57.550698 C 13.824517 57.930906 14.251601 58.305906 14.626601 58.686115 C 15.006809 59.055906 15.199518 59.550698 15.199518 60.17049 C 15.199518 60.92049 14.923476 61.399656 14.371392 61.618406 C 13.829726 61.82674 13.017226 61.930906 11.939101 61.930906 L 5.65785 61.930906 C 4.475559 61.930906 3.621392 61.805906 3.105767 61.550698 C 2.590142 61.285073 2.329725 60.800698 2.329725 60.087156 C 2.329725 59.519448 2.527642 59.055906 2.933892 58.686115 C 3.334933 58.305906 3.808892 57.930906 4.34535 57.550698 C 4.887017 57.170489 5.381809 56.639239 5.829725 55.962156 C 6.277642 55.274656 6.527642 54.342364 6.574517 53.165281 L 7.918267 21.790279 C 7.965142 20.524654 7.798475 19.561112 7.418267 18.904862 C 7.038059 18.238195 6.579725 17.72257 6.038059 17.352779 C 5.496392 16.97257 5.012017 16.581945 4.590142 16.180903 C 4.163058 15.779862 3.949517 15.22257 3.949517 14.509028 C 3.949517 13.759028 4.22035 13.248612 4.762017 12.97257 C 5.3141 12.686112 6.173475 12.540278 7.350559 12.540278 L 15.543268 12.540278 C 16.866184 12.540278 17.762018 13.12882 18.235976 14.300695 L 31.517227 45.472572 L 45.923478 14.368403 C 46.496395 13.149653 47.392228 12.540278 48.610978 12.540278 L 56.392229 12.540278 C 57.610979 12.540278 58.48077 12.686112 58.996395 12.97257 C 59.517229 13.248612 59.772437 13.759028 59.772437 14.509028 C 59.772437 15.22257 59.564104 15.769445 59.13702 16.144445 C 58.709937 16.514237 58.225562 16.889237 57.689104 17.269445 C 57.147437 17.649654 56.689104 18.170487 56.308895 18.837154 C 55.939104 19.493404 55.777645 20.477779 55.82452 21.790279 Z M 72.131813 23.493404 C 70.824521 23.451737 69.777646 23.014237 68.991188 22.186112 C 68.225563 21.357987 67.860979 20.357987 67.907854 19.180904 C 67.954729 18.102779 68.340146 17.029862 69.064104 15.97257 C 69.798479 14.904862 70.730771 14.040278 71.855771 13.389237 C 72.98598 12.732987 74.14223 12.425695 75.324521 12.47257 C 76.590147 12.519445 77.647438 12.967362 78.496397 13.81632 C 79.350563 14.66007 79.777647 15.69132 79.777647 16.925695 C 79.730772 18.050695 79.324522 19.118404 78.569313 20.134029 C 77.819313 21.144445 76.866188 21.962154 75.70473 22.581946 C 74.553688 23.191321 73.366188 23.493404 72.131813 23.493404 Z M 69.735979 52.186114 L 69.735979 39.243405 C 69.735979 38.024655 69.569313 37.10278 69.235979 36.467363 C 68.913063 35.826738 68.527646 35.331946 68.079729 34.982988 C 67.631813 34.628821 67.230771 34.295488 66.871396 33.982988 C 66.527646 33.675696 66.355771 33.25903 66.355771 32.743405 C 66.355771 32.222571 66.501604 31.816321 66.803688 31.519446 C 67.110979 31.206946 67.694313 30.863196 68.543271 30.482988 C 69.532854 30.009029 70.67348 29.550696 71.959938 29.102779 C 73.262021 28.654863 74.449521 28.269446 75.532855 27.946529 C 76.61098 27.613196 77.345355 27.446529 77.720355 27.446529 C 78.803688 27.399654 79.345355 28.107988 79.345355 29.566321 L 79.277647 39.243405 L 79.277647 52.186114 C 79.277647 53.826739 79.45473 55.040281 79.808897 55.826739 C 80.168272 56.592364 80.564105 57.160073 81.001605 57.514239 C 81.449522 57.873614 81.850564 58.217365 82.209939 58.550698 C 82.564105 58.873615 82.741189 59.436115 82.741189 60.238198 C 82.741189 60.941323 82.459939 61.415281 81.897439 61.654865 C 81.334939 61.884031 80.57973 61.998615 79.637022 61.998615 L 69.527646 61.998615 C 68.491188 61.998615 67.689104 61.873615 67.110979 61.618406 C 66.548479 61.35799 66.267229 60.873615 66.267229 60.17049 C 66.267229 59.410073 66.444313 58.873615 66.803688 58.550698 C 67.157854 58.217365 67.564104 57.873614 68.012021 57.514239 C 68.459938 57.160073 68.855771 56.592364 69.199521 55.826739 C 69.558896 55.040281 69.735979 53.826739 69.735979 52.186114 Z M 124.001608 41.936113 L 126.40265 54.014239 C 126.642233 55.092364 126.959942 55.920489 127.350567 56.498614 C 127.751608 57.061114 128.168275 57.509031 128.59015 57.842364 C 129.017233 58.165281 129.381817 58.493406 129.678692 58.82674 C 129.991192 59.149656 130.147442 59.618406 130.147442 60.238198 C 130.147442 60.941323 129.860983 61.415281 129.298483 61.654865 C 128.735983 61.884031 127.980775 61.998615 127.038067 61.998615 L 117.157858 61.998615 C 116.168274 61.998615 115.381816 61.873615 114.808899 61.618406 C 114.246399 61.35799 113.965149 60.873615 113.965149 60.17049 C 113.965149 59.597573 114.142232 59.134031 114.496399 58.790281 C 114.855774 58.436115 115.256816 58.055906 115.704732 57.654864 C 116.152649 57.248614 116.496399 56.732989 116.725566 56.097573 C 116.965149 55.467364 116.965149 54.581948 116.725566 53.441323 L 114.532857 42.279863 C 114.256816 40.774655 113.881816 39.35278 113.413066 38.019447 C 112.939107 36.675696 112.256816 35.576738 111.360982 34.72778 C 110.45994 33.873613 109.235982 33.472571 107.683899 33.519446 C 105.798482 33.519446 104.137023 34.347571 102.699523 36.003821 C 101.262023 37.649655 100.543273 40.024655 100.543273 43.128822 L 100.543273 52.186114 C 100.543273 53.826739 100.720357 55.040281 101.079732 55.826739 C 101.433898 56.592364 101.829732 57.160073 102.267232 57.514239 C 102.715148 57.873614 103.105773 58.217365 103.439107 58.550698 C 103.77244 58.873615 103.939107 59.436115 103.939107 60.238198 C 103.939107 60.941323 103.668273 61.415281 103.131815 61.654865 C 102.590148 61.884031 101.824523 61.998615 100.83494 61.998615 L 90.725564 61.998615 C 89.735981 61.998615 88.944314 61.873615 88.345356 61.618406 C 87.762022 61.35799 87.465147 60.873615 87.465147 60.17049 C 87.465147 59.410073 87.642231 58.873615 88.001606 58.550698 C 88.355772 58.217365 88.772439 57.873614 89.241189 57.514239 C 89.715147 57.160073 90.121397 56.592364 90.470356 55.826739 C 90.824523 55.040281 91.001606 53.826739 91.001606 52.186114 L 91.001606 38.743405 C 91.001606 37.75903 90.814106 36.920488 90.433897 36.243405 C 90.064106 35.566321 89.522439 34.967363 88.814106 34.451738 C 88.491189 34.206946 88.183897 33.936113 87.897439 33.639238 C 87.610981 33.326738 87.465147 32.936113 87.465147 32.467363 C 87.465147 31.904863 87.631814 31.451738 87.965147 31.118404 C 88.298481 30.785071 88.887022 30.436113 89.725564 30.066321 C 90.621398 29.644446 91.621398 29.227779 92.725564 28.826738 C 93.845356 28.425696 94.881814 28.097571 95.850565 27.842363 C 96.814106 27.576738 97.485981 27.446529 97.850565 27.446529 C 98.99119 27.446529 99.558898 28.154863 99.558898 29.566321 L 99.558898 33.811113 C 100.92869 31.686113 102.626607 30.081946 104.64744 28.998613 C 106.673482 27.915279 108.814107 27.378821 111.064107 27.378821 C 113.756816 27.378821 115.933899 27.946529 117.605774 29.087154 C 119.282858 30.212154 120.616191 31.857988 121.605775 34.019446 C 122.595358 36.180905 123.392233 38.82153 124.001608 41.936113 Z M 164.001611 51.186114 C 164.704736 50.482989 165.345361 50.342364 165.933902 50.769447 C 166.522444 51.196531 166.631819 51.925697 166.262027 52.962156 C 165.788069 54.269448 164.834944 55.686114 163.397444 57.201739 C 161.959944 58.712156 160.084944 60.003823 157.772444 61.087156 C 155.465152 62.165281 152.730777 62.706948 149.579735 62.706948 C 146.235984 62.706948 143.298484 61.998615 140.782859 60.587156 C 138.262026 59.17049 136.298484 57.201739 134.881817 54.686114 C 133.46515 52.165281 132.762025 49.300697 132.762025 46.092364 C 132.762025 42.472572 133.595359 39.243405 135.262025 36.41528 C 136.939109 33.587155 139.168276 31.373613 141.939109 29.774654 C 144.720359 28.175696 147.762026 27.378821 151.06411 27.378821 C 153.892235 27.378821 156.319318 27.884029 158.34536 28.894446 C 160.366194 29.904863 161.965152 31.264238 163.137027 32.967363 C 164.324527 34.654863 165.084944 36.514238 165.418277 38.54028 C 165.647444 39.769447 165.100569 40.691322 163.777652 41.300697 C 160.199527 42.899655 156.84536 44.311114 153.704735 45.54028 C 150.574526 46.764239 147.178693 48.055906 143.506818 49.425697 C 144.256818 51.024656 145.449526 52.493406 147.09536 53.842364 C 148.75161 55.186114 150.949526 55.857989 153.683902 55.857989 C 155.850568 55.857989 157.788069 55.389239 159.50161 54.446531 C 161.225569 53.498614 162.725569 52.415281 164.001611 51.186114 Z M 147.959943 32.035071 C 145.933901 32.274654 144.376609 33.25903 143.282859 34.982988 C 142.204734 36.69653 141.663068 38.680905 141.663068 40.936113 C 141.663068 42.639238 141.850568 44.123614 142.230776 45.389239 C 144.303693 44.686114 146.334943 43.972572 148.340151 43.248614 C 150.340151 42.514238 152.28286 41.743405 154.168277 40.936113 C 154.788068 40.660072 155.272443 40.331947 155.616193 39.951738 C 155.975568 39.57153 156.03286 38.936113 155.788068 38.04028 C 155.329735 35.967363 154.329735 34.368405 152.788068 33.243405 C 151.256818 32.113196 149.647443 31.712154 147.959943 32.035071 Z M 192.538071 27.378821 C 194.564113 27.378821 196.116196 27.956946 197.19953 29.118404 C 198.288071 30.269446 198.834946 31.712154 198.834946 33.451738 C 198.834946 34.863196 198.501613 35.998613 197.834946 36.847571 C 197.178696 37.69653 196.355779 38.149655 195.366196 38.191322 C 194.517238 38.191322 193.834946 38.003822 193.314113 37.623613 C 192.798488 37.243405 192.350571 36.82153 191.970362 36.347571 C 191.590154 35.878821 191.152654 35.456946 190.657862 35.087155 C 190.163071 34.706946 189.496404 34.519446 188.657862 34.519446 C 187.381821 34.519446 186.246404 35.22778 185.25682 36.639238 C 184.272445 38.045488 183.777654 40.045488 183.777654 42.644447 L 183.777654 52.186114 C 183.777654 53.826739 183.954737 55.040281 184.308904 55.826739 C 184.668279 56.592364 185.064112 57.160073 185.501612 57.514239 C 185.949529 57.873614 186.340154 58.217365 186.673487 58.550698 C 187.006821 58.873615 187.173487 59.436115 187.173487 60.238198 C 187.173487 60.941323 186.902654 61.415281 186.360987 61.654865 C 185.824529 61.884031 185.058904 61.998615 184.06932 61.998615 L 173.959945 61.998615 C 172.970361 61.998615 172.178695 61.873615 171.579736 61.618406 C 170.991194 61.35799 170.699528 60.873615 170.699528 60.17049 C 170.699528 59.410073 170.876611 58.873615 171.235986 58.550698 C 171.590153 58.217365 172.00682 57.873614 172.47557 57.514239 C 172.949528 57.160073 173.355778 56.592364 173.699528 55.826739 C 174.058903 55.040281 174.235986 53.826739 174.235986 52.186114 L 174.235986 38.743405 C 174.235986 37.75903 174.048486 36.920488 173.668278 36.243405 C 173.298486 35.566321 172.75682 34.967363 172.043278 34.451738 C 171.725569 34.206946 171.418278 33.936113 171.131819 33.639238 C 170.845361 33.326738 170.699528 32.936113 170.699528 32.467363 C 170.699528 31.904863 170.866194 31.451738 171.199528 31.118404 C 171.532861 30.785071 172.121403 30.436113 172.959945 30.066321 C 173.855778 29.644446 174.855778 29.227779 175.959945 28.826738 C 177.074528 28.425696 178.116195 28.097571 179.084945 27.842363 C 180.048487 27.576738 180.715153 27.446529 181.084945 27.446529 C 182.22557 27.446529 182.793279 28.154863 182.793279 29.566321 L 182.793279 33.743405 C 184.105779 31.571529 185.63182 29.967363 187.381821 28.930904 C 189.131821 27.894446 190.850571 27.378821 192.538071 27.378821 Z M 240.022449 56.566323 C 240.918282 56.566323 241.366199 56.962156 241.366199 57.753823 C 241.366199 58.561115 240.985991 59.331948 240.230782 60.066323 C 239.480782 60.790281 238.548491 61.38924 237.433907 61.863198 C 236.32974 62.331948 235.215157 62.571531 234.084949 62.571531 C 231.121407 62.571531 229.121407 60.82674 228.084948 57.342364 C 226.428698 59.17049 224.480781 60.509031 222.235989 61.363198 C 220.006823 62.212156 217.829739 62.63924 215.715156 62.63924 C 213.126614 62.63924 210.85578 62.175698 208.902655 61.259031 C 206.944322 60.337156 205.433905 59.092365 204.366197 57.514239 C 203.303697 55.941323 202.777655 54.186114 202.777655 52.253822 C 202.777655 48.857989 204.189113 46.07153 207.022447 43.88403 C 209.850572 41.691322 213.762031 40.592363 218.751614 40.592363 C 219.694323 40.592363 220.574531 40.639238 221.392239 40.72778 C 222.220364 40.82153 223.225573 40.967363 224.407865 41.160072 C 223.98599 39.654863 223.491198 38.300697 222.92349 37.107988 C 222.360989 35.899655 221.584948 34.94653 220.595364 34.243405 C 219.605781 33.529863 218.215156 33.175696 216.423489 33.175696 C 214.824531 33.175696 213.303697 33.456946 211.866197 34.019446 C 210.428697 34.581946 209.07453 35.222571 207.798489 35.936113 C 207.142238 36.347571 206.553697 36.347571 206.038072 35.936113 C 205.517238 35.50903 205.517238 34.847571 206.038072 33.951738 C 206.647447 32.962155 207.60578 31.962154 208.91828 30.946529 C 210.241197 29.936113 211.845364 29.092363 213.730781 28.410071 C 215.616197 27.722571 217.694323 27.378821 219.959948 27.378821 C 222.970365 27.378821 225.345365 27.982988 227.084948 29.186113 C 228.82974 30.384029 230.163073 31.904863 231.084948 33.743405 C 232.006823 35.57153 232.725574 37.472571 233.241199 39.451738 L 236.694324 52.738197 C 237.069324 54.196531 237.532865 55.212156 238.074532 55.790281 C 238.610991 56.352781 239.262032 56.613198 240.022449 56.566323 Z M 219.527656 57.686114 C 220.850573 57.686114 222.110989 57.415281 223.303698 56.878823 C 224.512031 56.337156 225.45474 55.628823 226.137031 54.753823 C 226.824531 53.878823 227.069323 52.972573 226.876615 52.029864 C 226.782865 51.420489 226.595365 50.670489 226.308906 49.785072 C 226.032865 48.889239 225.725573 47.826739 225.39224 46.592364 C 225.163073 45.79028 224.465156 45.201739 223.303698 44.837155 C 222.157864 44.456947 221.017239 44.264239 219.892239 44.264239 C 217.392239 44.264239 215.439114 44.857989 214.022447 46.04028 C 212.610989 47.217364 211.902655 48.769447 211.902655 50.701739 C 211.94953 52.722572 212.652656 54.399656 214.006822 55.722573 C 215.376614 57.029864 217.215156 57.686114 219.527656 57.686114 Z M 247.715158 52.186114 L 247.647449 23.634029 C 247.647449 22.404862 247.480783 21.47257 247.147449 20.837154 C 246.824533 20.206945 246.439116 19.712154 245.991199 19.357987 C 245.543283 18.998612 245.142241 18.670487 244.782866 18.373612 C 244.439116 18.061112 244.267241 17.649654 244.267241 17.12882 C 244.267241 16.66007 244.428699 16.274653 244.751616 15.97257 C 245.084949 15.665278 245.673491 15.31632 246.527658 14.94132 C 247.517241 14.467362 248.642241 13.998612 249.907866 13.524653 C 251.183908 13.050695 252.360991 12.654862 253.444325 12.331945 C 254.527658 11.998611 255.256825 11.831945 255.637033 11.831945 C 256.762033 11.831945 257.324533 12.540278 257.324533 13.956945 L 257.256825 23.634029 L 257.256825 52.186114 C 257.256825 53.826739 257.433908 55.040281 257.793283 55.826739 C 258.14745 56.592364 258.543284 57.160073 258.980784 57.514239 C 259.4287 57.873614 259.819325 58.217365 260.152659 58.550698 C 260.485992 58.873615 260.652659 59.436115 260.652659 60.238198 C 260.652659 60.941323 260.387034 61.415281 259.845367 61.654865 C 259.3037 61.884031 258.538075 61.998615 257.548492 61.998615 L 247.439116 61.998615 C 246.449533 61.998615 245.657866 61.873615 245.058908 61.618406 C 244.475574 61.35799 244.178699 60.873615 244.178699 60.17049 C 244.178699 59.410073 244.360991 58.873615 244.715158 58.550698 C 245.069324 58.217365 245.485991 57.873614 245.954741 57.514239 C 246.428699 57.160073 246.834949 56.592364 247.183908 55.826739 C 247.538074 55.040281 247.715158 53.826739 247.715158 52.186114 Z M 304.527662 62.706948 C 299.72037 62.706948 295.475578 61.706948 291.798494 59.706948 C 288.126619 57.706948 285.262035 54.878823 283.189118 51.232989 C 281.12141 47.576739 280.084952 43.253822 280.084952 38.264238 C 280.084952 34.581946 280.730785 31.154863 282.017243 27.982988 C 283.314118 24.795487 285.131827 21.988195 287.470369 19.561112 C 289.803702 17.134028 292.532869 15.243403 295.663078 13.889237 C 298.788078 12.519445 302.194328 11.831945 305.87662 11.831945 C 308.084953 11.831945 309.860995 12.03507 311.204745 12.436112 C 312.548495 12.826737 313.647454 13.024653 314.501621 13.024653 C 315.387037 13.024653 316.053704 12.842362 316.501621 12.47257 C 316.949537 12.092361 317.574537 11.904861 318.381829 11.904861 C 319.038079 11.904861 319.579746 12.149653 320.001621 12.644445 C 320.428704 13.139237 320.855788 14.139237 321.277663 15.644445 C 321.657871 16.87882 322.032871 18.269445 322.402663 19.821529 C 322.782871 21.373612 323.137038 23.206946 323.470371 25.326737 C 323.610996 26.269446 323.569329 27.009029 323.350579 27.550696 C 323.142246 28.092363 322.642246 28.404863 321.850579 28.498613 C 321.090163 28.555904 320.485996 28.316321 320.038079 27.774654 C 319.590163 27.222571 319.012038 26.430904 318.314121 25.394446 C 316.715162 23.035071 314.829746 20.977779 312.652662 19.217362 C 310.491204 17.446529 307.850578 16.561112 304.735995 16.561112 C 301.725578 16.561112 299.131828 17.331945 296.954744 18.873612 C 294.793286 20.399654 293.137036 22.462154 291.985994 25.050696 C 290.840161 27.634029 290.262036 30.555904 290.262036 33.811113 C 290.262036 37.857988 290.965161 41.60278 292.366202 45.04028 C 293.782869 48.482989 295.803703 51.232989 298.439119 53.305906 C 301.084953 55.373614 304.246412 56.410073 307.928703 56.410073 C 310.850579 56.410073 313.413079 55.826739 315.621412 54.649656 C 317.840162 53.477781 319.887038 51.873614 321.762038 49.837156 C 322.340163 49.227781 322.897454 48.998614 323.433913 49.149656 C 323.975579 49.285072 324.35058 49.649656 324.558913 50.232989 C 324.777663 50.821531 324.673496 51.493406 324.246413 52.253822 C 323.397454 54.035073 322.027663 55.732989 320.142246 57.342364 C 318.256829 58.941323 315.996412 60.23299 313.360995 61.222573 C 310.725579 62.212156 307.78287 62.706948 304.527662 62.706948 Z M 335.043289 23.493404 C 333.735997 23.451737 332.689122 23.014237 331.907872 22.186112 C 331.137038 21.357987 330.772455 20.357987 330.81933 19.180904 C 330.866205 18.102779 331.251622 17.029862 331.97558 15.97257 C 332.709955 14.904862 333.642247 14.040278 334.767247 13.389237 C 335.897455 12.732987 337.053705 12.425695 338.235997 12.47257 C 339.501622 12.519445 340.558914 12.967362 341.413081 13.81632 C 342.262039 14.66007 342.689122 15.69132 342.689122 16.925695 C 342.642247 18.050695 342.241206 19.118404 341.480789 20.134029 C 340.730789 21.144445 339.777664 21.962154 338.616205 22.581946 C 337.465164 23.191321 336.277664 23.493404 335.043289 23.493404 Z M 332.647455 52.186114 L 332.647455 39.243405 C 332.647455 38.024655 332.480788 37.10278 332.147455 36.467363 C 331.824538 35.826738 331.439122 35.331946 330.991205 34.982988 C 330.543288 34.628821 330.142247 34.295488 329.782872 33.982988 C 329.439122 33.675696 329.267247 33.25903 329.267247 32.743405 C 329.267247 32.222571 329.418288 31.816321 329.715163 31.519446 C 330.027663 31.206946 330.605788 30.863196 331.454747 30.482988 C 332.44433 30.009029 333.584955 29.550696 334.871414 29.102779 C 336.173497 28.654863 337.360997 28.269446 338.44433 27.946529 C 339.522456 27.613196 340.256831 27.446529 340.637039 27.446529 C 341.715164 27.399654 342.256831 28.107988 342.256831 29.566321 L 342.189122 39.243405 L 342.189122 52.186114 C 342.189122 53.826739 342.366206 55.040281 342.720372 55.826739 C 343.079747 56.592364 343.475581 57.160073 343.913081 57.514239 C 344.360997 57.873614 344.762039 58.217365 345.121414 58.550698 C 345.475581 58.873615 345.652664 59.436115 345.652664 60.238198 C 345.652664 60.941323 345.371414 61.415281 344.808914 61.654865 C 344.246414 61.884031 343.491206 61.998615 342.548497 61.998615 L 332.439122 61.998615 C 331.407872 61.998615 330.60058 61.873615 330.027663 61.618406 C 329.459955 61.35799 329.178705 60.873615 329.178705 60.17049 C 329.178705 59.410073 329.355788 58.873615 329.715163 58.550698 C 330.06933 58.217365 330.47558 57.873614 330.923497 57.514239 C 331.371413 57.160073 331.767247 56.592364 332.110997 55.826739 C 332.470372 55.040281 332.647455 53.826739 332.647455 52.186114 Z M 371.788083 54.014239 C 372.454749 53.493406 373.022458 53.425698 373.496416 53.805906 C 373.965166 54.186114 374.079749 54.748614 373.840166 55.498614 C 373.517249 56.529864 372.887041 57.618406 371.944333 58.759031 C 371.001624 59.884031 369.798499 60.82674 368.334957 61.587156 C 366.876624 62.331948 365.157874 62.706948 363.178707 62.706948 C 360.017249 62.706948 357.548498 61.743406 355.777665 59.811115 C 354.017248 57.878823 353.13704 55.123614 353.13704 51.545489 L 353.13704 47.873614 C 353.13704 44.706947 353.163081 41.82153 353.209956 39.212155 C 353.251623 36.60278 353.298498 34.373613 353.345373 32.535071 L 351.44954 32.535071 C 350.506831 32.535071 349.85579 32.384029 349.496415 32.087154 C 349.142248 31.774654 348.965164 31.311113 348.965164 30.691321 C 348.965164 30.274654 349.043289 29.857988 349.204748 29.430904 C 349.376623 29.003821 349.652665 28.623613 350.032873 28.290279 C 351.35579 26.920487 352.803706 25.607987 354.381831 24.342362 C 355.954748 23.066321 357.475582 21.977779 358.933915 21.081945 C 359.741207 20.607987 360.32454 20.326737 360.694332 20.232987 C 361.07454 20.144445 361.360999 20.09757 361.558915 20.09757 C 362.07454 20.09757 362.470374 20.300695 362.746415 20.701737 C 363.032874 21.102779 363.157874 21.561112 363.110999 22.081945 C 363.006832 23.024654 362.933915 23.988196 362.88704 24.977779 C 362.840165 25.967362 362.79329 27.003821 362.746415 28.087154 L 369.751624 28.087154 C 370.407874 28.087154 370.970374 28.227779 371.444333 28.514238 C 371.913083 28.790279 372.027666 29.472571 371.788083 30.550696 C 371.600583 31.587154 371.230791 32.259029 370.663083 32.57153 C 370.100583 32.878821 369.465166 33.014238 368.751624 32.967363 L 362.678707 32.743405 C 362.678707 34.675696 362.678707 36.878821 362.678707 39.347572 C 362.678707 41.82153 362.657874 44.66528 362.610999 47.873614 C 362.564124 51.024656 362.834957 53.180906 363.41829 54.342364 C 364.006832 55.488198 365.105791 56.066323 366.715166 56.066323 C 367.647457 56.066323 368.538082 55.863198 369.387041 55.462156 C 370.241208 55.061114 371.038083 54.576739 371.788083 54.014239 Z M 406.980793 28.087154 L 411.861002 28.087154 C 412.89746 28.087154 413.694335 28.217363 414.262044 28.482988 C 414.824544 28.732988 415.105794 29.186113 415.105794 29.842363 C 415.105794 30.509029 414.939127 31.024654 414.605794 31.378821 C 414.282877 31.722571 413.861002 32.076738 413.345377 32.430904 C 412.829752 32.79028 412.27246 33.337155 411.673502 34.07153 C 411.08496 34.795488 410.512044 35.88403 409.949543 37.331946 L 400.975585 60.378823 C 399.699543 63.722573 398.402668 66.634032 397.079751 69.10799 C 395.767251 71.581949 394.189126 73.482991 392.350584 74.816324 C 390.512042 76.165282 388.137042 76.837157 385.225584 76.837157 C 383.76725 76.837157 382.387042 76.576741 381.084958 76.061116 C 379.788083 75.540282 378.736 74.800699 377.928708 73.831949 C 377.137041 72.868407 376.741208 71.70174 376.741208 70.331949 C 376.741208 69.113199 377.126625 67.998615 377.897458 66.98299 C 378.678708 65.972573 379.777666 65.446532 381.189125 65.399657 C 382.225583 65.399657 383.022458 65.712157 383.590167 66.347573 C 384.152667 66.977782 384.657875 67.722573 385.105792 68.571532 C 385.553709 69.425699 386.0485 70.165282 386.590167 70.79549 C 387.14225 71.430907 387.881834 71.748615 388.814125 71.748615 C 389.95475 71.748615 390.897459 71.118407 391.642251 69.868407 C 392.402667 68.623615 392.782876 67.160073 392.782876 65.467365 C 392.782876 64.660073 392.683917 63.868407 392.491209 63.087157 C 392.303709 62.316323 392.048501 61.550698 391.715167 60.790281 L 382.397458 37.264238 C 381.834958 35.857988 381.241208 34.795488 380.621417 34.07153 C 380.012042 33.337155 379.459958 32.79028 378.965166 32.430904 C 378.470375 32.076738 378.053708 31.722571 377.720375 31.378821 C 377.402666 31.024654 377.241208 30.509029 377.241208 29.842363 C 377.241208 29.144446 377.522458 28.675696 378.084958 28.446529 C 378.647458 28.206946 379.402666 28.087154 380.345375 28.087154 L 391.090167 28.087154 C 392.079751 28.087154 392.855792 28.217363 393.423501 28.482988 C 393.986001 28.732988 394.267251 29.186113 394.267251 29.842363 C 394.267251 30.509029 394.074542 31.024654 393.694334 31.378821 C 393.319334 31.722571 392.928709 32.076738 392.522459 32.430904 C 392.131834 32.79028 391.887042 33.337155 391.782876 34.07153 C 391.689126 34.795488 391.923501 35.88403 392.491209 37.331946 L 399.064126 54.149656 L 405.42871 37.331946 C 405.99121 35.88403 406.236002 34.795488 406.168293 34.07153 C 406.100585 33.337155 405.876627 32.79028 405.496418 32.430904 C 405.11621 32.076738 404.751626 31.722571 404.392251 31.378821 C 404.048501 31.024654 403.876626 30.509029 403.876626 29.842363 C 403.876626 29.144446 404.157876 28.675696 404.720376 28.446529 C 405.282877 28.206946 406.038085 28.087154 406.980793 28.087154 Z M 406.980793 28.087154 " stroke="#000000" stroke-width="3.091668" stroke-opacity="1" stroke-miterlimit="4"/><g fill="#3a5f7d" fill-opacity="1"><g transform="translate(30.838644, 246.352601)"><g><path d="M 41.875 -30.15625 L 42.609375 -7.796875 C 42.679688 -6.585938 42.894531 -5.707031 43.25 -5.15625 C 43.601562 -4.613281 44.007812 -4.203125 44.46875 -3.921875 C 44.925781 -3.640625 45.320312 -3.347656 45.65625 -3.046875 C 45.988281 -2.742188 46.15625 -2.238281 46.15625 -1.53125 C 46.15625 -0.96875 45.941406 -0.570312 45.515625 -0.34375 C 45.097656 -0.113281 44.378906 0 43.359375 0 L 35.1875 0 C 34.164062 0 33.425781 -0.113281 32.96875 -0.34375 C 32.507812 -0.570312 32.28125 -0.96875 32.28125 -1.53125 C 32.28125 -2.164062 32.425781 -2.640625 32.71875 -2.953125 C 33.019531 -3.273438 33.375 -3.585938 33.78125 -3.890625 C 34.1875 -4.191406 34.539062 -4.625 34.84375 -5.1875 C 35.144531 -5.757812 35.296875 -6.628906 35.296875 -7.796875 L 34.875 -27.828125 L 23.6875 -3.703125 C 23.476562 -3.242188 23.238281 -2.910156 22.96875 -2.703125 C 22.707031 -2.492188 22.3125 -2.316406 21.78125 -2.171875 C 20.6875 -1.960938 20 -2.265625 19.71875 -3.078125 L 9.4375 -27.5 L 8.75 -6.625 C 8.707031 -5.738281 8.816406 -5.039062 9.078125 -4.53125 C 9.347656 -4.019531 9.660156 -3.625 10.015625 -3.34375 C 10.367188 -3.0625 10.6875 -2.773438 10.96875 -2.484375 C 11.25 -2.203125 11.390625 -1.832031 11.390625 -1.375 C 11.390625 -0.8125 11.1875 -0.445312 10.78125 -0.28125 C 10.375 -0.125 9.765625 -0.046875 8.953125 -0.046875 L 4.234375 -0.046875 C 3.359375 -0.046875 2.722656 -0.144531 2.328125 -0.34375 C 1.941406 -0.539062 1.75 -0.90625 1.75 -1.4375 C 1.75 -1.851562 1.898438 -2.203125 2.203125 -2.484375 C 2.503906 -2.773438 2.859375 -3.0625 3.265625 -3.34375 C 3.671875 -3.625 4.039062 -4.019531 4.375 -4.53125 C 4.707031 -5.039062 4.890625 -5.738281 4.921875 -6.625 L 5.9375 -30.15625 C 5.96875 -31.113281 5.84375 -31.835938 5.5625 -32.328125 C 5.28125 -32.828125 4.9375 -33.21875 4.53125 -33.5 C 4.125 -33.78125 3.757812 -34.070312 3.4375 -34.375 C 3.125 -34.675781 2.96875 -35.085938 2.96875 -35.609375 C 2.96875 -36.179688 3.171875 -36.570312 3.578125 -36.78125 C 3.984375 -36.988281 4.628906 -37.09375 5.515625 -37.09375 L 11.65625 -37.09375 C 12.644531 -37.09375 13.316406 -36.65625 13.671875 -35.78125 L 23.640625 -12.40625 L 34.453125 -35.71875 C 34.878906 -36.632812 35.550781 -37.09375 36.46875 -37.09375 L 42.296875 -37.09375 C 43.210938 -37.09375 43.863281 -36.988281 44.25 -36.78125 C 44.644531 -36.570312 44.84375 -36.179688 44.84375 -35.609375 C 44.84375 -35.085938 44.679688 -34.679688 44.359375 -34.390625 C 44.046875 -34.109375 43.6875 -33.828125 43.28125 -33.546875 C 42.875 -33.265625 42.523438 -32.875 42.234375 -32.375 C 41.953125 -31.882812 41.832031 -31.144531 41.875 -30.15625 Z M 41.875 -30.15625 "/></g></g></g><g fill="#3a5f7d" fill-opacity="1"><g transform="translate(78.637625, 246.352601)"><g><path d="M 6.3125 -28.890625 C 5.320312 -28.921875 4.535156 -29.242188 3.953125 -29.859375 C 3.367188 -30.484375 3.09375 -31.238281 3.125 -32.125 C 3.164062 -32.9375 3.457031 -33.738281 4 -34.53125 C 4.550781 -35.320312 5.25 -35.960938 6.09375 -36.453125 C 6.9375 -36.953125 7.800781 -37.1875 8.6875 -37.15625 C 9.644531 -37.113281 10.441406 -36.773438 11.078125 -36.140625 C 11.710938 -35.503906 12.03125 -34.726562 12.03125 -33.8125 C 12 -32.96875 11.695312 -32.164062 11.125 -31.40625 C 10.5625 -30.644531 9.847656 -30.035156 8.984375 -29.578125 C 8.117188 -29.117188 7.226562 -28.890625 6.3125 -28.890625 Z M 4.5 -7.359375 L 4.5 -17.0625 C 4.5 -17.976562 4.375 -18.675781 4.125 -19.15625 C 3.882812 -19.632812 3.59375 -20.003906 3.25 -20.265625 C 2.914062 -20.535156 2.617188 -20.785156 2.359375 -21.015625 C 2.097656 -21.242188 1.96875 -21.550781 1.96875 -21.9375 C 1.96875 -22.332031 2.082031 -22.644531 2.3125 -22.875 C 2.539062 -23.101562 2.972656 -23.359375 3.609375 -23.640625 C 4.347656 -23.992188 5.203125 -24.335938 6.171875 -24.671875 C 7.140625 -25.003906 8.03125 -25.296875 8.84375 -25.546875 C 9.65625 -25.796875 10.207031 -25.921875 10.5 -25.921875 C 11.3125 -25.953125 11.71875 -25.421875 11.71875 -24.328125 L 11.65625 -17.0625 L 11.65625 -7.359375 C 11.65625 -6.128906 11.785156 -5.222656 12.046875 -4.640625 C 12.316406 -4.054688 12.617188 -3.628906 12.953125 -3.359375 C 13.296875 -3.097656 13.597656 -2.84375 13.859375 -2.59375 C 14.117188 -2.34375 14.25 -1.921875 14.25 -1.328125 C 14.25 -0.796875 14.035156 -0.441406 13.609375 -0.265625 C 13.191406 -0.0859375 12.628906 0 11.921875 0 L 4.34375 0 C 3.570312 0 2.972656 -0.09375 2.546875 -0.28125 C 2.117188 -0.476562 1.90625 -0.84375 1.90625 -1.375 C 1.90625 -1.9375 2.035156 -2.34375 2.296875 -2.59375 C 2.566406 -2.84375 2.867188 -3.097656 3.203125 -3.359375 C 3.535156 -3.628906 3.832031 -4.054688 4.09375 -4.640625 C 4.363281 -5.222656 4.5 -6.128906 4.5 -7.359375 Z M 4.5 -7.359375 "/></g></g></g><g fill="#3a5f7d" fill-opacity="1"><g transform="translate(94.588285, 246.352601)"><g><path d="M 29.25 -15.046875 L 31.0625 -5.984375 C 31.238281 -5.171875 31.472656 -4.550781 31.765625 -4.125 C 32.066406 -3.707031 32.375 -3.375 32.6875 -3.125 C 33.007812 -2.875 33.285156 -2.625 33.515625 -2.375 C 33.742188 -2.132812 33.859375 -1.785156 33.859375 -1.328125 C 33.859375 -0.796875 33.644531 -0.441406 33.21875 -0.265625 C 32.800781 -0.0859375 32.238281 0 31.53125 0 L 24.109375 0 C 23.367188 0 22.785156 -0.09375 22.359375 -0.28125 C 21.941406 -0.476562 21.734375 -0.84375 21.734375 -1.375 C 21.734375 -1.800781 21.863281 -2.144531 22.125 -2.40625 C 22.394531 -2.675781 22.695312 -2.957031 23.03125 -3.25 C 23.363281 -3.550781 23.617188 -3.941406 23.796875 -4.421875 C 23.972656 -4.898438 23.972656 -5.5625 23.796875 -6.40625 L 22.15625 -14.78125 C 21.945312 -15.914062 21.664062 -16.984375 21.3125 -17.984375 C 20.957031 -18.992188 20.441406 -19.816406 19.765625 -20.453125 C 19.097656 -21.085938 18.179688 -21.390625 17.015625 -21.359375 C 15.597656 -21.359375 14.347656 -20.738281 13.265625 -19.5 C 12.191406 -18.269531 11.65625 -16.488281 11.65625 -14.15625 L 11.65625 -7.359375 C 11.65625 -6.128906 11.785156 -5.222656 12.046875 -4.640625 C 12.316406 -4.054688 12.617188 -3.628906 12.953125 -3.359375 C 13.296875 -3.097656 13.585938 -2.84375 13.828125 -2.59375 C 14.078125 -2.34375 14.203125 -1.921875 14.203125 -1.328125 C 14.203125 -0.796875 14 -0.441406 13.59375 -0.265625 C 13.1875 -0.0859375 12.613281 0 11.875 0 L 4.296875 0 C 3.554688 0 2.960938 -0.09375 2.515625 -0.28125 C 2.078125 -0.476562 1.859375 -0.84375 1.859375 -1.375 C 1.859375 -1.9375 1.988281 -2.34375 2.25 -2.59375 C 2.519531 -2.84375 2.828125 -3.097656 3.171875 -3.359375 C 3.523438 -3.628906 3.832031 -4.054688 4.09375 -4.640625 C 4.363281 -5.222656 4.5 -6.128906 4.5 -7.359375 L 4.5 -17.4375 C 4.5 -18.175781 4.359375 -18.800781 4.078125 -19.3125 C 3.796875 -19.832031 3.390625 -20.285156 2.859375 -20.671875 C 2.609375 -20.847656 2.378906 -21.050781 2.171875 -21.28125 C 1.960938 -21.507812 1.859375 -21.800781 1.859375 -22.15625 C 1.859375 -22.582031 1.976562 -22.914062 2.21875 -23.15625 C 2.46875 -23.40625 2.910156 -23.671875 3.546875 -23.953125 C 4.222656 -24.273438 4.972656 -24.582031 5.796875 -24.875 C 6.628906 -25.175781 7.40625 -25.425781 8.125 -25.625 C 8.851562 -25.820312 9.359375 -25.921875 9.640625 -25.921875 C 10.492188 -25.921875 10.921875 -25.390625 10.921875 -24.328125 L 10.921875 -21.140625 C 11.941406 -22.734375 13.210938 -23.9375 14.734375 -24.75 C 16.253906 -25.5625 17.863281 -25.96875 19.5625 -25.96875 C 21.570312 -25.96875 23.203125 -25.539062 24.453125 -24.6875 C 25.710938 -23.84375 26.710938 -22.609375 27.453125 -20.984375 C 28.191406 -19.359375 28.789062 -17.378906 29.25 -15.046875 Z M 29.25 -15.046875 "/></g></g></g><g fill="#3a5f7d" fill-opacity="1"><g transform="translate(128.662288, 246.352601)"><g><path d="M 25.171875 -8.109375 C 25.703125 -8.640625 26.1875 -8.742188 26.625 -8.421875 C 27.070312 -8.109375 27.15625 -7.5625 26.875 -6.78125 C 26.519531 -5.789062 25.800781 -4.726562 24.71875 -3.59375 C 23.644531 -2.46875 22.238281 -1.5 20.5 -0.6875 C 18.769531 0.125 16.722656 0.53125 14.359375 0.53125 C 11.847656 0.53125 9.644531 0 7.75 -1.0625 C 5.863281 -2.125 4.390625 -3.597656 3.328125 -5.484375 C 2.273438 -7.378906 1.75 -9.523438 1.75 -11.921875 C 1.75 -14.640625 2.375 -17.054688 3.625 -19.171875 C 4.882812 -21.296875 6.554688 -22.957031 8.640625 -24.15625 C 10.722656 -25.363281 13 -25.96875 15.46875 -25.96875 C 17.59375 -25.96875 19.414062 -25.585938 20.9375 -24.828125 C 22.457031 -24.066406 23.65625 -23.050781 24.53125 -21.78125 C 25.414062 -20.507812 25.984375 -19.113281 26.234375 -17.59375 C 26.410156 -16.675781 26.003906 -15.988281 25.015625 -15.53125 C 22.328125 -14.332031 19.804688 -13.269531 17.453125 -12.34375 C 15.109375 -11.425781 12.5625 -10.457031 9.8125 -9.4375 C 10.375 -8.226562 11.269531 -7.117188 12.5 -6.109375 C 13.738281 -5.109375 15.382812 -4.609375 17.4375 -4.609375 C 19.0625 -4.609375 20.519531 -4.960938 21.8125 -5.671875 C 23.101562 -6.378906 24.222656 -7.191406 25.171875 -8.109375 Z M 13.140625 -22.46875 C 11.617188 -22.289062 10.453125 -21.554688 9.640625 -20.265625 C 8.828125 -18.984375 8.421875 -17.492188 8.421875 -15.796875 C 8.421875 -14.523438 8.5625 -13.410156 8.84375 -12.453125 C 10.40625 -12.984375 11.9375 -13.519531 13.4375 -14.0625 C 14.9375 -14.613281 16.394531 -15.191406 17.8125 -15.796875 C 18.269531 -16.003906 18.628906 -16.25 18.890625 -16.53125 C 19.160156 -16.8125 19.207031 -17.289062 19.03125 -17.96875 C 18.675781 -19.519531 17.921875 -20.71875 16.765625 -21.5625 C 15.617188 -22.414062 14.410156 -22.71875 13.140625 -22.46875 Z M 13.140625 -22.46875 "/></g></g></g><g fill="#3a5f7d" fill-opacity="1"><g transform="translate(157.013124, 246.352601)"><g><path d="M 18.234375 -25.96875 C 19.753906 -25.96875 20.921875 -25.535156 21.734375 -24.671875 C 22.546875 -23.804688 22.953125 -22.71875 22.953125 -21.40625 C 22.953125 -20.351562 22.703125 -19.503906 22.203125 -18.859375 C 21.710938 -18.222656 21.097656 -17.890625 20.359375 -17.859375 C 19.710938 -17.859375 19.195312 -18 18.8125 -18.28125 C 18.425781 -18.5625 18.09375 -18.878906 17.8125 -19.234375 C 17.53125 -19.585938 17.203125 -19.90625 16.828125 -20.1875 C 16.453125 -20.46875 15.945312 -20.609375 15.3125 -20.609375 C 14.363281 -20.609375 13.515625 -20.078125 12.765625 -19.015625 C 12.023438 -17.960938 11.65625 -16.460938 11.65625 -14.515625 L 11.65625 -7.359375 C 11.65625 -6.128906 11.785156 -5.222656 12.046875 -4.640625 C 12.316406 -4.054688 12.617188 -3.628906 12.953125 -3.359375 C 13.296875 -3.097656 13.585938 -2.84375 13.828125 -2.59375 C 14.078125 -2.34375 14.203125 -1.921875 14.203125 -1.328125 C 14.203125 -0.796875 14 -0.441406 13.59375 -0.265625 C 13.1875 -0.0859375 12.613281 0 11.875 0 L 4.296875 0 C 3.554688 0 2.960938 -0.09375 2.515625 -0.28125 C 2.078125 -0.476562 1.859375 -0.84375 1.859375 -1.375 C 1.859375 -1.9375 1.988281 -2.34375 2.25 -2.59375 C 2.519531 -2.84375 2.828125 -3.097656 3.171875 -3.359375 C 3.523438 -3.628906 3.832031 -4.054688 4.09375 -4.640625 C 4.363281 -5.222656 4.5 -6.128906 4.5 -7.359375 L 4.5 -17.4375 C 4.5 -18.175781 4.359375 -18.800781 4.078125 -19.3125 C 3.796875 -19.832031 3.390625 -20.285156 2.859375 -20.671875 C 2.609375 -20.847656 2.378906 -21.050781 2.171875 -21.28125 C 1.960938 -21.507812 1.859375 -21.800781 1.859375 -22.15625 C 1.859375 -22.582031 1.976562 -22.914062 2.21875 -23.15625 C 2.46875 -23.40625 2.910156 -23.671875 3.546875 -23.953125 C 4.222656 -24.273438 4.972656 -24.582031 5.796875 -24.875 C 6.628906 -25.175781 7.40625 -25.425781 8.125 -25.625 C 8.851562 -25.820312 9.359375 -25.921875 9.640625 -25.921875 C 10.492188 -25.921875 10.921875 -25.390625 10.921875 -24.328125 L 10.921875 -21.203125 C 11.910156 -22.828125 13.054688 -24.023438 14.359375 -24.796875 C 15.671875 -25.578125 16.960938 -25.96875 18.234375 -25.96875 Z M 18.234375 -25.96875 "/></g></g></g><g fill="#3a5f7d" fill-opacity="1"><g transform="translate(181.60152, 246.352601)"><g><path d="M 29.25 -4.078125 C 29.925781 -4.078125 30.265625 -3.78125 30.265625 -3.1875 C 30.265625 -2.582031 29.976562 -2.003906 29.40625 -1.453125 C 28.84375 -0.910156 28.144531 -0.460938 27.3125 -0.109375 C 26.488281 0.242188 25.648438 0.421875 24.796875 0.421875 C 22.578125 0.421875 21.078125 -0.882812 20.296875 -3.5 C 19.054688 -2.125 17.597656 -1.113281 15.921875 -0.46875 C 14.242188 0.164062 12.613281 0.484375 11.03125 0.484375 C 9.082031 0.484375 7.375 0.140625 5.90625 -0.546875 C 4.4375 -1.242188 3.304688 -2.179688 2.515625 -3.359375 C 1.722656 -4.546875 1.328125 -5.863281 1.328125 -7.3125 C 1.328125 -9.851562 2.382812 -11.945312 4.5 -13.59375 C 6.625 -15.238281 9.554688 -16.0625 13.296875 -16.0625 C 14.003906 -16.0625 14.664062 -16.023438 15.28125 -15.953125 C 15.90625 -15.878906 16.660156 -15.773438 17.546875 -15.640625 C 17.222656 -16.765625 16.847656 -17.773438 16.421875 -18.671875 C 16.003906 -19.578125 15.421875 -20.296875 14.671875 -20.828125 C 13.929688 -21.359375 12.890625 -21.625 11.546875 -21.625 C 10.347656 -21.625 9.207031 -21.410156 8.125 -20.984375 C 7.050781 -20.566406 6.039062 -20.09375 5.09375 -19.5625 C 4.59375 -19.238281 4.148438 -19.234375 3.765625 -19.546875 C 3.378906 -19.867188 3.378906 -20.367188 3.765625 -21.046875 C 4.222656 -21.785156 4.945312 -22.535156 5.9375 -23.296875 C 6.925781 -24.054688 8.125 -24.691406 9.53125 -25.203125 C 10.945312 -25.710938 12.503906 -25.96875 14.203125 -25.96875 C 16.460938 -25.96875 18.242188 -25.515625 19.546875 -24.609375 C 20.859375 -23.710938 21.859375 -22.578125 22.546875 -21.203125 C 23.234375 -19.828125 23.773438 -18.394531 24.171875 -16.90625 L 26.765625 -6.9375 C 27.046875 -5.84375 27.390625 -5.082031 27.796875 -4.65625 C 28.203125 -4.238281 28.6875 -4.046875 29.25 -4.078125 Z M 13.890625 -3.234375 C 14.878906 -3.234375 15.820312 -3.4375 16.71875 -3.84375 C 17.625 -4.25 18.332031 -4.773438 18.84375 -5.421875 C 19.351562 -6.078125 19.535156 -6.757812 19.390625 -7.46875 C 19.328125 -7.925781 19.1875 -8.488281 18.96875 -9.15625 C 18.757812 -9.832031 18.53125 -10.628906 18.28125 -11.546875 C 18.101562 -12.148438 17.582031 -12.59375 16.71875 -12.875 C 15.851562 -13.15625 15 -13.296875 14.15625 -13.296875 C 12.28125 -13.296875 10.8125 -12.851562 9.75 -11.96875 C 8.6875 -11.09375 8.15625 -9.929688 8.15625 -8.484375 C 8.195312 -6.960938 8.726562 -5.707031 9.75 -4.71875 C 10.769531 -3.726562 12.148438 -3.234375 13.890625 -3.234375 Z M 13.890625 -3.234375 "/></g></g></g><g fill="#3a5f7d" fill-opacity="1"><g transform="translate(212.072042, 246.352601)"><g><path d="M 4.5625 -7.359375 L 4.5 -28.78125 C 4.5 -29.695312 4.375 -30.394531 4.125 -30.875 C 3.882812 -31.351562 3.59375 -31.722656 3.25 -31.984375 C 2.914062 -32.253906 2.617188 -32.503906 2.359375 -32.734375 C 2.097656 -32.960938 1.96875 -33.269531 1.96875 -33.65625 C 1.96875 -34.007812 2.085938 -34.300781 2.328125 -34.53125 C 2.578125 -34.757812 3.019531 -35.015625 3.65625 -35.296875 C 4.394531 -35.648438 5.238281 -36.003906 6.1875 -36.359375 C 7.144531 -36.710938 8.03125 -37.007812 8.84375 -37.25 C 9.65625 -37.5 10.207031 -37.625 10.5 -37.625 C 11.34375 -37.625 11.765625 -37.097656 11.765625 -36.046875 L 11.71875 -28.78125 L 11.71875 -7.359375 C 11.71875 -6.128906 11.847656 -5.222656 12.109375 -4.640625 C 12.378906 -4.054688 12.679688 -3.628906 13.015625 -3.359375 C 13.347656 -3.097656 13.632812 -2.84375 13.875 -2.59375 C 14.125 -2.34375 14.25 -1.921875 14.25 -1.328125 C 14.25 -0.796875 14.046875 -0.441406 13.640625 -0.265625 C 13.234375 -0.0859375 12.660156 0 11.921875 0 L 4.34375 0 C 3.601562 0 3.007812 -0.09375 2.5625 -0.28125 C 2.125 -0.476562 1.90625 -0.84375 1.90625 -1.375 C 1.90625 -1.9375 2.035156 -2.34375 2.296875 -2.59375 C 2.566406 -2.84375 2.878906 -3.097656 3.234375 -3.359375 C 3.585938 -3.628906 3.894531 -4.054688 4.15625 -4.640625 C 4.425781 -5.222656 4.5625 -6.128906 4.5625 -7.359375 Z M 4.5625 -7.359375 "/></g></g></g><g fill="#3a5f7d" fill-opacity="1"><g transform="translate(228.181695, 246.352601)"><g/></g></g><g fill="#3a5f7d" fill-opacity="1"><g transform="translate(238.780136, 246.352601)"><g><path d="M 20.453125 0.53125 C 16.847656 0.53125 13.664062 -0.21875 10.90625 -1.71875 C 8.15625 -3.21875 6.003906 -5.335938 4.453125 -8.078125 C 2.898438 -10.816406 2.125 -14.0625 2.125 -17.8125 C 2.125 -20.5625 2.609375 -23.128906 3.578125 -25.515625 C 4.546875 -27.898438 5.90625 -30.003906 7.65625 -31.828125 C 9.40625 -33.648438 11.453125 -35.070312 13.796875 -36.09375 C 16.148438 -37.113281 18.707031 -37.625 21.46875 -37.625 C 23.125 -37.625 24.457031 -37.472656 25.46875 -37.171875 C 26.476562 -36.878906 27.300781 -36.734375 27.9375 -36.734375 C 28.601562 -36.734375 29.101562 -36.875 29.4375 -37.15625 C 29.769531 -37.4375 30.238281 -37.578125 30.84375 -37.578125 C 31.34375 -37.578125 31.75 -37.390625 32.0625 -37.015625 C 32.382812 -36.648438 32.703125 -35.898438 33.015625 -34.765625 C 33.296875 -33.847656 33.578125 -32.804688 33.859375 -31.640625 C 34.148438 -30.472656 34.414062 -29.09375 34.65625 -27.5 C 34.769531 -26.800781 34.742188 -26.25 34.578125 -25.84375 C 34.421875 -25.4375 34.039062 -25.195312 33.4375 -25.125 C 32.875 -25.082031 32.425781 -25.265625 32.09375 -25.671875 C 31.757812 -26.078125 31.328125 -26.671875 30.796875 -27.453125 C 29.585938 -29.222656 28.171875 -30.769531 26.546875 -32.09375 C 24.921875 -33.414062 22.941406 -34.078125 20.609375 -34.078125 C 18.347656 -34.078125 16.40625 -33.503906 14.78125 -32.359375 C 13.15625 -31.210938 11.910156 -29.664062 11.046875 -27.71875 C 10.179688 -25.769531 9.75 -23.578125 9.75 -21.140625 C 9.75 -18.109375 10.28125 -15.300781 11.34375 -12.71875 C 12.40625 -10.132812 13.925781 -8.066406 15.90625 -6.515625 C 17.882812 -4.960938 20.25 -4.1875 23 -4.1875 C 25.1875 -4.1875 27.109375 -4.628906 28.765625 -5.515625 C 30.429688 -6.398438 31.972656 -7.597656 33.390625 -9.109375 C 33.816406 -9.578125 34.234375 -9.753906 34.640625 -9.640625 C 35.046875 -9.535156 35.328125 -9.257812 35.484375 -8.8125 C 35.640625 -8.375 35.5625 -7.875 35.25 -7.3125 C 34.613281 -5.96875 33.585938 -4.695312 32.171875 -3.5 C 30.753906 -2.300781 29.054688 -1.328125 27.078125 -0.578125 C 25.097656 0.160156 22.890625 0.53125 20.453125 0.53125 Z M 20.453125 0.53125 "/></g></g></g><g fill="#3a5f7d" fill-opacity="1"><g transform="translate(275.821706, 246.352601)"><g><path d="M 6.3125 -28.890625 C 5.320312 -28.921875 4.535156 -29.242188 3.953125 -29.859375 C 3.367188 -30.484375 3.09375 -31.238281 3.125 -32.125 C 3.164062 -32.9375 3.457031 -33.738281 4 -34.53125 C 4.550781 -35.320312 5.25 -35.960938 6.09375 -36.453125 C 6.9375 -36.953125 7.800781 -37.1875 8.6875 -37.15625 C 9.644531 -37.113281 10.441406 -36.773438 11.078125 -36.140625 C 11.710938 -35.503906 12.03125 -34.726562 12.03125 -33.8125 C 12 -32.96875 11.695312 -32.164062 11.125 -31.40625 C 10.5625 -30.644531 9.847656 -30.035156 8.984375 -29.578125 C 8.117188 -29.117188 7.226562 -28.890625 6.3125 -28.890625 Z M 4.5 -7.359375 L 4.5 -17.0625 C 4.5 -17.976562 4.375 -18.675781 4.125 -19.15625 C 3.882812 -19.632812 3.59375 -20.003906 3.25 -20.265625 C 2.914062 -20.535156 2.617188 -20.785156 2.359375 -21.015625 C 2.097656 -21.242188 1.96875 -21.550781 1.96875 -21.9375 C 1.96875 -22.332031 2.082031 -22.644531 2.3125 -22.875 C 2.539062 -23.101562 2.972656 -23.359375 3.609375 -23.640625 C 4.347656 -23.992188 5.203125 -24.335938 6.171875 -24.671875 C 7.140625 -25.003906 8.03125 -25.296875 8.84375 -25.546875 C 9.65625 -25.796875 10.207031 -25.921875 10.5 -25.921875 C 11.3125 -25.953125 11.71875 -25.421875 11.71875 -24.328125 L 11.65625 -17.0625 L 11.65625 -7.359375 C 11.65625 -6.128906 11.785156 -5.222656 12.046875 -4.640625 C 12.316406 -4.054688 12.617188 -3.628906 12.953125 -3.359375 C 13.296875 -3.097656 13.597656 -2.84375 13.859375 -2.59375 C 14.117188 -2.34375 14.25 -1.921875 14.25 -1.328125 C 14.25 -0.796875 14.035156 -0.441406 13.609375 -0.265625 C 13.191406 -0.0859375 12.628906 0 11.921875 0 L 4.34375 0 C 3.570312 0 2.972656 -0.09375 2.546875 -0.28125 C 2.117188 -0.476562 1.90625 -0.84375 1.90625 -1.375 C 1.90625 -1.9375 2.035156 -2.34375 2.296875 -2.59375 C 2.566406 -2.84375 2.867188 -3.097656 3.203125 -3.359375 C 3.535156 -3.628906 3.832031 -4.054688 4.09375 -4.640625 C 4.363281 -5.222656 4.5 -6.128906 4.5 -7.359375 Z M 4.5 -7.359375 "/></g></g></g><g fill="#3a5f7d" fill-opacity="1"><g transform="translate(291.772366, 246.352601)"><g><path d="M 17.90625 -5.984375 C 18.40625 -6.378906 18.832031 -6.429688 19.1875 -6.140625 C 19.539062 -5.859375 19.628906 -5.4375 19.453125 -4.875 C 19.203125 -4.09375 18.722656 -3.28125 18.015625 -2.4375 C 17.304688 -1.59375 16.40625 -0.882812 15.3125 -0.3125 C 14.21875 0.25 12.929688 0.53125 11.453125 0.53125 C 9.078125 0.53125 7.226562 -0.191406 5.90625 -1.640625 C 4.582031 -3.085938 3.921875 -5.15625 3.921875 -7.84375 L 3.921875 -10.59375 C 3.921875 -12.96875 3.9375 -15.132812 3.96875 -17.09375 C 4.007812 -19.050781 4.046875 -20.71875 4.078125 -22.09375 L 2.65625 -22.09375 C 1.945312 -22.09375 1.457031 -22.207031 1.1875 -22.4375 C 0.925781 -22.675781 0.796875 -23.023438 0.796875 -23.484375 C 0.796875 -23.796875 0.859375 -24.109375 0.984375 -24.421875 C 1.109375 -24.742188 1.3125 -25.03125 1.59375 -25.28125 C 2.582031 -26.300781 3.664062 -27.289062 4.84375 -28.25 C 6.03125 -29.207031 7.171875 -30.019531 8.265625 -30.6875 C 8.867188 -31.039062 9.3125 -31.25 9.59375 -31.3125 C 9.875 -31.382812 10.085938 -31.421875 10.234375 -31.421875 C 10.617188 -31.421875 10.914062 -31.269531 11.125 -30.96875 C 11.34375 -30.675781 11.429688 -30.332031 11.390625 -29.9375 C 11.316406 -29.238281 11.265625 -28.515625 11.234375 -27.765625 C 11.203125 -27.023438 11.164062 -26.25 11.125 -25.4375 L 16.375 -25.4375 C 16.875 -25.4375 17.296875 -25.328125 17.640625 -25.109375 C 17.992188 -24.898438 18.082031 -24.390625 17.90625 -23.578125 C 17.769531 -22.804688 17.488281 -22.304688 17.0625 -22.078125 C 16.644531 -21.847656 16.171875 -21.75 15.640625 -21.78125 L 11.078125 -21.9375 C 11.078125 -20.488281 11.078125 -18.835938 11.078125 -16.984375 C 11.078125 -15.128906 11.0625 -13 11.03125 -10.59375 C 10.988281 -8.226562 11.1875 -6.613281 11.625 -5.75 C 12.070312 -4.882812 12.894531 -4.453125 14.09375 -4.453125 C 14.800781 -4.453125 15.472656 -4.601562 16.109375 -4.90625 C 16.742188 -5.207031 17.34375 -5.566406 17.90625 -5.984375 Z M 17.90625 -5.984375 "/></g></g></g><g fill="#3a5f7d" fill-opacity="1"><g transform="translate(312.28036, 246.352601)"><g><path d="M 23.796875 -25.4375 L 27.453125 -25.4375 C 28.234375 -25.4375 28.832031 -25.335938 29.25 -25.140625 C 29.675781 -24.953125 29.890625 -24.609375 29.890625 -24.109375 C 29.890625 -23.617188 29.765625 -23.238281 29.515625 -22.96875 C 29.273438 -22.707031 28.957031 -22.441406 28.5625 -22.171875 C 28.175781 -21.910156 27.757812 -21.503906 27.3125 -20.953125 C 26.875 -20.410156 26.441406 -19.59375 26.015625 -18.5 L 19.296875 -1.21875 C 18.335938 1.289062 17.363281 3.472656 16.375 5.328125 C 15.382812 7.179688 14.203125 8.609375 12.828125 9.609375 C 11.453125 10.617188 9.664062 11.125 7.46875 11.125 C 6.375 11.125 5.34375 10.929688 4.375 10.546875 C 3.40625 10.160156 2.617188 9.601562 2.015625 8.875 C 1.410156 8.15625 1.109375 7.28125 1.109375 6.25 C 1.109375 5.332031 1.398438 4.492188 1.984375 3.734375 C 2.566406 2.972656 3.390625 2.578125 4.453125 2.546875 C 5.234375 2.546875 5.832031 2.78125 6.25 3.25 C 6.675781 3.726562 7.054688 4.285156 7.390625 4.921875 C 7.722656 5.566406 8.09375 6.125 8.5 6.59375 C 8.90625 7.070312 9.460938 7.3125 10.171875 7.3125 C 11.023438 7.3125 11.734375 6.84375 12.296875 5.90625 C 12.859375 4.96875 13.140625 3.863281 13.140625 2.59375 C 13.140625 2 13.066406 1.410156 12.921875 0.828125 C 12.785156 0.242188 12.59375 -0.332031 12.34375 -0.90625 L 5.359375 -18.546875 C 4.929688 -19.609375 4.488281 -20.410156 4.03125 -20.953125 C 3.570312 -21.503906 3.15625 -21.910156 2.78125 -22.171875 C 2.40625 -22.441406 2.09375 -22.707031 1.84375 -22.96875 C 1.601562 -23.238281 1.484375 -23.617188 1.484375 -24.109375 C 1.484375 -24.640625 1.691406 -24.992188 2.109375 -25.171875 C 2.535156 -25.347656 3.101562 -25.4375 3.8125 -25.4375 L 11.875 -25.4375 C 12.613281 -25.4375 13.191406 -25.335938 13.609375 -25.140625 C 14.035156 -24.953125 14.25 -24.609375 14.25 -24.109375 C 14.25 -23.617188 14.109375 -23.238281 13.828125 -22.96875 C 13.546875 -22.707031 13.253906 -22.441406 12.953125 -22.171875 C 12.660156 -21.910156 12.476562 -21.503906 12.40625 -20.953125 C 12.332031 -20.410156 12.507812 -19.59375 12.9375 -18.5 L 17.859375 -5.890625 L 22.625 -18.5 C 23.050781 -19.59375 23.238281 -20.410156 23.1875 -20.953125 C 23.132812 -21.503906 22.96875 -21.910156 22.6875 -22.171875 C 22.40625 -22.441406 22.128906 -22.707031 21.859375 -22.96875 C 21.597656 -23.238281 21.46875 -23.617188 21.46875 -24.109375 C 21.46875 -24.640625 21.675781 -24.992188 22.09375 -25.171875 C 22.519531 -25.347656 23.085938 -25.4375 23.796875 -25.4375 Z M 23.796875 -25.4375 "/></g></g></g><g fill="#3a5f7d" fill-opacity="1"><g transform="translate(342.697998, 246.352601)"><g/></g></g><path stroke-linecap="butt" transform="matrix(0.488717, 0, 0, 0.488717, 133.714376, 265.726507)" fill="none" stroke-linejoin="miter" d="M 59.619761 23.059539 L 60.666826 54.911118 C 60.762741 56.613599 61.06647 57.860487 61.570021 58.65178 C 62.073571 59.419096 62.649058 60.010568 63.304473 60.418204 C 63.967881 60.825841 64.535375 61.24147 65.014947 61.673085 C 65.494519 62.088714 65.734305 62.800079 65.734305 63.80718 C 65.734305 64.61446 65.422583 65.189947 64.815125 65.517654 C 64.207667 65.837369 63.18458 65.997226 61.737871 65.997226 L 50.108248 65.997226 C 48.645553 65.997226 47.582501 65.837369 46.919093 65.517654 C 46.271671 65.189947 45.943963 64.61446 45.943963 63.80718 C 45.943963 62.895993 46.159771 62.224593 46.591386 61.784985 C 47.023001 61.329391 47.526551 60.881791 48.102038 60.458169 C 48.677524 60.026554 49.181075 59.411103 49.61269 58.611816 C 50.044305 57.804536 50.260112 56.565642 50.260112 54.911118 L 49.652654 26.392565 L 33.730861 60.71394 C 33.427132 61.377349 33.083439 61.864913 32.699781 62.168642 C 32.332109 62.464379 31.764615 62.712157 31.005293 62.903986 C 29.446684 63.215708 28.471554 62.784093 28.079903 61.617135 L 13.428976 26.832173 L 12.453846 56.565642 C 12.405889 57.820522 12.565746 58.811638 12.933418 59.554975 C 13.317076 60.274333 13.756684 60.841826 14.260234 61.249463 C 14.763785 61.649106 15.219379 62.056742 15.619022 62.464379 C 16.026658 62.856029 16.234473 63.383558 16.234473 64.046966 C 16.234473 64.846253 15.938737 65.357797 15.347264 65.597583 C 14.771778 65.81339 13.900555 65.92529 12.749582 65.92529 L 6.043566 65.92529 C 4.780693 65.92529 3.869506 65.789412 3.317998 65.517654 C 2.76649 65.237904 2.48674 64.718367 2.48674 63.959045 C 2.48674 63.351587 2.702547 62.856029 3.134162 62.464379 C 3.557784 62.056742 4.061335 61.649106 4.644814 61.249463 C 5.220301 60.841826 5.74783 60.274333 6.227402 59.554975 C 6.706974 58.811638 6.970739 57.820522 7.018696 56.565642 L 8.457412 23.059539 C 8.505369 21.708744 8.329526 20.677664 7.92189 19.982285 C 7.514254 19.270919 7.026689 18.711419 6.451202 18.319768 C 5.867723 17.920125 5.356179 17.496503 4.900586 17.072881 C 4.444992 16.641266 4.221192 16.041801 4.221192 15.282478 C 4.221192 14.483191 4.508935 13.939676 5.084422 13.64394 C 5.675894 13.332218 6.595074 13.180354 7.849954 13.180354 L 16.602145 13.180354 C 18.008889 13.180354 18.968034 13.811791 19.471584 15.058678 L 33.658925 48.348974 L 49.045196 15.130614 C 49.652654 13.835769 50.611798 13.180354 51.914636 13.180354 L 60.227219 13.180354 C 61.530056 13.180354 62.457229 13.332218 63.008737 13.64394 C 63.560245 13.939676 63.832002 14.483191 63.832002 15.282478 C 63.832002 16.041801 63.608202 16.62528 63.152608 17.032916 C 62.697015 17.424567 62.185471 17.82421 61.609985 18.231847 C 61.026506 18.63149 60.538941 19.190991 60.131304 19.902356 C 59.739654 20.605728 59.563811 21.652794 59.619761 23.059539 Z M 103.908243 54.447532 C 104.659572 53.696202 105.346959 53.552331 105.970403 54.007924 C 106.601839 54.463518 106.713739 55.238826 106.322089 56.349834 C 105.818538 57.748586 104.803444 59.259238 103.26082 60.881791 C 101.72619 62.488357 99.727973 63.871123 97.258177 65.022096 C 94.78838 66.181062 91.870983 66.756549 88.505986 66.756549 C 84.933174 66.756549 81.79997 65.997226 79.114366 64.486574 C 76.420769 62.975922 74.318645 60.881791 72.807993 58.188194 C 71.297341 55.50259 70.546011 52.441322 70.546011 49.012382 C 70.546011 45.143833 71.43322 41.698907 73.215629 38.677603 C 75.014025 35.656299 77.387906 33.29041 80.345268 31.587929 C 83.318615 29.877455 86.563719 29.022219 90.088574 29.022219 C 93.109878 29.022219 95.70756 29.565734 97.865635 30.644771 C 100.031702 31.723808 101.734183 33.17851 102.989063 34.992891 C 104.251936 36.799279 105.067209 38.78151 105.418895 40.947578 C 105.666674 42.258408 105.083194 43.241531 103.668457 43.888953 C 99.847866 45.599427 96.267061 47.110079 92.910056 48.420909 C 89.569037 49.723747 85.940275 51.106513 82.02377 52.569208 C 82.823057 54.279682 84.101916 55.846284 85.852354 57.285 C 87.62677 58.723716 89.968681 59.443074 92.894071 59.443074 C 95.204009 59.443074 97.274162 58.939524 99.104529 57.932422 C 100.942889 56.925321 102.549455 55.766355 103.908243 54.447532 Z M 86.779526 34.001775 C 84.613459 34.257547 82.950943 35.304613 81.783984 37.150965 C 80.633011 38.981332 80.049532 41.099442 80.049532 43.505295 C 80.049532 45.319677 80.257346 46.910257 80.65699 48.261052 C 82.871014 47.509722 85.045074 46.7504 87.17917 45.975092 C 89.321259 45.191791 91.391411 44.368525 93.405614 43.505295 C 94.069022 43.209559 94.588559 42.857873 94.956231 42.45823 C 95.339888 42.050593 95.395838 41.3712 95.140066 40.412056 C 94.652502 38.198031 93.581457 36.49555 91.934926 35.288627 C 90.304381 34.081704 88.577922 33.658082 86.779526 34.001775 Z M 148.348589 14.691006 L 148.276654 25.025784 L 148.108803 54.615382 C 148.108803 56.014134 148.332604 57.045214 148.788197 57.708622 C 149.243791 58.364037 149.763327 58.843609 150.338813 59.147338 C 150.9143 59.443074 151.433836 59.714832 151.88943 59.978597 C 152.337031 60.218383 152.568824 60.618026 152.568824 61.169534 C 152.568824 62.080721 151.737565 63.007894 150.083042 63.959045 C 149.379669 64.310731 148.492461 64.702382 147.405431 65.133997 C 146.326394 65.565611 145.239364 65.917298 144.144341 66.181062 C 143.065304 66.468805 142.178095 66.604684 141.474723 66.604684 C 140.419664 66.604684 139.652349 66.260991 139.172777 65.557619 C 138.693205 64.846253 138.405461 63.711266 138.309547 62.152657 L 138.237611 60.642005 C 137.030688 62.344486 135.432115 63.80718 133.44189 65.022096 C 131.451666 66.229019 128.973877 66.780527 126.00053 66.684613 C 123.091126 66.628663 120.485451 65.893319 118.191498 64.454603 C 115.905538 63.015886 114.115135 61.041648 112.828284 58.53988 C 111.549425 56.022127 110.909995 53.152687 110.909995 49.931561 C 110.909995 46.654485 111.477489 43.737089 112.604483 41.187364 C 113.739471 38.61366 115.250123 36.431607 117.136439 34.625219 C 119.030749 32.810838 121.092909 31.420079 123.330912 30.460935 C 125.568915 29.501791 127.790933 29.022219 129.996964 29.022219 C 131.555573 29.022219 133.018268 29.206054 134.385049 29.557741 C 135.743836 29.901434 136.958752 30.373013 138.013811 30.980471 L 138.013811 25.09772 C 138.013811 23.78689 137.837968 22.779789 137.478289 22.076416 C 137.126603 21.381037 136.702981 20.837522 136.223408 20.461857 C 135.743836 20.078199 135.328207 19.726513 134.976521 19.406798 C 134.632828 19.079091 134.456985 18.63149 134.456985 18.079982 C 134.456985 17.576431 134.616842 17.168795 134.936557 16.84908 C 135.264264 16.51338 135.887708 16.145708 136.798895 15.746065 C 137.853954 15.242514 139.068869 14.738963 140.443643 14.235413 C 141.834402 13.731862 143.105268 13.30824 144.256241 12.964547 C 145.4232 12.604867 146.214494 12.429024 146.614137 12.429024 C 147.773103 12.429024 148.348589 13.180354 148.348589 14.691006 Z M 130.460551 60.194404 C 132.722532 60.194404 134.488956 59.379131 135.767815 57.748586 C 137.054667 56.102056 137.805996 54.119824 138.013811 51.817878 L 138.013811 47.285922 C 137.965854 45.71932 137.813989 44.216661 137.550225 42.769952 C 137.310439 41.307257 136.910795 40.044384 136.351294 38.989325 C 134.792685 35.512427 132.274932 33.777975 128.798034 33.777975 C 126.232323 33.777975 124.234106 34.825041 122.79539 36.911179 C 121.37266 38.997318 120.661294 41.802815 120.661294 45.327669 C 120.661294 48.396931 121.108895 51.050563 122.004096 53.288566 C 122.915283 55.526569 124.122206 57.237043 125.632858 58.42798 C 127.14351 59.610925 128.750077 60.194404 130.460551 60.194404 Z M 162.743745 24.881913 C 161.344993 24.833956 160.225991 24.362376 159.394733 23.483161 C 158.571468 22.595953 158.179817 21.524908 158.227774 20.278021 C 158.283724 19.119055 158.691361 17.976075 159.466669 16.84908 C 160.24997 15.7061 161.249078 14.78692 162.448009 14.083548 C 163.654932 13.388169 164.885833 13.060461 166.156699 13.108418 C 167.507494 13.156375 168.634489 13.635947 169.545676 14.547134 C 170.44887 15.442336 170.904463 16.545351 170.904463 17.864175 C 170.856506 19.063105 170.424891 20.206085 169.617611 21.285122 C 168.818325 22.372152 167.795237 23.243375 166.556343 23.906783 C 165.333434 24.554205 164.062568 24.881913 162.743745 24.881913 Z M 160.186027 55.518576 L 160.186027 41.698907 C 160.186027 40.39607 160.010184 39.412947 159.650505 38.733553 C 159.306811 38.046167 158.891182 37.518637 158.419603 37.150965 C 157.940031 36.767308 157.508416 36.415621 157.124759 36.079921 C 156.757087 35.752213 156.573251 35.304613 156.573251 34.753105 C 156.573251 34.201597 156.733108 33.769982 157.052823 33.450267 C 157.38053 33.114567 158.003974 32.746895 158.915161 32.339259 C 159.97022 31.835708 161.185135 31.348143 162.559909 30.868571 C 163.950668 30.388999 165.221534 29.97337 166.372507 29.629676 C 167.531473 29.27799 168.306781 29.102147 168.714417 29.102147 C 169.86539 29.046197 170.44887 29.80552 170.44887 31.364129 L 170.368941 41.698907 L 170.368941 55.518576 C 170.368941 57.277007 170.56077 58.571852 170.944427 59.40311 C 171.328085 60.226376 171.751707 60.825841 172.215293 61.209498 C 172.694866 61.593156 173.12648 61.960828 173.502145 62.312514 C 173.885803 62.656207 174.077632 63.263665 174.077632 64.118902 C 174.077632 64.870232 173.773903 65.373783 173.174438 65.629554 C 172.56698 65.877333 171.767693 65.997226 170.760591 65.997226 L 159.962227 65.997226 C 158.859211 65.997226 157.995981 65.861348 157.38053 65.597583 C 156.781065 65.30984 156.485329 64.798296 156.485329 64.046966 C 156.485329 63.239687 156.669165 62.656207 157.052823 62.312514 C 157.43648 61.960828 157.860102 61.593156 158.339674 61.209498 C 158.819247 60.825841 159.242869 60.226376 159.61054 59.40311 C 159.994198 58.571852 160.186027 57.277007 160.186027 55.518576 Z M 218.142313 60.194404 C 219.093465 60.194404 219.573037 60.618026 219.573037 61.46527 C 219.573037 62.3285 219.173393 63.151765 218.358121 63.935066 C 217.558834 64.710375 216.567718 65.349804 215.376781 65.853355 C 214.193837 66.356905 213.002899 66.604684 211.803969 66.604684 C 208.6308 66.604684 206.496705 64.750339 205.393689 61.025662 C 203.619272 62.975922 201.541126 64.406646 199.143266 65.317832 C 196.761391 66.229019 194.44346 66.684613 192.181478 66.684613 C 189.415946 66.684613 186.994107 66.189055 184.899975 65.205932 C 182.813837 64.22281 181.199277 62.895993 180.056297 61.209498 C 178.929303 59.530996 178.361809 57.652672 178.361809 55.590512 C 178.361809 51.969743 179.872461 48.988403 182.893765 46.654485 C 185.915069 44.312575 190.095339 43.137624 195.426582 43.137624 C 196.433684 43.137624 197.368849 43.185581 198.240072 43.281495 C 199.12728 43.385402 200.198325 43.537267 201.469191 43.745082 C 201.013597 42.138515 200.486068 40.691806 199.87861 39.412947 C 199.279145 38.126095 198.447887 37.103008 197.392828 36.359671 C 196.337769 35.592356 194.851096 35.216691 192.932808 35.216691 C 191.230327 35.216691 189.607774 35.512427 188.073144 36.119885 C 186.538513 36.71935 185.091804 37.398744 183.725023 38.16606 C 183.021651 38.605667 182.398207 38.605667 181.846699 38.16606 C 181.295192 37.710466 181.295192 36.999101 181.846699 36.04795 C 182.494122 34.984898 183.525202 33.921847 184.923954 32.842809 C 186.338691 31.755779 188.049165 30.852585 190.063368 30.133227 C 192.077571 29.38989 194.291595 29.022219 196.713434 29.022219 C 199.93456 29.022219 202.468299 29.669641 204.322645 30.956493 C 206.184983 32.235351 207.615706 33.857904 208.598829 35.824149 C 209.581952 37.774409 210.349267 39.81259 210.900775 41.922708 L 214.585487 56.110048 C 214.985131 57.668658 215.480688 58.755688 216.056175 59.371139 C 216.631661 59.970604 217.327041 60.242361 218.142313 60.194404 Z M 196.249848 61.393334 C 197.664585 61.393334 199.007387 61.105591 200.286246 60.530104 C 201.573098 59.954618 202.580199 59.195296 203.30755 58.26013 C 204.042894 57.332957 204.306659 56.357827 204.098844 55.350726 C 204.00293 54.703304 203.803108 53.904017 203.491386 52.952866 C 203.19565 52.001714 202.875935 50.858734 202.516256 49.547904 C 202.268477 48.684674 201.525141 48.06123 200.286246 47.66958 C 199.055344 47.261943 197.840429 47.062122 196.641498 47.062122 C 193.97188 47.062122 191.885742 47.693558 190.37509 48.956432 C 188.864438 50.211312 188.113108 51.865835 188.113108 53.935988 C 188.161065 56.094063 188.904402 57.884465 190.359104 59.29121 C 191.821799 60.697955 193.780052 61.393334 196.249848 61.393334 Z M 196.249848 61.393334 " stroke="#000000" stroke-width="3.301668" stroke-opacity="1" stroke-miterlimit="4"/><g fill="#3a5f7d" fill-opacity="1"><g transform="translate(133.714376, 297.981824)"><g><path d="M 29.125 -20.984375 L 29.640625 -5.421875 C 29.691406 -4.585938 29.835938 -3.976562 30.078125 -3.59375 C 30.328125 -3.21875 30.613281 -2.929688 30.9375 -2.734375 C 31.257812 -2.535156 31.535156 -2.332031 31.765625 -2.125 C 32.003906 -1.914062 32.125 -1.5625 32.125 -1.0625 C 32.125 -0.675781 31.972656 -0.398438 31.671875 -0.234375 C 31.378906 -0.078125 30.875 0 30.15625 0 L 24.484375 0 C 23.773438 0 23.257812 -0.078125 22.9375 -0.234375 C 22.613281 -0.398438 22.453125 -0.675781 22.453125 -1.0625 C 22.453125 -1.507812 22.554688 -1.84375 22.765625 -2.0625 C 22.972656 -2.28125 23.21875 -2.492188 23.5 -2.703125 C 23.789062 -2.921875 24.039062 -3.222656 24.25 -3.609375 C 24.457031 -4.003906 24.5625 -4.609375 24.5625 -5.421875 L 24.265625 -19.359375 L 16.484375 -2.578125 C 16.335938 -2.265625 16.171875 -2.03125 15.984375 -1.875 C 15.796875 -1.726562 15.519531 -1.609375 15.15625 -1.515625 C 14.394531 -1.367188 13.914062 -1.578125 13.71875 -2.140625 L 6.5625 -19.140625 L 6.078125 -4.609375 C 6.054688 -3.992188 6.132812 -3.507812 6.3125 -3.15625 C 6.5 -2.800781 6.71875 -2.523438 6.96875 -2.328125 C 7.21875 -2.128906 7.4375 -1.929688 7.625 -1.734375 C 7.820312 -1.535156 7.921875 -1.273438 7.921875 -0.953125 C 7.921875 -0.566406 7.78125 -0.316406 7.5 -0.203125 C 7.21875 -0.0859375 6.796875 -0.03125 6.234375 -0.03125 L 2.953125 -0.03125 C 2.335938 -0.03125 1.894531 -0.0976562 1.625 -0.234375 C 1.351562 -0.367188 1.21875 -0.625 1.21875 -1 C 1.21875 -1.289062 1.320312 -1.535156 1.53125 -1.734375 C 1.738281 -1.929688 1.984375 -2.128906 2.265625 -2.328125 C 2.546875 -2.523438 2.800781 -2.800781 3.03125 -3.15625 C 3.269531 -3.507812 3.398438 -3.992188 3.421875 -4.609375 L 4.125 -20.984375 C 4.15625 -21.648438 4.070312 -22.15625 3.875 -22.5 C 3.675781 -22.84375 3.4375 -23.109375 3.15625 -23.296875 C 2.875 -23.492188 2.617188 -23.695312 2.390625 -23.90625 C 2.171875 -24.125 2.0625 -24.414062 2.0625 -24.78125 C 2.0625 -25.175781 2.203125 -25.445312 2.484375 -25.59375 C 2.765625 -25.738281 3.210938 -25.8125 3.828125 -25.8125 L 8.109375 -25.8125 C 8.796875 -25.8125 9.265625 -25.503906 9.515625 -24.890625 L 16.453125 -8.625 L 23.96875 -24.859375 C 24.257812 -25.492188 24.726562 -25.8125 25.375 -25.8125 L 29.421875 -25.8125 C 30.066406 -25.8125 30.523438 -25.738281 30.796875 -25.59375 C 31.066406 -25.445312 31.203125 -25.175781 31.203125 -24.78125 C 31.203125 -24.414062 31.085938 -24.132812 30.859375 -23.9375 C 30.640625 -23.738281 30.390625 -23.539062 30.109375 -23.34375 C 29.828125 -23.144531 29.585938 -22.875 29.390625 -22.53125 C 29.191406 -22.1875 29.101562 -21.671875 29.125 -20.984375 Z M 29.125 -20.984375 "/></g></g></g><g fill="#3a5f7d" fill-opacity="1"><g transform="translate(166.975786, 297.981824)"><g><path d="M 17.515625 -5.640625 C 17.878906 -6.003906 18.210938 -6.078125 18.515625 -5.859375 C 18.828125 -5.640625 18.890625 -5.257812 18.703125 -4.71875 C 18.453125 -4.03125 17.953125 -3.289062 17.203125 -2.5 C 16.453125 -1.71875 15.472656 -1.039062 14.265625 -0.46875 C 13.066406 0.09375 11.644531 0.375 10 0.375 C 8.25 0.375 6.710938 0.00390625 5.390625 -0.734375 C 4.078125 -1.472656 3.050781 -2.5 2.3125 -3.8125 C 1.582031 -5.132812 1.21875 -6.628906 1.21875 -8.296875 C 1.21875 -10.191406 1.648438 -11.875 2.515625 -13.34375 C 3.390625 -14.820312 4.550781 -15.976562 6 -16.8125 C 7.457031 -17.644531 9.046875 -18.0625 10.765625 -18.0625 C 12.242188 -18.0625 13.507812 -17.796875 14.5625 -17.265625 C 15.625 -16.742188 16.460938 -16.039062 17.078125 -15.15625 C 17.691406 -14.269531 18.082031 -13.300781 18.25 -12.25 C 18.375 -11.601562 18.09375 -11.117188 17.40625 -10.796875 C 15.539062 -9.960938 13.789062 -9.226562 12.15625 -8.59375 C 10.519531 -7.957031 8.742188 -7.28125 6.828125 -6.5625 C 7.210938 -5.726562 7.835938 -4.957031 8.703125 -4.25 C 9.566406 -3.550781 10.707031 -3.203125 12.125 -3.203125 C 13.257812 -3.203125 14.273438 -3.445312 15.171875 -3.9375 C 16.066406 -4.4375 16.847656 -5.003906 17.515625 -5.640625 Z M 9.140625 -15.640625 C 8.085938 -15.515625 7.273438 -15.003906 6.703125 -14.109375 C 6.140625 -13.210938 5.859375 -12.171875 5.859375 -10.984375 C 5.859375 -10.097656 5.957031 -9.328125 6.15625 -8.671875 C 7.238281 -9.035156 8.300781 -9.40625 9.34375 -9.78125 C 10.394531 -10.164062 11.410156 -10.566406 12.390625 -10.984375 C 12.710938 -11.128906 12.960938 -11.300781 13.140625 -11.5 C 13.328125 -11.695312 13.359375 -12.03125 13.234375 -12.5 C 12.992188 -13.582031 12.472656 -14.414062 11.671875 -15 C 10.867188 -15.59375 10.023438 -15.804688 9.140625 -15.640625 Z M 9.140625 -15.640625 "/></g></g></g><g fill="#3a5f7d" fill-opacity="1"><g transform="translate(186.704004, 297.981824)"><g><path d="M 19.5 -25.078125 L 19.46875 -20.015625 L 19.390625 -5.5625 C 19.390625 -4.875 19.5 -4.367188 19.71875 -4.046875 C 19.945312 -3.734375 20.203125 -3.503906 20.484375 -3.359375 C 20.765625 -3.210938 21.015625 -3.078125 21.234375 -2.953125 C 21.460938 -2.828125 21.578125 -2.628906 21.578125 -2.359375 C 21.578125 -1.921875 21.171875 -1.46875 20.359375 -1 C 20.015625 -0.820312 19.578125 -0.628906 19.046875 -0.421875 C 18.515625 -0.210938 17.984375 -0.0390625 17.453125 0.09375 C 16.929688 0.226562 16.5 0.296875 16.15625 0.296875 C 15.632812 0.296875 15.253906 0.125 15.015625 -0.21875 C 14.785156 -0.5625 14.648438 -1.113281 14.609375 -1.875 L 14.5625 -2.625 C 13.976562 -1.78125 13.195312 -1.0625 12.21875 -0.46875 C 11.25 0.113281 10.039062 0.378906 8.59375 0.328125 C 7.164062 0.304688 5.890625 -0.0507812 4.765625 -0.75 C 3.648438 -1.457031 2.78125 -2.425781 2.15625 -3.65625 C 1.53125 -4.882812 1.21875 -6.285156 1.21875 -7.859375 C 1.21875 -9.453125 1.492188 -10.875 2.046875 -12.125 C 2.597656 -13.382812 3.332031 -14.457031 4.25 -15.34375 C 5.175781 -16.226562 6.1875 -16.898438 7.28125 -17.359375 C 8.375 -17.828125 9.460938 -18.0625 10.546875 -18.0625 C 11.304688 -18.0625 12.019531 -17.972656 12.6875 -17.796875 C 13.351562 -17.628906 13.941406 -17.398438 14.453125 -17.109375 L 14.453125 -19.984375 C 14.453125 -20.617188 14.363281 -21.109375 14.1875 -21.453125 C 14.019531 -21.804688 13.816406 -22.070312 13.578125 -22.25 C 13.347656 -22.4375 13.144531 -22.609375 12.96875 -22.765625 C 12.800781 -22.929688 12.71875 -23.148438 12.71875 -23.421875 C 12.71875 -23.660156 12.796875 -23.859375 12.953125 -24.015625 C 13.117188 -24.179688 13.421875 -24.363281 13.859375 -24.5625 C 14.378906 -24.800781 14.976562 -25.046875 15.65625 -25.296875 C 16.332031 -25.546875 16.953125 -25.753906 17.515625 -25.921875 C 18.078125 -26.097656 18.457031 -26.1875 18.65625 -26.1875 C 19.21875 -26.1875 19.5 -25.816406 19.5 -25.078125 Z M 10.765625 -2.84375 C 11.867188 -2.84375 12.734375 -3.238281 13.359375 -4.03125 C 13.992188 -4.832031 14.359375 -5.800781 14.453125 -6.9375 L 14.453125 -9.140625 C 14.429688 -9.898438 14.359375 -10.632812 14.234375 -11.34375 C 14.109375 -12.0625 13.910156 -12.679688 13.640625 -13.203125 C 12.878906 -14.898438 11.648438 -15.75 9.953125 -15.75 C 8.703125 -15.75 7.722656 -15.238281 7.015625 -14.21875 C 6.316406 -13.195312 5.96875 -11.828125 5.96875 -10.109375 C 5.96875 -8.609375 6.1875 -7.3125 6.625 -6.21875 C 7.070312 -5.125 7.664062 -4.285156 8.40625 -3.703125 C 9.144531 -3.128906 9.929688 -2.84375 10.765625 -2.84375 Z M 10.765625 -2.84375 "/></g></g></g><g fill="#3a5f7d" fill-opacity="1"><g transform="translate(208.865985, 297.981824)"><g><path d="M 4.390625 -20.09375 C 3.703125 -20.125 3.15625 -20.351562 2.75 -20.78125 C 2.34375 -21.207031 2.148438 -21.726562 2.171875 -22.34375 C 2.203125 -22.90625 2.40625 -23.460938 2.78125 -24.015625 C 3.164062 -24.578125 3.648438 -25.03125 4.234375 -25.375 C 4.828125 -25.71875 5.429688 -25.875 6.046875 -25.84375 C 6.710938 -25.820312 7.265625 -25.585938 7.703125 -25.140625 C 8.148438 -24.703125 8.375 -24.164062 8.375 -23.53125 C 8.34375 -22.9375 8.128906 -22.375 7.734375 -21.84375 C 7.347656 -21.320312 6.851562 -20.898438 6.25 -20.578125 C 5.644531 -20.253906 5.023438 -20.09375 4.390625 -20.09375 Z M 3.140625 -5.125 L 3.140625 -11.875 C 3.140625 -12.507812 3.050781 -12.992188 2.875 -13.328125 C 2.707031 -13.660156 2.503906 -13.914062 2.265625 -14.09375 C 2.035156 -14.28125 1.828125 -14.453125 1.640625 -14.609375 C 1.453125 -14.773438 1.359375 -14.992188 1.359375 -15.265625 C 1.359375 -15.535156 1.4375 -15.75 1.59375 -15.90625 C 1.757812 -16.070312 2.0625 -16.253906 2.5 -16.453125 C 3.019531 -16.691406 3.617188 -16.925781 4.296875 -17.15625 C 4.972656 -17.394531 5.59375 -17.597656 6.15625 -17.765625 C 6.71875 -17.941406 7.097656 -18.03125 7.296875 -18.03125 C 7.867188 -18.050781 8.15625 -17.679688 8.15625 -16.921875 L 8.109375 -11.875 L 8.109375 -5.125 C 8.109375 -4.257812 8.203125 -3.625 8.390625 -3.21875 C 8.578125 -2.820312 8.785156 -2.53125 9.015625 -2.34375 C 9.242188 -2.15625 9.453125 -1.972656 9.640625 -1.796875 C 9.828125 -1.628906 9.921875 -1.335938 9.921875 -0.921875 C 9.921875 -0.554688 9.769531 -0.3125 9.46875 -0.1875 C 9.175781 -0.0625 8.785156 0 8.296875 0 L 3.03125 0 C 2.488281 0 2.066406 -0.0664062 1.765625 -0.203125 C 1.472656 -0.335938 1.328125 -0.585938 1.328125 -0.953125 C 1.328125 -1.347656 1.414062 -1.628906 1.59375 -1.796875 C 1.78125 -1.972656 1.988281 -2.15625 2.21875 -2.34375 C 2.457031 -2.53125 2.671875 -2.820312 2.859375 -3.21875 C 3.046875 -3.625 3.140625 -4.257812 3.140625 -5.125 Z M 3.140625 -5.125 "/></g></g></g><g fill="#3a5f7d" fill-opacity="1"><g transform="translate(219.965414, 297.981824)"><g><path d="M 20.359375 -2.84375 C 20.828125 -2.84375 21.0625 -2.632812 21.0625 -2.21875 C 21.0625 -1.789062 20.863281 -1.382812 20.46875 -1 C 20.070312 -0.625 19.582031 -0.3125 19 -0.0625 C 18.425781 0.175781 17.84375 0.296875 17.25 0.296875 C 15.707031 0.296875 14.664062 -0.613281 14.125 -2.4375 C 13.257812 -1.476562 12.242188 -0.773438 11.078125 -0.328125 C 9.910156 0.109375 8.773438 0.328125 7.671875 0.328125 C 6.316406 0.328125 5.128906 0.0859375 4.109375 -0.390625 C 3.085938 -0.867188 2.300781 -1.519531 1.75 -2.34375 C 1.195312 -3.164062 0.921875 -4.082031 0.921875 -5.09375 C 0.921875 -6.863281 1.65625 -8.316406 3.125 -9.453125 C 4.601562 -10.597656 6.644531 -11.171875 9.25 -11.171875 C 9.75 -11.171875 10.210938 -11.144531 10.640625 -11.09375 C 11.066406 -11.050781 11.585938 -10.976562 12.203125 -10.875 C 11.984375 -11.664062 11.722656 -12.375 11.421875 -13 C 11.128906 -13.625 10.722656 -14.117188 10.203125 -14.484375 C 9.691406 -14.859375 8.96875 -15.046875 8.03125 -15.046875 C 7.195312 -15.046875 6.40625 -14.894531 5.65625 -14.59375 C 4.90625 -14.300781 4.203125 -13.972656 3.546875 -13.609375 C 3.203125 -13.390625 2.894531 -13.390625 2.625 -13.609375 C 2.351562 -13.828125 2.351562 -14.171875 2.625 -14.640625 C 2.9375 -15.148438 3.4375 -15.671875 4.125 -16.203125 C 4.8125 -16.734375 5.644531 -17.175781 6.625 -17.53125 C 7.613281 -17.882812 8.695312 -18.0625 9.875 -18.0625 C 11.457031 -18.0625 12.703125 -17.75 13.609375 -17.125 C 14.515625 -16.5 15.207031 -15.707031 15.6875 -14.75 C 16.164062 -13.789062 16.539062 -12.796875 16.8125 -11.765625 L 18.625 -4.828125 C 18.820312 -4.066406 19.0625 -3.535156 19.34375 -3.234375 C 19.625 -2.941406 19.960938 -2.8125 20.359375 -2.84375 Z M 9.65625 -2.25 C 10.34375 -2.25 11 -2.390625 11.625 -2.671875 C 12.257812 -2.953125 12.753906 -3.320312 13.109375 -3.78125 C 13.460938 -4.238281 13.59375 -4.710938 13.5 -5.203125 C 13.445312 -5.515625 13.347656 -5.90625 13.203125 -6.375 C 13.054688 -6.84375 12.894531 -7.394531 12.71875 -8.03125 C 12.59375 -8.457031 12.226562 -8.765625 11.625 -8.953125 C 11.03125 -9.148438 10.4375 -9.25 9.84375 -9.25 C 8.539062 -9.25 7.519531 -8.941406 6.78125 -8.328125 C 6.039062 -7.710938 5.671875 -6.90625 5.671875 -5.90625 C 5.703125 -4.84375 6.070312 -3.96875 6.78125 -3.28125 C 7.5 -2.59375 8.457031 -2.25 9.65625 -2.25 Z M 9.65625 -2.25 "/></g></g></g><g fill="#3a5f7d" fill-opacity="1"><g transform="translate(241.171012, 297.981824)"><g/></g></g><g clip-path="url(#ca7c5632ef)"><g clip-path="url(#5761d76bae)"><g clip-path="url(#b69c3069c6)"><path fill="#d9d9d9" d="M 168.8125 109.488281 C 162.421875 103.09375 159.246094 94.742188 159.246094 86.371094 C 159.246094 77.996094 162.441406 69.621094 168.8125 63.25 C 176.308594 70.746094 207.53125 101.96875 215.050781 109.488281 C 208.679688 115.859375 200.304688 119.054688 191.933594 119.054688 C 183.558594 119.054688 175.183594 115.859375 168.8125 109.488281 Z M 168.8125 109.488281 " fill-opacity="1" fill-rule="nonzero"/></g></g></g><g clip-path="url(#248943cb12)"><g clip-path="url(#360f847623)"><path fill="#3a5f7d" d="M 163.816406 115.375 L 278.652344 115.375 L 278.652344 173.132812 L 163.816406 173.132812 Z M 163.816406 115.375 " fill-opacity="1" fill-rule="nonzero"/></g></g><g clip-path="url(#5f20da49a0)"><g clip-path="url(#4bebb209f4)"><path stroke-linecap="butt" transform="matrix(0.75, 0, 0, 0.75, 163.821205, 115.375656)" fill="none" stroke-linejoin="miter" d="M 78.613394 2.129334 L 150.889435 74.874126 C 151.243602 75.228293 151.347769 75.764751 151.15506 76.233501 C 150.962352 76.697043 150.504019 76.999126 149.99881 76.999126 L 2.99881 76.999126 C 2.493602 76.999126 2.040477 76.697043 1.847768 76.233501 C 1.65506 75.764751 1.759227 75.228293 2.113393 74.874126 L 74.384227 2.129334 C 74.946727 1.566834 75.707144 1.249126 76.49881 1.249126 C 77.295685 1.249126 78.056102 1.566834 78.613394 2.129334 Z M 78.613394 2.129334 " stroke="#000000" stroke-width="2" stroke-opacity="1" stroke-miterlimit="4"/></g></g><g clip-path="url(#edd9453d3d)"><g clip-path="url(#1edbfee70a)"><path fill="#3a5f7d" d="M 59.527344 115.375 L 174.363281 115.375 L 174.363281 173.132812 L 59.527344 173.132812 Z M 59.527344 115.375 " fill-opacity="1" fill-rule="nonzero"/></g></g><g clip-path="url(#1b514de2ce)"><g clip-path="url(#28f52c1097)"><path stroke-linecap="butt" transform="matrix(0.75, 0, 0, 0.75, 59.533513, 115.375656)" fill="none" stroke-linejoin="miter" d="M 78.616775 2.129334 L 150.887608 74.874126 C 151.241775 75.228293 151.345942 75.764751 151.153233 76.233501 C 150.960525 76.697043 150.5074 76.999126 150.002192 76.999126 L 3.002192 76.999126 C 2.496983 76.999126 2.03865 76.697043 1.845942 76.233501 C 1.653233 75.764751 1.7574 75.228293 2.116775 74.874126 L 74.387608 2.129334 C 74.9449 1.566834 75.705317 1.249126 76.502192 1.249126 C 77.293858 1.249126 78.054275 1.566834 78.616775 2.129334 Z M 78.616775 2.129334 " stroke="#000000" stroke-width="2" stroke-opacity="1" stroke-miterlimit="4"/></g></g><g clip-path="url(#6b3baa5aff)"><g clip-path="url(#c6cfb46ec4)"><path fill="#2e8b57" d="M 200.707031 115.375 L 315.542969 115.375 L 315.542969 173.132812 L 200.707031 173.132812 Z M 200.707031 115.375 " fill-opacity="1" fill-rule="nonzero"/></g></g><g clip-path="url(#9407f4d63b)"><g clip-path="url(#4edc2b3944)"><path stroke-linecap="butt" transform="matrix(0.75, 0, 0, 0.75, 200.714274, 115.375656)" fill="none" stroke-linejoin="miter" d="M 78.615344 2.129334 L 150.886177 74.874126 C 151.240344 75.228293 151.349719 75.764751 151.151802 76.233501 C 150.959094 76.697043 150.505969 76.999126 150.00076 76.999126 L 3.00076 76.999126 C 2.495552 76.999126 2.042427 76.697043 1.849718 76.233501 C 1.651802 75.764751 1.761177 75.228293 2.115343 74.874126 L 74.386177 2.129334 C 74.943468 1.566834 75.709093 1.249126 76.50076 1.249126 C 77.292427 1.249126 78.052844 1.566834 78.615344 2.129334 Z M 78.615344 2.129334 " stroke="#000000" stroke-width="2" stroke-opacity="1" stroke-miterlimit="4"/></g></g><g clip-path="url(#c6daeda992)"><g clip-path="url(#c3294d434a)"><path fill="#2e8b57" d="M 96.339844 115.375 L 211.175781 115.375 L 211.175781 173.132812 L 96.339844 173.132812 Z M 96.339844 115.375 " fill-opacity="1" fill-rule="nonzero"/></g></g><g clip-path="url(#bb1ba08121)"><g clip-path="url(#7c4c764661)"><path stroke-linecap="butt" transform="matrix(0.75, 0, 0, 0.75, 96.346601, 115.375656)" fill="none" stroke-linejoin="miter" d="M 78.61599 2.129334 L 150.886823 74.874126 C 151.24099 75.228293 151.345157 75.764751 151.152448 76.233501 C 150.95974 76.697043 150.506615 76.999126 150.001407 76.999126 L 3.001407 76.999126 C 2.496198 76.999126 2.043073 76.697043 1.845157 76.233501 C 1.652448 75.764751 1.756615 75.228293 2.11599 74.874126 L 74.386823 2.129334 C 74.944115 1.566834 75.704532 1.249126 76.501407 1.249126 C 77.293073 1.249126 78.05349 1.566834 78.61599 2.129334 Z M 78.61599 2.129334 " stroke="#000000" stroke-width="2" stroke-opacity="1" stroke-miterlimit="4"/></g></g><path stroke-linecap="butt" transform="matrix(0.53033, 0.53033, -0.53033, 0.53033, 168.685335, 62.801362)" fill="none" stroke-linejoin="miter" d="M 0.00149336 0.498278 L 88.143096 0.501961 " stroke="#000000" stroke-width="1" stroke-opacity="1" stroke-miterlimit="4"/><path stroke-linecap="butt" transform="matrix(-0.208574, 0.720414, -0.720414, -0.208574, 169.074939, 63.084605)" fill="none" stroke-linejoin="miter" d="M 0.241738 0.435279 C 14.511645 8.390003 28.782924 8.389922 43.050574 0.436484 " stroke="#000000" stroke-width="1" stroke-opacity="1" stroke-miterlimit="4"/><path stroke-linecap="butt" transform="matrix(0.729502, -0.174144, 0.174144, 0.729502, 181.597157, 117.159249)" fill="none" stroke-linejoin="miter" d="M 0.26262 0.428053 C 15.458433 9.785039 30.659497 9.788658 45.8581 0.426359 " stroke="#000000" stroke-width="1" stroke-opacity="1" stroke-miterlimit="4"/><path stroke-linecap="butt" transform="matrix(0.514415, 0.545781, -0.545781, 0.514415, 159.899862, 93.654251)" fill="none" stroke-linejoin="miter" d="M 0.241943 0.438207 C 14.544575 8.393513 28.843982 8.394166 43.143738 0.436376 " stroke="#000000" stroke-width="1" stroke-opacity="1" stroke-miterlimit="4"/></svg>