<svg xmlns="http://www.w3.org/2000/svg" xmlns:xlink="http://www.w3.org/1999/xlink" width="500" zoomAndPan="magnify" viewBox="0 0 375 225" height="300" preserveAspectRatio="xMidYMid meet" version="1.0"><path stroke-linecap="butt" transform="matrix(0.852174, 0, 0, 0.852174, -62.241266, 50.055697)" fill="none" stroke-linejoin="miter" d="M 141.924588 21.478813 L 142.928455 53.231255 C 142.974293 54.762267 143.226406 55.903649 143.680209 56.65082 C 144.138596 57.384238 144.651989 57.948054 145.224972 58.333099 C 145.797955 58.718143 146.30218 59.089437 146.733064 59.456146 C 147.168531 59.80452 147.383973 60.395838 147.383973 61.207183 C 147.383973 61.876427 147.108941 62.343982 146.558877 62.61443 C 146.008813 62.87571 145.110375 62.999475 143.85898 62.999475 L 134.45747 62.999475 C 133.109813 62.999475 132.138033 62.87571 131.546715 62.61443 C 130.946228 62.343982 130.648277 61.876427 130.648277 61.207183 C 130.648277 60.437093 130.845383 59.86411 131.24418 59.492817 C 131.656728 59.107772 132.13345 58.718143 132.683514 58.333099 C 133.233578 57.948054 133.714884 57.375071 134.122848 56.618733 C 134.530812 55.844059 134.714166 54.716428 134.663744 53.231255 L 134.012835 23.339863 L 118.00139 58.195583 C 117.758445 58.672305 117.478829 59.048182 117.157958 59.31863 C 116.860007 59.575326 116.369533 59.772433 115.700289 59.909949 C 114.976038 60.102471 114.425974 60.088719 114.036345 59.877862 C 113.665052 59.653252 113.376269 59.359885 113.174578 58.979424 L 98.460368 23.848672 L 97.442749 54.157196 C 97.396911 55.504853 97.53901 56.527055 97.864465 57.228387 C 98.203671 57.920551 98.611635 58.456863 99.092941 58.846492 C 99.569663 59.217785 100.005131 59.566159 100.390175 59.877862 C 100.779804 60.180397 100.967742 60.652535 100.967742 61.280525 C 100.967742 61.949769 100.706462 62.398988 100.179317 62.646517 C 99.652173 62.884878 98.840828 62.999475 97.740701 62.999475 L 92.125464 62.999475 C 89.929792 62.999475 88.834248 62.426491 88.834248 61.280525 C 88.834248 60.707541 89.026771 60.253739 89.425567 59.909949 C 89.838115 59.575326 90.314837 59.217785 90.864901 58.846492 C 91.414965 58.456863 91.905439 57.920551 92.336322 57.228387 C 92.771789 56.527055 93.010151 55.504853 93.055989 54.157196 L 94.426565 21.478813 C 94.472404 20.227418 94.316552 19.26939 93.954427 18.600145 C 93.601469 17.921733 93.17517 17.385421 92.670944 16.986624 C 92.166719 16.57866 91.712916 16.193615 91.300368 15.83149 C 90.892404 15.469365 90.690714 14.974307 90.690714 14.355485 C 90.690714 13.736663 90.919907 13.310364 91.37371 13.076586 C 91.832097 12.833641 92.62969 12.705293 93.775656 12.705293 L 100.830226 12.705293 C 101.930354 12.705293 102.718779 13.237022 103.195501 14.286727 L 117.703438 48.706979 L 133.50861 14.286727 C 133.989915 13.237022 134.782924 12.705293 135.896804 12.705293 L 142.488404 12.705293 C 143.648122 12.705293 144.468634 12.833641 144.945356 13.076586 C 145.426662 13.310364 145.665023 13.736663 145.665023 14.355485 C 145.665023 14.974307 145.463333 15.469365 145.050785 15.83149 C 144.642821 16.193615 144.184434 16.555741 143.680209 16.917866 C 143.180567 17.270824 142.7451 17.784217 142.382975 18.462629 C 142.020849 19.131874 141.869582 20.13574 141.924588 21.478813 Z M 158.440258 23.129005 C 157.248453 23.083167 156.304177 22.675202 155.598261 21.914281 C 154.910681 21.148775 154.589811 20.227418 154.631066 19.163961 C 154.681488 18.160094 155.03903 17.183731 155.70369 16.23487 C 156.382102 15.276842 157.248453 14.497585 158.298159 13.897098 C 159.357032 13.296612 160.43424 13.039915 161.529784 13.127009 C 162.629912 13.172848 163.555853 13.599147 164.321359 14.392156 C 165.091449 15.185165 165.453574 16.138609 165.407735 17.234153 C 165.361897 18.23802 164.972268 19.200632 164.248017 20.112821 C 163.537518 21.020427 162.666583 21.767597 161.635213 22.34058 C 160.603843 22.913563 159.540386 23.174844 158.440258 23.129005 Z M 156.932166 53.295429 L 156.863408 39.580501 C 156.863408 38.19159 156.693805 37.137301 156.354599 36.426801 C 156.015393 35.697967 155.616597 35.175406 155.162794 34.845368 C 154.718159 34.506161 154.314779 34.199042 153.948069 33.919427 C 153.585944 33.626059 153.407173 33.181424 153.407173 32.599273 C 153.407173 32.22798 153.544689 31.893358 153.828889 31.59999 C 154.122256 31.306623 154.699824 30.976584 155.56159 30.600707 C 157.097186 29.826034 158.67862 29.179709 160.301308 28.657148 C 161.942332 28.130003 163.024125 27.84122 163.546686 27.795381 C 164.596391 27.795381 165.123536 28.414203 165.123536 29.651847 L 165.054778 39.580501 L 165.054778 53.295429 C 165.054778 54.973125 165.219797 56.219936 165.549835 57.035864 C 165.884457 57.851793 166.283254 58.456863 166.74164 58.846492 C 167.195443 59.217785 167.585072 59.566159 167.91511 59.877862 C 168.254316 60.180397 168.423919 60.69379 168.423919 61.418041 C 168.423919 62.036863 168.171807 62.463162 167.672165 62.683188 C 167.16794 62.894046 166.439105 62.999475 165.476493 62.999475 L 156.492115 62.999475 C 155.593677 62.999475 154.855675 62.884878 154.264356 62.646517 C 153.691373 62.398988 153.407173 61.972688 153.407173 61.349283 C 153.407173 60.67087 153.585944 60.180397 153.948069 59.877862 C 154.314779 59.566159 154.718159 59.217785 155.162794 58.846492 C 155.616597 58.456863 156.024561 57.851793 156.386686 57.035864 C 156.748812 56.219936 156.932166 54.973125 156.932166 53.295429 Z M 210.31129 42.738785 L 212.681149 55.179399 C 212.928677 56.274943 213.249548 57.122958 213.648345 57.718861 C 214.056309 58.314763 214.464273 58.77315 214.876821 59.084853 C 215.284785 59.391972 215.637742 59.712842 215.940278 60.052048 C 216.256564 60.395838 216.417 60.845057 216.417 61.418041 C 216.417 62.036863 216.169471 62.463162 215.665246 62.683188 C 215.16102 62.894046 214.427602 62.999475 213.469574 62.999475 L 204.650215 62.999475 C 203.733442 62.999475 202.986271 62.884878 202.399537 62.646517 C 201.826553 62.398988 201.542354 61.972688 201.542354 61.349283 C 201.542354 60.776299 201.730292 60.331664 202.119921 60.015378 C 202.504965 59.699091 202.91293 59.369052 203.348397 59.016095 C 203.77928 58.653969 204.136822 58.149744 204.416438 57.512587 C 204.709805 56.85251 204.737308 55.954072 204.48978 54.812689 L 202.330779 43.178837 C 202.051163 41.446135 201.647782 39.818862 201.125222 38.283267 C 200.593493 36.752256 199.832571 35.496277 198.824121 34.510745 C 197.820254 33.529798 196.353417 33.062244 194.437361 33.108082 C 193.043865 33.108082 191.700793 33.538966 190.403558 34.405316 C 189.115492 35.276251 188.065787 36.541398 187.245274 38.214509 C 186.438514 39.88762 186.035134 41.968696 186.035134 44.457735 L 186.035134 53.295429 C 186.035134 54.973125 186.200153 56.219936 186.525607 57.035864 C 186.864814 57.851793 187.26361 58.456863 187.717413 58.846492 C 188.175799 59.217785 188.570012 59.566159 188.895466 59.877862 C 189.234672 60.180397 189.404276 60.69379 189.404276 61.418041 C 189.404276 62.036863 189.152163 62.463162 188.647938 62.683188 C 188.148296 62.894046 187.419461 62.999475 186.456849 62.999475 L 177.403713 62.999475 C 176.491524 62.999475 175.762689 62.884878 175.212625 62.646517 C 174.662561 62.398988 174.392113 61.972688 174.392113 61.349283 C 174.392113 60.67087 174.570884 60.180397 174.93301 59.877862 C 175.295135 59.566159 175.698515 59.217785 176.14315 58.846492 C 176.596953 58.456863 177.004917 57.851793 177.367043 57.035864 C 177.729168 56.219936 177.917106 54.973125 177.917106 53.295429 L 177.917106 39.213792 C 177.917106 38.118248 177.74292 37.16022 177.403713 36.358043 C 177.064507 35.537531 176.491524 34.863703 175.689347 34.341142 C 175.345557 34.093613 175.043022 33.827749 174.772574 33.543549 C 174.515878 33.254766 174.392113 32.89264 174.392113 32.457173 C 174.392113 31.980451 174.525045 31.586239 174.809245 31.288287 C 175.098029 30.972 175.68018 30.619043 176.541947 30.229414 C 177.839181 29.656431 179.218925 29.143038 180.667426 28.684651 C 182.12968 28.235432 183.128963 27.98332 183.665275 27.937481 C 184.673725 27.937481 185.173367 28.560887 185.173367 29.812282 L 185.090857 35.124983 C 186.475185 32.686366 188.285812 30.85282 190.504403 29.638095 C 192.745914 28.409619 195.033263 27.795381 197.384787 27.795381 C 201.221483 27.795381 204.100151 29.005522 206.034543 31.425803 C 207.973518 33.846085 209.403684 37.618607 210.31129 42.738785 Z M 250.690568 52.859962 C 251.359813 52.195302 251.978635 52.053202 252.551618 52.44283 C 253.133769 52.823291 253.234614 53.49712 252.849569 54.459732 C 252.368263 55.697375 251.419403 57.035864 250.007572 58.470615 C 248.591158 59.909949 246.739276 61.147593 244.461094 62.174379 C 242.19208 63.205748 239.501351 63.719142 236.393489 63.719142 C 233.033515 63.719142 230.076921 62.990307 227.519124 61.528053 C 224.956743 60.0658 222.971929 58.067234 221.55093 55.523189 C 220.139099 52.98831 219.4286 50.114226 219.4286 46.900936 C 219.4286 43.256762 220.244528 40.006801 221.867217 37.146468 C 223.508241 34.263217 225.722248 31.989619 228.518407 30.321091 C 231.323733 28.634229 234.427011 27.795381 237.832823 27.795381 C 241.949135 27.795381 245.254103 28.863422 247.743142 31.004088 C 250.236766 33.131002 251.767777 35.730054 252.34076 38.792076 C 252.437021 39.415482 252.372847 39.974714 252.161989 40.474355 C 251.951132 40.978581 251.465242 41.372793 250.690568 41.652409 C 246.904295 43.243011 243.246369 44.686929 239.730544 45.984163 C 236.210135 47.272229 232.455948 48.610718 228.481736 50.004213 C 228.963042 51.241857 229.696461 52.461166 230.677408 53.671307 C 231.658355 54.863112 232.905167 55.857811 234.413259 56.65082 C 235.921351 57.430077 237.704475 57.824289 239.758047 57.824289 C 242.063732 57.824289 244.135639 57.333816 245.97377 56.348284 C 247.816484 55.367337 249.393334 54.207619 250.690568 52.859962 Z M 235.169597 31.810848 C 233.400225 31.916277 231.915052 32.475509 230.709495 33.479375 C 229.51769 34.478658 228.623836 35.743805 228.023349 37.247313 C 227.432031 38.755406 227.129495 40.323088 227.129495 41.95036 C 227.129495 42.816711 227.166166 43.632639 227.234924 44.402729 C 227.308266 45.163651 227.436614 45.832895 227.624553 46.405878 C 230.164015 45.585366 232.643887 44.751103 235.064168 43.898504 C 237.479866 43.032153 239.822221 42.142883 242.077483 41.230693 C 242.650467 40.983165 243.090518 40.676045 243.393053 40.300168 C 243.70934 39.919708 243.773514 39.332973 243.585575 38.562883 C 243.154692 36.41305 242.109571 34.707852 240.450211 33.442704 C 238.800019 32.16839 237.039814 31.62291 235.169597 31.810848 Z M 279.069285 27.795381 C 281.081602 27.795381 282.575942 28.345445 283.561474 29.440989 C 284.542421 30.541117 285.032895 31.861271 285.032895 33.387698 C 285.032895 34.547416 284.73036 35.537531 284.139041 36.358043 C 283.538554 37.16022 282.7868 37.5636 281.874611 37.5636 C 281.054099 37.5636 280.407774 37.403165 279.926468 37.07771 C 279.445162 36.73392 279.02803 36.335124 278.665904 35.881321 C 278.312947 35.427519 277.886647 35.033306 277.382422 34.707852 C 276.878197 34.364062 276.195201 34.199042 275.32885 34.199042 C 273.8941 34.199042 272.610617 35.060809 271.48757 36.775175 C 270.364523 38.494125 269.809875 40.790642 269.809875 43.66931 L 269.809875 53.295429 C 269.809875 54.973125 269.97031 56.219936 270.295765 57.035864 C 270.639555 57.851793 271.033767 58.456863 271.48757 58.846492 C 271.945956 59.217785 272.340169 59.566159 272.665623 59.877862 C 273.000246 60.180397 273.174433 60.69379 273.174433 61.418041 C 273.174433 62.036863 272.92232 62.463162 272.418095 62.683188 C 271.913869 62.894046 271.185035 62.999475 270.227007 62.999475 L 261.178454 62.999475 C 260.261681 62.999475 259.532846 62.884878 258.982782 62.646517 C 258.432719 62.398988 258.157687 61.972688 258.157687 61.349283 C 258.157687 60.67087 258.341041 60.180397 258.703167 59.877862 C 259.065292 59.566159 259.468672 59.217785 259.908723 58.846492 C 260.36711 58.456863 260.779658 57.851793 261.141784 57.035864 C 261.503909 56.219936 261.687264 54.973125 261.687264 53.295429 L 261.687264 39.213792 C 261.687264 38.118248 261.513077 37.16022 261.178454 36.358043 C 260.834664 35.537531 260.261681 34.863703 259.454921 34.341142 C 259.115715 34.093613 258.813179 33.827749 258.542731 33.543549 C 258.286035 33.254766 258.157687 32.89264 258.157687 32.457173 C 258.157687 31.980451 258.299786 31.586239 258.574818 31.288287 C 258.87277 30.972 259.450337 30.619043 260.316688 30.229414 C 261.613922 29.656431 262.989082 29.143038 264.437583 28.684651 C 265.899837 28.235432 266.89912 27.98332 267.440016 27.937481 C 268.443883 27.937481 268.948108 28.560887 268.948108 29.812282 L 268.856431 34.758274 C 270.107826 32.603857 271.638837 30.907826 273.454048 29.670182 C 275.273843 28.418787 277.153229 27.795381 279.069285 27.795381 Z M 326.122673 58.035147 C 327.030278 57.94347 327.488665 58.282676 327.488665 59.052766 C 327.488665 59.72201 327.167794 60.405006 326.526053 61.101754 C 325.879728 61.798502 325.045464 62.371485 324.014094 62.825288 C 322.982724 63.27909 321.914683 63.508284 320.805388 63.508284 C 319.132276 63.508284 317.885465 63.040729 317.069537 62.105621 C 316.262776 61.170512 315.666873 59.809104 315.277245 58.035147 C 313.654556 59.951203 311.710997 61.367618 309.451151 62.279807 C 307.20964 63.196581 305.02772 63.650384 302.914557 63.650384 C 298.701984 63.650384 295.4016 62.623597 292.999654 60.560858 C 290.606876 58.502702 289.405903 55.935737 289.405903 52.859962 C 289.405903 50.572613 290.052228 48.555712 291.349463 46.809259 C 292.646697 45.053638 294.457324 43.673894 296.772176 42.670027 C 299.100781 41.661577 301.841933 41.161935 305.000217 41.161935 C 306.247028 41.161935 307.365492 41.221526 308.351023 41.336122 C 309.33197 41.450719 310.468769 41.634074 311.752252 41.881602 C 311.316784 40.148901 310.817143 38.613306 310.24416 37.283984 C 309.671176 35.940912 308.869 34.886622 307.842214 34.130284 C 306.810844 33.355611 305.339423 32.965982 303.423367 32.965982 C 301.594404 32.965982 299.939628 33.245598 298.459039 33.791078 C 296.983034 34.345726 295.548284 35.028722 294.159373 35.84465 C 293.476377 36.275534 292.898809 36.275534 292.422087 35.84465 C 291.945365 35.409183 291.945365 34.785777 292.422087 33.969849 C 293.054661 33.05766 294.026441 32.136303 295.332842 31.214945 C 296.65758 30.279837 298.248181 29.491412 300.109231 28.845087 C 301.979449 28.194177 304.014685 27.864139 306.228693 27.864139 C 309.107361 27.864139 311.390126 28.414203 313.086157 29.509747 C 314.777603 30.614459 316.097757 32.049209 317.032866 33.827749 C 317.967974 35.606289 318.678474 37.522345 319.155196 39.580501 L 322.611431 54.157196 C 322.996476 55.784469 323.486949 56.838758 324.082852 57.31548 C 324.683339 57.792202 325.357167 58.035147 326.122673 58.035147 Z M 305.651126 59.401139 C 307.177553 59.401139 308.626055 59.080269 310.001215 58.438528 C 311.367207 57.792202 312.439832 56.985442 313.223673 56.004494 C 314.021265 55.018963 314.319217 54.024264 314.122111 53.020398 C 314.030433 52.296147 313.842495 51.438964 313.57663 50.453432 C 313.319934 49.472485 312.999063 48.285264 312.609435 46.900936 C 312.522341 46.323369 312.100625 45.864982 311.348871 45.512024 C 310.615453 45.149899 309.762854 44.897786 308.804826 44.755687 C 307.846798 44.604419 306.989615 44.531077 306.228693 44.531077 C 303.350025 44.531077 301.149769 45.177402 299.614174 46.474636 C 298.078578 47.776454 297.340576 49.518324 297.386415 51.723163 C 297.482676 53.918835 298.257349 55.752382 299.719603 57.210051 C 301.177272 58.672305 303.157502 59.401139 305.651126 59.401139 Z M 334.538651 53.295429 L 334.460725 23.77533 C 334.460725 22.34058 334.295706 21.272539 333.9565 20.584959 C 333.617294 19.883628 333.218498 19.351899 332.760111 18.989774 C 332.310892 18.627648 331.898344 18.315946 331.536219 18.059249 C 331.183261 17.793385 331.013658 17.367085 331.013658 16.794102 C 331.013658 16.363219 331.14659 16.005677 331.43079 15.726061 C 331.719573 15.432694 332.301724 15.093488 333.163491 14.708443 C 334.699086 13.99336 336.275936 13.374538 337.903209 12.847393 C 339.544233 12.324832 340.621442 12.036049 341.148586 11.985626 C 342.202876 11.944371 342.725436 12.563193 342.725436 13.846676 L 342.656678 23.77533 L 342.656678 53.295429 C 342.656678 54.973125 342.821698 56.219936 343.147152 57.035864 C 343.486358 57.851793 343.885155 58.456863 344.338957 58.846492 C 344.797344 59.217785 345.191556 59.566159 345.517011 59.877862 C 345.856217 60.180397 346.02582 60.69379 346.02582 61.418041 C 346.02582 62.036863 345.773707 62.463162 345.269482 62.683188 C 344.769841 62.894046 344.031838 62.999475 343.078394 62.999475 L 334.025258 62.999475 C 333.113069 62.999475 332.384234 62.884878 331.829586 62.646517 C 331.284106 62.398988 331.013658 61.972688 331.013658 61.349283 C 331.013658 60.67087 331.183261 60.180397 331.536219 59.877862 C 331.898344 59.566159 332.310892 59.217785 332.760111 58.846492 C 333.218498 58.456863 333.626462 57.851793 333.988587 57.035864 C 334.350713 56.219936 334.538651 54.973125 334.538651 53.295429 Z M 390.649759 63.719142 C 385.712935 63.719142 381.399517 62.701523 377.70492 60.666287 C 374.019492 58.635634 371.159159 55.76155 369.128506 52.053202 C 367.088686 48.331102 366.075651 43.985597 366.075651 39.002934 C 366.075651 35.216661 366.72656 31.696251 368.04213 28.44629 C 369.3577 25.182577 371.191246 22.313077 373.529018 19.846957 C 375.880542 17.380837 378.635445 15.455613 381.793729 14.075869 C 384.961181 12.686958 388.366993 11.985626 392.001999 11.985626 C 394.165584 11.985626 395.925789 12.182732 397.27803 12.572361 C 398.648606 12.943654 399.812908 13.127009 400.770936 13.127009 C 401.586864 13.127009 402.237773 12.96199 402.714495 12.636535 C 403.200385 12.297329 403.791704 12.127726 404.506787 12.127726 C 405.176031 12.127726 405.698592 12.370671 406.083637 12.847393 C 406.473265 13.328699 406.904149 14.33715 407.385455 15.863577 C 407.724661 17.055382 408.068451 18.393871 408.421409 19.883628 C 408.783534 21.368801 409.131908 23.193179 409.471114 25.356764 C 409.613214 26.163525 409.581127 26.814434 409.384021 27.318659 C 409.200666 27.822884 408.769782 28.130003 408.100538 28.235432 C 407.440461 28.276687 406.885813 28.038326 406.45493 27.515765 C 406.019463 26.984037 405.464815 26.268954 404.786403 25.356764 C 403.209553 22.913563 401.302664 20.804985 399.070321 19.040196 C 396.847146 17.261656 394.014317 16.372386 390.562665 16.372386 C 387.262282 16.372386 384.443204 17.238737 382.087097 18.966855 C 379.740157 20.690388 377.924946 22.963986 376.650631 25.792232 C 375.390068 28.611309 374.757494 31.723755 374.757494 35.124983 C 374.757494 39.383395 375.523 43.270514 377.054011 46.795507 C 378.598774 50.315916 380.766943 53.107491 383.563101 55.179399 C 386.368428 57.232971 389.682563 58.259757 393.510091 58.259757 C 396.865482 58.259757 399.689143 57.631767 401.981076 56.371204 C 404.286761 55.092305 406.349501 53.4742 408.17388 51.512305 C 408.701024 50.920987 409.20525 50.705545 409.681972 50.861396 C 410.158694 51.003496 410.479565 51.347286 410.649168 51.892766 C 410.823355 52.447414 410.695006 53.107491 410.259539 53.882164 C 409.489449 55.316915 408.215135 56.79292 406.436594 58.296428 C 404.671806 59.80452 402.453215 61.088002 399.789988 62.137708 C 397.131346 63.196581 394.087659 63.719142 390.649759 63.719142 Z M 421.178309 23.129005 C 419.981919 23.083167 419.033059 22.675202 418.336311 21.914281 C 417.644148 21.148775 417.318693 20.227418 417.369116 19.163961 C 417.414954 18.160094 417.772496 17.183731 418.437157 16.23487 C 419.115569 15.276842 419.981919 14.497585 421.036209 13.897098 C 422.085914 13.296612 423.163123 13.039915 424.263251 13.127009 C 425.363379 13.172848 426.293903 13.599147 427.054825 14.392156 C 427.820331 15.185165 428.182456 16.138609 428.141202 17.234153 C 428.095363 18.23802 427.705734 19.200632 426.981483 20.112821 C 426.2664 21.020427 425.395466 21.767597 424.36868 22.34058 C 423.341893 22.913563 422.273853 23.174844 421.178309 23.129005 Z M 419.670217 53.295429 L 419.596875 39.580501 C 419.596875 38.19159 419.427272 37.137301 419.083482 36.426801 C 418.748859 35.697967 418.350063 35.175406 417.891676 34.845368 C 417.451625 34.506161 417.048245 34.199042 416.68612 33.919427 C 416.323994 33.626059 416.136056 33.181424 416.136056 32.599273 C 416.136056 32.22798 416.278155 31.893358 416.562355 31.59999 C 416.851139 31.306623 417.428706 30.976584 418.295057 30.600707 C 419.830652 29.826034 421.407502 29.179709 423.034774 28.657148 C 424.671215 28.130003 425.753007 27.84122 426.280152 27.795381 C 427.334441 27.795381 427.857002 28.414203 427.857002 29.651847 L 427.788244 39.580501 L 427.788244 53.295429 C 427.788244 54.973125 427.953263 56.219936 428.278718 57.035864 C 428.617924 57.851793 429.012136 58.456863 429.470523 58.846492 C 429.928909 59.217785 430.323122 59.566159 430.648576 59.877862 C 430.987783 60.180397 431.157386 60.69379 431.157386 61.418041 C 431.157386 62.036863 430.905273 62.463162 430.401048 62.683188 C 429.901406 62.894046 429.167988 62.999475 428.20996 62.999475 L 419.225582 62.999475 C 418.327144 62.999475 417.584557 62.884878 416.997822 62.646517 C 416.429423 62.398988 416.136056 61.972688 416.136056 61.349283 C 416.136056 60.67087 416.323994 60.180397 416.68612 59.877862 C 417.048245 59.566159 417.451625 59.217785 417.891676 58.846492 C 418.350063 58.456863 418.758027 57.851793 419.120153 57.035864 C 419.482278 56.219936 419.670217 54.973125 419.670217 53.295429 Z M 457.239585 55.665288 C 457.858407 55.142728 458.399303 55.07397 458.85769 55.454431 C 459.306909 55.844059 459.426089 56.371204 459.187728 57.035864 C 458.853106 57.948054 458.238868 58.929001 457.345014 59.98329 C 456.455744 61.03758 455.305193 61.922266 453.893363 62.646517 C 452.490699 63.3616 450.826756 63.719142 448.906116 63.719142 C 445.844093 63.719142 443.506321 62.802368 441.8928 60.968822 C 440.293031 59.11694 439.486271 56.444546 439.486271 52.95164 L 439.486271 50.004213 C 439.486271 46.305033 439.513774 42.958811 439.555029 39.97013 C 439.605451 36.976865 439.683377 34.451155 439.788806 32.388415 L 437.418947 32.388415 C 436.598435 32.388415 436.020868 32.264651 435.681662 32.007954 C 435.356207 31.732922 435.191188 31.33871 435.191188 30.806981 C 435.191188 30.101066 435.479972 29.427238 436.052955 28.79008 C 437.382276 27.359914 438.780355 26.030593 440.242609 24.811284 C 441.704862 23.59656 443.107525 22.528519 444.450598 21.620913 C 445.119842 21.185446 445.6149 20.933333 445.926603 20.864575 C 446.24289 20.795817 446.517922 20.759146 446.751699 20.759146 C 447.233005 20.759146 447.576795 20.942501 447.787653 21.304626 C 448.007678 21.653 448.099356 22.093051 448.048933 22.620196 C 448.003094 23.486547 447.952672 24.384985 447.893082 25.320093 C 447.847243 26.255202 447.79682 27.318659 447.750982 28.515048 L 454.943068 28.515048 C 455.56189 28.515048 456.089035 28.634229 456.524502 28.881757 C 456.955385 29.115535 457.074566 29.711437 456.891211 30.674049 C 456.694105 31.677916 456.318228 32.301322 455.768164 32.548851 C 455.2181 32.782628 454.61303 32.874305 453.943785 32.823882 L 447.682224 32.599273 C 447.636385 34.565752 447.608882 36.949362 447.608882 39.754688 C 447.608882 42.564598 447.563043 45.979579 447.466782 50.004213 C 447.425527 52.772869 447.709727 54.785186 448.328549 56.036582 C 448.947371 57.274225 450.148344 57.893047 451.926884 57.893047 C 452.884912 57.893047 453.84294 57.668438 454.800968 57.210051 C 455.76358 56.756249 456.574924 56.238272 457.239585 55.665288 Z M 492.154895 28.515048 L 496.683755 28.515048 C 497.59136 28.515048 498.324779 28.625061 498.874843 28.845087 C 499.424907 29.060528 499.699939 29.473076 499.699939 30.096482 C 499.699939 30.664881 499.544087 31.109516 499.227801 31.425803 C 498.920681 31.728338 498.517301 32.08588 498.01766 32.493844 C 497.513435 32.906392 496.972538 33.483959 496.399555 34.235713 C 495.826572 34.969132 495.249005 36.055508 494.666854 37.494842 L 485.407444 61.418041 C 484.101042 64.773431 482.831311 67.711689 481.579915 70.228232 C 480.342271 72.74019 478.861682 74.679166 477.142733 76.031406 C 475.423783 77.401983 473.122682 78.084979 470.244014 78.084979 C 468.085013 78.084979 466.274385 77.534915 464.807548 76.439371 C 463.359047 75.339243 462.634796 73.945747 462.634796 72.263468 C 462.634796 71.16334 462.978586 70.15489 463.670749 69.247284 C 464.362913 68.344263 465.30719 67.895044 466.508163 67.895044 C 467.424936 67.895044 468.153771 68.156324 468.708419 68.683469 C 469.253899 69.210613 469.758124 69.829435 470.211927 70.544518 C 470.670313 71.268769 471.169955 71.905927 471.720019 72.455991 C 472.274667 73.001471 472.975998 73.281087 473.842349 73.281087 C 475.034154 73.281087 476.024269 72.533916 476.80811 71.053328 C 477.605703 69.568155 477.999916 67.931715 477.999916 66.157758 C 477.999916 65.19973 477.876151 64.296709 477.633206 63.457861 C 477.399429 62.628181 477.115229 61.775582 476.789775 60.913815 L 467.512029 37.494842 C 466.934462 36.055508 466.352311 34.969132 465.760992 34.235713 C 465.160506 33.483959 464.624194 32.906392 464.142888 32.493844 C 463.661582 32.08588 463.262785 31.728338 462.946499 31.425803 C 462.634796 31.109516 462.47436 30.664881 462.47436 30.096482 C 462.47436 29.427238 462.740225 28.996354 463.262785 28.812999 C 463.803682 28.611309 464.523349 28.515048 465.421786 28.515048 L 474.914974 28.515048 C 475.873002 28.515048 476.62934 28.625061 477.17482 28.845087 C 477.724884 29.060528 477.999916 29.473076 477.999916 30.096482 C 477.999916 30.664881 477.793642 31.109516 477.390261 31.425803 C 476.991465 31.728338 476.588085 32.08588 476.175537 32.493844 C 475.767573 32.906392 475.497125 33.483959 475.37336 34.235713 C 475.249596 34.969132 475.487957 36.055508 476.070108 37.494842 L 483.454716 56.453713 L 490.788903 37.494842 C 491.361886 36.055508 491.600247 34.959964 491.50857 34.199042 C 491.416892 33.424369 491.183115 32.846802 490.82099 32.457173 C 490.4772 32.076712 490.119658 31.728338 489.757533 31.425803 C 489.390823 31.109516 489.207469 30.664881 489.207469 30.096482 C 489.207469 29.427238 489.473333 28.996354 489.995894 28.812999 C 490.527622 28.611309 491.247289 28.515048 492.154895 28.515048 Z M 492.154895 28.515048 " stroke="#000000" stroke-width="5.389" stroke-opacity="1" stroke-miterlimit="4"/><path fill="#ffffff" d="M 58.703125 68.359375 L 59.542969 95.417969 C 59.589844 96.71875 59.804688 97.6875 60.1875 98.316406 C 60.582031 98.953125 61.019531 99.4375 61.515625 99.765625 C 62 100.089844 62.425781 100.40625 62.785156 100.714844 C 63.152344 101.015625 63.339844 101.519531 63.339844 102.21875 C 63.339844 102.785156 63.105469 103.179688 62.640625 103.402344 C 62.175781 103.628906 61.410156 103.742188 60.351562 103.742188 L 52.328125 103.742188 C 51.183594 103.742188 50.347656 103.628906 49.839844 103.402344 C 49.335938 103.179688 49.085938 102.785156 49.085938 102.21875 C 49.085938 101.566406 49.257812 101.074219 49.605469 100.753906 C 49.949219 100.421875 50.359375 100.089844 50.824219 99.765625 C 51.296875 99.4375 51.710938 98.945312 52.058594 98.300781 C 52.402344 97.644531 52.550781 96.683594 52.507812 95.417969 L 51.953125 69.953125 L 38.308594 99.640625 C 38.101562 100.050781 37.863281 100.367188 37.589844 100.589844 C 37.328125 100.820312 36.914062 100.992188 36.355469 101.109375 C 35.734375 101.28125 35.261719 101.273438 34.941406 101.09375 C 34.617188 100.90625 34.371094 100.644531 34.207031 100.324219 L 21.65625 70.382812 L 20.792969 96.203125 C 20.757812 97.351562 20.882812 98.222656 21.171875 98.820312 C 21.457031 99.40625 21.800781 99.867188 22.210938 100.195312 C 22.613281 100.519531 22.980469 100.816406 23.300781 101.074219 C 23.632812 101.339844 23.804688 101.738281 23.804688 102.273438 C 23.804688 102.847656 23.574219 103.238281 23.121094 103.4375 C 22.679688 103.644531 21.984375 103.742188 21.046875 103.742188 L 16.265625 103.742188 C 14.390625 103.742188 13.453125 103.253906 13.453125 102.273438 C 13.453125 101.785156 13.625 101.398438 13.972656 101.109375 C 14.316406 100.824219 14.726562 100.519531 15.191406 100.195312 C 15.664062 99.867188 16.085938 99.40625 16.445312 98.820312 C 16.8125 98.222656 17.019531 97.351562 17.070312 96.203125 L 18.234375 68.359375 C 18.269531 67.300781 18.132812 66.480469 17.824219 65.90625 C 17.523438 65.332031 17.160156 64.878906 16.730469 64.527344 C 16.300781 64.183594 15.910156 63.859375 15.566406 63.5625 C 15.21875 63.253906 15.046875 62.828125 15.046875 62.289062 C 15.046875 61.765625 15.234375 61.402344 15.621094 61.199219 C 16.015625 60.996094 16.699219 60.894531 17.679688 60.894531 L 23.679688 60.894531 C 24.617188 60.894531 25.292969 61.339844 25.703125 62.234375 L 38.054688 91.566406 L 51.539062 62.234375 C 51.941406 61.339844 52.613281 60.894531 53.546875 60.894531 L 59.1875 60.894531 C 60.160156 60.894531 60.855469 60.996094 61.261719 61.199219 C 61.664062 61.402344 61.871094 61.765625 61.871094 62.289062 C 61.871094 62.828125 61.695312 63.253906 61.351562 63.5625 C 61.003906 63.859375 60.617188 64.164062 60.1875 64.472656 C 59.757812 64.773438 59.386719 65.207031 59.078125 65.78125 C 58.777344 66.355469 58.652344 67.214844 58.703125 68.359375 Z M 58.703125 68.359375 " fill-opacity="1" fill-rule="nonzero"/><path fill="#ffffff" d="M 72.78125 69.757812 C 71.75 69.722656 70.941406 69.378906 70.347656 68.734375 C 69.761719 68.082031 69.492188 67.300781 69.539062 66.390625 C 69.578125 65.542969 69.878906 64.714844 70.453125 63.902344 C 71.027344 63.078125 71.761719 62.410156 72.65625 61.894531 C 73.550781 61.386719 74.46875 61.171875 75.414062 61.25 C 76.34375 61.300781 77.136719 61.660156 77.796875 62.324219 C 78.449219 62.996094 78.753906 63.800781 78.707031 64.742188 C 78.671875 65.601562 78.339844 66.421875 77.722656 67.195312 C 77.113281 67.976562 76.367188 68.605469 75.484375 69.09375 C 74.613281 69.585938 73.710938 69.804688 72.78125 69.757812 Z M 71.492188 95.46875 L 71.4375 83.777344 C 71.4375 82.59375 71.296875 81.699219 71.007812 81.089844 C 70.722656 80.480469 70.382812 80.035156 69.988281 79.75 C 69.601562 79.460938 69.257812 79.203125 68.949219 78.960938 C 68.636719 78.710938 68.484375 78.34375 68.484375 77.851562 C 68.484375 77.519531 68.601562 77.230469 68.84375 76.992188 C 69.09375 76.738281 69.585938 76.453125 70.328125 76.132812 C 71.625 75.476562 72.96875 74.925781 74.355469 74.484375 C 75.753906 74.03125 76.675781 73.785156 77.132812 73.75 C 78.027344 73.75 78.476562 74.28125 78.476562 75.34375 L 78.402344 83.777344 L 78.402344 95.46875 C 78.402344 96.902344 78.546875 97.96875 78.832031 98.65625 C 79.121094 99.351562 79.453125 99.867188 79.835938 100.195312 C 80.230469 100.519531 80.570312 100.816406 80.855469 101.074219 C 81.144531 101.339844 81.285156 101.78125 81.285156 102.398438 C 81.285156 102.929688 81.070312 103.285156 80.640625 103.472656 C 80.210938 103.652344 79.589844 103.742188 78.78125 103.742188 L 71.117188 103.742188 C 70.335938 103.742188 69.707031 103.644531 69.21875 103.4375 C 68.726562 103.238281 68.484375 102.863281 68.484375 102.328125 C 68.484375 101.753906 68.636719 101.339844 68.949219 101.074219 C 69.257812 100.816406 69.601562 100.519531 69.988281 100.195312 C 70.382812 99.867188 70.726562 99.351562 71.027344 98.65625 C 71.335938 97.96875 71.492188 96.902344 71.492188 95.46875 Z M 71.492188 95.46875 " fill-opacity="1" fill-rule="nonzero"/><path fill="#ffffff" d="M 116.988281 86.480469 L 118.992188 97.0625 C 119.195312 98.007812 119.46875 98.738281 119.816406 99.25 C 120.175781 99.75 120.523438 100.140625 120.875 100.410156 C 121.21875 100.675781 121.523438 100.949219 121.789062 101.234375 C 122.046875 101.523438 122.179688 101.910156 122.179688 102.398438 C 122.179688 102.929688 121.964844 103.285156 121.535156 103.472656 C 121.105469 103.652344 120.484375 103.742188 119.675781 103.742188 L 112.136719 103.742188 C 111.355469 103.742188 110.726562 103.644531 110.238281 103.4375 C 109.746094 103.238281 109.503906 102.863281 109.503906 102.328125 C 109.503906 101.839844 109.664062 101.464844 109.988281 101.199219 C 110.316406 100.941406 110.671875 100.660156 111.042969 100.359375 C 111.410156 100.050781 111.714844 99.621094 111.957031 99.070312 C 112.207031 98.507812 112.230469 97.738281 112.027344 96.757812 L 110.183594 86.839844 C 109.933594 85.371094 109.578125 83.988281 109.128906 82.683594 C 108.683594 81.375 108.035156 80.300781 107.175781 79.460938 C 106.324219 78.628906 105.085938 78.234375 103.453125 78.28125 C 102.269531 78.28125 101.125 78.652344 100.011719 79.390625 C 98.910156 80.121094 98.015625 81.199219 97.328125 82.632812 C 96.632812 84.054688 96.289062 85.828125 96.289062 87.949219 L 96.289062 95.46875 C 96.289062 96.902344 96.433594 97.96875 96.71875 98.65625 C 97.003906 99.351562 97.335938 99.867188 97.722656 100.195312 C 98.117188 100.519531 98.457031 100.816406 98.742188 101.074219 C 99.027344 101.339844 99.171875 101.78125 99.171875 102.398438 C 99.171875 102.929688 98.957031 103.285156 98.527344 103.472656 C 98.097656 103.652344 97.46875 103.742188 96.648438 103.742188 L 88.945312 103.742188 C 88.167969 103.742188 87.542969 103.644531 87.066406 103.4375 C 86.601562 103.238281 86.367188 102.863281 86.367188 102.328125 C 86.367188 101.753906 86.515625 101.339844 86.816406 101.074219 C 87.125 100.816406 87.46875 100.519531 87.855469 100.195312 C 88.25 99.867188 88.597656 99.351562 88.910156 98.65625 C 89.21875 97.96875 89.378906 96.902344 89.378906 95.46875 L 89.378906 83.472656 C 89.378906 82.542969 89.234375 81.730469 88.945312 81.039062 C 88.660156 80.335938 88.167969 79.761719 87.480469 79.320312 C 87.191406 79.117188 86.933594 78.898438 86.707031 78.65625 C 86.480469 78.40625 86.367188 78.097656 86.367188 77.726562 C 86.367188 77.320312 86.484375 76.984375 86.726562 76.722656 C 86.976562 76.449219 87.46875 76.148438 88.214844 75.828125 C 89.308594 75.339844 90.476562 74.90625 91.722656 74.519531 C 92.960938 74.125 93.808594 73.910156 94.265625 73.875 C 95.125 73.875 95.554688 74.402344 95.554688 75.449219 L 95.484375 79.980469 C 96.671875 77.902344 98.222656 76.347656 100.121094 75.308594 C 102.019531 74.269531 103.960938 73.75 105.957031 73.75 C 109.226562 73.75 111.6875 74.785156 113.335938 76.847656 C 114.992188 78.902344 116.210938 82.113281 116.988281 86.480469 Z M 116.988281 86.480469 " fill-opacity="1" fill-rule="nonzero"/><path fill="#ffffff" d="M 151.394531 95.113281 C 151.957031 94.539062 152.480469 94.421875 152.972656 94.753906 C 153.460938 95.074219 153.546875 95.644531 153.222656 96.453125 C 152.816406 97.519531 152.007812 98.667969 150.804688 99.894531 C 149.597656 101.109375 148.019531 102.164062 146.078125 103.042969 C 144.144531 103.914062 141.851562 104.351562 139.203125 104.351562 C 136.347656 104.351562 133.832031 103.734375 131.644531 102.488281 C 129.460938 101.25 127.765625 99.546875 126.558594 97.386719 C 125.351562 95.214844 124.75 92.761719 124.75 90.027344 C 124.75 86.925781 125.441406 84.148438 126.828125 81.699219 C 128.226562 79.253906 130.113281 77.320312 132.503906 75.898438 C 134.890625 74.464844 137.535156 73.75 140.4375 73.75 C 143.945312 73.75 146.757812 74.660156 148.871094 76.472656 C 150.992188 78.289062 152.300781 80.5 152.792969 83.113281 C 152.875 83.644531 152.820312 84.117188 152.632812 84.546875 C 152.453125 84.976562 152.039062 85.316406 151.394531 85.566406 C 148.160156 86.90625 145.042969 88.128906 142.050781 89.238281 C 139.050781 90.339844 135.859375 91.476562 132.46875 92.660156 C 132.871094 93.722656 133.496094 94.765625 134.332031 95.792969 C 135.164062 96.808594 136.230469 97.65625 137.519531 98.335938 C 138.808594 99.007812 140.332031 99.335938 142.085938 99.335938 C 144.042969 99.335938 145.800781 98.921875 147.367188 98.085938 C 148.941406 97.25 150.285156 96.257812 151.394531 95.113281 Z M 138.164062 77.167969 C 136.660156 77.253906 135.390625 77.726562 134.367188 78.585938 C 133.351562 79.445312 132.585938 80.519531 132.074219 81.808594 C 131.5625 83.085938 131.304688 84.417969 131.304688 85.800781 C 131.304688 86.542969 131.332031 87.242188 131.394531 87.894531 C 131.453125 88.539062 131.566406 89.109375 131.734375 89.597656 C 133.894531 88.90625 136.003906 88.195312 138.074219 87.464844 C 140.136719 86.726562 142.125 85.96875 144.035156 85.191406 C 144.523438 84.992188 144.902344 84.726562 145.164062 84.402344 C 145.4375 84.074219 145.492188 83.582031 145.324219 82.9375 C 144.953125 81.101562 144.0625 79.636719 142.65625 78.546875 C 141.246094 77.464844 139.75 77.003906 138.164062 77.167969 Z M 138.164062 77.167969 " fill-opacity="1" fill-rule="nonzero"/><path fill="#ffffff" d="M 175.570312 73.75 C 177.289062 73.75 178.566406 74.222656 179.402344 75.164062 C 180.238281 76.09375 180.65625 77.214844 180.65625 78.511719 C 180.65625 79.492188 180.398438 80.335938 179.886719 81.039062 C 179.371094 81.730469 178.726562 82.074219 177.953125 82.074219 C 177.257812 82.074219 176.710938 81.933594 176.304688 81.644531 C 175.898438 81.359375 175.539062 81.027344 175.230469 80.644531 C 174.933594 80.25 174.570312 79.910156 174.140625 79.621094 C 173.710938 79.335938 173.125 79.191406 172.382812 79.191406 C 171.167969 79.191406 170.074219 79.925781 169.109375 81.394531 C 168.148438 82.863281 167.675781 84.824219 167.675781 87.269531 L 167.675781 95.46875 C 167.675781 96.902344 167.820312 97.96875 168.105469 98.65625 C 168.390625 99.351562 168.722656 99.867188 169.109375 100.195312 C 169.5 100.519531 169.84375 100.816406 170.128906 101.074219 C 170.414062 101.339844 170.558594 101.78125 170.558594 102.398438 C 170.558594 102.929688 170.34375 103.285156 169.914062 103.472656 C 169.484375 103.652344 168.855469 103.742188 168.035156 103.742188 L 160.332031 103.742188 C 159.554688 103.742188 158.929688 103.644531 158.453125 103.4375 C 157.988281 103.238281 157.753906 102.863281 157.753906 102.328125 C 157.753906 101.753906 157.902344 101.339844 158.203125 101.074219 C 158.511719 100.816406 158.855469 100.519531 159.242188 100.195312 C 159.636719 99.867188 159.984375 99.351562 160.296875 98.65625 C 160.605469 97.96875 160.761719 96.902344 160.761719 95.46875 L 160.761719 83.472656 C 160.761719 82.542969 160.621094 81.730469 160.332031 81.039062 C 160.046875 80.335938 159.554688 79.761719 158.867188 79.320312 C 158.578125 79.117188 158.320312 78.898438 158.09375 78.65625 C 157.867188 78.40625 157.753906 78.097656 157.753906 77.726562 C 157.753906 77.320312 157.871094 76.984375 158.113281 76.722656 C 158.363281 76.449219 158.855469 76.148438 159.597656 75.828125 C 160.695312 75.339844 161.863281 74.90625 163.109375 74.519531 C 164.347656 74.125 165.195312 73.910156 165.652344 73.875 C 166.511719 73.875 166.941406 74.402344 166.941406 75.449219 L 166.871094 79.675781 C 167.929688 77.839844 169.238281 76.394531 170.789062 75.34375 C 172.339844 74.28125 173.933594 73.75 175.570312 73.75 Z M 175.570312 73.75 " fill-opacity="1" fill-rule="nonzero"/><path fill="#ffffff" d="M 215.679688 99.515625 C 216.453125 99.4375 216.84375 99.722656 216.84375 100.375 C 216.84375 100.949219 216.5625 101.535156 216 102.132812 C 215.449219 102.71875 214.734375 103.207031 213.851562 103.597656 C 212.980469 103.980469 212.082031 104.171875 211.148438 104.171875 C 209.714844 104.171875 208.652344 103.777344 207.960938 102.992188 C 207.269531 102.195312 206.753906 101.035156 206.421875 99.515625 C 205.035156 101.15625 203.382812 102.359375 201.460938 103.132812 C 199.550781 103.910156 197.691406 104.296875 195.894531 104.296875 C 192.296875 104.296875 189.484375 103.421875 187.441406 101.664062 C 185.398438 99.910156 184.378906 97.726562 184.378906 95.113281 C 184.378906 93.15625 184.925781 91.433594 186.027344 89.9375 C 187.136719 88.445312 188.679688 87.277344 190.664062 86.425781 C 192.644531 85.566406 194.980469 85.136719 197.664062 85.136719 C 198.726562 85.136719 199.675781 85.191406 200.511719 85.300781 C 201.34375 85.398438 202.320312 85.546875 203.429688 85.746094 C 203.058594 84.277344 202.628906 82.972656 202.140625 81.824219 C 201.648438 80.679688 200.964844 79.785156 200.082031 79.140625 C 199.210938 78.484375 197.957031 78.15625 196.324219 78.15625 C 194.769531 78.15625 193.359375 78.386719 192.097656 78.851562 C 190.828125 79.320312 189.609375 79.90625 188.425781 80.609375 C 187.851562 80.964844 187.359375 80.964844 186.957031 80.609375 C 186.550781 80.242188 186.550781 79.707031 186.957031 79.015625 C 187.496094 78.238281 188.324219 77.453125 189.445312 76.652344 C 190.566406 75.855469 191.921875 75.175781 193.511719 74.628906 C 195.097656 74.082031 196.832031 73.804688 198.722656 73.804688 C 201.167969 73.804688 203.113281 74.277344 204.558594 75.21875 C 206 76.148438 207.125 77.375 207.925781 78.890625 C 208.722656 80.394531 209.328125 82.023438 209.734375 83.777344 L 212.671875 96.203125 C 212.992188 97.601562 213.410156 98.503906 213.925781 98.90625 C 214.433594 99.316406 215.019531 99.515625 215.679688 99.515625 Z M 198.222656 100.679688 C 199.53125 100.679688 200.769531 100.40625 201.925781 99.855469 C 203.082031 99.3125 203.996094 98.617188 204.667969 97.78125 C 205.347656 96.945312 205.605469 96.097656 205.453125 95.238281 C 205.371094 94.621094 205.214844 93.890625 204.988281 93.050781 C 204.761719 92.21875 204.488281 91.207031 204.164062 90.027344 C 204.082031 89.539062 203.722656 89.144531 203.089844 88.84375 C 202.457031 88.535156 201.730469 88.320312 200.90625 88.199219 C 200.09375 88.070312 199.367188 88.003906 198.722656 88.003906 C 196.261719 88.003906 194.378906 88.558594 193.082031 89.667969 C 191.777344 90.769531 191.148438 92.253906 191.183594 94.128906 C 191.265625 96.003906 191.925781 97.566406 193.171875 98.820312 C 194.410156 100.0625 196.09375 100.679688 198.222656 100.679688 Z M 198.222656 100.679688 " fill-opacity="1" fill-rule="nonzero"/><path fill="#ffffff" d="M 222.832031 95.46875 L 222.78125 70.3125 C 222.78125 69.09375 222.636719 68.195312 222.351562 67.609375 C 222.0625 67.011719 221.722656 66.558594 221.328125 66.246094 C 220.945312 65.9375 220.601562 65.675781 220.289062 65.460938 C 219.992188 65.234375 219.84375 64.878906 219.84375 64.382812 C 219.84375 64.019531 219.960938 63.714844 220.203125 63.472656 C 220.453125 63.222656 220.941406 62.929688 221.667969 62.59375 C 222.980469 61.984375 224.328125 61.460938 225.714844 61.019531 C 227.101562 60.566406 228.015625 60.320312 228.472656 60.285156 C 229.371094 60.238281 229.816406 60.761719 229.816406 61.859375 L 229.746094 70.3125 L 229.746094 95.46875 C 229.746094 96.902344 229.890625 97.96875 230.175781 98.65625 C 230.460938 99.351562 230.792969 99.867188 231.179688 100.195312 C 231.570312 100.519531 231.914062 100.816406 232.199219 101.074219 C 232.484375 101.339844 232.628906 101.78125 232.628906 102.398438 C 232.628906 102.929688 232.414062 103.285156 231.984375 103.472656 C 231.554688 103.652344 230.933594 103.742188 230.121094 103.742188 L 222.402344 103.742188 C 221.625 103.742188 221.007812 103.644531 220.542969 103.4375 C 220.074219 103.238281 219.84375 102.863281 219.84375 102.328125 C 219.84375 101.753906 219.992188 101.339844 220.289062 101.074219 C 220.601562 100.816406 220.945312 100.519531 221.328125 100.195312 C 221.722656 99.867188 222.066406 99.351562 222.367188 98.65625 C 222.675781 97.96875 222.832031 96.902344 222.832031 95.46875 Z M 222.832031 95.46875 " fill-opacity="1" fill-rule="nonzero"/><path fill="#ffffff" d="M 270.65625 104.351562 C 266.441406 104.351562 262.765625 103.488281 259.628906 101.753906 C 256.484375 100.027344 254.042969 97.578125 252.304688 94.414062 C 250.570312 91.253906 249.707031 87.546875 249.707031 83.292969 C 249.707031 80.070312 250.265625 77.074219 251.390625 74.304688 C 252.507812 71.523438 254.066406 69.085938 256.0625 66.980469 C 258.070312 64.882812 260.417969 63.238281 263.117188 62.058594 C 265.8125 60.875 268.714844 60.285156 271.820312 60.285156 C 273.648438 60.285156 275.136719 60.445312 276.296875 60.769531 C 277.464844 61.089844 278.464844 61.25 279.289062 61.25 C 279.976562 61.25 280.527344 61.109375 280.9375 60.820312 C 281.339844 60.535156 281.851562 60.390625 282.476562 60.390625 C 283.035156 60.390625 283.476562 60.601562 283.800781 61.019531 C 284.132812 61.425781 284.503906 62.28125 284.910156 63.578125 C 285.195312 64.609375 285.488281 65.753906 285.789062 67.015625 C 286.097656 68.285156 286.398438 69.828125 286.683594 71.65625 C 286.8125 72.363281 286.796875 72.925781 286.628906 73.355469 C 286.460938 73.777344 286.09375 74.027344 285.519531 74.109375 C 284.957031 74.15625 284.488281 73.957031 284.121094 73.5 C 283.75 73.046875 283.28125 72.433594 282.707031 71.65625 C 281.355469 69.578125 279.734375 67.785156 277.835938 66.28125 C 275.941406 64.769531 273.523438 64.007812 270.585938 64.007812 C 267.765625 64.007812 265.355469 64.742188 263.351562 66.210938 C 261.355469 67.679688 259.816406 69.621094 258.730469 72.03125 C 257.65625 74.445312 257.121094 77.09375 257.121094 79.980469 C 257.121094 83.625 257.769531 86.941406 259.070312 89.9375 C 260.382812 92.9375 262.234375 95.308594 264.621094 97.0625 C 267.007812 98.820312 269.832031 99.695312 273.09375 99.695312 C 275.957031 99.695312 278.367188 99.160156 280.328125 98.085938 C 282.28125 97 284.039062 95.621094 285.589844 93.949219 C 286.03125 93.460938 286.457031 93.277344 286.863281 93.394531 C 287.277344 93.511719 287.5625 93.8125 287.703125 94.289062 C 287.847656 94.753906 287.730469 95.316406 287.363281 95.972656 C 286.707031 97.1875 285.617188 98.441406 284.105469 99.730469 C 282.601562 101.019531 280.710938 102.113281 278.445312 103.007812 C 276.191406 103.902344 273.59375 104.351562 270.65625 104.351562 Z M 270.65625 104.351562 " fill-opacity="1" fill-rule="nonzero"/><path fill="#ffffff" d="M 296.675781 69.757812 C 295.644531 69.722656 294.835938 69.378906 294.242188 68.734375 C 293.652344 68.082031 293.386719 67.300781 293.433594 66.390625 C 293.46875 65.542969 293.773438 64.714844 294.347656 63.902344 C 294.921875 63.078125 295.65625 62.410156 296.550781 61.894531 C 297.445312 61.386719 298.363281 61.171875 299.308594 61.25 C 300.238281 61.300781 301.03125 61.660156 301.6875 62.324219 C 302.34375 62.996094 302.648438 63.800781 302.601562 64.742188 C 302.566406 65.601562 302.234375 66.421875 301.617188 67.195312 C 301.007812 67.976562 300.261719 68.605469 299.378906 69.09375 C 298.507812 69.585938 297.605469 69.804688 296.675781 69.757812 Z M 295.386719 95.46875 L 295.332031 83.777344 C 295.332031 82.59375 295.1875 81.699219 294.902344 81.089844 C 294.617188 80.480469 294.277344 80.035156 293.882812 79.75 C 293.496094 79.460938 293.152344 79.203125 292.84375 78.960938 C 292.53125 78.710938 292.378906 78.34375 292.378906 77.851562 C 292.378906 77.519531 292.496094 77.230469 292.734375 76.992188 C 292.988281 76.738281 293.480469 76.453125 294.222656 76.132812 C 295.519531 75.476562 296.863281 74.925781 298.25 74.484375 C 299.648438 74.03125 300.570312 73.785156 301.027344 73.75 C 301.921875 73.75 302.371094 74.28125 302.371094 75.34375 L 302.296875 83.777344 L 302.296875 95.46875 C 302.296875 96.902344 302.441406 97.96875 302.726562 98.65625 C 303.015625 99.351562 303.34375 99.867188 303.730469 100.195312 C 304.125 100.519531 304.464844 100.816406 304.75 101.074219 C 305.039062 101.339844 305.179688 101.78125 305.179688 102.398438 C 305.179688 102.929688 304.964844 103.285156 304.535156 103.472656 C 304.105469 103.652344 303.484375 103.742188 302.675781 103.742188 L 295.011719 103.742188 C 294.230469 103.742188 293.601562 103.644531 293.113281 103.4375 C 292.621094 103.238281 292.378906 102.863281 292.378906 102.328125 C 292.378906 101.753906 292.53125 101.339844 292.84375 101.074219 C 293.152344 100.816406 293.496094 100.519531 293.882812 100.195312 C 294.277344 99.867188 294.621094 99.351562 294.921875 98.65625 C 295.230469 97.96875 295.386719 96.902344 295.386719 95.46875 Z M 295.386719 95.46875 " fill-opacity="1" fill-rule="nonzero"/><path fill="#ffffff" d="M 327.398438 97.492188 C 327.9375 97.054688 328.394531 96.992188 328.777344 97.3125 C 329.171875 97.636719 329.265625 98.085938 329.0625 98.65625 C 328.777344 99.4375 328.25 100.277344 327.488281 101.183594 C 326.738281 102.078125 325.757812 102.828125 324.550781 103.4375 C 323.34375 104.046875 321.929688 104.351562 320.308594 104.351562 C 317.695312 104.351562 315.699219 103.574219 314.328125 102.003906 C 312.964844 100.429688 312.285156 98.152344 312.285156 95.164062 L 312.285156 92.660156 C 312.285156 89.519531 312.304688 86.679688 312.339844 84.136719 C 312.382812 81.582031 312.453125 79.425781 312.535156 77.671875 L 310.511719 77.671875 C 309.820312 77.671875 309.332031 77.558594 309.046875 77.332031 C 308.757812 77.105469 308.617188 76.765625 308.617188 76.308594 C 308.617188 75.703125 308.855469 75.136719 309.347656 74.609375 C 310.480469 73.382812 311.667969 72.246094 312.914062 71.207031 C 314.167969 70.167969 315.367188 69.265625 316.511719 68.484375 C 317.085938 68.117188 317.5 67.902344 317.765625 67.839844 C 318.023438 67.78125 318.257812 67.75 318.464844 67.75 C 318.867188 67.75 319.164062 67.90625 319.339844 68.214844 C 319.53125 68.515625 319.609375 68.890625 319.574219 69.34375 C 319.523438 70.074219 319.476562 70.839844 319.429688 71.636719 C 319.394531 72.425781 319.359375 73.332031 319.324219 74.359375 L 325.449219 74.359375 C 325.972656 74.359375 326.417969 74.460938 326.789062 74.664062 C 327.15625 74.867188 327.261719 75.375 327.09375 76.183594 C 326.9375 77.042969 326.621094 77.578125 326.144531 77.777344 C 325.679688 77.984375 325.160156 78.066406 324.585938 78.027344 L 319.269531 77.851562 C 319.21875 79.523438 319.199219 81.550781 319.199219 83.9375 C 319.199219 86.328125 319.152344 89.234375 319.074219 92.660156 C 319.035156 95.023438 319.277344 96.738281 319.808594 97.796875 C 320.34375 98.863281 321.363281 99.390625 322.867188 99.390625 C 323.691406 99.390625 324.507812 99.203125 325.320312 98.820312 C 326.132812 98.425781 326.824219 97.984375 327.398438 97.492188 Z M 327.398438 97.492188 " fill-opacity="1" fill-rule="nonzero"/><path fill="#ffffff" d="M 357.167969 74.359375 L 361.019531 74.359375 C 361.792969 74.359375 362.414062 74.457031 362.878906 74.644531 C 363.355469 74.824219 363.597656 75.175781 363.597656 75.703125 C 363.597656 76.195312 363.457031 76.574219 363.183594 76.847656 C 362.921875 77.113281 362.574219 77.414062 362.144531 77.761719 C 361.714844 78.109375 361.253906 78.597656 360.765625 79.230469 C 360.273438 79.863281 359.785156 80.785156 359.300781 82.003906 L 351.402344 102.398438 C 350.300781 105.25 349.222656 107.746094 348.160156 109.882812 C 347.097656 112.035156 345.832031 113.683594 344.363281 114.84375 C 342.898438 116.011719 340.9375 116.597656 338.492188 116.597656 C 336.652344 116.597656 335.109375 116.125 333.855469 115.183594 C 332.609375 114.253906 331.992188 113.070312 331.992188 111.640625 C 331.992188 110.695312 332.28125 109.835938 332.871094 109.0625 C 333.464844 108.28125 334.273438 107.898438 335.304688 107.898438 C 336.078125 107.898438 336.703125 108.121094 337.167969 108.578125 C 337.640625 109.03125 338.070312 109.5625 338.457031 110.171875 C 338.835938 110.78125 339.261719 111.316406 339.726562 111.78125 C 340.203125 112.257812 340.8125 112.5 341.554688 112.5 C 342.566406 112.5 343.40625 111.863281 344.078125 110.601562 C 344.757812 109.332031 345.097656 107.941406 345.097656 106.429688 C 345.097656 105.613281 344.996094 104.851562 344.792969 104.136719 C 344.589844 103.421875 344.347656 102.699219 344.0625 101.96875 L 336.164062 82.003906 C 335.671875 80.785156 335.171875 79.863281 334.660156 79.230469 C 334.144531 78.597656 333.683594 78.109375 333.28125 77.761719 C 332.875 77.414062 332.535156 77.113281 332.261719 76.847656 C 331.996094 76.574219 331.867188 76.195312 331.867188 75.703125 C 331.867188 75.128906 332.089844 74.765625 332.546875 74.609375 C 333 74.445312 333.613281 74.359375 334.390625 74.359375 L 342.46875 74.359375 C 343.277344 74.359375 343.917969 74.457031 344.382812 74.644531 C 344.859375 74.824219 345.097656 75.175781 345.097656 75.703125 C 345.097656 76.195312 344.925781 76.574219 344.578125 76.847656 C 344.230469 77.113281 343.886719 77.414062 343.542969 77.761719 C 343.191406 78.109375 342.96875 78.597656 342.859375 79.230469 C 342.761719 79.863281 342.960938 80.785156 343.453125 82.003906 L 349.753906 98.171875 L 356.003906 82.003906 C 356.492188 80.785156 356.695312 79.851562 356.613281 79.191406 C 356.527344 78.539062 356.332031 78.046875 356.023438 77.726562 C 355.722656 77.402344 355.417969 77.113281 355.109375 76.847656 C 354.796875 76.574219 354.644531 76.195312 354.644531 75.703125 C 354.644531 75.128906 354.867188 74.765625 355.324219 74.609375 C 355.777344 74.445312 356.390625 74.359375 357.167969 74.359375 Z M 357.167969 74.359375 " fill-opacity="1" fill-rule="nonzero"/><path stroke-linecap="butt" transform="matrix(0.867817, 0, 0, 0.867817, 113.07505, 114.472416)" fill="none" stroke-linejoin="miter" d="M 53.937394 14.912882 L 54.61258 36.392797 C 54.644089 37.423581 54.815136 38.197794 55.125721 38.706434 C 55.431806 39.206072 55.778401 39.579674 56.170009 39.845248 C 56.557116 40.106319 56.89921 40.358389 57.187289 40.601456 C 57.47987 40.840021 57.632912 41.23613 57.632912 41.789783 C 57.632912 42.244408 57.439358 42.559495 57.070257 42.739544 C 56.696654 42.915093 56.088987 43.000616 55.242754 43.000616 L 48.882502 43.000616 C 47.973252 43.000616 47.320572 42.915093 46.91096 42.739544 C 46.510349 42.559495 46.307793 42.244408 46.307793 41.789783 C 46.307793 41.267639 46.442831 40.880533 46.712905 40.628463 C 46.987481 40.367391 47.316071 40.106319 47.685173 39.845248 C 48.058776 39.579674 48.382865 39.192568 48.661942 38.683928 C 48.936517 38.157283 49.058051 37.392072 49.026542 36.392797 L 48.589922 16.17323 L 37.755439 39.750721 C 37.588893 40.070309 37.399841 40.322379 37.183781 40.511431 C 36.976724 40.677977 36.652635 40.817515 36.19801 40.912041 C 35.707375 41.038076 35.338273 41.029073 35.0727 40.885034 C 34.82063 40.736493 34.627077 40.533937 34.49204 40.281868 L 24.535298 16.519825 L 23.85111 37.018469 C 23.819601 37.932221 23.909626 38.62091 24.134688 39.098042 C 24.364251 39.561669 24.638827 39.92627 24.962916 40.191843 C 25.287005 40.443912 25.584087 40.673476 25.840658 40.885034 C 26.10173 41.092091 26.232266 41.411679 26.232266 41.834795 C 26.232266 42.28942 26.056717 42.600006 25.701119 42.762051 C 25.345522 42.919594 24.791869 43.000616 24.049165 43.000616 L 20.25462 43.000616 C 18.769211 43.000616 18.026506 42.61351 18.026506 41.834795 C 18.026506 41.447689 18.157042 41.137103 18.427117 40.912041 C 18.701692 40.677977 19.025781 40.443912 19.399384 40.191843 C 19.768486 39.92627 20.106079 39.561669 20.398659 39.098042 C 20.686739 38.62091 20.853285 37.932221 20.884793 37.018469 L 21.807547 14.912882 C 21.839056 14.066649 21.735528 13.418471 21.487959 12.968347 C 21.249394 12.509221 20.961314 12.149121 20.61922 11.874546 C 20.277126 11.59997 19.975543 11.338898 19.696466 11.095831 C 19.417389 10.848263 19.277851 10.519673 19.277851 10.096556 C 19.277851 9.677941 19.435394 9.389862 19.741478 9.227817 C 20.052064 9.065772 20.592213 8.980249 21.366426 8.980249 L 26.13774 8.980249 C 26.880444 8.980249 27.420593 9.335847 27.740181 10.047043 L 37.552883 33.327453 L 48.243326 10.047043 C 48.567416 9.335847 49.103063 8.980249 49.859271 8.980249 L 54.32 8.980249 C 55.103215 8.980249 55.656868 9.065772 55.980957 9.227817 C 56.305046 9.389862 56.467091 9.677941 56.467091 10.096556 C 56.467091 10.519673 56.327552 10.848263 56.052977 11.095831 C 55.7739 11.338898 55.463314 11.586467 55.125721 11.829533 C 54.783627 12.068099 54.495548 12.414695 54.24798 12.873821 C 54.000412 13.323945 53.896883 14.003632 53.937394 14.912882 Z M 82.362721 36.140727 C 82.808344 35.690604 83.226959 35.591576 83.614066 35.857149 C 84.010175 36.118221 84.077693 36.572846 83.821123 37.225526 C 83.497033 38.058255 82.848855 38.967506 81.894592 39.935272 C 80.935828 40.912041 79.688985 41.749272 78.14506 42.442463 C 76.614638 43.140155 74.791636 43.48675 72.689558 43.48675 C 70.420933 43.48675 68.417881 42.991614 66.684904 42.005842 C 64.951927 41.01557 63.610558 39.665198 62.651794 37.945724 C 61.697531 36.226251 61.215898 34.281716 61.215898 32.107617 C 61.215898 29.645439 61.76505 27.448834 62.863352 25.5088 C 63.970657 23.564265 65.474071 22.024841 67.36009 20.899531 C 69.259613 19.756216 71.357191 19.184559 73.661825 19.184559 C 76.443591 19.184559 78.685208 19.913759 80.364171 21.358657 C 82.052135 22.794553 83.087421 24.554537 83.474527 26.629609 C 83.537544 27.048224 83.497033 27.421827 83.357495 27.763921 C 83.213455 28.101514 82.880364 28.371588 82.362721 28.556139 C 79.797015 29.636437 77.325834 30.608704 74.944678 31.490947 C 72.559022 32.359686 70.029325 33.268937 67.337584 34.205195 C 67.666174 35.046926 68.156809 35.870653 68.818492 36.685377 C 69.484675 37.491099 70.326407 38.166285 71.348188 38.706434 C 72.36997 39.23758 73.576302 39.498652 74.967185 39.498652 C 76.524614 39.498652 77.924499 39.170062 79.166841 38.503878 C 80.418186 37.837695 81.480478 37.054479 82.362721 36.140727 Z M 71.856828 21.903307 C 70.659499 21.975327 69.660223 22.353431 68.845499 23.033118 C 68.035276 23.708304 67.43211 24.559039 67.0315 25.58082 C 66.626388 26.602601 66.428334 27.660392 66.428334 28.763196 C 66.428334 29.348357 66.446338 29.897508 66.495852 30.424153 C 66.545366 30.937295 66.626388 31.387419 66.756924 31.774525 C 68.476397 31.220873 70.150859 30.658218 71.784808 30.077558 C 73.427761 29.492397 75.003195 28.893732 76.533616 28.272561 C 76.920723 28.110516 77.217804 27.898958 77.424861 27.642387 C 77.63642 27.385817 77.681432 26.994209 77.555397 26.472065 C 77.258316 25.013664 76.551621 23.861346 75.426311 23.006111 C 74.314505 22.146374 73.121677 21.777273 71.856828 21.903307 Z M 110.689021 9.754462 L 110.639507 16.411795 L 110.594495 36.140727 C 110.594495 37.054479 110.743035 37.720663 111.031115 38.14828 C 111.323695 38.566896 111.656787 38.868479 112.025889 39.048528 C 112.403993 39.224076 112.732583 39.386121 113.029665 39.534662 C 113.317744 39.678702 113.466285 39.92627 113.466285 40.281868 C 113.466285 40.79951 112.998156 41.312652 112.052896 41.834795 C 111.373209 42.190393 110.544981 42.545991 109.572713 42.901589 C 108.600445 43.257187 107.790222 43.441738 107.142044 43.441738 C 105.944714 43.441738 105.332546 42.545991 105.292035 40.768002 L 105.242521 39.260086 C 104.432298 40.425907 103.352 41.429684 101.992626 42.275917 C 100.633252 43.113147 98.976796 43.518259 97.03226 43.48675 C 95.024707 43.455242 93.260222 42.955604 91.747805 41.978835 C 90.248892 41.006567 89.074069 39.696707 88.227836 38.040251 C 87.390605 36.388296 86.97199 34.524783 86.97199 32.454212 C 86.97199 30.442158 87.318586 28.628159 88.016278 27.016715 C 88.709469 25.396269 89.641225 24.000885 90.798044 22.844066 C 91.972867 21.669243 93.287229 20.768995 94.741129 20.13432 C 96.204032 19.504147 97.680439 19.184559 99.165848 19.184559 C 101.465981 19.184559 103.464531 19.76972 105.143494 20.926538 L 105.143494 16.470311 C 105.143494 15.529552 105.026461 14.813855 104.778893 14.336724 C 104.540328 13.841587 104.270253 13.48599 103.959668 13.26993 C 103.653583 13.035866 103.374507 12.824307 103.126938 12.621752 C 102.888373 12.428198 102.762338 12.131117 102.762338 11.748511 C 102.762338 11.451429 102.861365 11.212864 103.063921 11.023812 C 103.257474 10.821256 103.644581 10.596194 104.22074 10.335122 C 105.260526 9.853489 106.32732 9.434874 107.425622 9.079276 C 108.532927 8.723678 109.284634 8.525624 109.67174 8.498616 C 110.351428 8.435599 110.689021 8.854214 110.689021 9.754462 Z M 99.273877 39.795734 C 100.435197 39.795734 101.438974 39.512156 102.276204 38.940498 C 103.122437 38.373342 103.779618 37.653144 104.247747 36.779903 C 104.724878 35.902162 105.008456 34.979408 105.098481 34.00714 L 105.098481 31.432431 C 105.066973 30.424153 104.958943 29.397871 104.778893 28.344581 C 104.603345 27.295792 104.292759 26.364036 103.842635 25.562815 C 102.546278 23.118642 100.682765 21.903307 98.252096 21.903307 C 96.370578 21.903307 94.907675 22.641511 93.854385 24.122418 C 92.801095 25.589822 92.27445 27.493847 92.27445 29.82999 C 92.27445 31.999587 92.616544 33.818088 93.29173 35.298996 C 93.971417 36.770901 94.849159 37.887208 95.915953 38.65692 C 96.987248 39.41763 98.103555 39.795734 99.273877 39.795734 Z M 119.727509 16.02919 C 118.917286 15.997681 118.27811 15.723106 117.80548 15.214466 C 117.341852 14.692322 117.11679 14.066649 117.148299 13.350952 C 117.184309 12.671265 117.422875 12.009583 117.8775 11.370407 C 118.336626 10.717727 118.917286 10.195584 119.628482 9.790472 C 120.344179 9.380859 121.068879 9.205311 121.811583 9.263827 C 122.558789 9.299837 123.184461 9.583415 123.702104 10.123564 C 124.219746 10.659211 124.467314 11.298387 124.440307 12.045593 C 124.408798 12.72528 124.143225 13.373459 123.65259 13.990128 C 123.170957 14.602297 122.581295 15.110937 121.883603 15.498044 C 121.190412 15.88515 120.470214 16.0652 119.727509 16.02919 Z M 118.705728 36.437809 L 118.660716 27.160755 C 118.660716 26.219996 118.543683 25.5088 118.31412 25.022666 C 118.084557 24.532031 117.814483 24.176433 117.503897 23.955872 C 117.206815 23.73081 116.93224 23.519252 116.689173 23.325699 C 116.441605 23.132146 116.320071 22.830563 116.320071 22.438955 C 116.320071 22.186885 116.419098 21.961823 116.60815 21.759268 C 116.801704 21.561213 117.197813 21.336151 117.778473 21.084082 C 118.813758 20.561938 119.885053 20.125318 120.983355 19.76972 C 122.09066 19.409621 122.824362 19.216067 123.17996 19.184559 C 123.891156 19.184559 124.246754 19.607675 124.246754 20.444906 L 124.201741 27.160755 L 124.201741 36.437809 C 124.201741 37.56762 124.309771 38.409352 124.530332 38.967506 C 124.764396 39.521158 125.029969 39.92627 125.340555 40.191843 C 125.646639 40.443912 125.912212 40.673476 126.137274 40.885034 C 126.362336 41.092091 126.474867 41.443187 126.474867 41.933823 C 126.474867 42.352438 126.30382 42.636016 125.966227 42.784557 C 125.628634 42.928596 125.133498 43.000616 124.485319 43.000616 L 118.408646 43.000616 C 117.800979 43.000616 117.29684 42.919594 116.900731 42.762051 C 116.513624 42.600006 116.320071 42.302924 116.320071 41.88881 C 116.320071 41.429684 116.441605 41.092091 116.689173 40.885034 C 116.93224 40.673476 117.206815 40.443912 117.503897 40.191843 C 117.814483 39.92627 118.093559 39.521158 118.336626 38.967506 C 118.584194 38.409352 118.705728 37.56762 118.705728 36.437809 Z M 154.463574 39.642692 C 155.084745 39.579674 155.39533 39.809238 155.39533 40.331381 C 155.39533 40.781505 155.179271 41.240632 154.738149 41.717763 C 154.30603 42.185892 153.738874 42.572999 153.041182 42.883584 C 152.34349 43.19417 151.623292 43.342711 150.871585 43.342711 C 149.741774 43.342711 148.900042 43.027624 148.346389 42.392949 C 147.801739 41.762775 147.396628 40.844523 147.135556 39.642692 C 146.037254 40.939049 144.722892 41.897813 143.19247 42.509981 C 141.675553 43.131152 140.203647 43.441738 138.767752 43.441738 C 135.922969 43.441738 133.685853 42.744046 132.065406 41.348661 C 130.440459 39.957778 129.634737 38.224801 129.634737 36.140727 C 129.634737 34.592301 130.071357 33.223924 130.9536 32.049101 C 131.831342 30.865275 133.051178 29.929017 134.617609 29.24933 C 136.188542 28.569643 138.047554 28.227549 140.181141 28.227549 C 141.027374 28.227549 141.788084 28.26806 142.445265 28.344581 C 143.111448 28.425603 143.88116 28.547137 144.749899 28.713682 C 144.457319 27.54336 144.119726 26.508075 143.732619 25.607827 C 143.345512 24.694076 142.800862 23.98288 142.107672 23.469739 C 141.409979 22.943094 140.415206 22.686523 139.114347 22.686523 C 137.881008 22.686523 136.760199 22.871074 135.756423 23.244677 C 134.761649 23.613778 133.789381 24.081907 132.853123 24.631058 C 132.393997 24.92814 132.002389 24.92814 131.673799 24.631058 C 131.349709 24.338478 131.349709 23.915361 131.673799 23.361709 C 132.101416 22.745039 132.758597 22.123868 133.645341 21.502697 C 134.536587 20.868022 135.612383 20.336876 136.868229 19.895754 C 138.137578 19.454633 139.514958 19.238574 141.01387 19.238574 C 142.958406 19.238574 144.502331 19.607675 145.650147 20.35038 C 146.797963 21.093084 147.689208 22.069853 148.323883 23.271684 C 148.954057 24.473515 149.431188 25.765371 149.755277 27.160755 L 152.091421 37.018469 C 152.356994 38.121273 152.685584 38.832469 153.095197 39.156558 C 153.495807 39.476146 153.954934 39.642692 154.463574 39.642692 Z M 140.622263 40.565446 C 141.657548 40.565446 142.638818 40.349386 143.566073 39.917267 C 144.488827 39.476146 145.218028 38.931496 145.749174 38.265312 C 146.284822 37.599129 146.487377 36.928444 146.35234 36.248757 C 146.289323 35.758122 146.163288 35.181963 145.983239 34.51578 C 145.80769 33.849597 145.591631 33.048376 145.330559 32.107617 C 145.267542 31.72051 144.983964 31.409925 144.479825 31.166858 C 143.980187 30.923791 143.404028 30.757245 142.75585 30.662719 C 142.107672 30.559191 141.527012 30.509677 141.01387 30.509677 C 139.069335 30.509677 137.574923 30.946297 136.539638 31.824039 C 135.504353 32.701781 135.004716 33.881105 135.031723 35.371016 C 135.094741 36.856425 135.621386 38.094265 136.611658 39.084538 C 137.59743 40.070309 138.938799 40.565446 140.622263 40.565446 Z M 140.622263 40.565446 " stroke="#000000" stroke-width="3.645" stroke-opacity="1" stroke-miterlimit="4"/><path fill="#ffffff" d="M 159.878906 127.417969 L 160.46875 146.058594 C 160.492188 146.953125 160.632812 147.625 160.898438 148.0625 C 161.171875 148.492188 161.476562 148.824219 161.8125 149.050781 C 162.144531 149.277344 162.4375 149.496094 162.6875 149.710938 C 162.949219 149.917969 163.082031 150.257812 163.082031 150.730469 C 163.082031 151.125 162.921875 151.402344 162.597656 151.554688 C 162.277344 151.710938 161.746094 151.789062 161.003906 151.789062 L 155.492188 151.789062 C 154.703125 151.789062 154.128906 151.710938 153.773438 151.554688 C 153.421875 151.402344 153.253906 151.125 153.253906 150.730469 C 153.253906 150.28125 153.367188 149.945312 153.609375 149.730469 C 153.847656 149.503906 154.128906 149.277344 154.453125 149.050781 C 154.773438 148.824219 155.050781 148.488281 155.292969 148.046875 C 155.53125 147.59375 155.636719 146.929688 155.617188 146.058594 L 155.238281 128.511719 L 145.839844 148.960938 C 145.695312 149.246094 145.527344 149.46875 145.335938 149.621094 C 145.160156 149.777344 144.871094 149.898438 144.476562 149.980469 C 144.058594 150.085938 143.734375 150.082031 143.511719 149.960938 C 143.28125 149.832031 143.117188 149.652344 143.011719 149.425781 L 134.359375 128.816406 L 133.769531 146.59375 C 133.742188 147.382812 133.828125 147.988281 134.019531 148.402344 C 134.222656 148.8125 134.460938 149.128906 134.738281 149.351562 C 135.023438 149.566406 135.273438 149.773438 135.488281 149.960938 C 135.714844 150.140625 135.828125 150.410156 135.828125 150.769531 C 135.828125 151.160156 135.671875 151.429688 135.363281 151.574219 C 135.0625 151.71875 134.59375 151.789062 133.949219 151.789062 L 130.65625 151.789062 C 129.351562 151.789062 128.703125 151.449219 128.703125 150.769531 C 128.703125 150.4375 128.820312 150.171875 129.0625 149.980469 C 129.3125 149.777344 129.597656 149.566406 129.921875 149.351562 C 130.242188 149.128906 130.53125 148.8125 130.78125 148.402344 C 131.03125 147.988281 131.164062 147.382812 131.191406 146.59375 L 131.996094 127.417969 C 132.035156 126.691406 131.945312 126.128906 131.730469 125.734375 C 131.515625 125.339844 131.253906 125.027344 130.960938 124.785156 C 130.671875 124.546875 130.410156 124.320312 130.171875 124.105469 C 129.929688 123.890625 129.8125 123.605469 129.8125 123.246094 C 129.8125 122.878906 129.941406 122.628906 130.207031 122.492188 C 130.464844 122.351562 130.941406 122.277344 131.621094 122.277344 L 135.757812 122.277344 C 136.402344 122.277344 136.859375 122.582031 137.136719 123.191406 L 145.660156 143.390625 L 154.9375 123.191406 C 155.222656 122.582031 155.6875 122.277344 156.332031 122.277344 L 160.21875 122.277344 C 160.886719 122.277344 161.355469 122.351562 161.632812 122.492188 C 161.917969 122.628906 162.0625 122.878906 162.0625 123.246094 C 162.0625 123.605469 161.941406 123.890625 161.703125 124.105469 C 161.460938 124.320312 161.195312 124.535156 160.898438 124.75 C 160.613281 124.957031 160.359375 125.25 160.144531 125.644531 C 159.929688 126.039062 159.84375 126.628906 159.878906 127.417969 Z M 159.878906 127.417969 " fill-opacity="1" fill-rule="nonzero"/><path fill="#ffffff" d="M 184.535156 145.84375 C 184.929688 145.449219 185.292969 145.367188 185.628906 145.59375 C 185.972656 145.820312 186.03125 146.214844 185.808594 146.773438 C 185.53125 147.503906 184.976562 148.292969 184.140625 149.136719 C 183.316406 149.976562 182.234375 150.695312 180.902344 151.304688 C 179.5625 151.914062 177.980469 152.21875 176.15625 152.21875 C 174.1875 152.21875 172.449219 151.789062 170.945312 150.929688 C 169.441406 150.070312 168.269531 148.898438 167.433594 147.402344 C 166.613281 145.910156 166.199219 144.222656 166.199219 142.335938 C 166.199219 140.210938 166.675781 138.304688 167.632812 136.621094 C 168.585938 134.929688 169.886719 133.589844 171.535156 132.609375 C 173.183594 131.621094 175 131.125 176.996094 131.125 C 179.40625 131.125 181.339844 131.75 182.800781 133.003906 C 184.265625 134.257812 185.171875 135.78125 185.519531 137.570312 C 185.566406 137.941406 185.523438 138.277344 185.394531 138.574219 C 185.273438 138.859375 184.988281 139.09375 184.535156 139.273438 C 182.316406 140.195312 180.171875 141.035156 178.109375 141.796875 C 176.039062 142.550781 173.847656 143.335938 171.519531 144.160156 C 171.792969 144.890625 172.214844 145.605469 172.789062 146.308594 C 173.371094 147.015625 174.105469 147.597656 174.992188 148.0625 C 175.875 148.519531 176.925781 148.746094 178.144531 148.746094 C 179.492188 148.746094 180.703125 148.457031 181.777344 147.886719 C 182.863281 147.3125 183.785156 146.632812 184.535156 145.84375 Z M 175.441406 133.488281 C 174.402344 133.550781 173.527344 133.878906 172.824219 134.472656 C 172.117188 135.058594 171.589844 135.792969 171.230469 136.675781 C 170.882812 137.5625 170.710938 138.480469 170.710938 139.433594 C 170.710938 139.933594 170.730469 140.414062 170.765625 140.867188 C 170.8125 141.324219 170.894531 141.714844 171.015625 142.046875 C 172.492188 141.574219 173.945312 141.082031 175.367188 140.578125 C 176.785156 140.070312 178.160156 139.539062 179.488281 139.003906 C 179.816406 138.875 180.078125 138.695312 180.257812 138.464844 C 180.445312 138.242188 180.480469 137.902344 180.363281 137.445312 C 180.113281 136.183594 179.503906 135.179688 178.539062 134.4375 C 177.570312 133.699219 176.535156 133.382812 175.441406 133.488281 Z M 175.441406 133.488281 " fill-opacity="1" fill-rule="nonzero"/><path fill="#ffffff" d="M 209.125 122.941406 L 209.089844 128.726562 L 209.054688 145.84375 C 209.054688 146.632812 209.179688 147.214844 209.429688 147.582031 C 209.679688 147.9375 209.964844 148.199219 210.289062 148.351562 C 210.609375 148.507812 210.898438 148.652344 211.148438 148.78125 C 211.40625 148.902344 211.542969 149.117188 211.542969 149.425781 C 211.542969 149.882812 211.128906 150.328125 210.304688 150.769531 C 209.71875 151.082031 209.003906 151.390625 208.15625 151.699219 C 207.308594 152.007812 206.605469 152.164062 206.042969 152.164062 C 205.007812 152.164062 204.472656 151.394531 204.449219 149.855469 L 204.414062 148.546875 C 203.707031 149.550781 202.769531 150.421875 201.585938 151.160156 C 200.402344 151.886719 198.972656 152.242188 197.289062 152.21875 C 195.542969 152.183594 194.015625 151.75 192.703125 150.910156 C 191.402344 150.066406 190.382812 148.921875 189.644531 147.492188 C 188.914062 146.058594 188.550781 144.441406 188.550781 142.636719 C 188.550781 140.898438 188.847656 139.320312 189.445312 137.910156 C 190.054688 136.503906 190.863281 135.296875 191.882812 134.292969 C 192.894531 133.28125 194.035156 132.5 195.300781 131.949219 C 196.5625 131.402344 197.84375 131.125 199.132812 131.125 C 201.125 131.125 202.859375 131.636719 204.324219 132.648438 L 204.324219 128.761719 C 204.324219 127.949219 204.21875 127.335938 204.003906 126.917969 C 203.796875 126.488281 203.558594 126.179688 203.289062 125.984375 C 203.023438 125.785156 202.785156 125.601562 202.570312 125.429688 C 202.355469 125.265625 202.25 125.015625 202.25 124.679688 C 202.25 124.429688 202.328125 124.222656 202.5 124.050781 C 202.679688 123.871094 203.019531 123.671875 203.519531 123.441406 C 204.414062 123.027344 205.335938 122.664062 206.296875 122.351562 C 207.261719 122.042969 207.910156 121.875 208.246094 121.847656 C 208.828125 121.792969 209.125 122.152344 209.125 122.941406 Z M 199.222656 149.011719 C 200.234375 149.011719 201.105469 148.769531 201.835938 148.277344 C 202.5625 147.777344 203.128906 147.152344 203.539062 146.398438 C 203.941406 145.636719 204.1875 144.832031 204.273438 143.980469 L 204.273438 141.761719 C 204.246094 140.890625 204.15625 139.996094 204.003906 139.074219 C 203.847656 138.15625 203.574219 137.351562 203.179688 136.65625 C 202.054688 134.542969 200.441406 133.488281 198.328125 133.488281 C 196.703125 133.488281 195.429688 134.128906 194.511719 135.402344 C 193.605469 136.683594 193.152344 138.335938 193.152344 140.363281 C 193.152344 142.253906 193.441406 143.832031 194.03125 145.109375 C 194.625 146.390625 195.382812 147.359375 196.304688 148.027344 C 197.234375 148.6875 198.207031 149.011719 199.222656 149.011719 Z M 199.222656 149.011719 " fill-opacity="1" fill-rule="nonzero"/><path fill="#ffffff" d="M 216.964844 128.386719 C 216.273438 128.363281 215.71875 128.125 215.300781 127.667969 C 214.894531 127.214844 214.710938 126.679688 214.746094 126.058594 C 214.769531 125.476562 214.976562 124.902344 215.371094 124.339844 C 215.765625 123.777344 216.273438 123.328125 216.894531 122.976562 C 217.511719 122.621094 218.148438 122.472656 218.792969 122.53125 C 219.4375 122.554688 219.980469 122.796875 220.421875 123.265625 C 220.875 123.730469 221.089844 124.285156 221.066406 124.929688 C 221.039062 125.515625 220.816406 126.074219 220.386719 126.613281 C 219.964844 127.148438 219.453125 127.589844 218.847656 127.917969 C 218.246094 128.253906 217.621094 128.410156 216.964844 128.386719 Z M 216.089844 146.09375 L 216.054688 138.035156 C 216.054688 137.226562 215.949219 136.613281 215.75 136.191406 C 215.554688 135.761719 215.324219 135.453125 215.050781 135.261719 C 214.785156 135.058594 214.546875 134.875 214.332031 134.707031 C 214.128906 134.539062 214.03125 134.289062 214.03125 133.953125 C 214.03125 133.730469 214.109375 133.53125 214.28125 133.363281 C 214.445312 133.199219 214.78125 133 215.28125 132.773438 C 216.1875 132.320312 217.117188 131.9375 218.074219 131.625 C 219.03125 131.316406 219.660156 131.152344 219.972656 131.125 C 220.582031 131.125 220.886719 131.492188 220.886719 132.21875 L 220.851562 138.035156 L 220.851562 146.09375 C 220.851562 147.089844 220.945312 147.824219 221.136719 148.296875 C 221.339844 148.777344 221.574219 149.128906 221.835938 149.351562 C 222.109375 149.566406 222.34375 149.773438 222.535156 149.960938 C 222.734375 150.140625 222.839844 150.441406 222.839844 150.855469 C 222.839844 151.230469 222.6875 151.480469 222.390625 151.609375 C 222.089844 151.730469 221.660156 151.789062 221.101562 151.789062 L 215.835938 151.789062 C 215.300781 151.789062 214.863281 151.71875 214.53125 151.574219 C 214.195312 151.429688 214.03125 151.179688 214.03125 150.820312 C 214.03125 150.425781 214.128906 150.140625 214.332031 149.960938 C 214.546875 149.773438 214.785156 149.566406 215.050781 149.351562 C 215.324219 149.128906 215.558594 148.777344 215.765625 148.296875 C 215.980469 147.824219 216.089844 147.089844 216.089844 146.09375 Z M 216.089844 146.09375 " fill-opacity="1" fill-rule="nonzero"/><path fill="#ffffff" d="M 247.121094 148.886719 C 247.65625 148.828125 247.925781 149.023438 247.925781 149.460938 C 247.925781 149.855469 247.734375 150.261719 247.355469 150.679688 C 246.96875 151.085938 246.476562 151.421875 245.867188 151.679688 C 245.265625 151.941406 244.648438 152.074219 244.003906 152.074219 C 243.023438 152.074219 242.296875 151.804688 241.820312 151.269531 C 241.339844 150.722656 240.988281 149.925781 240.765625 148.886719 C 239.804688 150.011719 238.667969 150.839844 237.34375 151.375 C 236.019531 151.902344 234.738281 152.164062 233.511719 152.164062 C 231.027344 152.164062 229.082031 151.566406 227.675781 150.355469 C 226.277344 149.152344 225.578125 147.648438 225.578125 145.84375 C 225.578125 144.496094 225.957031 143.308594 226.707031 142.28125 C 227.46875 141.253906 228.535156 140.449219 229.894531 139.863281 C 231.253906 139.265625 232.867188 138.96875 234.730469 138.96875 C 235.453125 138.96875 236.109375 139.003906 236.679688 139.074219 C 237.261719 139.148438 237.933594 139.253906 238.6875 139.398438 C 238.4375 138.386719 238.140625 137.480469 237.808594 136.695312 C 237.472656 135.90625 237.003906 135.292969 236.394531 134.847656 C 235.785156 134.398438 234.917969 134.167969 233.796875 134.167969 C 232.734375 134.167969 231.765625 134.328125 230.898438 134.652344 C 230.023438 134.972656 229.179688 135.378906 228.355469 135.851562 C 227.960938 136.101562 227.621094 136.101562 227.335938 135.851562 C 227.058594 135.601562 227.066406 135.238281 227.351562 134.757812 C 227.710938 134.222656 228.273438 133.679688 229.054688 133.128906 C 229.828125 132.585938 230.761719 132.117188 231.863281 131.734375 C 232.960938 131.351562 234.15625 131.160156 235.445312 131.160156 C 237.128906 131.160156 238.464844 131.492188 239.457031 132.144531 C 240.460938 132.789062 241.234375 133.632812 241.785156 134.671875 C 242.332031 135.707031 242.75 136.832031 243.039062 138.035156 L 245.0625 146.59375 C 245.285156 147.554688 245.570312 148.171875 245.921875 148.457031 C 246.277344 148.746094 246.675781 148.886719 247.121094 148.886719 Z M 235.105469 149.675781 C 236 149.675781 236.847656 149.492188 237.648438 149.121094 C 238.457031 148.738281 239.089844 148.261719 239.546875 147.6875 C 240.011719 147.105469 240.191406 146.519531 240.082031 145.933594 C 240.019531 145.503906 239.914062 145.003906 239.761719 144.429688 C 239.605469 143.855469 239.421875 143.15625 239.207031 142.335938 C 239.144531 142.003906 238.894531 141.734375 238.453125 141.527344 C 238.023438 141.3125 237.527344 141.164062 236.96875 141.082031 C 236.402344 141 235.898438 140.957031 235.445312 140.957031 C 233.761719 140.957031 232.464844 141.339844 231.558594 142.101562 C 230.664062 142.851562 230.226562 143.875 230.253906 145.164062 C 230.3125 146.464844 230.773438 147.542969 231.632812 148.402344 C 232.492188 149.253906 233.644531 149.675781 235.105469 149.675781 Z M 235.105469 149.675781 " fill-opacity="1" fill-rule="nonzero"/></svg>