<svg xmlns="http://www.w3.org/2000/svg" xmlns:xlink="http://www.w3.org/1999/xlink" width="250" zoomAndPan="magnify" viewBox="0 0 187.5 112.499997" height="150" preserveAspectRatio="xMidYMid meet" version="1.0"><defs><g/><clipPath id="1910cd9211"><path d="M 0.164062 84 L 43 84 L 43 89 L 0.164062 89 Z M 0.164062 84 " clip-rule="nonzero"/></clipPath><clipPath id="a9315386af"><path d="M 144 84 L 186.835938 84 L 186.835938 89 L 144 89 Z M 144 84 " clip-rule="nonzero"/></clipPath></defs><g fill="#ffffff" fill-opacity="1"><g transform="translate(2.961788, 60.557162)"><g><path d="M 28.296875 0 L 1.5 0 L 1.5 -6.375 L 19.796875 -29.9375 L 19.625 -30.46875 L 2.21875 -30.46875 L 2.21875 -36.5 L 28.125 -36.5 L 28.125 -30.140625 L 9.8125 -6.5625 L 9.984375 -6.046875 L 28.296875 -6.046875 Z M 28.296875 0 "/></g></g></g><g fill="#ffffff" fill-opacity="1"><g transform="translate(32.778789, 60.557162)"><g><path d="M 11.96875 -16.03125 L 11.96875 -6.046875 L 29.390625 -6.046875 L 29.390625 0 L 4.75 0 L 4.75 -36.5 L 28.984375 -36.5 L 28.984375 -30.46875 L 11.96875 -30.46875 L 11.96875 -21.921875 L 26.84375 -21.921875 L 26.84375 -16.03125 Z M 11.96875 -16.03125 "/></g></g></g><g fill="#ffffff" fill-opacity="1"><g transform="translate(64.169054, 60.557162)"><g><path d="M 11.734375 0 L 4.75 0 L 4.75 -36.5 L 13.015625 -36.5 L 27.671875 -12.984375 L 28.3125 -13.078125 L 28.3125 -36.5 L 35.265625 -36.5 L 35.265625 0 L 27.875 0 L 12.359375 -25.125 L 11.734375 -25.015625 Z M 11.734375 0 "/></g></g></g><g fill="#ffffff" fill-opacity="1"><g transform="translate(104.199757, 60.557162)"><g><path d="M 19.90625 0.53125 C 16.550781 0.53125 13.597656 -0.148438 11.046875 -1.515625 C 8.492188 -2.890625 6.492188 -4.976562 5.046875 -7.78125 C 3.597656 -10.582031 2.875 -14.070312 2.875 -18.25 C 2.875 -22.425781 3.597656 -25.914062 5.046875 -28.71875 C 6.492188 -31.53125 8.492188 -33.617188 11.046875 -34.984375 C 13.597656 -36.347656 16.550781 -37.03125 19.90625 -37.03125 C 23.25 -37.03125 26.191406 -36.351562 28.734375 -35 C 31.285156 -33.644531 33.28125 -31.554688 34.71875 -28.734375 C 36.15625 -25.921875 36.875 -22.425781 36.875 -18.25 C 36.875 -14.070312 36.15625 -10.578125 34.71875 -7.765625 C 33.28125 -4.953125 31.285156 -2.863281 28.734375 -1.5 C 26.191406 -0.144531 23.25 0.53125 19.90625 0.53125 Z M 19.90625 -5.75 C 23 -5.75 25.359375 -6.742188 26.984375 -8.734375 C 28.617188 -10.722656 29.4375 -13.894531 29.4375 -18.25 C 29.4375 -22.613281 28.617188 -25.796875 26.984375 -27.796875 C 25.359375 -29.796875 23 -30.796875 19.90625 -30.796875 C 16.789062 -30.796875 14.410156 -29.796875 12.765625 -27.796875 C 11.128906 -25.796875 10.3125 -22.613281 10.3125 -18.25 C 10.3125 -13.894531 11.128906 -10.722656 12.765625 -8.734375 C 14.410156 -6.742188 16.789062 -5.75 19.90625 -5.75 Z M 19.90625 -5.75 "/></g></g></g><g fill="#ffffff" fill-opacity="1"><g transform="translate(143.980736, 60.557162)"><g><path d="M 11.734375 0 L 4.75 0 L 4.75 -36.5 L 13.015625 -36.5 L 27.671875 -12.984375 L 28.3125 -13.078125 L 28.3125 -36.5 L 35.265625 -36.5 L 35.265625 0 L 27.875 0 L 12.359375 -25.125 L 11.734375 -25.015625 Z M 11.734375 0 "/></g></g></g><g fill="#ffffff" fill-opacity="1"><g transform="translate(51.12524, 95.247287)"><g><path d="M 5.671875 0 L 2.375 0 L 2.375 -18.25 L 7.09375 -18.25 L 11.703125 -4.828125 L 11.96875 -4.828125 L 16.5625 -18.25 L 21.171875 -18.25 L 21.171875 0 L 17.75 0 L 17.75 -12.0625 L 17.4375 -12.109375 L 13.21875 0 L 10.203125 0 L 5.984375 -12.109375 L 5.671875 -12.0625 Z M 5.671875 0 "/></g></g></g><g fill="#ffffff" fill-opacity="1"><g transform="translate(74.680916, 95.247287)"><g><path d="M 5.984375 -8.015625 L 5.984375 -3.015625 L 14.6875 -3.015625 L 14.6875 0 L 2.375 0 L 2.375 -18.25 L 14.484375 -18.25 L 14.484375 -15.234375 L 5.984375 -15.234375 L 5.984375 -10.953125 L 13.421875 -10.953125 L 13.421875 -8.015625 Z M 5.984375 -8.015625 "/></g></g></g><g fill="#ffffff" fill-opacity="1"><g transform="translate(90.372219, 95.247287)"><g><path d="M 8.9375 -18.25 C 11.894531 -18.25 14.15625 -17.484375 15.71875 -15.953125 C 17.28125 -14.421875 18.0625 -12.144531 18.0625 -9.125 C 18.0625 -6.113281 17.28125 -3.835938 15.71875 -2.296875 C 14.15625 -0.765625 11.894531 0 8.9375 0 L 2.375 0 L 2.375 -18.25 Z M 8.71875 -3.03125 C 10.601562 -3.03125 12.007812 -3.507812 12.9375 -4.46875 C 13.875 -5.4375 14.34375 -6.988281 14.34375 -9.125 C 14.34375 -11.257812 13.875 -12.804688 12.9375 -13.765625 C 12.007812 -14.734375 10.601562 -15.21875 8.71875 -15.21875 L 5.984375 -15.21875 L 5.984375 -3.03125 Z M 8.71875 -3.03125 "/></g></g></g><g fill="#ffffff" fill-opacity="1"><g transform="translate(109.88336, 95.247287)"><g><path d="M 5.984375 0 L 2.375 0 L 2.375 -18.25 L 5.984375 -18.25 Z M 5.984375 0 "/></g></g></g><g fill="#ffffff" fill-opacity="1"><g transform="translate(118.247059, 95.247287)"><g><path d="M 17.515625 0 L 13.71875 0 L 12.34375 -4.203125 L 5.359375 -4.203125 L 3.984375 0 L 0.28125 0 L 6.578125 -18.25 L 11.203125 -18.25 Z M 8.671875 -14.4375 L 6.328125 -7.234375 L 11.34375 -7.234375 L 8.984375 -14.4375 Z M 8.671875 -14.4375 "/></g></g></g><g clip-path="url(#1910cd9211)"><path stroke-linecap="butt" transform="matrix(0.456506, 0, 0, 0.456506, 2.289808, 84.857092)" fill="none" stroke-linejoin="miter" d="M -0.00163289 3.496194 L 84.206299 3.496194 " stroke="#ffffff" stroke-width="7" stroke-opacity="1" stroke-miterlimit="4"/></g><g clip-path="url(#a9315386af)"><path stroke-linecap="butt" transform="matrix(0.456506, 0, 0, 0.456506, 146.271131, 84.857092)" fill="none" stroke-linejoin="miter" d="M -0.0035054 3.496194 L 84.204426 3.496194 " stroke="#ffffff" stroke-width="7" stroke-opacity="1" stroke-miterlimit="4"/></g></svg>