<svg xmlns="http://www.w3.org/2000/svg" xmlns:xlink="http://www.w3.org/1999/xlink" width="500" zoomAndPan="magnify" viewBox="0 0 375 225" height="300" preserveAspectRatio="xMidYMid meet" version="1.0"><defs><g/><clipPath id="563151b54f"><path d="M 22.507812 29.492188 L 352.304688 29.492188 L 352.304688 195.492188 L 22.507812 195.492188 Z M 22.507812 29.492188 " clip-rule="nonzero"/></clipPath></defs><g clip-path="url(#563151b54f)"><path stroke-linecap="butt" transform="matrix(1.278313, 0, 0, 1.278313, 22.50972, 29.490758)" fill="none" stroke-linejoin="miter" d="M -0.00149222 0.00111861 L 258.12675 0.00111861 L 258.12675 129.859744 L -0.00149222 129.859744 Z M -0.00149222 0.00111861 " stroke="#ffffff" stroke-width="4.693685" stroke-opacity="1" stroke-miterlimit="4"/></g><g fill="#ffffff" fill-opacity="1"><g transform="translate(119.669316, 169.270322)"><g><path d="M 9.09375 0 L 3.796875 0 L 3.796875 -29.203125 L 11.34375 -29.203125 L 18.734375 -7.734375 L 19.15625 -7.734375 L 26.5 -29.203125 L 33.875 -29.203125 L 33.875 0 L 28.40625 0 L 28.40625 -19.296875 L 27.90625 -19.375 L 21.15625 0 L 16.34375 0 L 9.59375 -19.375 L 9.09375 -19.296875 Z M 9.09375 0 "/></g></g><g transform="translate(157.359587, 169.270322)"><g><path d="M 9.5625 -12.828125 L 9.5625 -4.828125 L 23.515625 -4.828125 L 23.515625 0 L 3.796875 0 L 3.796875 -29.203125 L 23.1875 -29.203125 L 23.1875 -24.375 L 9.5625 -24.375 L 9.5625 -17.53125 L 21.46875 -17.53125 L 21.46875 -12.828125 Z M 9.5625 -12.828125 "/></g></g><g transform="translate(182.46646, 169.270322)"><g><path d="M 14.296875 -29.203125 C 19.035156 -29.203125 22.65625 -27.972656 25.15625 -25.515625 C 27.65625 -23.066406 28.90625 -19.425781 28.90625 -14.59375 C 28.90625 -9.78125 27.65625 -6.144531 25.15625 -3.6875 C 22.65625 -1.226562 19.035156 0 14.296875 0 L 3.796875 0 L 3.796875 -29.203125 Z M 13.96875 -4.859375 C 16.96875 -4.859375 19.210938 -5.625 20.703125 -7.15625 C 22.203125 -8.695312 22.953125 -11.175781 22.953125 -14.59375 C 22.953125 -18.019531 22.203125 -20.5 20.703125 -22.03125 C 19.210938 -23.570312 16.96875 -24.34375 13.96875 -24.34375 L 9.5625 -24.34375 L 9.5625 -4.859375 Z M 13.96875 -4.859375 "/></g></g><g transform="translate(213.685269, 169.270322)"><g><path d="M 9.5625 0 L 3.796875 0 L 3.796875 -29.203125 L 9.5625 -29.203125 Z M 9.5625 0 "/></g></g><g transform="translate(227.067612, 169.270322)"><g><path d="M 28.015625 0 L 21.953125 0 L 19.75 -6.734375 L 8.5625 -6.734375 L 6.375 0 L 0.4375 0 L 10.53125 -29.203125 L 17.9375 -29.203125 Z M 13.875 -23.109375 L 10.125 -11.578125 L 18.15625 -11.578125 L 14.375 -23.109375 Z M 13.875 -23.109375 "/></g></g></g><path stroke-linecap="butt" transform="matrix(1.278313, 0, 0, 1.278313, 47.887332, 153.926123)" fill="none" stroke-linejoin="miter" d="M -0.00048005 0.998974 L 50.00132 0.998974 " stroke="#ffffff" stroke-width="2" stroke-opacity="1" stroke-miterlimit="4"/><path stroke-linecap="butt" transform="matrix(1.278313, 0, 0, 1.278313, 263.410976, 153.926123)" fill="none" stroke-linejoin="miter" d="M -0.00064145 0.998974 L 50.001158 0.998974 " stroke="#ffffff" stroke-width="2" stroke-opacity="1" stroke-miterlimit="4"/><g fill="#ffffff" fill-opacity="1"><g transform="translate(45.406606, 113.800398)"><g><path d="M 45.265625 0 L 2.390625 0 L 2.390625 -10.1875 L 31.671875 -47.890625 L 31.40625 -48.734375 L 3.5625 -48.734375 L 3.5625 -58.40625 L 44.984375 -58.40625 L 44.984375 -48.21875 L 15.703125 -10.5 L 15.984375 -9.671875 L 45.265625 -9.671875 Z M 45.265625 0 "/></g></g><g transform="translate(93.103674, 113.800398)"><g><path d="M 19.140625 -25.640625 L 19.140625 -9.671875 L 47.015625 -9.671875 L 47.015625 0 L 7.59375 0 L 7.59375 -58.40625 L 46.375 -58.40625 L 46.375 -48.734375 L 19.140625 -48.734375 L 19.140625 -35.078125 L 42.9375 -35.078125 L 42.9375 -25.640625 Z M 19.140625 -25.640625 "/></g></g><g transform="translate(143.31742, 113.800398)"><g><path d="M 18.78125 0 L 7.59375 0 L 7.59375 -58.40625 L 20.8125 -58.40625 L 44.265625 -20.765625 L 45.296875 -20.9375 L 45.296875 -58.40625 L 56.40625 -58.40625 L 56.40625 0 L 44.578125 0 L 19.78125 -40.1875 L 18.78125 -40.03125 Z M 18.78125 0 "/></g></g><g transform="translate(207.35293, 113.800398)"><g><path d="M 31.84375 0.84375 C 26.488281 0.84375 21.765625 -0.25 17.671875 -2.4375 C 13.585938 -4.625 10.382812 -7.957031 8.0625 -12.4375 C 5.75 -16.925781 4.59375 -22.515625 4.59375 -29.203125 C 4.59375 -35.890625 5.75 -41.472656 8.0625 -45.953125 C 10.382812 -50.441406 13.585938 -53.773438 17.671875 -55.953125 C 21.765625 -58.140625 26.488281 -59.234375 31.84375 -59.234375 C 37.195312 -59.234375 41.910156 -58.148438 45.984375 -55.984375 C 50.054688 -53.816406 53.242188 -50.484375 55.546875 -45.984375 C 57.847656 -41.484375 59 -35.890625 59 -29.203125 C 59 -22.515625 57.847656 -16.921875 55.546875 -12.421875 C 53.242188 -7.921875 50.054688 -4.582031 45.984375 -2.40625 C 41.910156 -0.238281 37.195312 0.84375 31.84375 0.84375 Z M 31.84375 -9.1875 C 36.789062 -9.1875 40.566406 -10.773438 43.171875 -13.953125 C 45.785156 -17.140625 47.09375 -22.222656 47.09375 -29.203125 C 47.09375 -36.179688 45.785156 -41.265625 43.171875 -44.453125 C 40.566406 -47.648438 36.789062 -49.25 31.84375 -49.25 C 26.863281 -49.25 23.0625 -47.648438 20.4375 -44.453125 C 17.8125 -41.265625 16.5 -36.179688 16.5 -29.203125 C 16.5 -22.222656 17.8125 -17.140625 20.4375 -13.953125 C 23.0625 -10.773438 26.863281 -9.1875 31.84375 -9.1875 Z M 31.84375 -9.1875 "/></g></g><g transform="translate(270.988967, 113.800398)"><g><path d="M 18.78125 0 L 7.59375 0 L 7.59375 -58.40625 L 20.8125 -58.40625 L 44.265625 -20.765625 L 45.296875 -20.9375 L 45.296875 -58.40625 L 56.40625 -58.40625 L 56.40625 0 L 44.578125 0 L 19.78125 -40.1875 L 18.78125 -40.03125 Z M 18.78125 0 "/></g></g></g></svg>