<svg xmlns="http://www.w3.org/2000/svg" xmlns:xlink="http://www.w3.org/1999/xlink" width="250" zoomAndPan="magnify" viewBox="0 0 187.5 112.499997" height="150" preserveAspectRatio="xMidYMid meet" version="1.0"><defs><clipPath id="0402ef0fbb"><path d="M 0.164062 20 L 186 20 L 186 63 L 0.164062 63 Z M 0.164062 20 " clip-rule="nonzero"/></clipPath></defs><g clip-path="url(#0402ef0fbb)"><path stroke-linecap="butt" transform="matrix(0.413661, 0, 0, 0.413661, 6.931743, 23.023187)" fill="none" stroke-linejoin="miter" d="M 55.822686 21.785858 L 56.804769 51.61664 C 56.8992 53.212526 57.182493 54.383471 57.654649 55.120034 C 58.126804 55.83771 58.665061 56.394853 59.26942 56.772578 C 59.902108 57.150302 60.430923 57.546913 60.874749 57.943523 C 61.328018 58.340134 61.554652 59.001151 61.554652 59.945462 C 61.554652 60.710354 61.261916 61.239168 60.685886 61.550791 C 60.128743 61.85297 59.165546 61.994617 57.805738 61.994617 L 46.927278 61.994617 C 45.558027 61.994617 44.557058 61.85297 43.943256 61.550791 C 43.329454 61.239168 43.017831 60.710354 43.017831 59.945462 C 43.017831 59.095582 43.22558 58.462894 43.62219 58.047397 C 44.028244 57.622457 44.500399 57.206961 45.038656 56.81035 C 45.586357 56.404296 46.049069 55.828267 46.455123 55.082261 C 46.861176 54.326812 47.059482 53.16531 47.059482 51.61664 L 46.492895 24.911527 L 31.582227 57.046428 C 31.298934 57.669673 30.977869 58.122942 30.61903 58.415679 C 30.279079 58.689529 29.750264 58.916163 29.032588 59.105026 C 27.57835 59.388319 26.662368 58.991708 26.284644 57.896308 L 12.573251 25.327024 L 11.666713 53.16531 C 11.619497 54.345699 11.770587 55.271123 12.110539 55.96047 C 12.469377 56.640374 12.884874 57.169188 13.347586 57.546913 C 13.829184 57.93408 14.254124 58.311804 14.622405 58.689529 C 15.009573 59.05781 15.198435 59.548852 15.198435 60.172097 C 15.198435 60.918103 14.924585 61.399701 14.367442 61.626336 C 13.829184 61.824641 13.017077 61.928515 11.940563 61.928515 L 5.660896 61.928515 C 4.471064 61.928515 3.621185 61.805755 3.101814 61.550791 C 2.591886 61.286384 2.327479 60.795342 2.327479 60.087109 C 2.327479 59.520522 2.525784 59.05781 2.931838 58.689529 C 3.337891 58.311804 3.810047 57.93408 4.348304 57.546913 C 4.886561 57.169188 5.377603 56.640374 5.830872 55.96047 C 6.274698 55.271123 6.529662 54.345699 6.576877 53.16531 L 7.917799 21.785858 C 7.965014 20.520482 7.795038 19.557285 7.417314 18.90571 C 7.03959 18.244692 6.576877 17.725321 6.03862 17.35704 C 5.500363 16.979316 5.009321 16.582705 4.593825 16.176651 C 4.159442 15.780041 3.951693 15.222897 3.951693 14.505221 C 3.951693 13.759216 4.2161 13.249288 4.763801 12.975438 C 5.311501 12.682701 6.170824 12.541054 7.351212 12.541054 L 15.54783 12.541054 C 16.869865 12.541054 17.757517 13.126527 18.239116 14.297473 L 31.516126 45.469176 L 45.926309 14.373018 C 46.492895 13.145413 47.38999 12.541054 48.608151 12.541054 L 56.389272 12.541054 C 57.607433 12.541054 58.476199 12.682701 58.99557 12.975438 C 59.514941 13.249288 59.769905 13.759216 59.769905 14.505221 C 59.769905 15.222897 59.562157 15.770598 59.137217 16.148322 C 58.712277 16.516603 58.221235 16.884885 57.692421 17.272052 C 57.144721 17.649777 56.691452 18.169148 56.304284 18.839608 C 55.936003 19.491183 55.77547 20.473266 55.822686 21.785858 Z M 72.130933 23.495061 C 70.827784 23.447846 69.779599 23.013463 68.995822 22.182469 C 68.221487 21.360918 67.862649 20.359949 67.909864 19.189003 C 67.95708 18.103046 68.344247 17.035974 69.061923 15.978346 C 69.798486 14.901832 70.733353 14.042509 71.857083 13.390934 C 72.990256 12.729917 74.142315 12.427737 75.322704 12.474953 C 76.58808 12.522168 77.645708 12.965994 78.495588 13.815874 C 79.354911 14.656311 79.779851 15.68561 79.779851 16.922657 C 79.732635 18.046387 79.326582 19.113458 78.571133 20.133314 C 77.815684 21.143727 76.86193 21.965277 75.700428 22.579079 C 74.557812 23.192882 73.367981 23.495061 72.130933 23.495061 Z M 69.732384 52.183227 L 69.732384 39.246167 C 69.732384 38.028006 69.571851 37.102581 69.231899 36.469893 C 68.910834 35.827762 68.523666 35.327277 68.07984 34.987325 C 67.636014 34.628487 67.22996 34.297978 66.871122 33.986355 C 66.53117 33.674733 66.351751 33.259236 66.351751 32.739865 C 66.351751 32.229937 66.502841 31.81444 66.80502 31.521704 C 67.1072 31.210081 67.692673 30.860686 68.542552 30.482962 C 69.534079 30.010806 70.676695 29.548094 71.960957 29.104268 C 73.264106 28.650999 74.453938 28.263831 75.530452 27.942765 C 76.606967 27.612257 77.343529 27.442281 77.721253 27.442281 C 78.807211 27.395065 79.345468 28.103298 79.345468 29.56698 L 79.279366 39.246167 L 79.279366 52.183227 C 79.279366 53.826328 79.458785 55.044489 79.80818 55.828267 C 80.167018 56.593159 80.563629 57.159745 80.998012 57.50914 C 81.451281 57.867978 81.847892 58.217373 82.20673 58.547882 C 82.565568 58.868948 82.744987 59.435534 82.744987 60.238199 C 82.744987 60.936989 82.461694 61.418587 81.895107 61.654665 C 81.337964 61.8813 80.582515 61.994617 79.638204 61.994617 L 69.524636 61.994617 C 68.495337 61.994617 67.692673 61.871857 67.1072 61.626336 C 66.550057 61.352486 66.266763 60.870887 66.266763 60.172097 C 66.266763 59.416648 66.446182 58.868948 66.80502 58.547882 C 67.154415 58.217373 67.560469 57.867978 68.013738 57.50914 C 68.457564 57.159745 68.854175 56.593159 69.20357 55.828267 C 69.562408 55.044489 69.732384 53.826328 69.732384 52.183227 Z M 124.001926 41.937453 L 126.400475 54.01519 C 126.645996 55.091704 126.957619 55.922698 127.354229 56.498727 C 127.75084 57.055871 128.166336 57.50914 128.591276 57.839649 C 129.016216 58.160715 129.384497 58.491224 129.677234 58.821732 C 129.988856 59.152241 130.149389 59.614953 130.149389 60.238199 C 130.149389 60.936989 129.856653 61.418587 129.299509 61.654665 C 128.732923 61.8813 127.977474 61.994617 127.042607 61.994617 L 117.155672 61.994617 C 116.164146 61.994617 115.380368 61.871857 114.804339 61.626336 C 114.247195 61.352486 113.963902 60.870887 113.963902 60.172097 C 113.963902 59.596067 114.143321 59.142798 114.492716 58.793403 C 114.851554 58.434565 115.257608 58.05684 115.701434 57.650787 C 116.154703 57.254176 116.494655 56.734805 116.72129 56.102117 C 116.96681 55.469429 116.96681 54.581776 116.72129 53.448603 L 114.530488 42.286848 C 114.256638 40.775951 113.878914 39.359484 113.416202 38.028006 C 112.934603 36.677641 112.254699 35.572798 111.357604 34.722918 C 110.460509 33.873038 109.232905 33.466984 107.684235 33.5142 C 105.795614 33.5142 104.133627 34.345193 102.698274 36.007181 C 101.262922 37.650282 100.545245 40.020502 100.545245 43.127285 L 100.545245 52.183227 C 100.545245 53.826328 100.724665 55.044489 101.083503 55.828267 C 101.432898 56.593159 101.829508 57.159745 102.263891 57.50914 C 102.71716 57.867978 103.104328 58.217373 103.434837 58.547882 C 103.774788 58.868948 103.935321 59.435534 103.935321 60.238199 C 103.935321 60.936989 103.670914 61.418587 103.132657 61.654665 C 102.5944 61.8813 101.820065 61.994617 100.837982 61.994617 L 90.724413 61.994617 C 89.732887 61.994617 88.939666 61.871857 88.34475 61.626336 C 87.759277 61.352486 87.466541 60.870887 87.466541 60.172097 C 87.466541 59.416648 87.64596 58.868948 88.004798 58.547882 C 88.354193 58.217373 88.76969 57.867978 89.241845 57.50914 C 89.714001 57.159745 90.120054 56.593159 90.469449 55.828267 C 90.828287 55.044489 90.998263 53.826328 90.998263 52.183227 L 90.998263 38.745682 C 90.998263 37.754156 90.809401 36.923162 90.431677 36.243258 C 90.063396 35.563355 89.525138 34.968439 88.816905 34.449068 C 88.49584 34.21299 88.184217 33.93914 87.900924 33.63696 C 87.608187 33.334781 87.466541 32.93817 87.466541 32.466015 C 87.466541 31.899428 87.636517 31.455602 87.967026 31.125093 C 88.297534 30.785141 88.883007 30.435746 89.723444 30.067465 C 90.620539 29.642525 91.621508 29.227028 92.726352 28.820975 C 93.840639 28.424364 94.879381 28.093855 95.852021 27.838891 C 96.815218 27.583927 97.485678 27.442281 97.85396 27.442281 C 98.987133 27.442281 99.563162 28.150514 99.563162 29.56698 L 99.563162 33.806936 C 100.932413 31.682237 102.622729 30.076908 104.643554 29.000394 C 106.673823 27.923879 108.817408 27.376179 111.064868 27.376179 C 113.756154 27.376179 115.937512 27.942765 117.608942 29.085382 C 119.280372 30.209112 120.61185 31.852213 121.603376 34.014685 C 122.594903 36.177157 123.388124 38.821227 124.001926 41.937453 Z M 164.002931 51.182257 C 164.701721 50.483467 165.343853 50.34182 165.929326 50.76676 C 166.524241 51.1917 166.628116 51.928263 166.259834 52.957562 C 165.787679 54.270154 164.833925 55.68662 163.398573 57.206961 C 161.96322 58.708415 160.084042 60.002121 157.77048 61.088079 C 155.466362 62.164593 152.72786 62.70285 149.583305 62.70285 C 146.240445 62.70285 143.294196 61.994617 140.782329 60.587594 C 138.261019 59.171127 136.296852 57.206961 134.880386 54.685651 C 133.46392 52.173783 132.76513 49.303078 132.76513 46.092421 C 132.76513 42.47571 133.596124 39.246167 135.258111 36.422677 C 136.938984 33.589745 139.167557 31.370614 141.934388 29.774729 C 144.720105 28.178843 147.760786 27.376179 151.065873 27.376179 C 153.889363 27.376179 156.316242 27.886107 158.34651 28.896519 C 160.367335 29.906932 161.96322 31.26674 163.134166 32.9665 C 164.323997 34.656816 165.088889 36.517109 165.419398 38.537934 C 165.646032 39.765538 165.098332 40.690963 163.776297 41.295322 C 160.197359 42.90065 156.845056 44.307674 153.700501 45.544721 C 150.574832 46.762882 147.175313 48.056588 143.511387 49.425839 C 144.257393 51.021724 145.447224 52.494849 147.099768 53.845214 C 148.752312 55.186135 150.952556 55.856596 153.681614 55.856596 C 155.853529 55.856596 157.789366 55.384441 159.498569 54.449573 C 161.226658 53.505262 162.728112 52.409861 164.002931 51.182257 Z M 147.959091 32.031632 C 145.938266 32.277153 144.380153 33.259236 143.284752 34.987325 C 142.208238 36.696528 141.660538 38.689024 141.660538 40.936484 C 141.660538 42.636243 141.8494 44.118811 142.227124 45.384188 C 144.304608 44.685398 146.334876 43.967722 148.336815 43.250045 C 150.338754 42.513483 152.284034 41.739148 154.172656 40.936484 C 154.786458 40.662633 155.268057 40.332125 155.617452 39.9544 C 155.97629 39.576676 156.032948 38.934544 155.787427 38.037449 C 155.334158 35.969408 154.333189 34.36408 152.784519 33.24035 C 151.254736 32.11662 149.649407 31.710566 147.959091 32.031632 Z M 192.540004 27.376179 C 194.560829 27.376179 196.118942 27.952209 197.195456 29.113711 C 198.290857 30.26577 198.838557 31.710566 198.838557 33.448098 C 198.838557 34.864564 198.498605 35.997738 197.837588 36.847617 C 197.17657 37.697497 196.35502 38.150766 195.363493 38.197982 C 194.513614 38.197982 193.83371 37.999677 193.314339 37.621952 C 192.794968 37.244228 192.351142 36.819288 191.973417 36.347133 C 191.58625 35.874977 191.151867 35.45948 190.660825 35.081756 C 190.160341 34.713475 189.499323 34.515169 188.658887 34.515169 C 187.384067 34.515169 186.250894 35.223403 185.259368 36.639869 C 184.267841 38.046892 183.7768 40.048831 183.7768 42.645686 L 183.7768 52.183227 C 183.7768 53.826328 183.956219 55.044489 184.305614 55.828267 C 184.664452 56.593159 185.061062 57.159745 185.504888 57.50914 C 185.948715 57.867978 186.335882 58.217373 186.675834 58.547882 C 187.006343 58.868948 187.176319 59.435534 187.176319 60.238199 C 187.176319 60.936989 186.902468 61.418587 186.364211 61.654665 C 185.825954 61.8813 185.061062 61.994617 184.069536 61.994617 L 173.955967 61.994617 C 172.973884 61.994617 172.180663 61.871857 171.576304 61.626336 C 170.990831 61.352486 170.698095 60.870887 170.698095 60.172097 C 170.698095 59.416648 170.877514 58.868948 171.236352 58.547882 C 171.585747 58.217373 172.010687 57.867978 172.473399 57.50914 C 172.945555 57.159745 173.351608 56.593159 173.701003 55.828267 C 174.059842 55.044489 174.239261 53.826328 174.239261 52.183227 L 174.239261 38.745682 C 174.239261 37.754156 174.050398 36.923162 173.672674 36.243258 C 173.29495 35.563355 172.756693 34.968439 172.039016 34.449068 C 171.727394 34.21299 171.415771 33.93914 171.132478 33.63696 C 170.849185 33.334781 170.698095 32.93817 170.698095 32.466015 C 170.698095 31.899428 170.868071 31.455602 171.19858 31.125093 C 171.529089 30.785141 172.124004 30.435746 172.964441 30.067465 C 173.852093 29.642525 174.853063 29.227028 175.957906 28.820975 C 177.072193 28.424364 178.120378 28.093855 179.083575 27.838891 C 180.046772 27.583927 180.717233 27.442281 181.085514 27.442281 C 182.22813 27.442281 182.794716 28.150514 182.794716 29.56698 L 182.794716 33.740834 C 184.107308 31.568919 185.627649 29.963591 187.384067 28.934292 C 189.131042 27.89555 190.849688 27.376179 192.540004 27.376179 Z M 240.019951 56.564829 C 240.917046 56.564829 241.370316 56.96144 241.370316 57.754661 C 241.370316 58.557325 240.983148 59.33166 240.2277 60.068223 C 239.481694 60.795342 238.546826 61.390258 237.43254 61.862413 C 236.327696 62.334569 235.213409 62.570647 234.080236 62.570647 C 231.124543 62.570647 229.122604 60.823671 228.083863 57.339164 C 226.431319 59.171127 224.476595 60.512049 222.238579 61.361929 C 220.010005 62.211809 217.828647 62.636748 215.713391 62.636748 C 213.125979 62.636748 210.859634 62.183479 208.90491 61.258054 C 206.940744 60.33263 205.429846 59.095582 204.362775 57.50914 C 203.305147 55.941584 202.776333 54.185166 202.776333 52.249328 C 202.776333 48.859252 204.192799 46.073535 207.025732 43.892177 C 209.849221 41.691932 213.758668 40.587089 218.754072 40.587089 C 219.698383 40.587089 220.576592 40.634304 221.388699 40.728735 C 222.219693 40.823166 223.230105 40.964813 224.410494 41.163118 C 223.985554 39.652221 223.494512 38.301856 222.927926 37.102581 C 222.361339 35.893863 221.587004 34.949552 220.595478 34.241319 C 219.603952 33.533086 218.215815 33.174248 216.421624 33.174248 C 214.825739 33.174248 213.305399 33.457541 211.870046 34.014685 C 210.425251 34.581271 209.074886 35.223403 207.800067 35.931636 C 207.139049 36.347133 206.553576 36.347133 206.034205 35.931636 C 205.514834 35.506696 205.514834 34.845678 206.034205 33.948583 C 206.648007 32.957056 207.601761 31.96553 208.914353 30.955117 C 210.245832 29.935261 211.841717 29.094825 213.730338 28.414921 C 215.61896 27.725574 217.696444 27.376179 219.96279 27.376179 C 222.965698 27.376179 225.345361 27.980538 227.082893 29.189256 C 228.829868 30.379088 230.161346 31.899428 231.086771 33.740834 C 232.002752 35.572798 232.729872 37.480306 233.2398 39.453916 L 236.695977 52.74037 C 237.073701 54.194609 237.536414 55.214465 238.074671 55.790494 C 238.612928 56.347638 239.264503 56.612045 240.019951 56.564829 Z M 219.528407 57.688559 C 220.850442 57.688559 222.106375 57.414709 223.30565 56.876452 C 224.514368 56.338195 225.458679 55.629961 226.138582 54.751752 C 226.827929 53.882986 227.07345 52.967005 226.875145 52.032137 C 226.780714 51.418335 226.591852 50.672329 226.308558 49.784677 C 226.034708 48.887582 225.723086 47.829953 225.392577 46.592906 C 225.165942 45.790242 224.467152 45.204769 223.30565 44.836488 C 222.153591 44.458763 221.020418 44.269901 219.896688 44.269901 C 217.394264 44.269901 215.439541 44.855374 214.023075 46.045206 C 212.606609 47.216151 211.898375 48.764821 211.898375 50.700658 C 211.945591 52.730927 212.653824 54.402357 214.004189 55.724393 C 215.373439 57.036985 217.214845 57.688559 219.528407 57.688559 Z M 247.716084 52.183227 L 247.649982 23.636708 C 247.649982 22.39966 247.480007 21.474236 247.149498 20.841547 C 246.828432 20.208859 246.441265 19.708374 245.987995 19.358979 C 245.544169 19.000141 245.138116 18.669632 244.779278 18.376896 C 244.439326 18.05583 244.26935 17.649777 244.26935 17.130406 C 244.26935 16.65825 244.429883 16.271083 244.750948 15.978346 C 245.081457 15.666724 245.676373 15.317329 246.526253 14.939604 C 247.517779 14.467449 248.641509 13.995293 249.906885 13.523138 C 251.181705 13.050982 252.362093 12.654372 253.448051 12.333306 C 254.524565 12.002797 255.261128 11.832821 255.638852 11.832821 C 256.762582 11.832821 257.329168 12.541054 257.329168 13.957521 L 257.253623 23.636708 L 257.253623 52.183227 C 257.253623 53.826328 257.433042 55.044489 257.791881 55.828267 C 258.150719 56.593159 258.547329 57.159745 258.981712 57.50914 C 259.425538 57.867978 259.822149 58.217373 260.152658 58.547882 C 260.483166 58.868948 260.653142 59.435534 260.653142 60.238199 C 260.653142 60.936989 260.388735 61.418587 259.841035 61.654665 C 259.302778 61.8813 258.537886 61.994617 257.54636 61.994617 L 247.442234 61.994617 C 246.450708 61.994617 245.657487 61.871857 245.062571 61.626336 C 244.477098 61.352486 244.174919 60.870887 244.174919 60.172097 C 244.174919 59.416648 244.363781 58.868948 244.713176 58.547882 C 245.072014 58.217373 245.487511 57.867978 245.950223 57.50914 C 246.431822 57.159745 246.837875 56.593159 247.18727 55.828267 C 247.536665 55.044489 247.716084 53.826328 247.716084 52.183227 Z M 304.525822 62.70285 C 299.71928 62.70285 295.479325 61.701881 291.796513 59.709385 C 288.123144 57.707445 285.261882 54.883956 283.193841 51.238916 C 281.1258 47.574989 280.087059 43.250045 280.087059 38.264084 C 280.087059 34.581271 280.72919 31.153423 282.013453 27.980538 C 283.316602 24.79821 285.129678 21.984164 287.471569 19.557285 C 289.804017 17.139849 292.533075 15.241784 295.658744 13.891419 C 298.784412 12.522168 302.193374 11.832821 305.876187 11.832821 C 308.085874 11.832821 309.861178 12.031127 311.2021 12.43718 C 312.552464 12.833791 313.647865 13.022653 314.497744 13.022653 C 315.385396 13.022653 316.055857 12.843234 316.499683 12.474953 C 316.952952 12.087785 317.576197 11.908366 318.378862 11.908366 C 319.039879 11.908366 319.578136 12.144444 320.003076 12.644929 C 320.428016 13.13597 320.852956 14.13694 321.277896 15.647837 C 321.65562 16.875442 322.033344 18.273022 322.401626 19.821692 C 322.77935 21.370362 323.138188 23.202325 323.468697 25.327024 C 323.610344 26.271335 323.572571 27.007898 323.345936 27.546155 C 323.138188 28.093855 322.637703 28.405478 321.853925 28.499909 C 321.089034 28.556568 320.484675 28.311047 320.040849 27.77279 C 319.587579 27.225089 319.01155 26.431868 318.31276 25.393126 C 316.716875 23.032349 314.828253 20.973751 312.656338 19.217333 C 310.493866 17.442028 307.849796 16.563819 304.733571 16.563819 C 301.721219 16.563819 299.133807 17.328711 296.95245 18.867938 C 294.789978 20.407164 293.137434 22.465762 291.985375 25.053174 C 290.842759 27.640586 290.266729 30.558507 290.266729 33.806936 C 290.266729 37.85803 290.965519 41.597501 292.363099 45.044236 C 293.779565 48.481528 295.80039 51.238916 298.435017 53.306957 C 301.088531 55.374997 304.242529 56.404296 307.925341 56.404296 C 310.852705 56.404296 313.411787 55.828267 315.621474 54.647878 C 317.840605 53.476933 319.889759 51.871604 321.759494 49.831892 C 322.335524 49.227533 322.90211 49.000899 323.430924 49.151989 C 323.978625 49.284192 324.346906 49.652473 324.554654 50.237946 C 324.781289 50.823419 324.677415 51.49388 324.243032 52.249328 C 323.393152 54.034076 322.023901 55.733836 320.144723 57.339164 C 318.256101 58.944493 315.999198 60.238199 313.364571 61.220282 C 310.729944 62.211809 307.783694 62.70285 304.525822 62.70285 Z M 335.045947 23.495061 C 333.733355 23.447846 332.68517 23.013463 331.910835 22.182469 C 331.136501 21.360918 330.768219 20.359949 330.815435 19.189003 C 330.86265 18.103046 331.249818 17.035974 331.976937 15.978346 C 332.7135 14.901832 333.638924 14.042509 334.762654 13.390934 C 335.895827 12.729917 337.057329 12.427737 338.237718 12.474953 C 339.503094 12.522168 340.560722 12.965994 341.410602 13.815874 C 342.260482 14.656311 342.685422 15.68561 342.685422 16.922657 C 342.638206 18.046387 342.241596 19.113458 341.476704 20.133314 C 340.730698 21.143727 339.776944 21.965277 338.615442 22.579079 C 337.463383 23.192882 336.273551 23.495061 335.045947 23.495061 Z M 332.647398 52.183227 L 332.647398 39.246167 C 332.647398 38.028006 332.477422 37.102581 332.146913 36.469893 C 331.825848 35.827762 331.43868 35.327277 330.994854 34.987325 C 330.541585 34.628487 330.144974 34.297978 329.786136 33.986355 C 329.436741 33.674733 329.266765 33.259236 329.266765 32.739865 C 329.266765 32.229937 329.417855 31.81444 329.710591 31.521704 C 330.031657 31.210081 330.607687 30.860686 331.457566 30.482962 C 332.43965 30.010806 333.582266 29.548094 334.875971 29.104268 C 336.169677 28.650999 337.359509 28.263831 338.445466 27.942765 C 339.521981 27.612257 340.258543 27.442281 340.636267 27.442281 C 341.712782 27.395065 342.260482 28.103298 342.260482 29.56698 L 342.184937 39.246167 L 342.184937 52.183227 C 342.184937 53.826328 342.364356 55.044489 342.723194 55.828267 C 343.082032 56.593159 343.478643 57.159745 343.913026 57.50914 C 344.356852 57.867978 344.762906 58.217373 345.121744 58.547882 C 345.471139 58.868948 345.650558 59.435534 345.650558 60.238199 C 345.650558 60.936989 345.367264 61.418587 344.810121 61.654665 C 344.243535 61.8813 343.488086 61.994617 342.543775 61.994617 L 332.43965 61.994617 C 331.410351 61.994617 330.598243 61.871857 330.031657 61.626336 C 329.455627 61.352486 329.181777 60.870887 329.181777 60.172097 C 329.181777 59.416648 329.351753 58.868948 329.710591 58.547882 C 330.069429 58.217373 330.475483 57.867978 330.919309 57.50914 C 331.372578 57.159745 331.769189 56.593159 332.109141 55.828267 C 332.467979 55.044489 332.647398 53.826328 332.647398 52.183227 Z M 371.789081 54.01519 C 372.450098 53.495819 373.026128 53.420274 373.498283 53.807441 C 373.960996 54.185166 374.083756 54.751752 373.838235 55.497758 C 373.51717 56.5365 372.884481 57.613014 371.94017 58.755631 C 371.005303 59.879361 369.796585 60.823671 368.332903 61.588563 C 366.878665 62.334569 365.160019 62.70285 363.176966 62.70285 C 360.013525 62.70285 357.548874 61.739653 355.77357 59.813259 C 354.017151 57.877421 353.138942 55.120034 353.138942 51.541095 L 353.138942 47.877169 C 353.138942 44.713727 353.167272 41.824136 353.214487 39.208395 C 353.25226 36.602097 353.299475 34.373523 353.346691 32.532117 L 351.448626 32.532117 C 350.504315 32.532117 349.852741 32.39047 349.493903 32.08829 C 349.144508 31.776668 348.965089 31.313955 348.965089 30.69071 C 348.965089 30.275213 349.040633 29.859717 349.201166 29.425334 C 349.380585 29.000394 349.654435 28.622669 350.03216 28.292161 C 351.354195 26.92291 352.79899 25.610318 354.385433 24.344941 C 355.952989 23.060678 357.473329 21.974721 358.937011 21.077625 C 359.739675 20.60547 360.325148 20.322176 360.693429 20.237188 C 361.071153 20.142757 361.363889 20.095542 361.562195 20.095542 C 362.072123 20.095542 362.468733 20.30329 362.742583 20.699901 C 363.03532 21.105954 363.15808 21.568667 363.110864 22.078595 C 363.00699 23.022906 362.931445 23.995546 362.88423 24.977629 C 362.837014 25.969156 362.789799 26.998455 362.742583 28.084412 L 369.749369 28.084412 C 370.410387 28.084412 370.96753 28.226059 371.439686 28.518795 C 371.911841 28.792645 372.025158 29.472549 371.789081 30.549064 C 371.600219 31.587806 371.231937 32.258266 370.665351 32.569889 C 370.098764 32.881512 369.466076 33.013715 368.7484 32.9665 L 362.676481 32.739865 C 362.676481 34.675702 362.676481 36.875947 362.676481 39.350041 C 362.676481 41.824136 362.657595 44.666512 362.61038 47.877169 C 362.563164 51.021724 362.837014 53.184196 363.422487 54.345699 C 364.00796 55.488315 365.10336 56.064344 366.718132 56.064344 C 367.643556 56.064344 368.540652 55.866039 369.390531 55.459985 C 370.240411 55.063375 371.033632 54.572333 371.789081 54.01519 Z M 406.983544 28.084412 L 411.865631 28.084412 C 412.89493 28.084412 413.697594 28.216616 414.264181 28.481023 C 414.821324 28.735987 415.104617 29.189256 415.104617 29.850274 C 415.104617 30.511291 414.934641 31.021219 414.604133 31.380057 C 414.283067 31.729452 413.858127 32.078847 413.348199 32.428242 C 412.828828 32.78708 412.271685 33.334781 411.676769 34.071343 C 411.081853 34.798463 410.515267 35.88442 409.94868 37.329216 L 400.977728 60.379845 C 399.702908 63.722706 398.399759 66.631184 397.077724 69.105278 C 395.765132 71.579373 394.188133 73.477438 392.346727 74.818359 C 390.514764 76.168724 388.135101 76.839185 385.226623 76.839185 C 383.762942 76.839185 382.384248 76.574777 381.081099 76.055406 C 379.787393 75.545479 378.739208 74.799473 377.927101 73.836276 C 377.13388 72.863636 376.737269 71.702133 376.737269 70.332882 C 376.737269 69.114721 377.124437 68.000434 377.898772 66.990022 C 378.68255 65.970166 379.77795 65.441352 381.184973 65.394136 C 382.223715 65.394136 383.026379 65.715202 383.592966 66.34789 C 384.150109 66.980579 384.660037 67.717141 385.103863 68.567021 C 385.557132 69.426344 386.048174 70.162906 386.586431 70.795595 C 387.143574 71.428283 387.880137 71.749349 388.815005 71.749349 C 389.957621 71.749349 390.901931 71.126104 391.638494 69.87017 C 392.403386 68.62368 392.78111 67.159998 392.78111 65.469681 C 392.78111 64.667017 392.686679 63.864353 392.488374 63.090018 C 392.299511 62.315683 392.044547 61.550791 391.714039 60.795342 L 382.393691 37.263114 C 381.836548 35.856091 381.241632 34.798463 380.618387 34.071343 C 380.014028 33.334781 379.456884 32.78708 378.965843 32.428242 C 378.474801 32.078847 378.049861 31.729452 377.719353 31.380057 C 377.398287 31.021219 377.237754 30.511291 377.237754 29.850274 C 377.237754 29.14204 377.521047 28.669885 378.087634 28.44325 C 378.644777 28.207173 379.400226 28.084412 380.344537 28.084412 L 391.090794 28.084412 C 392.08232 28.084412 392.856655 28.216616 393.423241 28.481023 C 393.989828 28.735987 394.263678 29.189256 394.263678 29.850274 C 394.263678 30.511291 394.074816 31.021219 393.697091 31.380057 C 393.319367 31.729452 392.9322 32.078847 392.526146 32.428242 C 392.129535 32.78708 391.884015 33.334781 391.78014 34.071343 C 391.685709 34.798463 391.921787 35.88442 392.488374 37.329216 L 399.060777 54.147393 L 405.425432 37.329216 C 405.992018 35.88442 406.237539 34.798463 406.171437 34.071343 C 406.095892 33.334781 405.878701 32.78708 405.500976 32.428242 C 405.113809 32.078847 404.754971 31.729452 404.396133 31.380057 C 404.046738 31.021219 403.876762 30.511291 403.876762 29.850274 C 403.876762 29.14204 404.160055 28.669885 404.717198 28.44325 C 405.283785 28.207173 406.039234 28.084412 406.983544 28.084412 Z M 406.983544 28.084412 " stroke="#000000" stroke-width="3.092" stroke-opacity="1" stroke-miterlimit="4"/></g><path fill="#ffffff" d="M 30.027344 32.039062 L 30.433594 44.371094 C 30.472656 45.039062 30.589844 45.523438 30.785156 45.828125 C 30.980469 46.125 31.203125 46.351562 31.457031 46.507812 C 31.710938 46.664062 31.929688 46.824219 32.113281 46.988281 C 32.296875 47.15625 32.390625 47.4375 32.390625 47.824219 C 32.390625 48.136719 32.269531 48.355469 32.035156 48.480469 C 31.804688 48.609375 31.410156 48.671875 30.847656 48.671875 L 26.339844 48.671875 C 25.773438 48.671875 25.367188 48.609375 25.117188 48.480469 C 24.863281 48.355469 24.738281 48.136719 24.738281 47.824219 C 24.738281 47.476562 24.816406 47.214844 24.976562 47.042969 C 25.144531 46.863281 25.339844 46.691406 25.5625 46.523438 C 25.789062 46.359375 25.980469 46.121094 26.148438 45.808594 C 26.316406 45.496094 26.398438 45.015625 26.398438 44.371094 L 26.167969 33.320312 L 19.996094 46.628906 C 19.878906 46.882812 19.75 47.066406 19.601562 47.179688 C 19.457031 47.296875 19.238281 47.394531 18.945312 47.472656 C 18.34375 47.589844 17.960938 47.421875 17.808594 46.972656 L 12.136719 33.503906 L 11.757812 45.015625 C 11.734375 45.503906 11.792969 45.890625 11.9375 46.171875 C 12.085938 46.453125 12.261719 46.671875 12.457031 46.824219 C 12.648438 46.980469 12.828125 47.140625 12.980469 47.300781 C 13.136719 47.453125 13.214844 47.660156 13.214844 47.910156 C 13.214844 48.222656 13.101562 48.425781 12.878906 48.515625 C 12.652344 48.601562 12.316406 48.644531 11.871094 48.644531 L 9.265625 48.644531 C 8.785156 48.644531 8.433594 48.589844 8.214844 48.480469 C 8.003906 48.371094 7.898438 48.171875 7.898438 47.878906 C 7.898438 47.648438 7.980469 47.453125 8.148438 47.300781 C 8.3125 47.140625 8.507812 46.980469 8.734375 46.824219 C 8.957031 46.671875 9.160156 46.453125 9.34375 46.171875 C 9.527344 45.890625 9.628906 45.503906 9.644531 45.015625 L 10.207031 32.039062 C 10.222656 31.507812 10.15625 31.109375 10 30.839844 C 9.84375 30.5625 9.65625 30.347656 9.429688 30.191406 C 9.207031 30.039062 9.003906 29.878906 8.828125 29.710938 C 8.65625 29.542969 8.570312 29.320312 8.570312 29.03125 C 8.570312 28.714844 8.679688 28.5 8.90625 28.382812 C 9.128906 28.269531 9.484375 28.210938 9.972656 28.210938 L 13.359375 28.210938 C 13.90625 28.210938 14.277344 28.453125 14.472656 28.933594 L 19.96875 41.828125 L 25.933594 28.96875 C 26.167969 28.464844 26.539062 28.210938 27.046875 28.210938 L 30.261719 28.210938 C 30.765625 28.210938 31.125 28.269531 31.335938 28.382812 C 31.554688 28.5 31.664062 28.714844 31.664062 29.03125 C 31.664062 29.320312 31.574219 29.542969 31.398438 29.703125 C 31.226562 29.855469 31.027344 30.011719 30.804688 30.167969 C 30.578125 30.324219 30.386719 30.539062 30.226562 30.8125 C 30.070312 31.085938 30.003906 31.492188 30.027344 32.039062 Z M 30.027344 32.039062 " fill-opacity="1" fill-rule="nonzero"/><path fill="#ffffff" d="M 36.777344 32.734375 C 36.230469 32.71875 35.796875 32.542969 35.476562 32.203125 C 35.152344 31.855469 35 31.441406 35.019531 30.953125 C 35.039062 30.503906 35.203125 30.0625 35.5 29.625 C 35.804688 29.1875 36.191406 28.835938 36.65625 28.566406 C 37.121094 28.289062 37.597656 28.160156 38.085938 28.175781 C 38.613281 28.199219 39.054688 28.386719 39.40625 28.738281 C 39.753906 29.089844 39.929688 29.515625 39.929688 30.019531 C 39.914062 30.488281 39.746094 30.929688 39.429688 31.347656 C 39.121094 31.769531 38.726562 32.105469 38.25 32.355469 C 37.773438 32.609375 37.28125 32.734375 36.777344 32.734375 Z M 35.777344 44.609375 L 35.777344 39.257812 C 35.777344 38.753906 35.707031 38.371094 35.570312 38.105469 C 35.4375 37.839844 35.277344 37.636719 35.085938 37.492188 C 34.902344 37.34375 34.738281 37.207031 34.597656 37.078125 C 34.453125 36.953125 34.382812 36.785156 34.382812 36.570312 C 34.382812 36.351562 34.445312 36.179688 34.570312 36.054688 C 34.695312 35.929688 34.933594 35.785156 35.285156 35.632812 C 35.691406 35.4375 36.164062 35.246094 36.699219 35.0625 C 37.234375 34.878906 37.726562 34.71875 38.171875 34.578125 C 38.621094 34.441406 38.925781 34.371094 39.085938 34.371094 C 39.535156 34.355469 39.757812 34.648438 39.757812 35.253906 L 39.722656 39.257812 L 39.722656 44.609375 C 39.722656 45.289062 39.796875 45.789062 39.941406 46.109375 C 40.089844 46.433594 40.253906 46.667969 40.441406 46.816406 C 40.628906 46.960938 40.796875 47.101562 40.9375 47.238281 C 41.082031 47.378906 41.15625 47.609375 41.15625 47.9375 C 41.15625 48.230469 41.035156 48.425781 40.800781 48.523438 C 40.570312 48.621094 40.261719 48.671875 39.871094 48.671875 L 35.691406 48.671875 C 35.265625 48.671875 34.933594 48.617188 34.699219 48.515625 C 34.464844 48.40625 34.347656 48.203125 34.347656 47.910156 C 34.347656 47.601562 34.417969 47.378906 34.5625 47.238281 C 34.710938 47.101562 34.875 46.960938 35.0625 46.816406 C 35.246094 46.667969 35.410156 46.433594 35.554688 46.109375 C 35.703125 45.789062 35.777344 45.289062 35.777344 44.609375 Z M 35.777344 44.609375 " fill-opacity="1" fill-rule="nonzero"/><path fill="#ffffff" d="M 58.226562 40.371094 L 59.226562 45.371094 C 59.320312 45.816406 59.453125 46.160156 59.613281 46.394531 C 59.777344 46.625 59.949219 46.808594 60.121094 46.945312 C 60.296875 47.085938 60.449219 47.222656 60.578125 47.359375 C 60.703125 47.492188 60.769531 47.6875 60.769531 47.9375 C 60.769531 48.230469 60.648438 48.425781 60.414062 48.523438 C 60.183594 48.621094 59.875 48.671875 59.484375 48.671875 L 55.390625 48.671875 C 54.980469 48.671875 54.660156 48.617188 54.425781 48.515625 C 54.195312 48.40625 54.082031 48.203125 54.082031 47.910156 C 54.082031 47.675781 54.152344 47.488281 54.296875 47.34375 C 54.445312 47.195312 54.609375 47.039062 54.796875 46.878906 C 54.980469 46.710938 55.117188 46.496094 55.21875 46.230469 C 55.316406 45.96875 55.316406 45.601562 55.21875 45.136719 L 54.3125 40.519531 C 54.195312 39.894531 54.042969 39.300781 53.847656 38.75 C 53.652344 38.195312 53.367188 37.742188 52.996094 37.390625 C 52.625 37.039062 52.121094 36.871094 51.476562 36.890625 C 50.695312 36.890625 50.007812 37.230469 49.410156 37.914062 C 48.816406 38.59375 48.523438 39.574219 48.523438 40.863281 L 48.523438 44.609375 C 48.523438 45.289062 48.59375 45.789062 48.738281 46.109375 C 48.886719 46.433594 49.050781 46.667969 49.238281 46.816406 C 49.425781 46.960938 49.585938 47.101562 49.71875 47.238281 C 49.859375 47.378906 49.925781 47.609375 49.925781 47.9375 C 49.925781 48.230469 49.816406 48.425781 49.589844 48.523438 C 49.367188 48.621094 49.050781 48.671875 48.640625 48.671875 L 44.460938 48.671875 C 44.054688 48.671875 43.726562 48.617188 43.480469 48.515625 C 43.238281 48.40625 43.117188 48.203125 43.117188 47.910156 C 43.117188 47.601562 43.1875 47.378906 43.332031 47.238281 C 43.480469 47.101562 43.652344 46.960938 43.84375 46.816406 C 44.035156 46.667969 44.207031 46.433594 44.351562 46.109375 C 44.5 45.789062 44.574219 45.289062 44.574219 44.609375 L 44.574219 39.050781 C 44.574219 38.644531 44.496094 38.300781 44.34375 38.019531 C 44.1875 37.730469 43.960938 37.480469 43.667969 37.269531 C 43.53125 37.171875 43.40625 37.058594 43.289062 36.933594 C 43.175781 36.808594 43.117188 36.644531 43.117188 36.449219 C 43.117188 36.214844 43.183594 36.03125 43.316406 35.898438 C 43.453125 35.761719 43.699219 35.613281 44.050781 35.457031 C 44.421875 35.28125 44.835938 35.113281 45.289062 34.949219 C 45.75 34.785156 46.175781 34.648438 46.574219 34.535156 C 46.976562 34.429688 47.253906 34.371094 47.410156 34.371094 C 47.878906 34.371094 48.117188 34.667969 48.117188 35.253906 L 48.117188 37.011719 C 48.679688 36.132812 49.378906 35.46875 50.21875 35.019531 C 51.058594 34.570312 51.945312 34.347656 52.882812 34.347656 C 53.988281 34.347656 54.890625 34.585938 55.578125 35.054688 C 56.273438 35.519531 56.824219 36.199219 57.234375 37.097656 C 57.640625 37.992188 57.972656 39.085938 58.226562 40.371094 Z M 58.226562 40.371094 " fill-opacity="1" fill-rule="nonzero"/><path fill="#ffffff" d="M 74.769531 44.199219 C 75.0625 43.90625 75.328125 43.847656 75.570312 44.023438 C 75.816406 44.199219 75.863281 44.5 75.710938 44.929688 C 75.511719 45.476562 75.117188 46.0625 74.519531 46.6875 C 73.925781 47.308594 73.152344 47.84375 72.191406 48.289062 C 71.238281 48.738281 70.109375 48.964844 68.804688 48.964844 C 67.421875 48.964844 66.207031 48.671875 65.160156 48.085938 C 64.121094 47.5 63.308594 46.6875 62.722656 45.644531 C 62.140625 44.601562 61.851562 43.417969 61.851562 42.09375 C 61.851562 40.59375 62.195312 39.265625 62.886719 38.097656 C 63.578125 36.925781 64.5 36.007812 65.652344 35.347656 C 66.800781 34.679688 68.054688 34.347656 69.417969 34.347656 C 70.589844 34.347656 71.59375 34.558594 72.433594 34.976562 C 73.273438 35.394531 73.933594 35.957031 74.417969 36.65625 C 74.902344 37.359375 75.21875 38.128906 75.355469 38.964844 C 75.453125 39.472656 75.230469 39.851562 74.683594 40.105469 C 73.203125 40.765625 71.808594 41.351562 70.511719 41.863281 C 69.21875 42.367188 67.816406 42.902344 66.296875 43.464844 C 66.609375 44.132812 67.101562 44.746094 67.78125 45.300781 C 68.464844 45.851562 69.371094 46.128906 70.503906 46.128906 C 71.398438 46.128906 72.203125 45.933594 72.917969 45.542969 C 73.628906 45.152344 74.246094 44.703125 74.769531 44.199219 Z M 68.132812 36.277344 C 67.292969 36.375 66.652344 36.78125 66.203125 37.492188 C 65.753906 38.199219 65.53125 39.023438 65.53125 39.957031 C 65.53125 40.660156 65.609375 41.273438 65.765625 41.800781 C 66.625 41.507812 67.46875 41.214844 68.296875 40.914062 C 69.125 40.609375 69.929688 40.292969 70.710938 39.957031 C 70.960938 39.84375 71.160156 39.707031 71.304688 39.550781 C 71.453125 39.398438 71.480469 39.132812 71.382812 38.757812 C 71.1875 37.902344 70.769531 37.242188 70.132812 36.777344 C 69.5 36.308594 68.835938 36.140625 68.132812 36.277344 Z M 68.132812 36.277344 " fill-opacity="1" fill-rule="nonzero"/><path fill="#ffffff" d="M 86.582031 34.347656 C 87.417969 34.347656 88.0625 34.585938 88.511719 35.0625 C 88.957031 35.539062 89.183594 36.140625 89.183594 36.863281 C 89.183594 37.445312 89.046875 37.914062 88.769531 38.269531 C 88.496094 38.621094 88.160156 38.800781 87.753906 38.820312 C 87.394531 38.820312 87.109375 38.742188 86.898438 38.585938 C 86.6875 38.433594 86.503906 38.257812 86.347656 38.0625 C 86.191406 37.867188 86.011719 37.691406 85.804688 37.535156 C 85.597656 37.378906 85.316406 37.304688 84.96875 37.304688 C 84.445312 37.304688 83.976562 37.597656 83.5625 38.183594 C 83.15625 38.765625 82.953125 39.589844 82.953125 40.664062 L 82.953125 44.609375 C 82.953125 45.289062 83.023438 45.789062 83.167969 46.109375 C 83.316406 46.433594 83.480469 46.667969 83.667969 46.816406 C 83.855469 46.960938 84.015625 47.101562 84.148438 47.238281 C 84.289062 47.378906 84.355469 47.609375 84.355469 47.9375 C 84.355469 48.230469 84.246094 48.425781 84.019531 48.523438 C 83.796875 48.621094 83.480469 48.671875 83.074219 48.671875 L 78.894531 48.671875 C 78.484375 48.671875 78.15625 48.617188 77.910156 48.515625 C 77.667969 48.40625 77.546875 48.203125 77.546875 47.910156 C 77.546875 47.601562 77.621094 47.378906 77.765625 47.238281 C 77.914062 47.101562 78.082031 46.960938 78.273438 46.816406 C 78.464844 46.667969 78.636719 46.433594 78.78125 46.109375 C 78.929688 45.789062 79.003906 45.289062 79.003906 44.609375 L 79.003906 39.050781 C 79.003906 38.644531 78.925781 38.300781 78.773438 38.019531 C 78.617188 37.730469 78.394531 37.480469 78.101562 37.269531 C 77.960938 37.171875 77.835938 37.058594 77.722656 36.933594 C 77.605469 36.808594 77.546875 36.644531 77.546875 36.449219 C 77.546875 36.214844 77.613281 36.03125 77.746094 35.898438 C 77.882812 35.761719 78.128906 35.613281 78.480469 35.457031 C 78.851562 35.28125 79.265625 35.113281 79.71875 34.949219 C 80.179688 34.785156 80.609375 34.648438 81.003906 34.535156 C 81.40625 34.429688 81.683594 34.371094 81.839844 34.371094 C 82.308594 34.371094 82.546875 34.667969 82.546875 35.253906 L 82.546875 36.976562 C 83.09375 36.078125 83.722656 35.421875 84.441406 34.992188 C 85.167969 34.5625 85.878906 34.347656 86.582031 34.347656 Z M 86.582031 34.347656 " fill-opacity="1" fill-rule="nonzero"/><path fill="#ffffff" d="M 106.21875 46.421875 C 106.589844 46.421875 106.777344 46.585938 106.777344 46.914062 C 106.777344 47.246094 106.617188 47.566406 106.304688 47.867188 C 105.992188 48.167969 105.609375 48.414062 105.148438 48.609375 C 104.695312 48.804688 104.230469 48.902344 103.761719 48.902344 C 102.539062 48.902344 101.710938 48.183594 101.28125 46.738281 C 100.59375 47.5 99.789062 48.054688 98.867188 48.410156 C 97.941406 48.761719 97.042969 48.9375 96.167969 48.9375 C 95.09375 48.9375 94.152344 48.746094 93.34375 48.367188 C 92.53125 47.984375 91.90625 47.46875 91.472656 46.816406 C 91.035156 46.164062 90.816406 45.4375 90.816406 44.636719 C 90.816406 43.238281 91.398438 42.082031 92.566406 41.171875 C 93.738281 40.265625 95.355469 39.8125 97.417969 39.8125 C 97.808594 39.8125 98.171875 39.832031 98.511719 39.871094 C 98.859375 39.914062 99.273438 39.96875 99.761719 40.042969 C 99.582031 39.421875 99.378906 38.867188 99.140625 38.371094 C 98.910156 37.871094 98.589844 37.476562 98.175781 37.183594 C 97.769531 36.890625 97.195312 36.742188 96.453125 36.742188 C 95.792969 36.742188 95.164062 36.863281 94.566406 37.097656 C 93.972656 37.328125 93.414062 37.585938 92.894531 37.878906 C 92.617188 38.058594 92.371094 38.0625 92.160156 37.890625 C 91.949219 37.710938 91.949219 37.4375 92.160156 37.0625 C 92.414062 36.65625 92.8125 36.242188 93.359375 35.820312 C 93.90625 35.402344 94.566406 35.050781 95.339844 34.769531 C 96.121094 34.488281 96.980469 34.347656 97.917969 34.347656 C 99.164062 34.347656 100.144531 34.597656 100.867188 35.097656 C 101.589844 35.59375 102.140625 36.21875 102.519531 36.976562 C 102.898438 37.734375 103.195312 38.523438 103.417969 39.34375 L 104.847656 44.84375 C 105.003906 45.445312 105.191406 45.867188 105.417969 46.101562 C 105.640625 46.332031 105.90625 46.4375 106.21875 46.421875 Z M 97.746094 46.886719 C 98.292969 46.886719 98.808594 46.773438 99.304688 46.550781 C 99.804688 46.324219 100.195312 46.039062 100.476562 45.679688 C 100.757812 45.316406 100.859375 44.941406 100.78125 44.550781 C 100.746094 44.296875 100.667969 43.988281 100.546875 43.621094 C 100.429688 43.246094 100.304688 42.808594 100.167969 42.300781 C 100.070312 41.96875 99.78125 41.722656 99.304688 41.570312 C 98.828125 41.414062 98.359375 41.335938 97.894531 41.335938 C 96.859375 41.335938 96.046875 41.582031 95.460938 42.070312 C 94.875 42.550781 94.582031 43.195312 94.582031 43.992188 C 94.605469 44.832031 94.898438 45.523438 95.460938 46.066406 C 96.023438 46.613281 96.785156 46.886719 97.746094 46.886719 Z M 97.746094 46.886719 " fill-opacity="1" fill-rule="nonzero"/><path fill="#ffffff" d="M 109.40625 44.609375 L 109.371094 32.796875 C 109.371094 32.292969 109.304688 31.90625 109.164062 31.640625 C 109.03125 31.378906 108.871094 31.171875 108.683594 31.027344 C 108.496094 30.878906 108.335938 30.742188 108.191406 30.617188 C 108.046875 30.492188 107.976562 30.320312 107.976562 30.105469 C 107.976562 29.914062 108.042969 29.75 108.175781 29.625 C 108.3125 29.5 108.554688 29.355469 108.90625 29.203125 C 109.316406 29.007812 109.78125 28.8125 110.304688 28.617188 C 110.832031 28.421875 111.320312 28.257812 111.769531 28.125 C 112.214844 27.988281 112.519531 27.917969 112.683594 27.917969 C 113.148438 27.917969 113.378906 28.210938 113.378906 28.789062 L 113.355469 32.796875 L 113.355469 44.609375 C 113.355469 45.289062 113.425781 45.789062 113.570312 46.109375 C 113.71875 46.433594 113.882812 46.667969 114.070312 46.816406 C 114.253906 46.960938 114.410156 47.101562 114.542969 47.238281 C 114.679688 47.378906 114.75 47.609375 114.75 47.9375 C 114.75 48.230469 114.636719 48.425781 114.414062 48.523438 C 114.191406 48.621094 113.875 48.671875 113.464844 48.671875 L 109.285156 48.671875 C 108.878906 48.671875 108.550781 48.617188 108.304688 48.515625 C 108.0625 48.40625 107.941406 48.203125 107.941406 47.910156 C 107.941406 47.601562 108.011719 47.378906 108.15625 47.238281 C 108.304688 47.101562 108.480469 46.960938 108.675781 46.816406 C 108.867188 46.667969 109.039062 46.433594 109.183594 46.109375 C 109.332031 45.789062 109.40625 45.289062 109.40625 44.609375 Z M 109.40625 44.609375 " fill-opacity="1" fill-rule="nonzero"/><path fill="#ffffff" d="M 132.902344 48.964844 C 130.914062 48.964844 129.15625 48.550781 127.636719 47.722656 C 126.121094 46.894531 124.933594 45.726562 124.078125 44.214844 C 123.21875 42.703125 122.792969 40.914062 122.792969 38.847656 C 122.792969 37.328125 123.0625 35.914062 123.59375 34.597656 C 124.128906 33.28125 124.878906 32.121094 125.84375 31.117188 C 126.808594 30.113281 127.9375 29.328125 129.230469 28.761719 C 130.527344 28.199219 131.9375 27.917969 133.460938 27.917969 C 134.375 27.917969 135.109375 28.003906 135.667969 28.167969 C 136.226562 28.328125 136.679688 28.410156 137.03125 28.410156 C 137.398438 28.410156 137.671875 28.332031 137.859375 28.175781 C 138.039062 28.023438 138.300781 27.945312 138.632812 27.945312 C 138.910156 27.945312 139.132812 28.046875 139.304688 28.253906 C 139.480469 28.457031 139.660156 28.871094 139.832031 29.496094 C 139.988281 30 140.140625 30.578125 140.296875 31.21875 C 140.457031 31.863281 140.601562 32.625 140.734375 33.503906 C 140.796875 33.886719 140.785156 34.191406 140.691406 34.417969 C 140.605469 34.640625 140.394531 34.773438 140.0625 34.8125 C 139.753906 34.835938 139.507812 34.734375 139.324219 34.511719 C 139.136719 34.285156 138.902344 33.960938 138.609375 33.527344 C 137.941406 32.550781 137.160156 31.699219 136.261719 30.96875 C 135.367188 30.242188 134.273438 29.875 132.988281 29.875 C 131.742188 29.875 130.671875 30.191406 129.773438 30.824219 C 128.878906 31.457031 128.191406 32.308594 127.714844 33.382812 C 127.234375 34.457031 127 35.664062 127 37.011719 C 127 38.683594 127.292969 40.230469 127.878906 41.65625 C 128.464844 43.082031 129.300781 44.222656 130.394531 45.078125 C 131.484375 45.933594 132.789062 46.359375 134.308594 46.359375 C 135.515625 46.359375 136.574219 46.117188 137.488281 45.628906 C 138.40625 45.140625 139.257812 44.480469 140.039062 43.644531 C 140.273438 43.386719 140.503906 43.289062 140.726562 43.351562 C 140.953125 43.410156 141.105469 43.5625 141.191406 43.808594 C 141.277344 44.050781 141.234375 44.328125 141.0625 44.636719 C 140.710938 45.378906 140.144531 46.082031 139.367188 46.738281 C 138.582031 47.402344 137.648438 47.9375 136.554688 48.351562 C 135.464844 48.757812 134.246094 48.964844 132.902344 48.964844 Z M 132.902344 48.964844 " fill-opacity="1" fill-rule="nonzero"/><path fill="#ffffff" d="M 145.535156 32.734375 C 144.984375 32.71875 144.554688 32.542969 144.230469 32.203125 C 143.910156 31.855469 143.757812 31.441406 143.777344 30.953125 C 143.796875 30.503906 143.957031 30.0625 144.257812 29.625 C 144.5625 29.1875 144.949219 28.835938 145.414062 28.566406 C 145.878906 28.289062 146.355469 28.160156 146.84375 28.175781 C 147.371094 28.199219 147.8125 28.386719 148.160156 28.738281 C 148.511719 29.089844 148.6875 29.515625 148.6875 30.019531 C 148.671875 30.488281 148.503906 30.929688 148.1875 31.347656 C 147.878906 31.769531 147.484375 32.105469 147.007812 32.355469 C 146.527344 32.609375 146.039062 32.734375 145.535156 32.734375 Z M 144.535156 44.609375 L 144.535156 39.257812 C 144.535156 38.753906 144.464844 38.371094 144.328125 38.105469 C 144.195312 37.839844 144.035156 37.636719 143.84375 37.492188 C 143.660156 37.34375 143.496094 37.207031 143.351562 37.078125 C 143.207031 36.953125 143.136719 36.785156 143.136719 36.570312 C 143.136719 36.351562 143.199219 36.179688 143.328125 36.054688 C 143.453125 35.929688 143.691406 35.785156 144.042969 35.632812 C 144.449219 35.4375 144.921875 35.246094 145.457031 35.0625 C 145.988281 34.878906 146.480469 34.71875 146.929688 34.578125 C 147.378906 34.441406 147.679688 34.371094 147.84375 34.371094 C 148.292969 34.355469 148.515625 34.648438 148.515625 35.253906 L 148.480469 39.257812 L 148.480469 44.609375 C 148.480469 45.289062 148.550781 45.789062 148.695312 46.109375 C 148.84375 46.433594 149.011719 46.667969 149.195312 46.816406 C 149.386719 46.960938 149.550781 47.101562 149.695312 47.238281 C 149.839844 47.378906 149.910156 47.609375 149.910156 47.9375 C 149.910156 48.230469 149.792969 48.425781 149.558594 48.523438 C 149.328125 48.621094 149.015625 48.671875 148.628906 48.671875 L 144.449219 48.671875 C 144.019531 48.671875 143.691406 48.617188 143.457031 48.515625 C 143.21875 48.40625 143.101562 48.203125 143.101562 47.910156 C 143.101562 47.601562 143.175781 47.378906 143.320312 47.238281 C 143.46875 47.101562 143.632812 46.960938 143.820312 46.816406 C 144 46.667969 144.164062 46.433594 144.308594 46.109375 C 144.457031 45.789062 144.535156 45.289062 144.535156 44.609375 Z M 144.535156 44.609375 " fill-opacity="1" fill-rule="nonzero"/><path fill="#ffffff" d="M 160.726562 45.371094 C 161 45.152344 161.234375 45.125 161.433594 45.285156 C 161.625 45.4375 161.675781 45.671875 161.578125 45.980469 C 161.441406 46.414062 161.175781 46.859375 160.785156 47.324219 C 160.394531 47.792969 159.898438 48.183594 159.296875 48.496094 C 158.691406 48.808594 157.980469 48.964844 157.167969 48.964844 C 155.855469 48.964844 154.835938 48.566406 154.105469 47.765625 C 153.375 46.96875 153.011719 45.828125 153.011719 44.34375 L 153.011719 42.828125 C 153.011719 41.515625 153.019531 40.324219 153.039062 39.242188 C 153.058594 38.164062 153.082031 37.242188 153.097656 36.484375 L 152.3125 36.484375 C 151.921875 36.484375 151.652344 36.421875 151.503906 36.292969 C 151.359375 36.164062 151.289062 35.972656 151.289062 35.71875 C 151.289062 35.546875 151.324219 35.371094 151.390625 35.199219 C 151.460938 35.023438 151.574219 34.863281 151.726562 34.726562 C 152.273438 34.164062 152.871094 33.617188 153.519531 33.089844 C 154.175781 32.5625 154.804688 32.113281 155.410156 31.746094 C 155.738281 31.550781 155.984375 31.433594 156.140625 31.398438 C 156.296875 31.359375 156.414062 31.339844 156.492188 31.339844 C 156.707031 31.339844 156.867188 31.421875 156.984375 31.589844 C 157.105469 31.75 157.152344 31.941406 157.132812 32.160156 C 157.089844 32.542969 157.0625 32.941406 157.046875 33.355469 C 157.027344 33.765625 157.007812 34.191406 156.984375 34.640625 L 159.882812 34.640625 C 160.15625 34.640625 160.390625 34.699219 160.578125 34.820312 C 160.773438 34.9375 160.824219 35.21875 160.726562 35.664062 C 160.648438 36.09375 160.496094 36.367188 160.261719 36.492188 C 160.03125 36.621094 159.769531 36.675781 159.476562 36.65625 L 156.960938 36.570312 C 156.960938 37.371094 156.960938 38.28125 156.960938 39.300781 C 156.960938 40.324219 156.949219 41.5 156.933594 42.828125 C 156.910156 44.132812 157.019531 45.023438 157.261719 45.5 C 157.507812 45.976562 157.960938 46.214844 158.621094 46.214844 C 159.011719 46.214844 159.382812 46.132812 159.734375 45.964844 C 160.082031 45.796875 160.414062 45.601562 160.726562 45.371094 Z M 160.726562 45.371094 " fill-opacity="1" fill-rule="nonzero"/><path fill="#ffffff" d="M 175.285156 34.640625 L 177.300781 34.640625 C 177.734375 34.640625 178.0625 34.695312 178.292969 34.804688 C 178.527344 34.90625 178.648438 35.097656 178.648438 35.371094 C 178.648438 35.644531 178.578125 35.851562 178.441406 36 C 178.304688 36.144531 178.132812 36.292969 177.914062 36.441406 C 177.699219 36.585938 177.46875 36.808594 177.226562 37.113281 C 176.984375 37.414062 176.746094 37.863281 176.507812 38.464844 L 172.804688 47.996094 C 172.273438 49.382812 171.738281 50.585938 171.191406 51.609375 C 170.644531 52.628906 169.996094 53.417969 169.234375 53.96875 C 168.476562 54.527344 167.492188 54.804688 166.28125 54.804688 C 165.675781 54.804688 165.109375 54.699219 164.574219 54.488281 C 164.039062 54.273438 163.605469 53.964844 163.273438 53.566406 C 162.9375 53.167969 162.773438 52.6875 162.773438 52.117188 C 162.773438 51.609375 162.933594 51.148438 163.253906 50.730469 C 163.574219 50.308594 164.03125 50.09375 164.617188 50.074219 C 165.046875 50.074219 165.378906 50.203125 165.609375 50.460938 C 165.84375 50.726562 166.050781 51.035156 166.238281 51.386719 C 166.421875 51.742188 166.625 52.046875 166.847656 52.308594 C 167.074219 52.570312 167.378906 52.703125 167.769531 52.703125 C 168.242188 52.703125 168.632812 52.445312 168.941406 51.929688 C 169.253906 51.410156 169.410156 50.800781 169.410156 50.101562 C 169.410156 49.773438 169.367188 49.449219 169.289062 49.125 C 169.210938 48.804688 169.105469 48.488281 168.96875 48.171875 L 165.117188 38.441406 C 164.878906 37.855469 164.636719 37.414062 164.382812 37.113281 C 164.128906 36.808594 163.902344 36.585938 163.695312 36.441406 C 163.488281 36.292969 163.316406 36.144531 163.175781 36 C 163.042969 35.851562 162.980469 35.644531 162.980469 35.371094 C 162.980469 35.078125 163.09375 34.886719 163.324219 34.785156 C 163.558594 34.691406 163.871094 34.640625 164.261719 34.640625 L 168.710938 34.640625 C 169.117188 34.640625 169.4375 34.695312 169.667969 34.804688 C 169.902344 34.90625 170.019531 35.097656 170.019531 35.371094 C 170.019531 35.644531 169.941406 35.851562 169.789062 36 C 169.632812 36.144531 169.472656 36.292969 169.304688 36.441406 C 169.144531 36.585938 169.042969 36.808594 169.003906 37.113281 C 168.960938 37.414062 169.058594 37.863281 169.296875 38.464844 L 172.011719 45.421875 L 174.640625 38.464844 C 174.875 37.863281 174.976562 37.414062 174.949219 37.113281 C 174.917969 36.808594 174.828125 36.585938 174.671875 36.441406 C 174.519531 36.292969 174.367188 36.144531 174.21875 36 C 174.074219 35.851562 174 35.644531 174 35.371094 C 174 35.078125 174.117188 34.886719 174.347656 34.785156 C 174.582031 34.691406 174.894531 34.640625 175.285156 34.640625 Z M 175.285156 34.640625 " fill-opacity="1" fill-rule="nonzero"/><path stroke-linecap="butt" transform="matrix(0.269551, 0, 0, 0.269551, 63.672713, 59.355783)" fill="none" stroke-linejoin="miter" d="M 59.615667 23.055103 L 60.67356 54.907822 C 60.76051 56.617841 61.064835 57.864126 61.572044 58.646677 C 62.079253 59.429227 62.644429 60.008895 63.311046 60.414662 C 63.963172 60.820429 64.528347 61.240688 65.021064 61.675438 C 65.49929 62.081205 65.731157 62.80579 65.731157 63.805716 C 65.731157 64.61725 65.426831 65.182426 64.818181 65.530226 C 64.20953 65.849043 63.180621 66.008452 61.731453 66.008452 L 50.109124 66.008452 C 48.645464 66.008452 47.587571 65.849043 46.920954 65.530226 C 46.268828 65.182426 45.950011 64.61725 45.950011 63.805716 C 45.950011 62.907231 46.152895 62.226122 46.587645 61.77688 C 47.022396 61.327638 47.529605 60.892887 48.109272 60.458137 C 48.674448 60.023386 49.181656 59.414736 49.616407 58.603201 C 50.051157 57.806159 50.254041 56.559874 50.254041 54.907822 L 49.659882 26.38819 L 33.733524 60.718987 C 33.429199 61.371113 33.081398 61.86383 32.704615 62.168156 C 32.327831 62.457989 31.762655 62.704348 31.009088 62.907231 C 29.443986 63.211557 28.473044 62.776806 28.081768 61.617472 L 13.430678 26.837432 L 12.459736 56.559874 C 12.401769 57.820651 12.561177 58.820577 12.937961 59.559653 C 13.314745 60.269745 13.749495 60.834921 14.256704 61.255179 C 14.763913 61.660947 15.213155 62.052222 15.618922 62.457989 C 16.024689 62.849265 16.227573 63.385457 16.227573 64.052074 C 16.227573 64.849117 15.937739 65.370817 15.34358 65.602684 C 14.778405 65.805568 13.894412 65.921501 12.749569 65.921501 L 6.039921 65.921501 C 4.779144 65.921501 3.866168 65.791076 3.315484 65.530226 C 2.764801 65.240392 2.489459 64.718692 2.489459 63.950633 C 2.489459 63.356474 2.706834 62.849265 3.127093 62.457989 C 3.561843 62.052222 4.05456 61.660947 4.648719 61.255179 C 5.213895 60.834921 5.750087 60.269745 6.228312 59.559653 C 6.706538 58.820577 6.967388 57.820651 7.025355 56.559874 L 8.460031 23.055103 C 8.503506 21.707377 8.329606 20.678467 7.923839 19.982866 C 7.518072 19.272774 7.025355 18.72209 6.445688 18.316323 C 5.86602 17.925047 5.358812 17.490297 4.895078 17.070038 C 4.445836 16.635287 4.213969 16.041128 4.213969 15.287561 C 4.213969 14.476027 4.503802 13.939834 5.08347 13.635509 C 5.677629 13.345675 6.590605 13.171775 7.851381 13.171775 L 16.604356 13.171775 C 18.01005 13.171775 18.9665 13.809409 19.473709 15.055694 L 33.661066 48.34309 L 49.051231 15.142644 C 49.659882 13.838393 50.616333 13.171775 51.920584 13.171775 L 60.224318 13.171775 C 61.528569 13.171775 62.456037 13.345675 63.006721 13.635509 C 63.557404 13.939834 63.832746 14.476027 63.832746 15.287561 C 63.832746 16.041128 63.615371 16.620796 63.151637 17.026563 C 62.702395 17.417838 62.180695 17.823605 61.615519 18.229373 C 61.02136 18.63514 60.543135 19.200315 60.137368 19.910408 C 59.746092 20.606009 59.5577 21.663901 59.615667 23.055103 Z M 103.902246 54.444088 C 104.655813 53.705013 105.351414 53.545604 105.974556 54.009338 C 106.597698 54.45858 106.713632 55.241131 106.322357 56.342499 C 105.815148 57.748192 104.80073 59.255327 103.264612 60.878396 C 101.728493 62.486973 99.728641 63.863682 97.265056 65.023017 C 94.786978 66.182352 91.87415 66.762019 88.51208 66.762019 C 84.932635 66.762019 81.802431 66.008452 79.12147 64.486825 C 76.426018 62.97969 74.324724 60.878396 72.803097 58.182943 C 71.295962 55.501981 70.542395 52.444236 70.542395 49.009707 C 70.542395 45.140428 71.426387 41.691407 73.208864 38.677137 C 75.020324 35.648376 77.382469 33.300723 80.338772 31.590704 C 83.324058 29.880686 86.570195 29.025676 90.091673 29.025676 C 93.105943 29.025676 95.714446 29.561869 97.859215 30.648745 C 100.032967 31.735621 101.728493 33.170298 102.98927 34.99625 C 104.250046 36.793219 105.06158 38.778579 105.423872 40.952332 C 105.670231 42.256583 105.076072 43.242017 103.670379 43.894143 C 99.844575 45.604162 96.26513 47.111297 92.903059 48.43004 C 89.569973 49.734291 85.947052 51.111001 82.019807 52.574661 C 82.816849 54.28468 84.106609 55.849782 85.845611 57.284458 C 87.628087 58.719135 89.97574 59.443719 92.888568 59.443719 C 95.207237 59.443719 97.279547 58.93651 99.105499 57.936584 C 100.945943 56.922166 102.554519 55.762832 103.902246 54.444088 Z M 86.773078 33.996324 C 84.613818 34.257174 82.947274 35.315067 81.78794 37.155511 C 80.628605 38.981463 80.048938 41.097248 80.048938 43.502868 C 80.048938 45.32882 80.251822 46.908413 80.657589 48.25614 C 82.874816 47.502572 85.048568 46.749005 87.178845 45.966454 C 89.323614 45.183903 91.395925 44.372369 93.410268 43.502868 C 94.062394 43.213034 94.584095 42.865234 94.960878 42.459467 C 95.337662 42.053699 95.395629 41.37259 95.134778 40.416139 C 94.656553 38.198912 93.584168 36.488893 91.932117 35.286084 C 90.309048 34.083274 88.584538 33.663015 86.773078 33.996324 Z M 148.348233 14.693402 L 148.275774 25.025972 L 148.101874 54.617989 C 148.101874 56.00919 148.333741 57.0381 148.782983 57.704717 C 149.246717 58.356843 149.768418 58.835068 150.333593 59.139394 C 150.91326 59.443719 151.434961 59.719061 151.884203 59.979911 C 152.333445 60.22627 152.565312 60.617545 152.565312 61.182721 C 152.565312 62.081205 151.739286 63.008673 150.087235 63.950633 C 149.377142 64.312925 148.49315 64.7042 147.406274 65.138951 C 146.319397 65.559209 145.232521 65.921501 144.145645 66.182352 C 143.058769 66.472185 142.174777 66.617102 141.479176 66.617102 C 140.421283 66.617102 139.653224 66.25481 139.174998 65.559209 C 138.696773 64.849117 138.406939 63.704274 138.305498 62.153664 L 138.233039 60.646529 C 137.03023 62.342056 135.436145 63.805716 133.436293 65.023017 C 131.450932 66.225827 128.972855 66.776511 126.00206 66.689561 C 123.089232 66.631594 120.480729 65.892518 118.191044 64.457841 C 115.901358 63.008673 114.118881 61.052296 112.829121 58.545235 C 111.553854 56.023682 110.91622 53.154329 110.91622 49.937175 C 110.91622 46.647563 111.481395 43.734735 112.597255 41.184198 C 113.742097 38.619171 115.249232 36.430926 117.133151 34.619466 C 119.031561 32.808006 121.08938 31.416804 123.335591 30.460353 C 125.56731 29.503902 127.784537 29.025676 130.001764 29.025676 C 131.552374 29.025676 133.016034 29.199577 134.378252 29.561869 C 135.74047 29.895177 136.957771 30.373403 138.015664 30.982054 L 138.015664 25.09843 C 138.015664 23.779687 137.841764 22.779761 137.479472 22.08416 C 137.131671 21.374068 136.696921 20.837876 136.218695 20.461092 C 135.74047 20.069816 135.334703 19.722016 134.972411 19.403199 C 134.639102 19.084382 134.45071 18.63514 134.45071 18.084456 C 134.45071 17.577247 134.610119 17.17148 134.943427 16.852663 C 135.262244 16.519354 135.885387 16.14257 136.798363 15.751295 C 137.856255 15.244086 139.073557 14.736877 140.450266 14.229668 C 141.841468 13.736951 143.102244 13.3022 144.261579 12.968892 C 145.420913 12.6066 146.217956 12.432699 146.609231 12.432699 C 147.768566 12.432699 148.348233 13.171775 148.348233 14.693402 Z M 130.465498 60.197287 C 132.7262 60.197287 134.494185 59.371261 135.769453 57.748192 C 137.059213 56.09614 137.81278 54.125271 138.015664 51.821094 L 138.015664 47.285197 C 137.972189 45.720095 137.81278 44.21296 137.55193 42.763792 C 137.305572 41.300132 136.914296 40.053847 136.349121 38.995954 C 134.798511 35.51795 132.276958 33.778948 128.798954 33.778948 C 126.233927 33.778948 124.234075 34.82235 122.799398 36.909152 C 121.379214 38.995954 120.654629 41.807341 120.654629 45.32882 C 120.654629 48.401057 121.103872 51.053035 122.002356 53.284754 C 122.915332 55.530965 124.118141 57.240983 125.639768 58.429301 C 127.146903 59.603128 128.755479 60.197287 130.465498 60.197287 Z M 162.738473 24.881055 C 161.347271 24.83758 160.231412 24.359355 159.390894 23.475362 C 158.564868 22.591369 158.173593 21.518985 158.23156 20.2727 C 158.289526 19.113365 158.695293 17.968522 159.463353 16.852663 C 160.245903 15.70782 161.245829 14.780352 162.448639 14.084751 C 163.651448 13.38915 164.883241 13.055842 166.158509 13.113808 C 167.506236 13.157284 168.636587 13.635509 169.549563 14.548485 C 170.448047 15.446969 170.897289 16.548337 170.897289 17.867081 C 170.853814 19.055399 170.419064 20.200241 169.622021 21.287118 C 168.824979 22.373994 167.796069 23.243495 166.549785 23.910112 C 165.332484 24.547746 164.057216 24.881055 162.738473 24.881055 Z M 160.187937 55.516473 L 160.187937 41.691407 C 160.187937 40.401648 160.014036 39.416213 159.651744 38.735104 C 159.303944 38.039503 158.898177 37.517803 158.419951 37.155511 C 157.941726 36.764235 157.506976 36.416435 157.130192 36.083126 C 156.753408 35.749817 156.579508 35.315067 156.579508 34.749891 C 156.579508 34.199207 156.738916 33.764457 157.057733 33.44564 C 157.37655 33.112331 157.999693 32.750039 158.912669 32.344272 C 159.970561 31.837063 161.187863 31.344346 162.564572 30.86612 C 163.955774 30.387895 165.21655 29.982128 166.375885 29.634327 C 167.535219 29.272035 168.303278 29.098135 168.709045 29.098135 C 169.86838 29.05466 170.448047 29.808227 170.448047 31.358837 L 170.375589 41.691407 L 170.375589 55.516473 C 170.375589 57.269967 170.563981 58.574218 170.940764 59.400244 C 171.33204 60.22627 171.752298 60.834921 172.216032 61.211704 C 172.694258 61.588488 173.129008 61.965272 173.505792 62.313072 C 173.882576 62.660873 174.070967 63.255032 174.070967 64.124533 C 174.070967 64.863609 173.781134 65.370817 173.172483 65.631668 C 172.563833 65.878026 171.76679 66.008452 170.766864 66.008452 L 159.95607 66.008452 C 158.854702 66.008452 157.999693 65.863535 157.37655 65.602684 C 156.782391 65.312851 156.492558 64.79115 156.492558 64.052074 C 156.492558 63.24054 156.666458 62.660873 157.057733 62.313072 C 157.434517 61.965272 157.854776 61.588488 158.333001 61.211704 C 158.825719 60.834921 159.245977 60.22627 159.608269 59.400244 C 159.999545 58.574218 160.187937 57.269967 160.187937 55.516473 Z M 218.140171 60.197287 C 219.096622 60.197287 219.574847 60.617545 219.574847 61.472555 C 219.574847 62.327564 219.16908 63.15359 218.357546 63.936141 C 217.560504 64.7042 216.560578 65.341834 215.37226 65.849043 C 214.198433 66.356252 213.010116 66.617102 211.807306 66.617102 C 208.633628 66.617102 206.503351 64.747675 205.387491 61.023313 C 203.619506 62.97969 201.547196 64.414366 199.141576 65.312851 C 196.764941 66.225827 194.446272 66.689561 192.185569 66.689561 C 189.417658 66.689561 186.997547 66.182352 184.896254 65.211409 C 182.809451 64.225975 181.200875 62.89274 180.056032 61.211704 C 178.925681 59.530669 178.360505 57.64675 178.360505 55.588931 C 178.360505 51.966011 179.86764 48.980724 182.896401 46.647563 C 185.910671 44.314402 190.098767 43.140576 195.431706 43.140576 C 196.431632 43.140576 197.373591 43.184051 198.243092 43.285493 C 199.127085 43.386934 200.199469 43.531851 201.474737 43.749226 C 201.011003 42.14065 200.489303 40.691481 199.880652 39.416213 C 199.272002 38.126453 198.445976 37.112036 197.388083 36.358468 C 196.344682 35.604901 194.852039 35.213625 192.939137 35.213625 C 191.229118 35.213625 189.60605 35.51795 188.069932 36.112109 C 186.533814 36.72076 185.084645 37.401869 183.722427 38.169928 C 183.026827 38.604679 182.403684 38.604679 181.853 38.169928 C 181.302317 37.706195 181.302317 37.010594 181.853 36.039651 C 182.490634 34.99625 183.519544 33.923865 184.925237 32.836989 C 186.345422 31.750113 188.05544 30.86612 190.069784 30.127044 C 192.084128 29.40246 194.286863 29.025676 196.706974 29.025676 C 199.938619 29.025676 202.474663 29.66331 204.329598 30.967562 C 206.184534 32.228338 207.61921 33.851407 208.604644 35.822276 C 209.575587 37.778653 210.343646 39.807489 210.89433 41.923274 L 214.589709 56.110632 C 214.980984 57.661242 215.473701 58.748118 216.053369 59.371261 C 216.633036 59.96542 217.328637 60.255253 218.140171 60.197287 Z M 196.24324 61.385605 C 197.663425 61.385605 199.011151 61.110263 200.286419 60.530595 C 201.576179 59.950928 202.576105 59.197361 203.300689 58.255401 C 204.039765 57.327933 204.300615 56.356991 204.097732 55.342573 C 203.99629 54.704939 203.807898 53.907896 203.489081 52.965937 C 203.199247 51.994994 202.88043 50.864643 202.518138 49.5459 C 202.27178 48.69089 201.518212 48.053256 200.286419 47.661981 C 199.054626 47.256214 197.837325 47.067822 196.634516 47.067822 C 193.968046 47.067822 191.881244 47.690964 190.374109 48.951741 C 188.866974 50.212517 188.113407 51.879061 188.113407 53.93688 C 188.156882 56.09614 188.910449 57.878617 190.359617 59.298802 C 191.823277 60.690004 193.779654 61.385605 196.24324 61.385605 Z M 196.24324 61.385605 " stroke="#000000" stroke-width="3.302" stroke-opacity="1" stroke-miterlimit="4"/><path fill="#ffffff" d="M 79.738281 65.570312 L 80.019531 74.15625 C 80.050781 74.617188 80.128906 74.953125 80.261719 75.164062 C 80.398438 75.371094 80.558594 75.53125 80.734375 75.636719 C 80.914062 75.746094 81.066406 75.859375 81.191406 75.972656 C 81.324219 76.089844 81.390625 76.285156 81.390625 76.558594 C 81.390625 76.773438 81.308594 76.925781 81.140625 77.015625 C 80.980469 77.101562 80.703125 77.144531 80.304688 77.144531 L 77.175781 77.144531 C 76.785156 77.144531 76.5 77.101562 76.324219 77.015625 C 76.144531 76.925781 76.058594 76.773438 76.058594 76.558594 C 76.058594 76.316406 76.113281 76.128906 76.230469 76.007812 C 76.34375 75.886719 76.480469 75.773438 76.632812 75.65625 C 76.792969 75.535156 76.929688 75.367188 77.046875 75.15625 C 77.160156 74.9375 77.21875 74.605469 77.21875 74.15625 L 77.054688 66.46875 L 72.765625 75.722656 C 72.683594 75.898438 72.59375 76.027344 72.488281 76.113281 C 72.386719 76.195312 72.234375 76.257812 72.03125 76.308594 C 71.613281 76.390625 71.347656 76.277344 71.238281 75.964844 L 67.292969 66.589844 L 67.023438 74.605469 C 67.011719 74.945312 67.054688 75.210938 67.15625 75.40625 C 67.257812 75.601562 67.378906 75.753906 67.515625 75.863281 C 67.652344 75.972656 67.773438 76.082031 67.878906 76.191406 C 67.984375 76.300781 68.042969 76.445312 68.042969 76.621094 C 68.042969 76.832031 67.964844 76.972656 67.808594 77.035156 C 67.652344 77.097656 67.421875 77.128906 67.109375 77.128906 L 65.300781 77.128906 C 64.960938 77.128906 64.71875 77.09375 64.570312 77.015625 C 64.417969 76.945312 64.34375 76.800781 64.34375 76.59375 C 64.34375 76.433594 64.402344 76.300781 64.515625 76.191406 C 64.632812 76.082031 64.765625 75.972656 64.921875 75.863281 C 65.078125 75.753906 65.21875 75.601562 65.34375 75.40625 C 65.476562 75.210938 65.546875 74.945312 65.558594 74.605469 L 65.949219 65.570312 C 65.964844 65.207031 65.917969 64.925781 65.808594 64.734375 C 65.699219 64.546875 65.570312 64.398438 65.414062 64.296875 C 65.257812 64.1875 65.117188 64.078125 64.992188 63.960938 C 64.871094 63.839844 64.808594 63.679688 64.808594 63.476562 C 64.808594 63.261719 64.886719 63.113281 65.042969 63.03125 C 65.199219 62.949219 65.445312 62.910156 65.785156 62.910156 L 68.144531 62.910156 C 68.523438 62.910156 68.78125 63.078125 68.921875 63.417969 L 72.746094 72.390625 L 76.894531 63.433594 C 77.050781 63.085938 77.3125 62.910156 77.667969 62.910156 L 79.898438 62.910156 C 80.253906 62.910156 80.507812 62.949219 80.660156 63.03125 C 80.808594 63.113281 80.882812 63.261719 80.882812 63.476562 C 80.882812 63.679688 80.816406 63.835938 80.691406 63.945312 C 80.574219 64.054688 80.433594 64.164062 80.28125 64.269531 C 80.125 64.378906 79.992188 64.53125 79.882812 64.71875 C 79.773438 64.910156 79.722656 65.191406 79.738281 65.570312 Z M 79.738281 65.570312 " fill-opacity="1" fill-rule="nonzero"/><path fill="#ffffff" d="M 91.679688 74.035156 C 91.878906 73.835938 92.0625 73.792969 92.230469 73.914062 C 92.402344 74.035156 92.4375 74.246094 92.332031 74.542969 C 92.195312 74.921875 91.921875 75.332031 91.507812 75.765625 C 91.09375 76.199219 90.550781 76.574219 89.886719 76.886719 C 89.226562 77.199219 88.441406 77.351562 87.535156 77.351562 C 86.566406 77.351562 85.71875 77.148438 84.992188 76.742188 C 84.265625 76.332031 83.699219 75.765625 83.292969 75.042969 C 82.890625 74.316406 82.691406 73.488281 82.691406 72.570312 C 82.691406 71.523438 82.925781 70.597656 83.40625 69.785156 C 83.886719 68.972656 84.527344 68.335938 85.328125 67.875 C 86.132812 67.414062 87.007812 67.183594 87.957031 67.183594 C 88.769531 67.183594 89.46875 67.332031 90.050781 67.625 C 90.636719 67.910156 91.097656 68.300781 91.4375 68.785156 C 91.777344 69.277344 91.992188 69.808594 92.082031 70.390625 C 92.152344 70.746094 91.996094 71.015625 91.617188 71.191406 C 90.589844 71.652344 89.625 72.058594 88.722656 72.40625 C 87.820312 72.757812 86.839844 73.128906 85.785156 73.527344 C 85.996094 73.988281 86.339844 74.414062 86.816406 74.800781 C 87.292969 75.1875 87.921875 75.378906 88.707031 75.378906 C 89.332031 75.378906 89.890625 75.246094 90.386719 74.972656 C 90.878906 74.699219 91.308594 74.386719 91.679688 74.035156 Z M 87.058594 68.519531 C 86.476562 68.589844 86.03125 68.871094 85.714844 69.363281 C 85.40625 69.859375 85.25 70.433594 85.25 71.085938 C 85.25 71.578125 85.304688 72 85.414062 72.363281 C 86.011719 72.164062 86.597656 71.957031 87.171875 71.75 C 87.75 71.539062 88.3125 71.316406 88.851562 71.085938 C 89.027344 71.007812 89.167969 70.914062 89.265625 70.804688 C 89.367188 70.695312 89.386719 70.511719 89.316406 70.25 C 89.183594 69.65625 88.898438 69.195312 88.457031 68.871094 C 88.011719 68.546875 87.546875 68.429688 87.058594 68.519531 Z M 87.058594 68.519531 " fill-opacity="1" fill-rule="nonzero"/><path fill="#ffffff" d="M 103.652344 63.3125 L 103.636719 66.105469 L 103.59375 74.078125 C 103.59375 74.457031 103.652344 74.738281 103.773438 74.914062 C 103.898438 75.085938 104.042969 75.214844 104.195312 75.292969 C 104.351562 75.375 104.488281 75.449219 104.609375 75.515625 C 104.734375 75.585938 104.800781 75.695312 104.800781 75.84375 C 104.800781 76.085938 104.578125 76.335938 104.128906 76.59375 C 103.9375 76.695312 103.699219 76.800781 103.40625 76.914062 C 103.113281 77.03125 102.816406 77.125 102.523438 77.199219 C 102.238281 77.269531 102 77.308594 101.808594 77.308594 C 101.519531 77.308594 101.3125 77.214844 101.179688 77.027344 C 101.054688 76.835938 100.976562 76.53125 100.957031 76.113281 L 100.929688 75.699219 C 100.609375 76.164062 100.175781 76.558594 99.636719 76.886719 C 99.105469 77.207031 98.4375 77.355469 97.640625 77.328125 C 96.851562 77.3125 96.148438 77.117188 95.527344 76.734375 C 94.910156 76.34375 94.433594 75.808594 94.089844 75.128906 C 93.742188 74.453125 93.570312 73.679688 93.570312 72.8125 C 93.570312 71.933594 93.722656 71.148438 94.027344 70.457031 C 94.332031 69.765625 94.738281 69.171875 95.242188 68.683594 C 95.753906 68.195312 96.3125 67.824219 96.914062 67.570312 C 97.519531 67.3125 98.117188 67.183594 98.714844 67.183594 C 99.132812 67.183594 99.527344 67.234375 99.898438 67.332031 C 100.261719 67.421875 100.589844 67.550781 100.871094 67.710938 L 100.871094 66.125 C 100.871094 65.773438 100.820312 65.503906 100.722656 65.3125 C 100.632812 65.121094 100.519531 64.972656 100.386719 64.875 C 100.261719 64.769531 100.148438 64.675781 100.050781 64.589844 C 99.960938 64.5 99.914062 64.378906 99.914062 64.226562 C 99.914062 64.097656 99.957031 63.988281 100.042969 63.898438 C 100.132812 63.808594 100.300781 63.707031 100.542969 63.597656 C 100.828125 63.46875 101.160156 63.332031 101.535156 63.195312 C 101.90625 63.054688 102.25 62.941406 102.558594 62.847656 C 102.871094 62.753906 103.078125 62.703125 103.1875 62.703125 C 103.5 62.703125 103.652344 62.90625 103.652344 63.3125 Z M 98.835938 75.578125 C 99.445312 75.578125 99.921875 75.359375 100.265625 74.921875 C 100.617188 74.480469 100.820312 73.945312 100.871094 73.320312 L 100.871094 72.105469 C 100.859375 71.6875 100.820312 71.28125 100.75 70.890625 C 100.679688 70.492188 100.570312 70.152344 100.421875 69.863281 C 100.003906 68.929688 99.324219 68.460938 98.390625 68.460938 C 97.699219 68.460938 97.160156 68.742188 96.769531 69.304688 C 96.382812 69.867188 96.191406 70.621094 96.191406 71.570312 C 96.191406 72.398438 96.3125 73.113281 96.554688 73.714844 C 96.796875 74.320312 97.125 74.78125 97.535156 75.105469 C 97.941406 75.421875 98.375 75.578125 98.835938 75.578125 Z M 98.835938 75.578125 " fill-opacity="1" fill-rule="nonzero"/><path fill="#ffffff" d="M 107.542969 66.0625 C 107.164062 66.046875 106.863281 65.921875 106.640625 65.683594 C 106.414062 65.449219 106.308594 65.164062 106.320312 64.824219 C 106.335938 64.511719 106.449219 64.207031 106.65625 63.898438 C 106.867188 63.589844 107.136719 63.339844 107.457031 63.152344 C 107.785156 62.960938 108.117188 62.875 108.457031 62.890625 C 108.824219 62.90625 109.128906 63.035156 109.371094 63.28125 C 109.617188 63.519531 109.742188 63.820312 109.742188 64.167969 C 109.722656 64.496094 109.605469 64.804688 109.386719 65.097656 C 109.175781 65.386719 108.902344 65.621094 108.570312 65.796875 C 108.234375 65.976562 107.894531 66.0625 107.542969 66.0625 Z M 106.855469 74.320312 L 106.855469 70.597656 C 106.855469 70.246094 106.804688 69.980469 106.707031 69.796875 C 106.617188 69.613281 106.503906 69.472656 106.371094 69.371094 C 106.246094 69.269531 106.128906 69.175781 106.027344 69.089844 C 105.925781 68.996094 105.871094 68.878906 105.871094 68.726562 C 105.871094 68.578125 105.914062 68.460938 106 68.375 C 106.09375 68.28125 106.261719 68.179688 106.5 68.070312 C 106.789062 67.941406 107.117188 67.8125 107.492188 67.683594 C 107.863281 67.550781 108.207031 67.441406 108.519531 67.347656 C 108.828125 67.25 109.039062 67.199219 109.148438 67.199219 C 109.460938 67.191406 109.621094 67.394531 109.621094 67.8125 L 109.59375 70.597656 L 109.59375 74.320312 C 109.59375 74.796875 109.648438 75.148438 109.75 75.371094 C 109.855469 75.589844 109.96875 75.75 110.09375 75.851562 C 110.21875 75.957031 110.335938 76.058594 110.441406 76.15625 C 110.542969 76.246094 110.59375 76.410156 110.59375 76.636719 C 110.59375 76.839844 110.511719 76.972656 110.34375 77.042969 C 110.183594 77.113281 109.96875 77.144531 109.699219 77.144531 L 106.792969 77.144531 C 106.496094 77.144531 106.261719 77.109375 106.097656 77.035156 C 105.933594 76.960938 105.855469 76.824219 105.855469 76.621094 C 105.855469 76.402344 105.902344 76.246094 106 76.15625 C 106.105469 76.058594 106.21875 75.957031 106.347656 75.851562 C 106.476562 75.75 106.597656 75.589844 106.699219 75.371094 C 106.804688 75.148438 106.855469 74.796875 106.855469 74.320312 Z M 106.855469 74.320312 " fill-opacity="1" fill-rule="nonzero"/><path fill="#ffffff" d="M 122.472656 75.578125 C 122.730469 75.578125 122.863281 75.695312 122.863281 75.921875 C 122.863281 76.160156 122.75 76.382812 122.535156 76.59375 C 122.3125 76.800781 122.042969 76.972656 121.722656 77.113281 C 121.40625 77.242188 121.085938 77.308594 120.757812 77.308594 C 119.90625 77.308594 119.332031 76.808594 119.035156 75.800781 C 118.558594 76.332031 117.996094 76.71875 117.355469 76.964844 C 116.710938 77.207031 116.082031 77.328125 115.476562 77.328125 C 114.726562 77.328125 114.074219 77.195312 113.511719 76.929688 C 112.945312 76.667969 112.511719 76.308594 112.210938 75.851562 C 111.902344 75.402344 111.753906 74.894531 111.753906 74.335938 C 111.753906 73.359375 112.15625 72.558594 112.96875 71.933594 C 113.78125 71.300781 114.910156 70.984375 116.347656 70.984375 C 116.621094 70.984375 116.875 71 117.113281 71.027344 C 117.347656 71.050781 117.632812 71.09375 117.976562 71.148438 C 117.855469 70.710938 117.710938 70.320312 117.542969 69.976562 C 117.382812 69.632812 117.160156 69.359375 116.871094 69.15625 C 116.589844 68.949219 116.191406 68.847656 115.675781 68.847656 C 115.214844 68.847656 114.777344 68.929688 114.363281 69.097656 C 113.949219 69.257812 113.5625 69.441406 113.199219 69.640625 C 113.011719 69.761719 112.839844 69.761719 112.691406 69.640625 C 112.542969 69.519531 112.542969 69.328125 112.691406 69.070312 C 112.863281 68.792969 113.140625 68.503906 113.519531 68.210938 C 113.898438 67.917969 114.359375 67.671875 114.898438 67.476562 C 115.445312 67.28125 116.039062 67.183594 116.691406 67.183594 C 117.5625 67.183594 118.25 67.355469 118.75 67.699219 C 119.25 68.046875 119.632812 68.484375 119.898438 69.011719 C 120.160156 69.539062 120.367188 70.089844 120.515625 70.65625 L 121.515625 74.484375 C 121.625 74.902344 121.757812 75.195312 121.914062 75.363281 C 122.070312 75.523438 122.253906 75.59375 122.472656 75.578125 Z M 116.570312 75.90625 C 116.949219 75.90625 117.3125 75.828125 117.65625 75.671875 C 118.003906 75.515625 118.277344 75.316406 118.476562 75.0625 C 118.667969 74.808594 118.742188 74.546875 118.691406 74.277344 C 118.660156 74.105469 118.605469 73.886719 118.527344 73.628906 C 118.445312 73.371094 118.355469 73.066406 118.257812 72.714844 C 118.191406 72.480469 117.988281 72.3125 117.65625 72.207031 C 117.328125 72.101562 117 72.042969 116.671875 72.042969 C 115.953125 72.042969 115.390625 72.214844 114.984375 72.554688 C 114.574219 72.894531 114.371094 73.335938 114.371094 73.886719 C 114.390625 74.472656 114.59375 74.957031 114.984375 75.335938 C 115.382812 75.714844 115.910156 75.90625 116.570312 75.90625 Z M 116.570312 75.90625 " fill-opacity="1" fill-rule="nonzero"/></svg>