<svg xmlns="http://www.w3.org/2000/svg" xmlns:xlink="http://www.w3.org/1999/xlink" width="250" zoomAndPan="magnify" viewBox="0 0 187.5 112.499997" height="150" preserveAspectRatio="xMidYMid meet" version="1.0"><path fill="#ffffff" d="M 27.917969 32.828125 L 28.339844 45.6875 C 28.378906 46.375 28.5 46.875 28.703125 47.195312 C 28.910156 47.507812 29.144531 47.746094 29.410156 47.90625 C 29.671875 48.074219 29.902344 48.242188 30.089844 48.414062 C 30.285156 48.585938 30.386719 48.875 30.386719 49.28125 C 30.386719 49.605469 30.261719 49.832031 30.011719 49.960938 C 29.769531 50.097656 29.355469 50.160156 28.765625 50.160156 L 24.078125 50.160156 C 23.484375 50.160156 23.054688 50.097656 22.792969 49.960938 C 22.53125 49.832031 22.402344 49.605469 22.402344 49.28125 C 22.402344 48.914062 22.488281 48.640625 22.65625 48.457031 C 22.832031 48.269531 23.035156 48.09375 23.269531 47.925781 C 23.5 47.75 23.699219 47.5 23.871094 47.179688 C 24.046875 46.851562 24.132812 46.351562 24.132812 45.6875 L 23.894531 34.167969 L 17.460938 48.027344 C 17.339844 48.292969 17.203125 48.484375 17.050781 48.605469 C 16.898438 48.730469 16.671875 48.832031 16.367188 48.914062 C 15.734375 49.039062 15.339844 48.863281 15.175781 48.390625 L 9.273438 34.351562 L 8.878906 46.351562 C 8.855469 46.859375 8.917969 47.261719 9.066406 47.558594 C 9.21875 47.851562 9.398438 48.078125 9.597656 48.242188 C 9.804688 48.40625 9.988281 48.570312 10.15625 48.734375 C 10.316406 48.890625 10.402344 49.105469 10.402344 49.367188 C 10.402344 49.695312 10.28125 49.90625 10.042969 49.996094 C 9.808594 50.085938 9.460938 50.128906 8.996094 50.128906 L 6.28125 50.128906 C 5.777344 50.128906 5.410156 50.074219 5.1875 49.960938 C 4.964844 49.851562 4.855469 49.644531 4.855469 49.335938 C 4.855469 49.09375 4.9375 48.890625 5.109375 48.734375 C 5.285156 48.570312 5.484375 48.40625 5.71875 48.242188 C 5.953125 48.078125 6.164062 47.851562 6.355469 47.558594 C 6.550781 47.261719 6.65625 46.859375 6.679688 46.351562 L 7.257812 32.828125 C 7.277344 32.277344 7.207031 31.863281 7.042969 31.582031 C 6.878906 31.296875 6.683594 31.070312 6.449219 30.90625 C 6.214844 30.742188 6.007812 30.578125 5.824219 30.40625 C 5.640625 30.230469 5.554688 29.996094 5.554688 29.691406 C 5.554688 29.367188 5.667969 29.140625 5.902344 29.019531 C 6.132812 28.898438 6.503906 28.835938 7.011719 28.835938 L 10.550781 28.835938 C 11.117188 28.835938 11.503906 29.089844 11.710938 29.597656 L 17.4375 43.027344 L 23.648438 29.628906 C 23.890625 29.101562 24.277344 28.835938 24.808594 28.835938 L 28.15625 28.835938 C 28.683594 28.835938 29.058594 28.898438 29.28125 29.019531 C 29.507812 29.140625 29.625 29.367188 29.625 29.691406 C 29.625 29.996094 29.53125 30.226562 29.347656 30.390625 C 29.164062 30.554688 28.957031 30.71875 28.71875 30.882812 C 28.484375 31.042969 28.285156 31.261719 28.125 31.550781 C 27.964844 31.835938 27.894531 32.261719 27.917969 32.828125 Z M 27.917969 32.828125 " fill-opacity="1" fill-rule="nonzero"/><path fill="#ffffff" d="M 34.953125 33.554688 C 34.382812 33.535156 33.929688 33.347656 33.59375 32.992188 C 33.261719 32.640625 33.105469 32.207031 33.128906 31.699219 C 33.144531 31.234375 33.304688 30.777344 33.621094 30.320312 C 33.9375 29.859375 34.335938 29.488281 34.824219 29.199219 C 35.316406 28.914062 35.816406 28.785156 36.324219 28.804688 C 36.867188 28.824219 37.324219 29.019531 37.6875 29.382812 C 38.058594 29.75 38.246094 30.195312 38.246094 30.722656 C 38.222656 31.210938 38.046875 31.675781 37.722656 32.113281 C 37.398438 32.546875 36.988281 32.894531 36.492188 33.160156 C 35.992188 33.425781 35.480469 33.554688 34.953125 33.554688 Z M 33.914062 45.925781 L 33.914062 40.355469 C 33.914062 39.828125 33.839844 39.425781 33.699219 39.148438 C 33.558594 38.875 33.394531 38.660156 33.199219 38.507812 C 33.007812 38.355469 32.835938 38.210938 32.683594 38.078125 C 32.527344 37.949219 32.453125 37.769531 32.453125 37.546875 C 32.453125 37.324219 32.519531 37.148438 32.652344 37.015625 C 32.78125 36.882812 33.03125 36.734375 33.398438 36.570312 C 33.824219 36.371094 34.316406 36.175781 34.871094 35.984375 C 35.433594 35.789062 35.945312 35.617188 36.410156 35.476562 C 36.882812 35.332031 37.199219 35.261719 37.355469 35.261719 C 37.824219 35.242188 38.0625 35.546875 38.0625 36.175781 L 38.03125 40.355469 L 38.03125 45.925781 C 38.03125 46.640625 38.105469 47.164062 38.253906 47.496094 C 38.40625 47.828125 38.578125 48.074219 38.769531 48.226562 C 38.960938 48.378906 39.136719 48.527344 39.292969 48.667969 C 39.445312 48.8125 39.523438 49.054688 39.523438 49.398438 C 39.523438 49.707031 39.398438 49.910156 39.15625 50.011719 C 38.914062 50.113281 38.585938 50.160156 38.179688 50.160156 L 33.824219 50.160156 C 33.375 50.160156 33.027344 50.105469 32.785156 49.996094 C 32.542969 49.882812 32.421875 49.675781 32.421875 49.367188 C 32.421875 49.046875 32.496094 48.8125 32.652344 48.667969 C 32.804688 48.527344 32.976562 48.378906 33.167969 48.226562 C 33.363281 48.074219 33.535156 47.828125 33.683594 47.496094 C 33.835938 47.164062 33.914062 46.640625 33.914062 45.925781 Z M 33.914062 45.925781 " fill-opacity="1" fill-rule="nonzero"/><path fill="#ffffff" d="M 57.316406 41.503906 L 58.347656 46.71875 C 58.445312 47.183594 58.585938 47.542969 58.757812 47.789062 C 58.933594 48.03125 59.109375 48.226562 59.289062 48.367188 C 59.476562 48.507812 59.632812 48.644531 59.765625 48.789062 C 59.898438 48.929688 59.964844 49.136719 59.964844 49.398438 C 59.964844 49.707031 59.84375 49.910156 59.601562 50.011719 C 59.355469 50.113281 59.03125 50.160156 58.625 50.160156 L 54.355469 50.160156 C 53.933594 50.160156 53.597656 50.105469 53.347656 49.996094 C 53.105469 49.882812 52.984375 49.675781 52.984375 49.367188 C 52.984375 49.125 53.058594 48.925781 53.214844 48.773438 C 53.367188 48.621094 53.539062 48.460938 53.730469 48.289062 C 53.925781 48.113281 54.074219 47.890625 54.171875 47.621094 C 54.273438 47.347656 54.273438 46.964844 54.171875 46.472656 L 53.230469 41.664062 C 53.105469 41.015625 52.945312 40.402344 52.738281 39.824219 C 52.535156 39.242188 52.242188 38.769531 51.855469 38.402344 C 51.46875 38.039062 50.945312 37.863281 50.277344 37.878906 C 49.464844 37.878906 48.746094 38.238281 48.128906 38.949219 C 47.507812 39.660156 47.199219 40.6875 47.199219 42.03125 L 47.199219 45.925781 C 47.199219 46.640625 47.273438 47.164062 47.421875 47.496094 C 47.574219 47.828125 47.746094 48.074219 47.9375 48.226562 C 48.132812 48.378906 48.304688 48.527344 48.445312 48.667969 C 48.589844 48.8125 48.660156 49.054688 48.660156 49.398438 C 48.660156 49.707031 48.542969 49.910156 48.3125 50.011719 C 48.078125 50.113281 47.746094 50.160156 47.320312 50.160156 L 42.964844 50.160156 C 42.535156 50.160156 42.195312 50.105469 41.941406 49.996094 C 41.6875 49.882812 41.558594 49.675781 41.558594 49.367188 C 41.558594 49.046875 41.636719 48.8125 41.789062 48.667969 C 41.941406 48.527344 42.117188 48.378906 42.320312 48.226562 C 42.527344 48.074219 42.703125 47.828125 42.851562 47.496094 C 43.003906 47.164062 43.082031 46.640625 43.082031 45.925781 L 43.082031 40.140625 C 43.082031 39.710938 43 39.355469 42.835938 39.0625 C 42.679688 38.765625 42.445312 38.503906 42.140625 38.277344 C 41.996094 38.175781 41.863281 38.0625 41.742188 37.925781 C 41.617188 37.796875 41.558594 37.628906 41.558594 37.429688 C 41.558594 37.1875 41.632812 36.992188 41.773438 36.847656 C 41.917969 36.707031 42.171875 36.554688 42.535156 36.386719 C 42.921875 36.210938 43.351562 36.03125 43.828125 35.855469 C 44.308594 35.683594 44.757812 35.539062 45.167969 35.429688 C 45.585938 35.316406 45.878906 35.261719 46.042969 35.261719 C 46.527344 35.261719 46.773438 35.566406 46.773438 36.175781 L 46.773438 38.007812 C 47.359375 37.09375 48.089844 36.402344 48.960938 35.9375 C 49.839844 35.464844 50.765625 35.230469 51.738281 35.230469 C 52.898438 35.230469 53.835938 35.476562 54.554688 35.96875 C 55.273438 36.457031 55.847656 37.167969 56.277344 38.101562 C 56.703125 39.035156 57.050781 40.167969 57.316406 41.503906 Z M 57.316406 41.503906 " fill-opacity="1" fill-rule="nonzero"/><path fill="#ffffff" d="M 74.554688 45.496094 C 74.863281 45.195312 75.144531 45.136719 75.398438 45.320312 C 75.652344 45.503906 75.695312 45.8125 75.53125 46.257812 C 75.324219 46.828125 74.914062 47.441406 74.292969 48.089844 C 73.675781 48.742188 72.867188 49.300781 71.875 49.765625 C 70.878906 50.230469 69.703125 50.460938 68.34375 50.460938 C 66.898438 50.460938 65.632812 50.160156 64.542969 49.550781 C 63.457031 48.945312 62.613281 48.097656 62.003906 47.011719 C 61.394531 45.921875 61.09375 44.6875 61.09375 43.304688 C 61.09375 41.742188 61.453125 40.351562 62.171875 39.132812 C 62.890625 37.917969 63.847656 36.964844 65.042969 36.269531 C 66.242188 35.578125 67.554688 35.230469 68.980469 35.230469 C 70.199219 35.230469 71.246094 35.449219 72.121094 35.890625 C 72.992188 36.328125 73.683594 36.914062 74.191406 37.640625 C 74.699219 38.371094 75.023438 39.171875 75.167969 40.046875 C 75.265625 40.574219 75.03125 40.972656 74.460938 41.234375 C 72.921875 41.925781 71.472656 42.53125 70.121094 43.0625 C 68.773438 43.589844 67.304688 44.148438 65.71875 44.734375 C 66.046875 45.429688 66.5625 46.066406 67.273438 46.648438 C 67.988281 47.222656 68.929688 47.511719 70.105469 47.511719 C 71.042969 47.511719 71.878906 47.308594 72.621094 46.902344 C 73.359375 46.492188 74.003906 46.027344 74.554688 45.496094 Z M 67.636719 37.246094 C 66.765625 37.347656 66.09375 37.765625 65.628906 38.507812 C 65.164062 39.25 64.933594 40.109375 64.933594 41.085938 C 64.933594 41.816406 65.011719 42.457031 65.171875 43.003906 C 66.0625 42.699219 66.941406 42.390625 67.804688 42.078125 C 68.671875 41.757812 69.511719 41.429688 70.320312 41.085938 C 70.582031 40.964844 70.792969 40.820312 70.945312 40.65625 C 71.097656 40.496094 71.125 40.21875 71.027344 39.832031 C 70.820312 38.9375 70.386719 38.25 69.722656 37.761719 C 69.066406 37.273438 68.371094 37.101562 67.636719 37.246094 Z M 67.636719 37.246094 " fill-opacity="1" fill-rule="nonzero"/><path fill="#ffffff" d="M 86.863281 35.230469 C 87.738281 35.230469 88.40625 35.480469 88.871094 35.984375 C 89.339844 36.480469 89.578125 37.105469 89.578125 37.855469 C 89.578125 38.464844 89.433594 38.949219 89.148438 39.316406 C 88.863281 39.679688 88.507812 39.875 88.085938 39.894531 C 87.714844 39.894531 87.417969 39.8125 87.195312 39.648438 C 86.976562 39.488281 86.78125 39.304688 86.617188 39.101562 C 86.460938 38.902344 86.269531 38.71875 86.054688 38.554688 C 85.84375 38.390625 85.554688 38.308594 85.191406 38.308594 C 84.636719 38.308594 84.152344 38.617188 83.722656 39.230469 C 83.296875 39.835938 83.085938 40.699219 83.085938 41.816406 L 83.085938 45.925781 C 83.085938 46.640625 83.160156 47.164062 83.308594 47.496094 C 83.460938 47.828125 83.636719 48.074219 83.824219 48.226562 C 84.019531 48.378906 84.191406 48.527344 84.332031 48.667969 C 84.476562 48.8125 84.546875 49.054688 84.546875 49.398438 C 84.546875 49.707031 84.429688 49.910156 84.199219 50.011719 C 83.964844 50.113281 83.636719 50.160156 83.207031 50.160156 L 78.851562 50.160156 C 78.421875 50.160156 78.082031 50.105469 77.828125 49.996094 C 77.574219 49.882812 77.445312 49.675781 77.445312 49.367188 C 77.445312 49.046875 77.523438 48.8125 77.675781 48.667969 C 77.828125 48.527344 78.007812 48.378906 78.207031 48.226562 C 78.414062 48.074219 78.589844 47.828125 78.738281 47.496094 C 78.894531 47.164062 78.96875 46.640625 78.96875 45.925781 L 78.96875 40.140625 C 78.96875 39.710938 78.886719 39.355469 78.722656 39.0625 C 78.566406 38.765625 78.332031 38.503906 78.027344 38.277344 C 77.882812 38.175781 77.75 38.0625 77.628906 37.925781 C 77.507812 37.796875 77.445312 37.628906 77.445312 37.429688 C 77.445312 37.1875 77.519531 36.992188 77.660156 36.847656 C 77.804688 36.707031 78.058594 36.554688 78.421875 36.386719 C 78.808594 36.210938 79.238281 36.03125 79.714844 35.855469 C 80.195312 35.683594 80.644531 35.539062 81.054688 35.429688 C 81.472656 35.316406 81.765625 35.261719 81.929688 35.261719 C 82.414062 35.261719 82.660156 35.566406 82.660156 36.175781 L 82.660156 37.976562 C 83.230469 37.039062 83.890625 36.347656 84.640625 35.90625 C 85.390625 35.457031 86.132812 35.230469 86.863281 35.230469 Z M 86.863281 35.230469 " fill-opacity="1" fill-rule="nonzero"/><path fill="#ffffff" d="M 107.339844 47.8125 C 107.722656 47.8125 107.917969 47.988281 107.917969 48.335938 C 107.917969 48.679688 107.753906 49.011719 107.425781 49.328125 C 107.101562 49.640625 106.699219 49.898438 106.21875 50.105469 C 105.742188 50.304688 105.261719 50.40625 104.777344 50.40625 C 103.496094 50.40625 102.632812 49.65625 102.191406 48.152344 C 101.476562 48.945312 100.636719 49.523438 99.675781 49.890625 C 98.710938 50.257812 97.773438 50.4375 96.859375 50.4375 C 95.742188 50.4375 94.757812 50.242188 93.914062 49.84375 C 93.074219 49.445312 92.421875 48.910156 91.964844 48.234375 C 91.507812 47.550781 91.28125 46.792969 91.28125 45.957031 C 91.28125 44.496094 91.886719 43.292969 93.105469 42.347656 C 94.328125 41.402344 96.011719 40.925781 98.167969 40.925781 C 98.574219 40.925781 98.953125 40.949219 99.308594 40.988281 C 99.664062 41.035156 100.09375 41.09375 100.601562 41.171875 C 100.417969 40.523438 100.203125 39.9375 99.960938 39.417969 C 99.714844 38.902344 99.382812 38.492188 98.953125 38.191406 C 98.527344 37.882812 97.929688 37.730469 97.160156 37.730469 C 96.472656 37.730469 95.816406 37.851562 95.191406 38.09375 C 94.574219 38.339844 93.988281 38.613281 93.445312 38.917969 C 93.160156 39.105469 92.902344 39.105469 92.675781 38.917969 C 92.453125 38.734375 92.457031 38.453125 92.683594 38.070312 C 92.949219 37.640625 93.363281 37.210938 93.929688 36.777344 C 94.5 36.339844 95.191406 35.972656 96 35.675781 C 96.816406 35.378906 97.710938 35.230469 98.683594 35.230469 C 99.984375 35.230469 101.007812 35.488281 101.761719 36.007812 C 102.511719 36.527344 103.085938 37.183594 103.484375 37.976562 C 103.878906 38.769531 104.1875 39.589844 104.410156 40.441406 L 105.902344 46.171875 C 106.066406 46.800781 106.261719 47.238281 106.496094 47.480469 C 106.730469 47.722656 107.007812 47.835938 107.339844 47.8125 Z M 98.5 48.304688 C 99.070312 48.304688 99.613281 48.191406 100.125 47.957031 C 100.644531 47.71875 101.050781 47.414062 101.347656 47.035156 C 101.644531 46.660156 101.75 46.273438 101.664062 45.871094 C 101.628906 45.605469 101.550781 45.28125 101.429688 44.894531 C 101.304688 44.507812 101.175781 44.050781 101.03125 43.519531 C 100.929688 43.175781 100.628906 42.925781 100.125 42.757812 C 99.628906 42.597656 99.136719 42.511719 98.652344 42.511719 C 97.574219 42.511719 96.734375 42.765625 96.121094 43.273438 C 95.511719 43.78125 95.207031 44.453125 95.207031 45.289062 C 95.226562 46.164062 95.535156 46.882812 96.121094 47.457031 C 96.710938 48.023438 97.503906 48.304688 98.5 48.304688 Z M 98.5 48.304688 " fill-opacity="1" fill-rule="nonzero"/><path fill="#ffffff" d="M 110.65625 45.925781 L 110.621094 33.621094 C 110.621094 33.09375 110.550781 32.691406 110.410156 32.414062 C 110.269531 32.140625 110.101562 31.929688 109.910156 31.777344 C 109.71875 31.625 109.546875 31.484375 109.394531 31.351562 C 109.238281 31.21875 109.164062 31.042969 109.164062 30.820312 C 109.164062 30.613281 109.234375 30.445312 109.378906 30.3125 C 109.519531 30.179688 109.773438 30.035156 110.140625 29.875 C 110.566406 29.667969 111.054688 29.464844 111.597656 29.265625 C 112.148438 29.058594 112.65625 28.886719 113.121094 28.75 C 113.59375 28.605469 113.90625 28.535156 114.066406 28.535156 C 114.550781 28.535156 114.796875 28.839844 114.796875 29.445312 L 114.773438 33.621094 L 114.773438 45.925781 C 114.773438 46.640625 114.84375 47.164062 114.992188 47.496094 C 115.148438 47.828125 115.320312 48.074219 115.511719 48.226562 C 115.703125 48.378906 115.875 48.527344 116.015625 48.667969 C 116.160156 48.8125 116.230469 49.054688 116.230469 49.398438 C 116.230469 49.707031 116.113281 49.910156 115.882812 50.011719 C 115.648438 50.113281 115.320312 50.160156 114.890625 50.160156 L 110.535156 50.160156 C 110.105469 50.160156 109.765625 50.105469 109.511719 49.996094 C 109.257812 49.882812 109.132812 49.675781 109.132812 49.367188 C 109.132812 49.046875 109.207031 48.8125 109.359375 48.667969 C 109.515625 48.527344 109.691406 48.378906 109.894531 48.226562 C 110.097656 48.074219 110.277344 47.828125 110.425781 47.496094 C 110.578125 47.164062 110.65625 46.640625 110.65625 45.925781 Z M 110.65625 45.925781 " fill-opacity="1" fill-rule="nonzero"/><path fill="#ffffff" d="M 135.148438 50.460938 C 133.078125 50.460938 131.253906 50.03125 129.664062 49.167969 C 128.082031 48.308594 126.84375 47.089844 125.953125 45.519531 C 125.058594 43.945312 124.613281 42.082031 124.613281 39.925781 C 124.613281 38.339844 124.890625 36.863281 125.445312 35.492188 C 126.003906 34.125 126.789062 32.914062 127.792969 31.867188 C 128.796875 30.820312 129.976562 30.003906 131.324219 29.414062 C 132.675781 28.828125 134.144531 28.535156 135.726562 28.535156 C 136.683594 28.535156 137.449219 28.621094 138.027344 28.796875 C 138.609375 28.96875 139.082031 29.050781 139.449219 29.050781 C 139.832031 29.050781 140.121094 28.96875 140.3125 28.804688 C 140.507812 28.640625 140.777344 28.558594 141.121094 28.558594 C 141.40625 28.558594 141.640625 28.667969 141.820312 28.882812 C 142.003906 29.097656 142.1875 29.527344 142.367188 30.175781 C 142.53125 30.707031 142.691406 31.308594 142.851562 31.976562 C 143.015625 32.644531 143.167969 33.433594 143.3125 34.351562 C 143.375 34.757812 143.359375 35.078125 143.265625 35.308594 C 143.171875 35.542969 142.957031 35.679688 142.613281 35.722656 C 142.289062 35.742188 142.03125 35.640625 141.835938 35.40625 C 141.644531 35.167969 141.394531 34.824219 141.089844 34.382812 C 140.394531 33.367188 139.582031 32.476562 138.648438 31.714844 C 137.714844 30.953125 136.578125 30.574219 135.242188 30.574219 C 133.941406 30.574219 132.824219 30.90625 131.886719 31.566406 C 130.957031 32.222656 130.242188 33.109375 129.746094 34.230469 C 129.246094 35.347656 129 36.605469 129 38.007812 C 129 39.753906 129.304688 41.367188 129.910156 42.855469 C 130.519531 44.335938 131.390625 45.523438 132.53125 46.417969 C 133.667969 47.3125 135.027344 47.757812 136.617188 47.757812 C 137.875 47.757812 138.980469 47.503906 139.933594 46.996094 C 140.886719 46.488281 141.773438 45.796875 142.582031 44.925781 C 142.824219 44.660156 143.0625 44.558594 143.296875 44.625 C 143.535156 44.683594 143.695312 44.835938 143.789062 45.089844 C 143.875 45.34375 143.832031 45.636719 143.652344 45.957031 C 143.28125 46.730469 142.6875 47.460938 141.875 48.152344 C 141.066406 48.84375 140.09375 49.398438 138.957031 49.828125 C 137.816406 50.25 136.546875 50.460938 135.148438 50.460938 Z M 135.148438 50.460938 " fill-opacity="1" fill-rule="nonzero"/><path fill="#ffffff" d="M 148.3125 33.554688 C 147.738281 33.535156 147.289062 33.347656 146.953125 32.992188 C 146.621094 32.640625 146.464844 32.207031 146.484375 31.699219 C 146.503906 31.234375 146.664062 30.777344 146.976562 30.320312 C 147.296875 29.859375 147.695312 29.488281 148.183594 29.199219 C 148.675781 28.914062 149.175781 28.785156 149.683594 28.804688 C 150.226562 28.824219 150.683594 29.019531 151.046875 29.382812 C 151.417969 29.75 151.601562 30.195312 151.601562 30.722656 C 151.582031 31.210938 151.40625 31.675781 151.078125 32.113281 C 150.757812 32.546875 150.347656 32.894531 149.851562 33.160156 C 149.351562 33.425781 148.839844 33.554688 148.3125 33.554688 Z M 147.273438 45.925781 L 147.273438 40.355469 C 147.273438 39.828125 147.199219 39.425781 147.058594 39.148438 C 146.917969 38.875 146.753906 38.660156 146.558594 38.507812 C 146.367188 38.355469 146.195312 38.210938 146.042969 38.078125 C 145.886719 37.949219 145.8125 37.769531 145.8125 37.546875 C 145.8125 37.324219 145.878906 37.148438 146.011719 37.015625 C 146.140625 36.882812 146.390625 36.734375 146.757812 36.570312 C 147.183594 36.371094 147.675781 36.175781 148.230469 35.984375 C 148.789062 35.789062 149.304688 35.617188 149.769531 35.476562 C 150.242188 35.332031 150.554688 35.261719 150.714844 35.261719 C 151.183594 35.242188 151.421875 35.546875 151.421875 36.175781 L 151.390625 40.355469 L 151.390625 45.925781 C 151.390625 46.640625 151.460938 47.164062 151.609375 47.496094 C 151.765625 47.828125 151.9375 48.074219 152.125 48.226562 C 152.320312 48.378906 152.496094 48.527344 152.652344 48.667969 C 152.804688 48.8125 152.878906 49.054688 152.878906 49.398438 C 152.878906 49.707031 152.757812 49.910156 152.515625 50.011719 C 152.273438 50.113281 151.945312 50.160156 151.539062 50.160156 L 147.183594 50.160156 C 146.734375 50.160156 146.386719 50.105469 146.144531 49.996094 C 145.902344 49.882812 145.78125 49.675781 145.78125 49.367188 C 145.78125 49.046875 145.855469 48.8125 146.011719 48.667969 C 146.164062 48.527344 146.335938 48.378906 146.527344 48.226562 C 146.71875 48.074219 146.894531 47.828125 147.042969 47.496094 C 147.195312 47.164062 147.273438 46.640625 147.273438 45.925781 Z M 147.273438 45.925781 " fill-opacity="1" fill-rule="nonzero"/><path fill="#ffffff" d="M 164.152344 46.71875 C 164.4375 46.496094 164.679688 46.46875 164.882812 46.628906 C 165.082031 46.789062 165.132812 47.035156 165.035156 47.359375 C 164.890625 47.804688 164.613281 48.273438 164.207031 48.765625 C 163.804688 49.253906 163.289062 49.65625 162.660156 49.980469 C 162.03125 50.300781 161.289062 50.460938 160.433594 50.460938 C 159.070312 50.460938 158.011719 50.046875 157.25 49.21875 C 156.488281 48.386719 156.109375 47.199219 156.109375 45.65625 L 156.109375 44.066406 C 156.109375 42.710938 156.117188 41.464844 156.140625 40.339844 C 156.160156 39.210938 156.183594 38.25 156.203125 37.460938 L 155.378906 37.460938 C 154.96875 37.460938 154.691406 37.394531 154.539062 37.261719 C 154.390625 37.128906 154.316406 36.933594 154.316406 36.667969 C 154.316406 36.480469 154.347656 36.300781 154.417969 36.117188 C 154.484375 35.933594 154.601562 35.769531 154.765625 35.628906 C 155.339844 35.039062 155.960938 34.476562 156.640625 33.929688 C 157.320312 33.378906 157.976562 32.910156 158.605469 32.523438 C 158.949219 32.320312 159.203125 32.199219 159.367188 32.160156 C 159.53125 32.117188 159.65625 32.097656 159.734375 32.097656 C 159.957031 32.097656 160.125 32.183594 160.25 32.359375 C 160.371094 32.527344 160.425781 32.722656 160.410156 32.945312 C 160.363281 33.355469 160.332031 33.769531 160.3125 34.199219 C 160.292969 34.625 160.269531 35.070312 160.25 35.539062 L 163.273438 35.539062 C 163.550781 35.539062 163.792969 35.601562 163.996094 35.722656 C 164.199219 35.84375 164.253906 36.140625 164.152344 36.601562 C 164.074219 37.054688 163.910156 37.34375 163.660156 37.476562 C 163.417969 37.609375 163.144531 37.664062 162.84375 37.640625 L 160.226562 37.546875 C 160.226562 38.382812 160.226562 39.335938 160.226562 40.402344 C 160.226562 41.464844 160.214844 42.6875 160.195312 44.066406 C 160.171875 45.429688 160.289062 46.355469 160.542969 46.851562 C 160.796875 47.351562 161.265625 47.597656 161.957031 47.597656 C 162.363281 47.597656 162.75 47.515625 163.113281 47.34375 C 163.476562 47.171875 163.824219 46.960938 164.152344 46.71875 Z M 164.152344 46.71875 " fill-opacity="1" fill-rule="nonzero"/><path fill="#ffffff" d="M 179.324219 35.539062 L 181.425781 35.539062 C 181.871094 35.539062 182.21875 35.59375 182.464844 35.707031 C 182.707031 35.816406 182.828125 36.015625 182.828125 36.300781 C 182.828125 36.585938 182.757812 36.808594 182.613281 36.960938 C 182.472656 37.109375 182.289062 37.257812 182.066406 37.410156 C 181.84375 37.566406 181.605469 37.800781 181.351562 38.117188 C 181.097656 38.429688 180.847656 38.902344 180.597656 39.53125 L 176.734375 49.464844 C 176.183594 50.902344 175.625 52.15625 175.054688 53.222656 C 174.488281 54.289062 173.808594 55.113281 173.015625 55.691406 C 172.226562 56.265625 171.199219 56.554688 169.9375 56.554688 C 169.304688 56.554688 168.710938 56.445312 168.152344 56.222656 C 167.597656 56 167.144531 55.679688 166.804688 55.261719 C 166.457031 54.84375 166.289062 54.34375 166.289062 53.753906 C 166.289062 53.226562 166.453125 52.742188 166.789062 52.304688 C 167.121094 51.867188 167.59375 51.640625 168.207031 51.621094 C 168.652344 51.621094 168.996094 51.757812 169.238281 52.035156 C 169.480469 52.308594 169.699219 52.628906 169.890625 52.992188 C 170.082031 53.359375 170.296875 53.675781 170.53125 53.953125 C 170.765625 54.226562 171.082031 54.367188 171.492188 54.367188 C 171.976562 54.367188 172.382812 54.097656 172.707031 53.558594 C 173.03125 53.015625 173.199219 52.382812 173.199219 51.652344 C 173.199219 51.308594 173.15625 50.964844 173.078125 50.628906 C 173 50.296875 172.886719 49.96875 172.746094 49.644531 L 168.722656 39.5 C 168.480469 38.890625 168.226562 38.429688 167.960938 38.117188 C 167.695312 37.800781 167.457031 37.566406 167.238281 37.410156 C 167.027344 37.257812 166.851562 37.109375 166.707031 36.960938 C 166.570312 36.808594 166.5 36.585938 166.5 36.300781 C 166.5 35.996094 166.621094 35.792969 166.867188 35.691406 C 167.109375 35.589844 167.433594 35.539062 167.835938 35.539062 L 172.46875 35.539062 C 172.894531 35.539062 173.230469 35.59375 173.476562 35.707031 C 173.71875 35.816406 173.839844 36.015625 173.839844 36.300781 C 173.839844 36.585938 173.757812 36.808594 173.59375 36.960938 C 173.4375 37.109375 173.269531 37.257812 173.09375 37.410156 C 172.921875 37.566406 172.8125 37.800781 172.769531 38.117188 C 172.730469 38.429688 172.835938 38.902344 173.078125 39.53125 L 175.910156 46.78125 L 178.65625 39.53125 C 178.898438 38.902344 179.003906 38.429688 178.972656 38.117188 C 178.941406 37.800781 178.84375 37.566406 178.679688 37.410156 C 178.519531 37.257812 178.363281 37.109375 178.210938 36.960938 C 178.058594 36.808594 177.980469 36.585938 177.980469 36.300781 C 177.980469 35.996094 178.101562 35.792969 178.347656 35.691406 C 178.589844 35.589844 178.914062 35.539062 179.324219 35.539062 Z M 179.324219 35.539062 " fill-opacity="1" fill-rule="nonzero"/><path fill="#ffffff" d="M 80.503906 66.765625 L 80.78125 74.984375 C 80.808594 75.429688 80.882812 75.75 81.011719 75.953125 C 81.140625 76.15625 81.292969 76.308594 81.464844 76.414062 C 81.632812 76.511719 81.777344 76.617188 81.898438 76.730469 C 82.019531 76.839844 82.082031 77.027344 82.082031 77.285156 C 82.082031 77.492188 82.003906 77.636719 81.84375 77.722656 C 81.691406 77.804688 81.425781 77.847656 81.050781 77.847656 L 78.050781 77.847656 C 77.675781 77.847656 77.402344 77.804688 77.234375 77.722656 C 77.0625 77.636719 76.980469 77.492188 76.980469 77.285156 C 76.980469 77.054688 77.035156 76.878906 77.148438 76.761719 C 77.257812 76.640625 77.386719 76.527344 77.535156 76.421875 C 77.683594 76.308594 77.8125 76.148438 77.925781 75.945312 C 78.035156 75.734375 78.09375 75.414062 78.09375 74.984375 L 77.933594 67.621094 L 73.824219 76.484375 C 73.75 76.652344 73.660156 76.777344 73.5625 76.855469 C 73.464844 76.9375 73.320312 77 73.125 77.046875 C 72.722656 77.125 72.46875 77.019531 72.363281 76.722656 L 68.585938 67.742188 L 68.332031 75.414062 C 68.320312 75.734375 68.367188 75.992188 68.460938 76.183594 C 68.554688 76.371094 68.667969 76.519531 68.800781 76.625 C 68.933594 76.726562 69.050781 76.832031 69.152344 76.9375 C 69.257812 77.035156 69.308594 77.171875 69.308594 77.339844 C 69.308594 77.546875 69.230469 77.679688 69.078125 77.746094 C 68.929688 77.804688 68.707031 77.832031 68.414062 77.832031 L 66.675781 77.832031 C 66.351562 77.832031 66.121094 77.796875 65.976562 77.730469 C 65.835938 77.65625 65.761719 77.519531 65.761719 77.324219 C 65.761719 77.164062 65.820312 77.035156 65.929688 76.9375 C 66.039062 76.832031 66.167969 76.726562 66.320312 76.625 C 66.464844 76.519531 66.601562 76.371094 66.722656 76.183594 C 66.851562 75.992188 66.917969 75.734375 66.929688 75.414062 L 67.300781 66.765625 C 67.3125 66.414062 67.265625 66.152344 67.160156 65.972656 C 67.058594 65.789062 66.933594 65.644531 66.785156 65.542969 C 66.636719 65.4375 66.503906 65.328125 66.382812 65.21875 C 66.265625 65.105469 66.207031 64.953125 66.207031 64.757812 C 66.207031 64.550781 66.28125 64.410156 66.429688 64.328125 C 66.582031 64.25 66.820312 64.210938 67.144531 64.210938 L 69.40625 64.210938 C 69.769531 64.210938 70.015625 64.375 70.140625 64.703125 L 73.808594 73.292969 L 77.78125 64.71875 C 77.933594 64.382812 78.179688 64.210938 78.519531 64.210938 L 80.664062 64.210938 C 81 64.210938 81.242188 64.25 81.382812 64.328125 C 81.527344 64.410156 81.597656 64.550781 81.597656 64.757812 C 81.597656 64.953125 81.539062 65.105469 81.425781 65.210938 C 81.308594 65.3125 81.171875 65.414062 81.019531 65.519531 C 80.871094 65.625 80.742188 65.769531 80.636719 65.949219 C 80.539062 66.128906 80.492188 66.398438 80.503906 66.765625 Z M 80.503906 66.765625 " fill-opacity="1" fill-rule="nonzero"/><path fill="#ffffff" d="M 91.9375 74.863281 C 92.132812 74.675781 92.308594 74.640625 92.46875 74.753906 C 92.632812 74.871094 92.664062 75.070312 92.5625 75.355469 C 92.429688 75.71875 92.167969 76.105469 91.769531 76.523438 C 91.375 76.941406 90.859375 77.300781 90.222656 77.601562 C 89.589844 77.898438 88.835938 78.046875 87.960938 78.046875 C 87.042969 78.046875 86.234375 77.851562 85.535156 77.460938 C 84.839844 77.070312 84.300781 76.527344 83.910156 75.832031 C 83.523438 75.140625 83.328125 74.351562 83.328125 73.46875 C 83.328125 72.46875 83.558594 71.582031 84.019531 70.804688 C 84.480469 70.023438 85.09375 69.410156 85.859375 68.96875 C 86.625 68.527344 87.464844 68.304688 88.375 68.304688 C 89.152344 68.304688 89.820312 68.445312 90.375 68.726562 C 90.933594 69.007812 91.375 69.378906 91.699219 69.84375 C 92.027344 70.308594 92.234375 70.824219 92.324219 71.382812 C 92.394531 71.722656 92.246094 71.976562 91.882812 72.144531 C 90.890625 72.585938 89.964844 72.972656 89.105469 73.308594 C 88.242188 73.648438 87.304688 74.007812 86.289062 74.382812 C 86.496094 74.820312 86.824219 75.226562 87.28125 75.59375 C 87.734375 75.964844 88.339844 76.148438 89.097656 76.148438 C 89.695312 76.148438 90.226562 76.019531 90.699219 75.761719 C 91.175781 75.503906 91.589844 75.203125 91.9375 74.863281 Z M 87.519531 69.589844 C 86.957031 69.652344 86.527344 69.921875 86.226562 70.398438 C 85.925781 70.875 85.78125 71.421875 85.78125 72.039062 C 85.78125 72.511719 85.832031 72.921875 85.941406 73.269531 C 86.511719 73.074219 87.070312 72.878906 87.621094 72.675781 C 88.175781 72.476562 88.710938 72.261719 89.230469 72.039062 C 89.402344 71.96875 89.535156 71.878906 89.628906 71.769531 C 89.726562 71.664062 89.742188 71.492188 89.675781 71.246094 C 89.550781 70.675781 89.273438 70.234375 88.851562 69.921875 C 88.425781 69.609375 87.980469 69.5 87.519531 69.589844 Z M 87.519531 69.589844 " fill-opacity="1" fill-rule="nonzero"/><path fill="#ffffff" d="M 103.410156 64.605469 L 103.386719 67.273438 L 103.347656 74.90625 C 103.347656 75.269531 103.40625 75.539062 103.523438 75.707031 C 103.644531 75.875 103.777344 76 103.925781 76.078125 C 104.074219 76.15625 104.207031 76.226562 104.324219 76.292969 C 104.4375 76.355469 104.5 76.460938 104.5 76.601562 C 104.5 76.835938 104.285156 77.078125 103.855469 77.324219 C 103.675781 77.414062 103.445312 77.515625 103.164062 77.625 C 102.882812 77.738281 102.605469 77.828125 102.324219 77.894531 C 102.046875 77.96875 101.820312 78.007812 101.632812 78.007812 C 101.363281 78.007812 101.167969 77.914062 101.039062 77.738281 C 100.917969 77.550781 100.84375 77.257812 100.816406 76.855469 L 100.800781 76.46875 C 100.488281 76.90625 100.074219 77.28125 99.5625 77.59375 C 99.050781 77.90625 98.410156 78.046875 97.644531 78.023438 C 96.890625 78.011719 96.21875 77.824219 95.628906 77.453125 C 95.035156 77.082031 94.574219 76.570312 94.242188 75.921875 C 93.910156 75.269531 93.75 74.53125 93.75 73.699219 C 93.75 72.859375 93.894531 72.109375 94.183594 71.445312 C 94.472656 70.78125 94.863281 70.214844 95.351562 69.75 C 95.84375 69.277344 96.375 68.921875 96.953125 68.675781 C 97.527344 68.429688 98.105469 68.304688 98.675781 68.304688 C 99.074219 68.304688 99.453125 68.351562 99.800781 68.4375 C 100.15625 68.53125 100.46875 68.652344 100.738281 68.8125 L 100.738281 67.289062 C 100.738281 66.957031 100.691406 66.699219 100.601562 66.519531 C 100.511719 66.335938 100.40625 66.195312 100.277344 66.097656 C 100.15625 66 100.050781 65.90625 99.960938 65.820312 C 99.867188 65.738281 99.824219 65.621094 99.824219 65.480469 C 99.824219 65.351562 99.867188 65.246094 99.953125 65.164062 C 100.035156 65.078125 100.195312 64.984375 100.429688 64.875 C 100.703125 64.746094 101.015625 64.613281 101.371094 64.488281 C 101.730469 64.355469 102.058594 64.246094 102.355469 64.15625 C 102.65625 64.066406 102.859375 64.019531 102.960938 64.019531 C 103.261719 64.019531 103.410156 64.214844 103.410156 64.605469 Z M 98.792969 76.347656 C 99.375 76.347656 99.832031 76.136719 100.167969 75.714844 C 100.5 75.292969 100.691406 74.78125 100.738281 74.183594 L 100.738281 73.015625 C 100.726562 72.617188 100.6875 72.226562 100.617188 71.851562 C 100.554688 71.476562 100.453125 71.148438 100.308594 70.875 C 99.90625 69.980469 99.257812 69.535156 98.367188 69.535156 C 97.703125 69.535156 97.1875 69.804688 96.820312 70.34375 C 96.449219 70.878906 96.261719 71.601562 96.261719 72.507812 C 96.261719 73.300781 96.378906 73.992188 96.613281 74.570312 C 96.84375 75.148438 97.152344 75.589844 97.539062 75.898438 C 97.929688 76.199219 98.351562 76.347656 98.792969 76.347656 Z M 98.792969 76.347656 " fill-opacity="1" fill-rule="nonzero"/><path fill="#ffffff" d="M 107.125 67.234375 C 106.761719 67.222656 106.46875 67.105469 106.253906 66.875 C 106.042969 66.648438 105.945312 66.371094 105.960938 66.042969 C 105.96875 65.746094 106.074219 65.453125 106.277344 65.164062 C 106.476562 64.867188 106.734375 64.628906 107.046875 64.449219 C 107.359375 64.269531 107.679688 64.183594 108.007812 64.195312 C 108.355469 64.207031 108.644531 64.328125 108.878906 64.566406 C 109.113281 64.800781 109.230469 65.085938 109.230469 65.425781 C 109.21875 65.738281 109.105469 66.035156 108.894531 66.3125 C 108.691406 66.589844 108.429688 66.8125 108.109375 66.980469 C 107.792969 67.148438 107.464844 67.234375 107.125 67.234375 Z M 106.46875 75.144531 L 106.46875 71.574219 C 106.46875 71.238281 106.421875 70.984375 106.324219 70.8125 C 106.234375 70.632812 106.128906 70.492188 106.007812 70.398438 C 105.886719 70.304688 105.773438 70.214844 105.675781 70.128906 C 105.578125 70.046875 105.53125 69.929688 105.53125 69.789062 C 105.53125 69.644531 105.574219 69.53125 105.660156 69.445312 C 105.742188 69.363281 105.902344 69.269531 106.136719 69.160156 C 106.40625 69.035156 106.71875 68.910156 107.078125 68.789062 C 107.4375 68.660156 107.765625 68.554688 108.0625 68.460938 C 108.359375 68.375 108.558594 68.328125 108.664062 68.328125 C 108.96875 68.3125 109.117188 68.507812 109.117188 68.90625 L 109.09375 71.574219 L 109.09375 75.144531 C 109.09375 75.597656 109.140625 75.933594 109.238281 76.148438 C 109.335938 76.363281 109.445312 76.519531 109.570312 76.617188 C 109.695312 76.714844 109.808594 76.808594 109.902344 76.894531 C 110 76.988281 110.046875 77.140625 110.046875 77.363281 C 110.046875 77.554688 109.96875 77.683594 109.808594 77.753906 C 109.652344 77.816406 109.445312 77.847656 109.1875 77.847656 L 106.40625 77.847656 C 106.117188 77.847656 105.898438 77.8125 105.738281 77.746094 C 105.582031 77.671875 105.507812 77.535156 105.507812 77.339844 C 105.507812 77.132812 105.554688 76.988281 105.652344 76.894531 C 105.75 76.808594 105.859375 76.714844 105.984375 76.617188 C 106.109375 76.519531 106.222656 76.363281 106.316406 76.148438 C 106.417969 75.933594 106.46875 75.597656 106.46875 75.144531 Z M 106.46875 75.144531 " fill-opacity="1" fill-rule="nonzero"/><path fill="#ffffff" d="M 121.421875 76.347656 C 121.667969 76.347656 121.792969 76.460938 121.792969 76.683594 C 121.792969 76.898438 121.6875 77.109375 121.476562 77.316406 C 121.269531 77.519531 121.011719 77.683594 120.707031 77.816406 C 120.40625 77.941406 120.097656 78.007812 119.789062 78.007812 C 118.964844 78.007812 118.414062 77.527344 118.128906 76.5625 C 117.671875 77.070312 117.136719 77.441406 116.519531 77.671875 C 115.902344 77.90625 115.308594 78.023438 114.726562 78.023438 C 114.011719 78.023438 113.386719 77.894531 112.847656 77.640625 C 112.304688 77.386719 111.886719 77.042969 111.59375 76.609375 C 111.300781 76.179688 111.15625 75.695312 111.15625 75.160156 C 111.15625 74.222656 111.542969 73.453125 112.320312 72.851562 C 113.105469 72.246094 114.183594 71.945312 115.558594 71.945312 C 115.816406 71.945312 116.0625 71.960938 116.289062 71.984375 C 116.515625 72.011719 116.792969 72.054688 117.121094 72.105469 C 117.003906 71.6875 116.867188 71.316406 116.710938 70.984375 C 116.554688 70.652344 116.339844 70.390625 116.066406 70.191406 C 115.792969 69.996094 115.410156 69.898438 114.917969 69.898438 C 114.476562 69.898438 114.058594 69.976562 113.664062 70.136719 C 113.265625 70.292969 112.894531 70.464844 112.542969 70.660156 C 112.359375 70.777344 112.195312 70.777344 112.050781 70.660156 C 111.910156 70.546875 111.910156 70.363281 112.050781 70.113281 C 112.222656 69.84375 112.488281 69.570312 112.855469 69.289062 C 113.21875 69.007812 113.660156 68.777344 114.179688 68.589844 C 114.695312 68.398438 115.265625 68.304688 115.890625 68.304688 C 116.722656 68.304688 117.378906 68.472656 117.859375 68.804688 C 118.339844 69.132812 118.703125 69.550781 118.953125 70.058594 C 119.207031 70.566406 119.40625 71.09375 119.550781 71.636719 L 120.507812 75.292969 C 120.609375 75.695312 120.734375 75.976562 120.882812 76.132812 C 121.035156 76.289062 121.214844 76.359375 121.421875 76.347656 Z M 115.773438 76.65625 C 116.136719 76.65625 116.484375 76.585938 116.8125 76.4375 C 117.144531 76.289062 117.402344 76.09375 117.589844 75.855469 C 117.78125 75.613281 117.851562 75.363281 117.804688 75.101562 C 117.777344 74.933594 117.726562 74.726562 117.644531 74.484375 C 117.566406 74.238281 117.480469 73.941406 117.390625 73.605469 C 117.328125 73.382812 117.132812 73.222656 116.8125 73.121094 C 116.496094 73.015625 116.179688 72.960938 115.867188 72.960938 C 115.179688 72.960938 114.640625 73.125 114.25 73.453125 C 113.863281 73.777344 113.671875 74.203125 113.671875 74.730469 C 113.6875 75.292969 113.882812 75.753906 114.257812 76.117188 C 114.632812 76.480469 115.136719 76.65625 115.773438 76.65625 Z M 115.773438 76.65625 " fill-opacity="1" fill-rule="nonzero"/></svg>