<svg xmlns="http://www.w3.org/2000/svg" xmlns:xlink="http://www.w3.org/1999/xlink" width="500" zoomAndPan="magnify" viewBox="0 0 375 225" height="300" preserveAspectRatio="xMidYMid meet" version="1.0"><defs><g/></defs><g fill="#ffffff" fill-opacity="1"><g transform="translate(22.499999, 127.444673)"><g><path d="M 1.953125 0 L 1.953125 -5.359375 L 16.890625 -25.9375 L 2.46875 -25.9375 L 2.46875 -32.65625 L 26.5 -32.65625 L 26.5 -27.296875 L 11.625 -6.71875 L 26.875 -6.71875 L 26.875 0 Z M 1.953125 0 "/></g></g></g><g fill="#ffffff" fill-opacity="1"><g transform="translate(51.333679, 127.444673)"><g><path d="M 3.921875 0 L 3.921875 -32.65625 L 25.375 -32.65625 L 25.375 -26.40625 L 11.296875 -26.40625 L 11.296875 -19.640625 L 24.125 -19.640625 L 24.125 -13.4375 L 11.296875 -13.4375 L 11.296875 -6.296875 L 25.890625 -6.296875 L 25.890625 0 Z M 3.921875 0 "/></g></g></g><g fill="#ffffff" fill-opacity="1"><g transform="translate(79.607489, 127.444673)"><g><path d="M 3.921875 0 L 3.921875 -32.65625 L 10.21875 -32.65625 L 24.640625 -12.78125 L 24.640625 -32.65625 L 32 -32.65625 L 32 0 L 25.703125 0 L 11.296875 -20.015625 L 11.296875 0 Z M 3.921875 0 "/></g></g></g><g fill="#ffffff" fill-opacity="1"><g transform="translate(115.532958, 127.444673)"><g><path d="M 19.40625 0.65625 C 16.019531 0.65625 13.007812 -0.0664062 10.375 -1.515625 C 7.75 -2.960938 5.695312 -4.960938 4.21875 -7.515625 C 2.738281 -10.066406 2 -13.003906 2 -16.328125 C 2 -19.660156 2.738281 -22.597656 4.21875 -25.140625 C 5.695312 -27.691406 7.75 -29.691406 10.375 -31.140625 C 13.007812 -32.585938 16.019531 -33.3125 19.40625 -33.3125 C 22.832031 -33.3125 25.847656 -32.585938 28.453125 -31.140625 C 31.066406 -29.691406 33.117188 -27.691406 34.609375 -25.140625 C 36.109375 -22.597656 36.859375 -19.660156 36.859375 -16.328125 C 36.859375 -13.003906 36.109375 -10.066406 34.609375 -7.515625 C 33.117188 -4.960938 31.066406 -2.960938 28.453125 -1.515625 C 25.847656 -0.0664062 22.832031 0.65625 19.40625 0.65625 Z M 9.5625 -16.328125 C 9.5625 -14.367188 9.976562 -12.640625 10.8125 -11.140625 C 11.65625 -9.648438 12.816406 -8.484375 14.296875 -7.640625 C 15.773438 -6.804688 17.476562 -6.390625 19.40625 -6.390625 C 21.363281 -6.390625 23.082031 -6.804688 24.5625 -7.640625 C 26.039062 -8.484375 27.191406 -9.648438 28.015625 -11.140625 C 28.835938 -12.640625 29.25 -14.367188 29.25 -16.328125 C 29.25 -18.285156 28.835938 -20.007812 28.015625 -21.5 C 27.191406 -23 26.039062 -24.164062 24.5625 -25 C 23.082031 -25.84375 21.363281 -26.265625 19.40625 -26.265625 C 17.476562 -26.265625 15.773438 -25.84375 14.296875 -25 C 12.816406 -24.164062 11.65625 -23 10.8125 -21.5 C 9.976562 -20.007812 9.5625 -18.285156 9.5625 -16.328125 Z M 9.5625 -16.328125 "/></g></g></g><g fill="#ffffff" fill-opacity="1"><g transform="translate(154.397777, 127.444673)"><g><path d="M 3.921875 0 L 3.921875 -32.65625 L 10.21875 -32.65625 L 24.640625 -12.78125 L 24.640625 -32.65625 L 32 -32.65625 L 32 0 L 25.703125 0 L 11.296875 -20.015625 L 11.296875 0 Z M 3.921875 0 "/></g></g></g><g fill="#c0c0c0" fill-opacity="1"><g transform="translate(189.788585, 127.444673)"><g><path d="M 3.921875 0 L 3.921875 -32.65625 L 10.21875 -32.65625 L 21.828125 -15.71875 L 33.40625 -32.65625 L 39.65625 -32.65625 L 39.65625 0 L 32.28125 0 L 32.28125 -19.640625 L 24.359375 -8.078125 L 19.21875 -8.078125 L 11.296875 -19.6875 L 11.296875 0 Z M 3.921875 0 "/></g></g></g><g fill="#c0c0c0" fill-opacity="1"><g transform="translate(233.365705, 127.444673)"><g><path d="M 3.921875 0 L 3.921875 -32.65625 L 25.375 -32.65625 L 25.375 -26.40625 L 11.296875 -26.40625 L 11.296875 -19.640625 L 24.125 -19.640625 L 24.125 -13.4375 L 11.296875 -13.4375 L 11.296875 -6.296875 L 25.890625 -6.296875 L 25.890625 0 Z M 3.921875 0 "/></g></g></g><g fill="#c0c0c0" fill-opacity="1"><g transform="translate(261.639514, 127.444673)"><g><path d="M 3.921875 0 L 3.921875 -32.65625 L 16.84375 -32.65625 C 20.289062 -32.65625 23.304688 -31.96875 25.890625 -30.59375 C 28.472656 -29.226562 30.476562 -27.316406 31.90625 -24.859375 C 33.34375 -22.410156 34.0625 -19.566406 34.0625 -16.328125 C 34.0625 -13.066406 33.34375 -10.210938 31.90625 -7.765625 C 30.476562 -5.328125 28.472656 -3.421875 25.890625 -2.046875 C 23.304688 -0.679688 20.289062 0 16.84375 0 Z M 11.34375 -6.8125 L 16.703125 -6.8125 C 18.628906 -6.8125 20.320312 -7.207031 21.78125 -8 C 23.25 -8.789062 24.394531 -9.898438 25.21875 -11.328125 C 26.039062 -12.765625 26.453125 -14.429688 26.453125 -16.328125 C 26.453125 -18.253906 26.039062 -19.925781 25.21875 -21.34375 C 24.394531 -22.757812 23.242188 -23.863281 21.765625 -24.65625 C 20.285156 -25.445312 18.566406 -25.84375 16.609375 -25.84375 L 11.34375 -25.84375 Z M 11.34375 -6.8125 "/></g></g></g><g fill="#c0c0c0" fill-opacity="1"><g transform="translate(297.658291, 127.444673)"><g><path d="M 3.921875 0 L 3.921875 -32.65625 L 11.34375 -32.65625 L 11.34375 0 Z M 3.921875 0 "/></g></g></g><g fill="#c0c0c0" fill-opacity="1"><g transform="translate(312.914948, 127.444673)"><g><path d="M 0.421875 0 L 13.390625 -32.65625 L 20.671875 -32.65625 L 33.640625 0 L 25.703125 0 L 23.515625 -5.640625 L 10.546875 -5.640625 L 8.34375 0 Z M 12.453125 -11.484375 L 21.65625 -11.484375 L 17.03125 -23.421875 Z M 12.453125 -11.484375 "/></g></g></g><path stroke-linecap="butt" transform="matrix(0.972718, 0.00317845, -0.00317845, 0.972718, 24.47801, 137.875667)" fill="none" stroke-linejoin="miter" d="M 0.00102828 1.999184 L 330.899814 1.998192 " stroke="#2e8b57" stroke-width="4" stroke-opacity="1" stroke-miterlimit="4"/><path stroke-linecap="butt" transform="matrix(0.972718, 0.00293961, -0.00293961, 0.972718, 24.48389, 82.181755)" fill="none" stroke-linejoin="miter" d="M -0.00148341 2.001768 L 330.901084 2.001696 " stroke="#2e8b57" stroke-width="4" stroke-opacity="1" stroke-miterlimit="4"/></svg>