<svg xmlns="http://www.w3.org/2000/svg" xmlns:xlink="http://www.w3.org/1999/xlink" width="500" zoomAndPan="magnify" viewBox="0 0 375 374.999991" height="500" preserveAspectRatio="xMidYMid meet" version="1.0"><defs><g/><clipPath id="140250d523"><path d="M 37.507812 112.035156 L 337.324219 112.035156 L 337.324219 262.945312 L 37.507812 262.945312 Z M 37.507812 112.035156 " clip-rule="nonzero"/></clipPath></defs><rect x="-37.5" width="450" fill="#ffffff" y="-37.499999" height="449.999989" fill-opacity="1"/><rect x="-37.5" width="450" fill="#3a5f7d" y="-37.499999" height="449.999989" fill-opacity="1"/><g clip-path="url(#140250d523)"><path stroke-linecap="butt" transform="matrix(1.162103, 0, 0, 1.162103, 37.508839, 112.036985)" fill="none" stroke-linejoin="miter" d="M -0.000882966 -0.00157335 L 258.124943 -0.00157335 L 258.124943 129.857983 L -0.000882966 129.857983 Z M -0.000882966 -0.00157335 " stroke="#ffffff" stroke-width="5.163053" stroke-opacity="1" stroke-miterlimit="4"/></g><g fill="#ffffff" fill-opacity="1"><g transform="translate(125.835739, 239.109326)"><g><path d="M 8.265625 0 L 3.453125 0 L 3.453125 -26.546875 L 10.3125 -26.546875 L 17.03125 -7.03125 L 17.40625 -7.03125 L 24.09375 -26.546875 L 30.796875 -26.546875 L 30.796875 0 L 25.828125 0 L 25.828125 -17.546875 L 25.359375 -17.609375 L 19.234375 0 L 14.859375 0 L 8.71875 -17.609375 L 8.265625 -17.546875 Z M 8.265625 0 "/></g></g><g transform="translate(160.099618, 239.109326)"><g><path d="M 8.703125 -11.65625 L 8.703125 -4.390625 L 21.375 -4.390625 L 21.375 0 L 3.453125 0 L 3.453125 -26.546875 L 21.078125 -26.546875 L 21.078125 -22.15625 L 8.703125 -22.15625 L 8.703125 -15.9375 L 19.515625 -15.9375 L 19.515625 -11.65625 Z M 8.703125 -11.65625 "/></g></g><g transform="translate(182.924046, 239.109326)"><g><path d="M 13 -26.546875 C 17.3125 -26.546875 20.601562 -25.429688 22.875 -23.203125 C 25.144531 -20.972656 26.28125 -17.664062 26.28125 -13.28125 C 26.28125 -8.894531 25.144531 -5.582031 22.875 -3.34375 C 20.601562 -1.113281 17.3125 0 13 0 L 3.453125 0 L 3.453125 -26.546875 Z M 12.6875 -4.40625 C 15.425781 -4.40625 17.472656 -5.101562 18.828125 -6.5 C 20.179688 -7.90625 20.859375 -10.164062 20.859375 -13.28125 C 20.859375 -16.382812 20.179688 -18.632812 18.828125 -20.03125 C 17.472656 -21.4375 15.425781 -22.140625 12.6875 -22.140625 L 8.703125 -22.140625 L 8.703125 -4.40625 Z M 12.6875 -4.40625 "/></g></g><g transform="translate(211.304778, 239.109326)"><g><path d="M 8.703125 0 L 3.453125 0 L 3.453125 -26.546875 L 8.703125 -26.546875 Z M 8.703125 0 "/></g></g><g transform="translate(223.470543, 239.109326)"><g><path d="M 25.46875 0 L 19.953125 0 L 17.953125 -6.125 L 7.796875 -6.125 L 5.796875 0 L 0.40625 0 L 9.5625 -26.546875 L 16.3125 -26.546875 Z M 12.625 -21.015625 L 9.203125 -10.53125 L 16.5 -10.53125 L 13.078125 -21.015625 Z M 12.625 -21.015625 "/></g></g></g><path stroke-linecap="butt" transform="matrix(1.162103, 0, 0, 1.162103, 60.579389, 225.160063)" fill="none" stroke-linejoin="miter" d="M -0.00108796 0.998405 L 49.999189 0.998405 " stroke="#ffffff" stroke-width="2" stroke-opacity="1" stroke-miterlimit="4"/><path stroke-linecap="butt" transform="matrix(1.162103, 0, 0, 1.162103, 256.509948, 225.160063)" fill="none" stroke-linejoin="miter" d="M 0.00152404 0.998405 L 49.99844 0.998405 " stroke="#ffffff" stroke-width="2" stroke-opacity="1" stroke-miterlimit="4"/><g fill="#ffffff" fill-opacity="1"><g transform="translate(58.324186, 188.682145)"><g><path d="M 41.140625 0 L 2.171875 0 L 2.171875 -9.265625 L 28.796875 -43.546875 L 28.546875 -44.3125 L 3.234375 -44.3125 L 3.234375 -53.09375 L 40.890625 -53.09375 L 40.890625 -43.828125 L 14.265625 -9.546875 L 14.53125 -8.78125 L 41.140625 -8.78125 Z M 41.140625 0 "/></g></g><g transform="translate(101.685152, 188.682145)"><g><path d="M 17.390625 -23.3125 L 17.390625 -8.78125 L 42.75 -8.78125 L 42.75 0 L 6.90625 0 L 6.90625 -53.09375 L 42.15625 -53.09375 L 42.15625 -44.3125 L 17.390625 -44.3125 L 17.390625 -31.890625 L 39.046875 -31.890625 L 39.046875 -23.3125 Z M 17.390625 -23.3125 "/></g></g><g transform="translate(147.334008, 188.682145)"><g><path d="M 17.0625 0 L 6.90625 0 L 6.90625 -53.09375 L 18.921875 -53.09375 L 40.234375 -18.890625 L 41.1875 -19.03125 L 41.1875 -53.09375 L 51.28125 -53.09375 L 51.28125 0 L 40.53125 0 L 17.96875 -36.53125 L 17.0625 -36.390625 Z M 17.0625 0 "/></g></g><g transform="translate(205.548101, 188.682145)"><g><path d="M 28.9375 0.765625 C 24.070312 0.765625 19.78125 -0.222656 16.0625 -2.203125 C 12.351562 -4.191406 9.441406 -7.226562 7.328125 -11.3125 C 5.222656 -15.394531 4.171875 -20.472656 4.171875 -26.546875 C 4.171875 -32.617188 5.222656 -37.695312 7.328125 -41.78125 C 9.441406 -45.863281 12.351562 -48.894531 16.0625 -50.875 C 19.78125 -52.863281 24.070312 -53.859375 28.9375 -53.859375 C 33.8125 -53.859375 38.097656 -52.867188 41.796875 -50.890625 C 45.503906 -48.921875 48.40625 -45.890625 50.5 -41.796875 C 52.59375 -37.703125 53.640625 -32.617188 53.640625 -26.546875 C 53.640625 -20.472656 52.59375 -15.390625 50.5 -11.296875 C 48.40625 -7.203125 45.503906 -4.164062 41.796875 -2.1875 C 38.097656 -0.21875 33.8125 0.765625 28.9375 0.765625 Z M 28.9375 -8.359375 C 33.445312 -8.359375 36.882812 -9.800781 39.25 -12.6875 C 41.625 -15.582031 42.8125 -20.203125 42.8125 -26.546875 C 42.8125 -32.890625 41.625 -37.515625 39.25 -40.421875 C 36.882812 -43.328125 33.445312 -44.78125 28.9375 -44.78125 C 24.414062 -44.78125 20.960938 -43.328125 18.578125 -40.421875 C 16.191406 -37.515625 15 -32.890625 15 -26.546875 C 15 -20.203125 16.191406 -15.582031 18.578125 -12.6875 C 20.960938 -9.800781 24.414062 -8.359375 28.9375 -8.359375 Z M 28.9375 -8.359375 "/></g></g><g transform="translate(263.399038, 188.682145)"><g><path d="M 17.0625 0 L 6.90625 0 L 6.90625 -53.09375 L 18.921875 -53.09375 L 40.234375 -18.890625 L 41.1875 -19.03125 L 41.1875 -53.09375 L 51.28125 -53.09375 L 51.28125 0 L 40.53125 0 L 17.96875 -36.53125 L 17.0625 -36.390625 Z M 17.0625 0 "/></g></g></g></svg>