<svg xmlns="http://www.w3.org/2000/svg" xmlns:xlink="http://www.w3.org/1999/xlink" width="500" zoomAndPan="magnify" viewBox="0 0 375 112.499997" height="150" preserveAspectRatio="xMidYMid meet" version="1.0"><defs><g/><clipPath id="d755a8a3c3"><path d="M 0.828125 61 L 374.167969 61 L 374.167969 110 L 0.828125 110 Z M 0.828125 61 " clip-rule="nonzero"/></clipPath><clipPath id="3661f91440"><path d="M 0.828125 2 L 374.167969 2 L 374.167969 51 L 0.828125 51 Z M 0.828125 2 " clip-rule="nonzero"/></clipPath></defs><g fill="#3a5f7d" fill-opacity="1"><g transform="translate(12.029872, 71.894091)"><g><path d="M 2.078125 0 L 2.078125 -5.703125 L 17.953125 -27.578125 L 2.625 -27.578125 L 2.625 -34.734375 L 28.171875 -34.734375 L 28.171875 -29.015625 L 12.359375 -7.140625 L 28.578125 -7.140625 L 28.578125 0 Z M 2.078125 0 "/></g></g></g><g fill="#3a5f7d" fill-opacity="1"><g transform="translate(42.693203, 71.894091)"><g><path d="M 4.171875 0 L 4.171875 -34.734375 L 26.984375 -34.734375 L 26.984375 -28.078125 L 12 -28.078125 L 12 -20.890625 L 25.640625 -20.890625 L 25.640625 -14.28125 L 12 -14.28125 L 12 -6.703125 L 27.53125 -6.703125 L 27.53125 0 Z M 4.171875 0 "/></g></g></g><g fill="#3a5f7d" fill-opacity="1"><g transform="translate(72.761137, 71.894091)"><g><path d="M 4.171875 0 L 4.171875 -34.734375 L 10.859375 -34.734375 L 26.1875 -13.59375 L 26.1875 -34.734375 L 34.03125 -34.734375 L 34.03125 0 L 27.328125 0 L 12 -21.28125 L 12 0 Z M 4.171875 0 "/></g></g></g><g fill="#3a5f7d" fill-opacity="1"><g transform="translate(110.96627, 71.894091)"><g><path d="M 20.640625 0.6875 C 17.035156 0.6875 13.832031 -0.078125 11.03125 -1.609375 C 8.238281 -3.148438 6.054688 -5.273438 4.484375 -7.984375 C 2.921875 -10.703125 2.140625 -13.828125 2.140625 -17.359375 C 2.140625 -20.898438 2.921875 -24.023438 4.484375 -26.734375 C 6.054688 -29.453125 8.238281 -31.578125 11.03125 -33.109375 C 13.832031 -34.648438 17.035156 -35.421875 20.640625 -35.421875 C 24.273438 -35.421875 27.476562 -34.648438 30.25 -33.109375 C 33.03125 -31.578125 35.210938 -29.453125 36.796875 -26.734375 C 38.390625 -24.023438 39.1875 -20.898438 39.1875 -17.359375 C 39.1875 -13.828125 38.390625 -10.703125 36.796875 -7.984375 C 35.210938 -5.273438 33.03125 -3.148438 30.25 -1.609375 C 27.476562 -0.078125 24.273438 0.6875 20.640625 0.6875 Z M 10.171875 -17.359375 C 10.171875 -15.273438 10.613281 -13.4375 11.5 -11.84375 C 12.394531 -10.257812 13.628906 -9.019531 15.203125 -8.125 C 16.773438 -7.238281 18.585938 -6.796875 20.640625 -6.796875 C 22.722656 -6.796875 24.546875 -7.238281 26.109375 -8.125 C 27.679688 -9.019531 28.90625 -10.257812 29.78125 -11.84375 C 30.664062 -13.4375 31.109375 -15.273438 31.109375 -17.359375 C 31.109375 -19.441406 30.664062 -21.273438 29.78125 -22.859375 C 28.90625 -24.453125 27.679688 -25.695312 26.109375 -26.59375 C 24.546875 -27.488281 22.722656 -27.9375 20.640625 -27.9375 C 18.585938 -27.9375 16.773438 -27.488281 15.203125 -26.59375 C 13.628906 -25.695312 12.394531 -24.453125 11.5 -22.859375 C 10.613281 -21.273438 10.171875 -19.441406 10.171875 -17.359375 Z M 10.171875 -17.359375 "/></g></g></g><g fill="#3a5f7d" fill-opacity="1"><g transform="translate(152.297269, 71.894091)"><g><path d="M 4.171875 0 L 4.171875 -34.734375 L 10.859375 -34.734375 L 26.1875 -13.59375 L 26.1875 -34.734375 L 34.03125 -34.734375 L 34.03125 0 L 27.328125 0 L 12 -21.28125 L 12 0 Z M 4.171875 0 "/></g></g></g><g fill="#c0c0c0" fill-opacity="1"><g transform="translate(189.933792, 71.894091)"><g><path d="M 4.171875 0 L 4.171875 -34.734375 L 10.859375 -34.734375 L 23.21875 -16.71875 L 35.515625 -34.734375 L 42.171875 -34.734375 L 42.171875 0 L 34.328125 0 L 34.328125 -20.890625 L 25.890625 -8.578125 L 20.4375 -8.578125 L 12 -20.9375 L 12 0 Z M 4.171875 0 "/></g></g></g><g fill="#c0c0c0" fill-opacity="1"><g transform="translate(236.276113, 71.894091)"><g><path d="M 4.171875 0 L 4.171875 -34.734375 L 26.984375 -34.734375 L 26.984375 -28.078125 L 12 -28.078125 L 12 -20.890625 L 25.640625 -20.890625 L 25.640625 -14.28125 L 12 -14.28125 L 12 -6.703125 L 27.53125 -6.703125 L 27.53125 0 Z M 4.171875 0 "/></g></g></g><g fill="#c0c0c0" fill-opacity="1"><g transform="translate(266.344047, 71.894091)"><g><path d="M 4.171875 0 L 4.171875 -34.734375 L 17.90625 -34.734375 C 21.582031 -34.734375 24.789062 -34.003906 27.53125 -32.546875 C 30.28125 -31.085938 32.414062 -29.050781 33.9375 -26.4375 C 35.457031 -23.820312 36.21875 -20.796875 36.21875 -17.359375 C 36.21875 -13.890625 35.457031 -10.851562 33.9375 -8.25 C 32.414062 -5.65625 30.28125 -3.628906 27.53125 -2.171875 C 24.789062 -0.722656 21.582031 0 17.90625 0 Z M 12.0625 -7.25 L 17.765625 -7.25 C 19.816406 -7.25 21.617188 -7.664062 23.171875 -8.5 C 24.722656 -9.34375 25.9375 -10.523438 26.8125 -12.046875 C 27.6875 -13.578125 28.125 -15.347656 28.125 -17.359375 C 28.125 -19.410156 27.6875 -21.1875 26.8125 -22.6875 C 25.9375 -24.195312 24.710938 -25.375 23.140625 -26.21875 C 21.566406 -27.0625 19.738281 -27.484375 17.65625 -27.484375 L 12.0625 -27.484375 Z M 12.0625 -7.25 "/></g></g></g><g fill="#c0c0c0" fill-opacity="1"><g transform="translate(304.648407, 71.894091)"><g><path d="M 4.171875 0 L 4.171875 -34.734375 L 12.0625 -34.734375 L 12.0625 0 Z M 4.171875 0 "/></g></g></g><g fill="#c0c0c0" fill-opacity="1"><g transform="translate(320.873181, 71.894091)"><g><path d="M 0.453125 0 L 14.234375 -34.734375 L 21.984375 -34.734375 L 35.765625 0 L 27.328125 0 L 25 -6 L 11.21875 -6 L 8.875 0 Z M 13.25 -12.203125 L 23.015625 -12.203125 L 18.109375 -24.90625 Z M 13.25 -12.203125 "/></g></g></g><g clip-path="url(#d755a8a3c3)"><path stroke-linecap="butt" transform="matrix(1.034442, 0.00338014, -0.00338014, 1.034442, 14.133398, 82.986991)" fill="none" stroke-linejoin="miter" d="M -0.00158675 1.998858 L 330.902309 2.001363 " stroke="#2e8b57" stroke-width="4" stroke-opacity="1" stroke-miterlimit="4"/></g><g clip-path="url(#3661f91440)"><path stroke-linecap="butt" transform="matrix(1.034443, 0.00312615, -0.00312615, 1.034443, 14.139651, 23.758984)" fill="none" stroke-linejoin="miter" d="M -0.000565538 2.00025 L 330.903064 2.000929 " stroke="#2e8b57" stroke-width="4" stroke-opacity="1" stroke-miterlimit="4"/></g></svg>