<svg xmlns="http://www.w3.org/2000/svg" xmlns:xlink="http://www.w3.org/1999/xlink" width="160" zoomAndPan="magnify" viewBox="0 0 120 119.999999" height="160" preserveAspectRatio="xMidYMid meet" version="1.0"><path fill="#ffffff" d="M 29.027344 20.300781 L 29.433594 32.566406 C 29.472656 33.226562 29.589844 33.707031 29.78125 34.003906 C 29.980469 34.304688 30.203125 34.535156 30.453125 34.691406 C 30.707031 34.84375 30.921875 35.003906 31.105469 35.171875 C 31.289062 35.339844 31.382812 35.613281 31.382812 35.996094 C 31.382812 36.304688 31.265625 36.527344 31.035156 36.65625 C 30.804688 36.78125 30.40625 36.84375 29.839844 36.84375 L 25.371094 36.84375 C 24.804688 36.84375 24.394531 36.78125 24.140625 36.65625 C 23.890625 36.527344 23.769531 36.304688 23.769531 35.996094 C 23.769531 35.652344 23.851562 35.390625 24.015625 35.214844 C 24.179688 35.042969 24.371094 34.871094 24.589844 34.707031 C 24.816406 34.539062 25.011719 34.300781 25.175781 33.996094 C 25.339844 33.6875 25.421875 33.207031 25.421875 32.566406 L 25.191406 21.582031 L 19.0625 34.808594 C 18.941406 35.058594 18.808594 35.242188 18.664062 35.359375 C 18.515625 35.476562 18.300781 35.574219 18.011719 35.648438 C 17.410156 35.765625 17.03125 35.601562 16.875 35.15625 L 11.234375 21.75 L 10.855469 33.207031 C 10.835938 33.695312 10.902344 34.078125 11.050781 34.359375 C 11.195312 34.636719 11.363281 34.855469 11.558594 35.011719 C 11.75 35.164062 11.921875 35.320312 12.074219 35.476562 C 12.230469 35.628906 12.3125 35.835938 12.3125 36.089844 C 12.3125 36.398438 12.195312 36.601562 11.972656 36.6875 C 11.753906 36.773438 11.417969 36.816406 10.972656 36.816406 L 8.390625 36.816406 C 7.902344 36.816406 7.554688 36.761719 7.339844 36.65625 C 7.125 36.550781 7.019531 36.347656 7.019531 36.054688 C 7.019531 35.824219 7.097656 35.628906 7.265625 35.476562 C 7.433594 35.320312 7.628906 35.164062 7.847656 35.011719 C 8.074219 34.855469 8.277344 34.636719 8.457031 34.359375 C 8.644531 34.078125 8.746094 33.695312 8.761719 33.207031 L 9.3125 20.300781 C 9.335938 19.777344 9.265625 19.378906 9.109375 19.109375 C 8.957031 18.835938 8.765625 18.625 8.542969 18.472656 C 8.324219 18.316406 8.125 18.15625 7.949219 17.992188 C 7.773438 17.828125 7.6875 17.597656 7.6875 17.304688 C 7.6875 16.996094 7.796875 16.785156 8.019531 16.667969 C 8.242188 16.550781 8.597656 16.492188 9.085938 16.492188 L 12.457031 16.492188 C 12.996094 16.492188 13.367188 16.734375 13.566406 17.21875 L 19.027344 30.042969 L 24.957031 17.246094 C 25.191406 16.742188 25.5625 16.492188 26.066406 16.492188 L 29.265625 16.492188 C 29.769531 16.492188 30.125 16.550781 30.332031 16.667969 C 30.546875 16.785156 30.65625 16.996094 30.65625 17.304688 C 30.65625 17.597656 30.566406 17.820312 30.390625 17.972656 C 30.222656 18.125 30.023438 18.28125 29.800781 18.4375 C 29.578125 18.589844 29.390625 18.804688 29.230469 19.074219 C 29.078125 19.34375 29.011719 19.757812 29.027344 20.300781 Z M 29.027344 20.300781 " fill-opacity="1" fill-rule="nonzero"/><path fill="#ffffff" d="M 35.746094 20.996094 C 35.199219 20.980469 34.765625 20.800781 34.441406 20.464844 C 34.125 20.121094 33.980469 19.707031 34.003906 19.226562 C 34.019531 18.78125 34.175781 18.34375 34.476562 17.90625 C 34.777344 17.464844 35.15625 17.109375 35.621094 16.839844 C 36.089844 16.566406 36.566406 16.441406 37.050781 16.457031 C 37.578125 16.480469 38.011719 16.667969 38.355469 17.015625 C 38.703125 17.363281 38.878906 17.789062 38.878906 18.296875 C 38.863281 18.757812 38.699219 19.199219 38.390625 19.617188 C 38.078125 20.035156 37.6875 20.371094 37.210938 20.625 C 36.738281 20.875 36.25 20.996094 35.746094 20.996094 Z M 34.757812 32.800781 L 34.757812 27.484375 C 34.757812 26.976562 34.6875 26.59375 34.554688 26.332031 C 34.417969 26.074219 34.257812 25.871094 34.070312 25.722656 C 33.886719 25.578125 33.726562 25.441406 33.578125 25.316406 C 33.429688 25.191406 33.359375 25.023438 33.359375 24.808594 C 33.359375 24.59375 33.421875 24.425781 33.546875 24.300781 C 33.675781 24.171875 33.910156 24.027344 34.257812 23.875 C 34.667969 23.6875 35.140625 23.496094 35.671875 23.308594 C 36.199219 23.121094 36.691406 22.960938 37.136719 22.824219 C 37.582031 22.691406 37.882812 22.621094 38.042969 22.621094 C 38.488281 22.605469 38.710938 22.898438 38.710938 23.496094 L 38.675781 27.484375 L 38.675781 32.800781 C 38.675781 33.480469 38.75 33.980469 38.898438 34.300781 C 39.042969 34.617188 39.207031 34.847656 39.390625 34.996094 C 39.574219 35.144531 39.738281 35.285156 39.878906 35.417969 C 40.027344 35.554688 40.101562 35.789062 40.101562 36.113281 C 40.101562 36.40625 39.984375 36.601562 39.753906 36.699219 C 39.519531 36.796875 39.210938 36.84375 38.820312 36.84375 L 34.671875 36.84375 C 34.242188 36.84375 33.910156 36.789062 33.679688 36.679688 C 33.449219 36.574219 33.332031 36.375 33.332031 36.089844 C 33.332031 35.777344 33.402344 35.554688 33.546875 35.417969 C 33.691406 35.285156 33.855469 35.144531 34.035156 34.996094 C 34.222656 34.847656 34.386719 34.617188 34.535156 34.300781 C 34.683594 33.980469 34.757812 33.480469 34.757812 32.800781 Z M 34.757812 32.800781 " fill-opacity="1" fill-rule="nonzero"/><path fill="#ffffff" d="M 57.082031 28.585938 L 58.074219 33.554688 C 58.167969 34.003906 58.296875 34.339844 58.460938 34.570312 C 58.625 34.804688 58.796875 34.988281 58.972656 35.121094 C 59.144531 35.257812 59.292969 35.398438 59.417969 35.539062 C 59.546875 35.671875 59.613281 35.867188 59.613281 36.113281 C 59.613281 36.40625 59.496094 36.601562 59.257812 36.699219 C 59.027344 36.796875 58.71875 36.84375 58.335938 36.84375 L 54.261719 36.84375 C 53.855469 36.84375 53.535156 36.789062 53.304688 36.679688 C 53.074219 36.574219 52.957031 36.375 52.957031 36.089844 C 52.957031 35.855469 53.027344 35.667969 53.167969 35.519531 C 53.316406 35.375 53.480469 35.21875 53.660156 35.054688 C 53.847656 34.890625 53.988281 34.679688 54.085938 34.417969 C 54.1875 34.15625 54.1875 33.789062 54.085938 33.328125 L 53.1875 28.730469 C 53.066406 28.109375 52.910156 27.523438 52.722656 26.976562 C 52.527344 26.421875 52.246094 25.972656 51.875 25.621094 C 51.503906 25.269531 51.003906 25.109375 50.367188 25.128906 C 49.589844 25.128906 48.910156 25.46875 48.316406 26.144531 C 47.722656 26.824219 47.429688 27.800781 47.429688 29.074219 L 47.429688 32.800781 C 47.429688 33.480469 47.5 33.980469 47.648438 34.300781 C 47.792969 34.617188 47.957031 34.847656 48.140625 34.996094 C 48.324219 35.144531 48.488281 35.285156 48.621094 35.417969 C 48.757812 35.554688 48.824219 35.789062 48.824219 36.113281 C 48.824219 36.40625 48.710938 36.601562 48.488281 36.699219 C 48.265625 36.796875 47.953125 36.84375 47.546875 36.84375 L 43.386719 36.84375 C 42.980469 36.84375 42.65625 36.789062 42.414062 36.679688 C 42.171875 36.574219 42.050781 36.375 42.050781 36.089844 C 42.050781 35.777344 42.121094 35.554688 42.269531 35.417969 C 42.417969 35.285156 42.585938 35.144531 42.777344 34.996094 C 42.96875 34.847656 43.136719 34.617188 43.285156 34.300781 C 43.433594 33.980469 43.507812 33.480469 43.507812 32.800781 L 43.507812 27.28125 C 43.507812 26.871094 43.425781 26.523438 43.269531 26.246094 C 43.117188 25.964844 42.894531 25.71875 42.601562 25.503906 C 42.464844 25.40625 42.339844 25.296875 42.21875 25.171875 C 42.105469 25.042969 42.050781 24.882812 42.050781 24.6875 C 42.050781 24.457031 42.117188 24.273438 42.253906 24.140625 C 42.390625 24.003906 42.628906 23.855469 42.980469 23.699219 C 43.347656 23.523438 43.761719 23.355469 44.21875 23.191406 C 44.675781 23.027344 45.101562 22.890625 45.496094 22.785156 C 45.890625 22.679688 46.167969 22.621094 46.328125 22.621094 C 46.789062 22.621094 47.019531 22.914062 47.019531 23.496094 L 47.019531 25.238281 C 47.585938 24.371094 48.285156 23.714844 49.113281 23.265625 C 49.949219 22.820312 50.832031 22.597656 51.765625 22.597656 C 52.863281 22.597656 53.757812 22.832031 54.449219 23.300781 C 55.136719 23.765625 55.683594 24.441406 56.089844 25.332031 C 56.496094 26.21875 56.828125 27.304688 57.082031 28.585938 Z M 57.082031 28.585938 " fill-opacity="1" fill-rule="nonzero"/><path fill="#ffffff" d="M 73.539062 32.394531 C 73.828125 32.105469 74.09375 32.042969 74.335938 32.21875 C 74.578125 32.394531 74.625 32.695312 74.472656 33.125 C 74.273438 33.667969 73.878906 34.25 73.285156 34.867188 C 72.695312 35.484375 71.925781 36.015625 70.972656 36.460938 C 70.023438 36.90625 68.902344 37.128906 67.601562 37.128906 C 66.230469 37.128906 65.023438 36.839844 63.988281 36.257812 C 62.945312 35.675781 62.136719 34.867188 61.554688 33.835938 C 60.972656 32.796875 60.683594 31.621094 60.683594 30.304688 C 60.683594 28.808594 61.027344 27.480469 61.71875 26.316406 C 62.40625 25.152344 63.320312 24.246094 64.460938 23.589844 C 65.605469 22.925781 66.855469 22.597656 68.210938 22.597656 C 69.375 22.597656 70.375 22.808594 71.210938 23.222656 C 72.042969 23.636719 72.703125 24.195312 73.183594 24.890625 C 73.667969 25.59375 73.980469 26.359375 74.113281 27.1875 C 74.210938 27.695312 73.988281 28.074219 73.445312 28.324219 C 71.972656 28.984375 70.59375 29.566406 69.304688 30.066406 C 68.019531 30.570312 66.617188 31.105469 65.105469 31.667969 C 65.414062 32.328125 65.910156 32.9375 66.585938 33.488281 C 67.265625 34.035156 68.164062 34.308594 69.289062 34.308594 C 70.179688 34.308594 70.976562 34.117188 71.683594 33.734375 C 72.394531 33.34375 73.015625 32.898438 73.539062 32.394531 Z M 66.933594 24.511719 C 66.105469 24.613281 65.464844 25.015625 65.019531 25.722656 C 64.574219 26.429688 64.351562 27.246094 64.351562 28.179688 C 64.351562 28.878906 64.425781 29.488281 64.578125 30.007812 C 65.429688 29.71875 66.269531 29.425781 67.09375 29.125 C 67.917969 28.820312 68.714844 28.507812 69.492188 28.179688 C 69.746094 28.058594 69.945312 27.925781 70.09375 27.773438 C 70.238281 27.613281 70.261719 27.351562 70.160156 26.984375 C 69.96875 26.132812 69.554688 25.476562 68.921875 25.011719 C 68.296875 24.542969 67.632812 24.375 66.933594 24.511719 Z M 66.933594 24.511719 " fill-opacity="1" fill-rule="nonzero"/><path fill="#ffffff" d="M 85.28125 22.597656 C 86.117188 22.597656 86.753906 22.835938 87.195312 23.308594 C 87.640625 23.78125 87.863281 24.378906 87.863281 25.09375 C 87.863281 25.679688 87.730469 26.144531 87.457031 26.492188 C 87.1875 26.84375 86.847656 27.027344 86.441406 27.042969 C 86.089844 27.042969 85.808594 26.96875 85.59375 26.816406 C 85.386719 26.65625 85.199219 26.484375 85.042969 26.289062 C 84.890625 26.09375 84.714844 25.917969 84.511719 25.765625 C 84.308594 25.613281 84.03125 25.535156 83.679688 25.535156 C 83.15625 25.535156 82.691406 25.828125 82.285156 26.410156 C 81.875 26.992188 81.671875 27.8125 81.671875 28.871094 L 81.671875 32.800781 C 81.671875 33.480469 81.746094 33.980469 81.894531 34.300781 C 82.039062 34.617188 82.203125 34.847656 82.386719 34.996094 C 82.570312 35.144531 82.730469 35.285156 82.867188 35.417969 C 83.003906 35.554688 83.070312 35.789062 83.070312 36.113281 C 83.070312 36.40625 82.957031 36.601562 82.730469 36.699219 C 82.511719 36.796875 82.199219 36.84375 81.792969 36.84375 L 77.632812 36.84375 C 77.226562 36.84375 76.902344 36.789062 76.660156 36.679688 C 76.417969 36.574219 76.296875 36.375 76.296875 36.089844 C 76.296875 35.777344 76.367188 35.554688 76.515625 35.417969 C 76.664062 35.285156 76.832031 35.144531 77.023438 34.996094 C 77.214844 34.847656 77.382812 34.617188 77.53125 34.300781 C 77.679688 33.980469 77.753906 33.480469 77.753906 32.800781 L 77.753906 27.28125 C 77.753906 26.871094 77.671875 26.523438 77.515625 26.246094 C 77.363281 25.964844 77.136719 25.71875 76.847656 25.503906 C 76.710938 25.40625 76.582031 25.296875 76.464844 25.171875 C 76.351562 25.042969 76.296875 24.882812 76.296875 24.6875 C 76.296875 24.457031 76.363281 24.273438 76.5 24.140625 C 76.632812 24.003906 76.875 23.855469 77.226562 23.699219 C 77.59375 23.523438 78.007812 23.355469 78.464844 23.191406 C 78.921875 23.027344 79.347656 22.890625 79.742188 22.785156 C 80.136719 22.679688 80.414062 22.621094 80.574219 22.621094 C 81.035156 22.621094 81.265625 22.914062 81.265625 23.496094 L 81.265625 25.214844 C 81.808594 24.324219 82.4375 23.664062 83.15625 23.242188 C 83.871094 22.8125 84.582031 22.597656 85.28125 22.597656 Z M 85.28125 22.597656 " fill-opacity="1" fill-rule="nonzero"/><path fill="#ffffff" d="M 104.816406 34.605469 C 105.183594 34.605469 105.367188 34.769531 105.367188 35.097656 C 105.367188 35.425781 105.210938 35.742188 104.902344 36.046875 C 104.589844 36.347656 104.207031 36.59375 103.75 36.78125 C 103.296875 36.972656 102.839844 37.070312 102.378906 37.070312 C 101.152344 37.070312 100.328125 36.355469 99.90625 34.917969 C 99.226562 35.675781 98.425781 36.230469 97.507812 36.578125 C 96.585938 36.929688 95.691406 37.105469 94.816406 37.105469 C 93.75 37.105469 92.808594 36.914062 92.003906 36.535156 C 91.203125 36.160156 90.582031 35.644531 90.148438 34.996094 C 89.714844 34.347656 89.496094 33.625 89.496094 32.828125 C 89.496094 31.433594 90.078125 30.285156 91.242188 29.390625 C 92.402344 28.488281 94.011719 28.035156 96.070312 28.035156 C 96.453125 28.035156 96.8125 28.054688 97.152344 28.09375 C 97.492188 28.132812 97.902344 28.191406 98.390625 28.261719 C 98.214844 27.644531 98.011719 27.085938 97.78125 26.59375 C 97.546875 26.097656 97.230469 25.707031 96.824219 25.417969 C 96.414062 25.125 95.84375 24.976562 95.101562 24.976562 C 94.445312 24.976562 93.824219 25.09375 93.230469 25.332031 C 92.640625 25.566406 92.082031 25.824219 91.5625 26.113281 C 91.292969 26.289062 91.050781 26.289062 90.835938 26.113281 C 90.617188 25.9375 90.617188 25.667969 90.835938 25.300781 C 91.082031 24.890625 91.480469 24.480469 92.019531 24.0625 C 92.566406 23.644531 93.226562 23.296875 94.003906 23.019531 C 94.773438 22.738281 95.628906 22.597656 96.558594 22.597656 C 97.800781 22.597656 98.78125 22.847656 99.5 23.34375 C 100.214844 23.832031 100.761719 24.457031 101.140625 25.214844 C 101.519531 25.972656 101.8125 26.753906 102.023438 27.570312 L 103.453125 33.03125 C 103.605469 33.636719 103.792969 34.054688 104.011719 34.285156 C 104.238281 34.515625 104.503906 34.621094 104.816406 34.605469 Z M 96.382812 35.070312 C 96.929688 35.070312 97.449219 34.960938 97.941406 34.742188 C 98.4375 34.515625 98.824219 34.226562 99.101562 33.871094 C 99.382812 33.507812 99.484375 33.132812 99.40625 32.742188 C 99.371094 32.488281 99.296875 32.179688 99.175781 31.8125 C 99.058594 31.445312 98.929688 31.011719 98.796875 30.507812 C 98.699219 30.175781 98.414062 29.929688 97.941406 29.777344 C 97.464844 29.621094 96.996094 29.542969 96.535156 29.542969 C 95.503906 29.542969 94.699219 29.785156 94.121094 30.269531 C 93.539062 30.757812 93.25 31.394531 93.25 32.191406 C 93.265625 33.023438 93.554688 33.710938 94.113281 34.257812 C 94.675781 34.800781 95.433594 35.070312 96.382812 35.070312 Z M 96.382812 35.070312 " fill-opacity="1" fill-rule="nonzero"/><path fill="#ffffff" d="M 107.984375 32.800781 L 107.957031 21.054688 C 107.957031 20.554688 107.890625 20.171875 107.753906 19.914062 C 107.617188 19.648438 107.457031 19.441406 107.273438 19.292969 C 107.089844 19.148438 106.925781 19.011719 106.78125 18.886719 C 106.632812 18.765625 106.558594 18.597656 106.558594 18.378906 C 106.558594 18.1875 106.628906 18.03125 106.761719 17.90625 C 106.898438 17.777344 107.140625 17.632812 107.492188 17.480469 C 107.898438 17.285156 108.359375 17.089844 108.878906 16.898438 C 109.40625 16.707031 109.890625 16.542969 110.335938 16.40625 C 110.78125 16.269531 111.085938 16.203125 111.242188 16.203125 C 111.703125 16.203125 111.9375 16.496094 111.9375 17.074219 L 111.914062 21.054688 L 111.914062 32.800781 C 111.914062 33.480469 111.980469 33.980469 112.125 34.300781 C 112.269531 34.617188 112.433594 34.847656 112.617188 34.996094 C 112.800781 35.144531 112.960938 35.285156 113.097656 35.417969 C 113.234375 35.554688 113.300781 35.789062 113.300781 36.113281 C 113.300781 36.40625 113.191406 36.601562 112.972656 36.699219 C 112.75 36.796875 112.433594 36.84375 112.023438 36.84375 L 107.871094 36.84375 C 107.460938 36.84375 107.132812 36.789062 106.890625 36.679688 C 106.652344 36.574219 106.535156 36.375 106.535156 36.089844 C 106.535156 35.777344 106.605469 35.554688 106.746094 35.417969 C 106.890625 35.285156 107.0625 35.144531 107.253906 34.996094 C 107.453125 34.847656 107.621094 34.617188 107.761719 34.300781 C 107.910156 33.980469 107.984375 33.480469 107.984375 32.800781 Z M 107.984375 32.800781 " fill-opacity="1" fill-rule="nonzero"/><path fill="#ffffff" d="M 17.046875 65.054688 C 15.101562 65.054688 13.390625 64.652344 11.90625 63.84375 C 10.425781 63.027344 9.265625 61.890625 8.433594 60.421875 C 7.597656 58.945312 7.179688 57.203125 7.179688 55.1875 C 7.179688 53.703125 7.4375 52.320312 7.957031 51.039062 C 8.484375 49.757812 9.214844 48.628906 10.152344 47.648438 C 11.09375 46.667969 12.195312 45.902344 13.464844 45.347656 C 14.726562 44.792969 16.101562 44.515625 17.585938 44.515625 C 18.480469 44.515625 19.195312 44.597656 19.738281 44.761719 C 20.28125 44.925781 20.722656 45.007812 21.058594 45.007812 C 21.417969 45.007812 21.691406 44.929688 21.871094 44.777344 C 22.050781 44.625 22.308594 44.550781 22.636719 44.550781 C 22.898438 44.550781 23.117188 44.652344 23.285156 44.855469 C 23.457031 45.054688 23.628906 45.453125 23.804688 46.058594 C 23.957031 46.554688 24.105469 47.117188 24.253906 47.742188 C 24.40625 48.371094 24.546875 49.113281 24.683594 49.96875 C 24.738281 50.347656 24.726562 50.648438 24.640625 50.867188 C 24.558594 51.082031 24.355469 51.210938 24.03125 51.25 C 23.726562 51.265625 23.484375 51.167969 23.304688 50.953125 C 23.121094 50.730469 22.890625 50.414062 22.601562 49.996094 C 21.957031 49.046875 21.199219 48.21875 20.324219 47.503906 C 19.445312 46.789062 18.382812 46.429688 17.128906 46.429688 C 15.910156 46.429688 14.863281 46.742188 13.988281 47.363281 C 13.117188 47.976562 12.449219 48.808594 11.980469 49.851562 C 11.515625 50.898438 11.285156 52.078125 11.285156 53.390625 C 11.285156 55.023438 11.570312 56.535156 12.140625 57.921875 C 12.710938 59.3125 13.527344 60.425781 14.589844 61.257812 C 15.65625 62.09375 16.929688 62.511719 18.410156 62.511719 C 19.589844 62.511719 20.625 62.273438 21.515625 61.800781 C 22.414062 61.328125 23.242188 60.679688 24 59.863281 C 24.230469 59.613281 24.453125 59.519531 24.667969 59.574219 C 24.886719 59.632812 25.039062 59.777344 25.125 60.015625 C 25.210938 60.25 25.167969 60.523438 24.996094 60.828125 C 24.652344 61.550781 24.101562 62.238281 23.335938 62.886719 C 22.578125 63.527344 21.667969 64.050781 20.601562 64.453125 C 19.539062 64.851562 18.355469 65.054688 17.046875 65.054688 Z M 17.046875 65.054688 " fill-opacity="1" fill-rule="nonzero"/><path fill="#ffffff" d="M 29.363281 49.226562 C 28.824219 49.207031 28.398438 49.035156 28.082031 48.699219 C 27.773438 48.367188 27.628906 47.964844 27.652344 47.488281 C 27.667969 47.046875 27.824219 46.617188 28.117188 46.191406 C 28.410156 45.765625 28.785156 45.417969 29.242188 45.152344 C 29.699219 44.878906 30.167969 44.757812 30.640625 44.777344 C 31.152344 44.796875 31.582031 44.976562 31.917969 45.320312 C 32.261719 45.660156 32.4375 46.078125 32.4375 46.574219 C 32.417969 47.03125 32.257812 47.464844 31.953125 47.871094 C 31.648438 48.277344 31.261719 48.605469 30.792969 48.851562 C 30.328125 49.101562 29.851562 49.226562 29.363281 49.226562 Z M 28.386719 60.800781 L 28.386719 55.585938 C 28.386719 55.089844 28.320312 54.710938 28.183594 54.457031 C 28.054688 54.199219 27.898438 54 27.71875 53.855469 C 27.535156 53.71875 27.375 53.585938 27.238281 53.460938 C 27.09375 53.335938 27.023438 53.167969 27.023438 52.960938 C 27.023438 52.753906 27.082031 52.585938 27.203125 52.460938 C 27.324219 52.335938 27.558594 52.199219 27.90625 52.046875 C 28.304688 51.859375 28.765625 51.675781 29.285156 51.496094 C 29.8125 51.316406 30.289062 51.160156 30.726562 51.027344 C 31.164062 50.894531 31.460938 50.824219 31.613281 50.824219 C 32.046875 50.804688 32.265625 51.089844 32.265625 51.679688 L 32.242188 55.585938 L 32.242188 60.800781 C 32.242188 61.46875 32.3125 61.960938 32.453125 62.273438 C 32.59375 62.585938 32.753906 62.8125 32.9375 62.953125 C 33.117188 63.09375 33.277344 63.230469 33.417969 63.367188 C 33.566406 63.503906 33.640625 63.730469 33.640625 64.054688 C 33.640625 64.335938 33.523438 64.527344 33.292969 64.621094 C 33.066406 64.71875 32.761719 64.765625 32.386719 64.765625 L 28.304688 64.765625 C 27.882812 64.765625 27.558594 64.714844 27.328125 64.613281 C 27.101562 64.507812 26.992188 64.308594 26.992188 64.019531 C 26.992188 63.722656 27.0625 63.503906 27.203125 63.367188 C 27.347656 63.230469 27.511719 63.09375 27.695312 62.953125 C 27.875 62.8125 28.035156 62.585938 28.175781 62.273438 C 28.316406 61.960938 28.386719 61.46875 28.386719 60.800781 Z M 28.386719 60.800781 " fill-opacity="1" fill-rule="nonzero"/><path fill="#ffffff" d="M 44.1875 61.546875 C 44.449219 61.332031 44.679688 61.300781 44.871094 61.453125 C 45.0625 61.605469 45.109375 61.835938 45.015625 62.140625 C 44.878906 62.558594 44.621094 62.996094 44.238281 63.453125 C 43.859375 63.910156 43.375 64.289062 42.789062 64.59375 C 42.199219 64.902344 41.503906 65.054688 40.703125 65.054688 C 39.433594 65.054688 38.441406 64.664062 37.722656 63.882812 C 37.011719 63.105469 36.65625 61.992188 36.65625 60.546875 L 36.65625 59.066406 C 36.65625 57.792969 36.664062 56.625 36.683594 55.566406 C 36.703125 54.511719 36.726562 53.617188 36.742188 52.875 L 35.972656 52.875 C 35.59375 52.875 35.332031 52.8125 35.191406 52.6875 C 35.050781 52.566406 34.980469 52.378906 34.980469 52.128906 C 34.980469 51.960938 35.011719 51.789062 35.074219 51.621094 C 35.140625 51.453125 35.25 51.300781 35.402344 51.164062 C 35.933594 50.613281 36.515625 50.078125 37.15625 49.5625 C 37.792969 49.050781 38.40625 48.613281 38.996094 48.257812 C 39.316406 48.070312 39.554688 47.953125 39.707031 47.914062 C 39.859375 47.875 39.972656 47.851562 40.054688 47.851562 C 40.261719 47.851562 40.421875 47.9375 40.535156 48.097656 C 40.648438 48.265625 40.695312 48.449219 40.679688 48.65625 C 40.640625 49.035156 40.609375 49.425781 40.585938 49.828125 C 40.570312 50.222656 40.550781 50.640625 40.535156 51.078125 L 43.355469 51.078125 C 43.625 51.078125 43.855469 51.136719 44.042969 51.25 C 44.230469 51.363281 44.28125 51.636719 44.1875 52.078125 C 44.113281 52.5 43.960938 52.769531 43.726562 52.890625 C 43.5 53.015625 43.246094 53.066406 42.957031 53.042969 L 40.511719 52.960938 C 40.511719 53.738281 40.511719 54.628906 40.511719 55.628906 C 40.511719 56.625 40.496094 57.773438 40.476562 59.066406 C 40.460938 60.335938 40.570312 61.207031 40.808594 61.675781 C 41.042969 62.136719 41.484375 62.367188 42.136719 62.367188 C 42.511719 62.367188 42.871094 62.289062 43.210938 62.132812 C 43.554688 61.96875 43.878906 61.773438 44.1875 61.546875 Z M 44.1875 61.546875 " fill-opacity="1" fill-rule="nonzero"/><path fill="#ffffff" d="M 58.386719 51.078125 L 60.351562 51.078125 C 60.769531 51.078125 61.089844 51.132812 61.316406 51.242188 C 61.546875 51.34375 61.664062 51.527344 61.664062 51.789062 C 61.664062 52.058594 61.597656 52.261719 61.460938 52.410156 C 61.332031 52.550781 61.160156 52.691406 60.953125 52.832031 C 60.742188 52.972656 60.519531 53.195312 60.285156 53.492188 C 60.046875 53.789062 59.8125 54.226562 59.582031 54.8125 L 55.964844 64.113281 C 55.449219 65.460938 54.925781 66.632812 54.390625 67.628906 C 53.859375 68.625 53.222656 69.398438 52.484375 69.941406 C 51.742188 70.480469 50.785156 70.753906 49.605469 70.753906 C 49.011719 70.753906 48.453125 70.648438 47.929688 70.4375 C 47.40625 70.230469 46.988281 69.929688 46.667969 69.542969 C 46.34375 69.152344 46.183594 68.679688 46.183594 68.128906 C 46.183594 67.636719 46.339844 67.183594 46.648438 66.773438 C 46.964844 66.367188 47.40625 66.152344 47.980469 66.136719 C 48.394531 66.136719 48.71875 66.265625 48.945312 66.519531 C 49.175781 66.777344 49.378906 67.078125 49.5625 67.414062 C 49.742188 67.757812 49.941406 68.058594 50.15625 68.3125 C 50.375 68.570312 50.675781 68.703125 51.054688 68.703125 C 51.511719 68.703125 51.890625 68.449219 52.195312 67.941406 C 52.5 67.4375 52.652344 66.84375 52.652344 66.164062 C 52.652344 65.839844 52.613281 65.519531 52.535156 65.207031 C 52.460938 64.894531 52.359375 64.585938 52.230469 64.28125 L 48.460938 54.789062 C 48.234375 54.21875 48 53.789062 47.75 53.492188 C 47.5 53.195312 47.277344 52.972656 47.074219 52.832031 C 46.875 52.691406 46.707031 52.550781 46.574219 52.410156 C 46.441406 52.261719 46.378906 52.058594 46.378906 51.789062 C 46.378906 51.507812 46.492188 51.320312 46.71875 51.222656 C 46.949219 51.128906 47.253906 51.078125 47.632812 51.078125 L 51.96875 51.078125 C 52.367188 51.078125 52.679688 51.132812 52.90625 51.242188 C 53.140625 51.34375 53.253906 51.527344 53.253906 51.789062 C 53.253906 52.058594 53.179688 52.261719 53.027344 52.410156 C 52.875 52.550781 52.714844 52.691406 52.550781 52.832031 C 52.394531 52.972656 52.292969 53.195312 52.253906 53.492188 C 52.214844 53.789062 52.3125 54.226562 52.542969 54.8125 L 55.195312 61.597656 L 57.761719 54.8125 C 57.984375 54.226562 58.085938 53.789062 58.058594 53.492188 C 58.027344 53.195312 57.9375 52.972656 57.785156 52.832031 C 57.632812 52.691406 57.484375 52.550781 57.34375 52.410156 C 57.203125 52.261719 57.132812 52.058594 57.132812 51.789062 C 57.132812 51.507812 57.246094 51.320312 57.472656 51.222656 C 57.695312 51.128906 58 51.078125 58.386719 51.078125 Z M 58.386719 51.078125 " fill-opacity="1" fill-rule="nonzero"/><path fill="#ffffff" d="M 29.605469 77.347656 L 30.019531 90.339844 C 30.039062 90.96875 30.140625 91.433594 30.324219 91.738281 C 30.511719 92.042969 30.71875 92.277344 30.953125 92.433594 C 31.1875 92.585938 31.394531 92.734375 31.570312 92.882812 C 31.75 93.027344 31.839844 93.269531 31.839844 93.601562 C 31.839844 93.878906 31.726562 94.070312 31.503906 94.175781 C 31.277344 94.285156 30.910156 94.335938 30.402344 94.335938 L 26.546875 94.335938 C 26 94.335938 25.601562 94.285156 25.355469 94.175781 C 25.109375 94.070312 24.988281 93.878906 24.988281 93.601562 C 24.988281 93.292969 25.070312 93.058594 25.234375 92.898438 C 25.40625 92.742188 25.601562 92.585938 25.828125 92.433594 C 26.054688 92.277344 26.246094 92.039062 26.414062 91.730469 C 26.582031 91.414062 26.660156 90.949219 26.640625 90.339844 L 26.371094 78.121094 L 19.824219 92.371094 C 19.722656 92.566406 19.605469 92.714844 19.476562 92.820312 C 19.351562 92.929688 19.15625 93.015625 18.882812 93.074219 C 18.589844 93.15625 18.363281 93.148438 18.207031 93.058594 C 18.046875 92.96875 17.929688 92.847656 17.851562 92.695312 L 11.828125 78.324219 L 11.414062 90.722656 C 11.398438 91.269531 11.457031 91.6875 11.59375 91.976562 C 11.726562 92.257812 11.894531 92.480469 12.09375 92.636719 C 12.289062 92.789062 12.464844 92.929688 12.617188 93.058594 C 12.773438 93.191406 12.855469 93.378906 12.855469 93.632812 C 12.855469 93.90625 12.746094 94.09375 12.53125 94.195312 C 12.316406 94.289062 11.984375 94.335938 11.535156 94.335938 L 9.238281 94.335938 C 8.339844 94.335938 7.890625 94.105469 7.890625 93.632812 C 7.890625 93.398438 7.972656 93.210938 8.136719 93.074219 C 8.308594 92.9375 8.503906 92.789062 8.730469 92.636719 C 8.953125 92.480469 9.15625 92.257812 9.332031 91.976562 C 9.503906 91.6875 9.605469 91.269531 9.628906 90.722656 L 10.1875 77.347656 C 10.203125 76.839844 10.136719 76.453125 9.992188 76.179688 C 9.84375 75.90625 9.664062 75.683594 9.457031 75.519531 C 9.253906 75.351562 9.070312 75.195312 8.898438 75.046875 C 8.734375 74.898438 8.652344 74.699219 8.652344 74.445312 C 8.652344 74.191406 8.746094 74.015625 8.933594 73.917969 C 9.121094 73.816406 9.445312 73.765625 9.914062 73.765625 L 12.796875 73.765625 C 13.246094 73.765625 13.570312 73.984375 13.769531 74.410156 L 19.707031 88.484375 L 26.167969 74.410156 C 26.363281 73.984375 26.6875 73.765625 27.140625 73.765625 L 29.84375 73.765625 C 30.3125 73.765625 30.644531 73.816406 30.84375 73.917969 C 31.039062 74.015625 31.136719 74.191406 31.136719 74.445312 C 31.136719 74.699219 31.054688 74.898438 30.882812 75.046875 C 30.71875 75.195312 30.53125 75.339844 30.324219 75.484375 C 30.121094 75.632812 29.945312 75.847656 29.800781 76.121094 C 29.652344 76.390625 29.589844 76.804688 29.605469 77.347656 Z M 29.605469 77.347656 " fill-opacity="1" fill-rule="nonzero"/><path fill="#ffffff" d="M 46.792969 90.195312 C 47.070312 89.921875 47.324219 89.863281 47.554688 90.019531 C 47.792969 90.175781 47.835938 90.449219 47.683594 90.839844 C 47.484375 91.347656 47.09375 91.894531 46.515625 92.484375 C 45.9375 93.070312 45.183594 93.574219 44.253906 94 C 43.320312 94.421875 42.21875 94.632812 40.949219 94.632812 C 39.578125 94.632812 38.367188 94.335938 37.316406 93.734375 C 36.269531 93.140625 35.457031 92.320312 34.878906 91.28125 C 34.300781 90.242188 34.015625 89.066406 34.015625 87.757812 C 34.015625 86.265625 34.347656 84.933594 35.015625 83.761719 C 35.679688 82.585938 36.585938 81.65625 37.730469 80.972656 C 38.878906 80.285156 40.144531 79.941406 41.535156 79.941406 C 43.222656 79.941406 44.574219 80.378906 45.589844 81.253906 C 46.613281 82.125 47.238281 83.183594 47.472656 84.4375 C 47.507812 84.691406 47.484375 84.925781 47.394531 85.132812 C 47.308594 85.335938 47.109375 85.492188 46.792969 85.605469 C 45.246094 86.257812 43.753906 86.847656 42.3125 87.375 C 40.875 87.902344 39.339844 88.449219 37.714844 89.019531 C 37.914062 89.527344 38.210938 90.027344 38.613281 90.519531 C 39.011719 91.007812 39.519531 91.414062 40.136719 91.738281 C 40.757812 92.058594 41.488281 92.21875 42.332031 92.21875 C 43.273438 92.21875 44.121094 92.019531 44.871094 91.617188 C 45.628906 91.21875 46.269531 90.746094 46.792969 90.195312 Z M 40.449219 81.582031 C 39.726562 81.625 39.121094 81.851562 38.628906 82.261719 C 38.136719 82.675781 37.769531 83.1875 37.519531 83.800781 C 37.277344 84.417969 37.15625 85.058594 37.15625 85.726562 C 37.15625 86.082031 37.167969 86.417969 37.199219 86.734375 C 37.234375 87.042969 37.289062 87.316406 37.367188 87.546875 C 38.402344 87.214844 39.410156 86.871094 40.398438 86.519531 C 41.394531 86.171875 42.351562 85.808594 43.269531 85.4375 C 43.507812 85.335938 43.6875 85.207031 43.8125 85.054688 C 43.941406 84.898438 43.96875 84.660156 43.890625 84.34375 C 43.714844 83.464844 43.289062 82.765625 42.609375 82.246094 C 41.933594 81.726562 41.210938 81.503906 40.449219 81.582031 Z M 40.449219 81.582031 " fill-opacity="1" fill-rule="nonzero"/><path fill="#ffffff" d="M 63.925781 74.242188 L 63.902344 78.265625 L 63.867188 90.195312 C 63.867188 90.746094 63.953125 91.144531 64.128906 91.398438 C 64.308594 91.652344 64.511719 91.835938 64.738281 91.941406 C 64.964844 92.050781 65.164062 92.148438 65.339844 92.238281 C 65.515625 92.328125 65.601562 92.480469 65.601562 92.695312 C 65.601562 93.003906 65.320312 93.320312 64.757812 93.632812 C 64.34375 93.851562 63.839844 94.0625 63.25 94.277344 C 62.660156 94.492188 62.171875 94.601562 61.785156 94.601562 C 61.058594 94.601562 60.6875 94.0625 60.664062 92.984375 L 60.640625 92.078125 C 60.148438 92.785156 59.492188 93.390625 58.667969 93.898438 C 57.839844 94.40625 56.84375 94.652344 55.667969 94.632812 C 54.453125 94.609375 53.390625 94.308594 52.476562 93.71875 C 51.566406 93.132812 50.859375 92.339844 50.351562 91.339844 C 49.84375 90.339844 49.589844 89.214844 49.589844 87.960938 C 49.589844 86.746094 49.796875 85.652344 50.214844 84.675781 C 50.640625 83.691406 51.203125 82.851562 51.910156 82.140625 C 52.613281 81.4375 53.40625 80.894531 54.289062 80.515625 C 55.167969 80.132812 56.0625 79.941406 56.964844 79.941406 C 58.355469 79.941406 59.558594 80.292969 60.582031 81 L 60.582031 78.289062 C 60.582031 77.726562 60.507812 77.296875 60.359375 77.003906 C 60.210938 76.710938 60.046875 76.492188 59.859375 76.359375 C 59.675781 76.21875 59.507812 76.085938 59.363281 75.96875 C 59.214844 75.851562 59.140625 75.675781 59.140625 75.445312 C 59.140625 75.269531 59.195312 75.121094 59.3125 75.003906 C 59.429688 74.886719 59.667969 74.746094 60.023438 74.589844 C 60.648438 74.296875 61.292969 74.042969 61.960938 73.828125 C 62.625 73.613281 63.074219 73.492188 63.308594 73.46875 C 63.71875 73.433594 63.925781 73.6875 63.925781 74.242188 Z M 57.023438 92.398438 C 57.730469 92.398438 58.335938 92.230469 58.84375 91.890625 C 59.351562 91.546875 59.746094 91.109375 60.03125 90.578125 C 60.320312 90.046875 60.488281 89.488281 60.546875 88.902344 L 60.546875 87.34375 C 60.53125 86.738281 60.464844 86.117188 60.359375 85.480469 C 60.253906 84.84375 60.058594 84.277344 59.785156 83.785156 C 59 82.316406 57.875 81.582031 56.40625 81.582031 C 55.269531 81.582031 54.382812 82.03125 53.746094 82.921875 C 53.105469 83.816406 52.789062 84.96875 52.789062 86.375 C 52.789062 87.6875 52.996094 88.789062 53.40625 89.679688 C 53.820312 90.574219 54.347656 91.25 54.992188 91.710938 C 55.640625 92.167969 56.316406 92.398438 57.023438 92.398438 Z M 57.023438 92.398438 " fill-opacity="1" fill-rule="nonzero"/><path fill="#ffffff" d="M 69.398438 78.027344 C 68.90625 78.011719 68.515625 77.847656 68.230469 77.535156 C 67.945312 77.21875 67.816406 76.84375 67.839844 76.410156 C 67.855469 76 68 75.597656 68.273438 75.207031 C 68.546875 74.816406 68.898438 74.5 69.332031 74.257812 C 69.765625 74.011719 70.207031 73.90625 70.660156 73.945312 C 71.109375 73.960938 71.492188 74.136719 71.804688 74.460938 C 72.117188 74.785156 72.265625 75.171875 72.242188 75.621094 C 72.226562 76.027344 72.070312 76.417969 71.777344 76.789062 C 71.484375 77.164062 71.125 77.46875 70.703125 77.703125 C 70.277344 77.941406 69.84375 78.050781 69.398438 78.027344 Z M 68.78125 90.375 L 68.746094 84.757812 C 68.746094 84.191406 68.679688 83.757812 68.542969 83.464844 C 68.40625 83.171875 68.246094 82.957031 68.058594 82.820312 C 67.875 82.679688 67.707031 82.554688 67.558594 82.4375 C 67.410156 82.320312 67.339844 82.140625 67.339844 81.90625 C 67.339844 81.75 67.394531 81.613281 67.507812 81.5 C 67.628906 81.378906 67.863281 81.242188 68.222656 81.082031 C 68.847656 80.773438 69.492188 80.511719 70.160156 80.296875 C 70.824219 80.078125 71.265625 79.957031 71.480469 79.941406 C 71.910156 79.941406 72.125 80.195312 72.125 80.703125 L 72.097656 84.757812 L 72.097656 90.375 C 72.097656 91.058594 72.167969 91.566406 72.300781 91.898438 C 72.4375 92.234375 72.597656 92.480469 72.785156 92.636719 C 72.972656 92.789062 73.132812 92.929688 73.269531 93.058594 C 73.40625 93.191406 73.480469 93.402344 73.480469 93.695312 C 73.480469 93.949219 73.375 94.121094 73.167969 94.210938 C 72.964844 94.296875 72.667969 94.335938 72.277344 94.335938 L 68.601562 94.335938 C 68.230469 94.335938 67.925781 94.289062 67.6875 94.195312 C 67.453125 94.09375 67.339844 93.914062 67.339844 93.660156 C 67.339844 93.390625 67.410156 93.191406 67.558594 93.058594 C 67.707031 92.929688 67.875 92.789062 68.058594 92.636719 C 68.246094 92.480469 68.410156 92.234375 68.558594 91.898438 C 68.707031 91.566406 68.78125 91.058594 68.78125 90.375 Z M 68.78125 90.375 " fill-opacity="1" fill-rule="nonzero"/><path fill="#ffffff" d="M 90.40625 92.3125 C 90.777344 92.277344 90.964844 92.410156 90.964844 92.71875 C 90.964844 92.996094 90.832031 93.277344 90.566406 93.558594 C 90.300781 93.84375 89.957031 94.074219 89.535156 94.261719 C 89.113281 94.449219 88.679688 94.539062 88.230469 94.539062 C 87.546875 94.539062 87.039062 94.351562 86.707031 93.972656 C 86.371094 93.589844 86.125 93.039062 85.96875 92.3125 C 85.300781 93.09375 84.507812 93.667969 83.589844 94.042969 C 82.667969 94.414062 81.777344 94.601562 80.914062 94.601562 C 79.1875 94.601562 77.839844 94.179688 76.855469 93.339844 C 75.878906 92.496094 75.390625 91.449219 75.390625 90.195312 C 75.390625 89.253906 75.652344 88.425781 76.179688 87.714844 C 76.707031 87 77.449219 86.433594 78.398438 86.019531 C 79.351562 85.609375 80.472656 85.402344 81.769531 85.402344 C 82.277344 85.402344 82.730469 85.429688 83.132812 85.480469 C 83.53125 85.527344 83.996094 85.597656 84.527344 85.699219 C 84.351562 84.996094 84.148438 84.367188 83.910156 83.820312 C 83.671875 83.273438 83.34375 82.84375 82.917969 82.53125 C 82.5 82.214844 81.898438 82.058594 81.117188 82.058594 C 80.375 82.058594 79.703125 82.171875 79.09375 82.398438 C 78.480469 82.617188 77.894531 82.894531 77.332031 83.226562 C 77.054688 83.410156 76.816406 83.410156 76.617188 83.234375 C 76.425781 83.054688 76.425781 82.800781 76.617188 82.464844 C 76.878906 82.089844 77.273438 81.71875 77.8125 81.339844 C 78.347656 80.953125 79 80.632812 79.761719 80.363281 C 80.527344 80.097656 81.363281 79.964844 82.269531 79.964844 C 83.441406 79.964844 84.375 80.191406 85.070312 80.644531 C 85.765625 81.097656 86.304688 81.683594 86.6875 82.414062 C 87.070312 83.136719 87.359375 83.917969 87.550781 84.757812 L 88.964844 90.722656 C 89.121094 91.386719 89.324219 91.820312 89.566406 92.015625 C 89.808594 92.214844 90.089844 92.3125 90.40625 92.3125 Z M 82.03125 92.863281 C 82.65625 92.863281 83.25 92.734375 83.808594 92.472656 C 84.367188 92.210938 84.808594 91.878906 85.128906 91.476562 C 85.453125 91.074219 85.574219 90.667969 85.496094 90.253906 C 85.453125 89.964844 85.378906 89.617188 85.273438 89.214844 C 85.164062 88.808594 85.035156 88.324219 84.882812 87.757812 C 84.84375 87.519531 84.671875 87.328125 84.367188 87.179688 C 84.0625 87.035156 83.710938 86.933594 83.316406 86.875 C 82.929688 86.816406 82.578125 86.785156 82.269531 86.785156 C 81.09375 86.785156 80.1875 87.050781 79.558594 87.578125 C 78.929688 88.109375 78.628906 88.824219 78.652344 89.722656 C 78.691406 90.625 79.007812 91.378906 79.609375 91.976562 C 80.207031 92.566406 81.015625 92.863281 82.03125 92.863281 Z M 82.03125 92.863281 " fill-opacity="1" fill-rule="nonzero"/></svg>