<svg xmlns="http://www.w3.org/2000/svg" xmlns:xlink="http://www.w3.org/1999/xlink" width="500" zoomAndPan="magnify" viewBox="0 0 375 374.999991" height="500" preserveAspectRatio="xMidYMid meet" version="1.0"><defs><g/></defs><rect x="-37.5" width="450" fill="#ffffff" y="-37.499999" height="449.999989" fill-opacity="1"/><rect x="-37.5" width="450" fill="#3a5f7d" y="-37.499999" height="449.999989" fill-opacity="1"/><path stroke-linecap="butt" transform="matrix(1.313199, 0, 0, 1.313199, 37.795278, 234.906517)" fill="none" stroke-linejoin="miter" d="M 0.00121622 1.998731 L 227.998791 1.998731 " stroke="#ffffff" stroke-width="4" stroke-opacity="1" stroke-miterlimit="4"/><path fill="#3a5f7d" d="M 111.007812 205.28125 L 263.964844 205.28125 L 263.964844 268.472656 L 111.007812 268.472656 L 111.007812 205.28125 " fill-opacity="1" fill-rule="nonzero"/><g fill="#ffffff" fill-opacity="1"><g transform="translate(117.732437, 251.978106)"><g><path d="M 9.328125 0 L 3.890625 0 L 3.890625 -30 L 11.65625 -30 L 19.25 -7.9375 L 19.671875 -7.9375 L 27.21875 -30 L 34.796875 -30 L 34.796875 0 L 29.171875 0 L 29.171875 -19.8125 L 28.65625 -19.90625 L 21.71875 0 L 16.78125 0 L 9.84375 -19.90625 L 9.328125 -19.8125 Z M 9.328125 0 "/></g></g></g><g fill="#ffffff" fill-opacity="1"><g transform="translate(156.432402, 251.978106)"><g><path d="M 9.828125 -13.171875 L 9.828125 -4.96875 L 24.140625 -4.96875 L 24.140625 0 L 3.890625 0 L 3.890625 -30 L 23.8125 -30 L 23.8125 -25.03125 L 9.828125 -25.03125 L 9.828125 -18.015625 L 22.046875 -18.015625 L 22.046875 -13.171875 Z M 9.828125 -13.171875 "/></g></g></g><g fill="#ffffff" fill-opacity="1"><g transform="translate(182.211872, 251.978106)"><g><path d="M 14.6875 -30 C 19.5625 -30 23.28125 -28.738281 25.84375 -26.21875 C 28.40625 -23.695312 29.6875 -19.957031 29.6875 -15 C 29.6875 -10.039062 28.40625 -6.300781 25.84375 -3.78125 C 23.28125 -1.257812 19.5625 0 14.6875 0 L 3.890625 0 L 3.890625 -30 Z M 14.34375 -4.984375 C 17.4375 -4.984375 19.75 -5.769531 21.28125 -7.34375 C 22.8125 -8.925781 23.578125 -11.476562 23.578125 -15 C 23.578125 -18.507812 22.8125 -21.054688 21.28125 -22.640625 C 19.75 -24.222656 17.4375 -25.015625 14.34375 -25.015625 L 9.828125 -25.015625 L 9.828125 -4.984375 Z M 14.34375 -4.984375 "/></g></g></g><g fill="#ffffff" fill-opacity="1"><g transform="translate(214.267011, 251.978106)"><g><path d="M 9.828125 0 L 3.890625 0 L 3.890625 -30 L 9.828125 -30 Z M 9.828125 0 "/></g></g></g><g fill="#ffffff" fill-opacity="1"><g transform="translate(228.007853, 251.978106)"><g><path d="M 28.78125 0 L 22.546875 0 L 20.296875 -6.90625 L 8.796875 -6.90625 L 6.546875 0 L 0.453125 0 L 10.8125 -30 L 18.421875 -30 Z M 14.265625 -23.734375 L 10.40625 -11.90625 L 18.65625 -11.90625 L 14.765625 -23.734375 Z M 14.265625 -23.734375 "/></g></g></g><g fill="#ffffff" fill-opacity="1"><g transform="translate(38.751645, 194.985212)"><g><path d="M 46.484375 0 L 2.46875 0 L 2.46875 -10.46875 L 32.53125 -49.203125 L 32.25 -50.0625 L 3.65625 -50.0625 L 3.65625 -59.984375 L 46.203125 -59.984375 L 46.203125 -49.53125 L 16.125 -10.796875 L 16.40625 -9.921875 L 46.484375 -9.921875 Z M 46.484375 0 "/></g></g></g><g fill="#ffffff" fill-opacity="1"><g transform="translate(87.738431, 194.985212)"><g><path d="M 19.65625 -26.34375 L 19.65625 -9.921875 L 48.296875 -9.921875 L 48.296875 0 L 7.796875 0 L 7.796875 -59.984375 L 47.640625 -59.984375 L 47.640625 -50.0625 L 19.65625 -50.0625 L 19.65625 -36.03125 L 44.109375 -36.03125 L 44.109375 -26.34375 Z M 19.65625 -26.34375 "/></g></g></g><g fill="#ffffff" fill-opacity="1"><g transform="translate(139.309956, 194.985212)"><g><path d="M 19.28125 0 L 7.796875 0 L 7.796875 -59.984375 L 21.375 -59.984375 L 45.46875 -21.34375 L 46.53125 -21.5 L 46.53125 -59.984375 L 57.9375 -59.984375 L 57.9375 0 L 45.796875 0 L 20.3125 -41.28125 L 19.28125 -41.109375 Z M 19.28125 0 "/></g></g></g><g fill="#ffffff" fill-opacity="1"><g transform="translate(205.076982, 194.985212)"><g><path d="M 32.703125 0.859375 C 27.203125 0.859375 22.351562 -0.257812 18.15625 -2.5 C 13.957031 -4.75 10.664062 -8.175781 8.28125 -12.78125 C 5.90625 -17.382812 4.71875 -23.125 4.71875 -30 C 4.71875 -36.863281 5.90625 -42.597656 8.28125 -47.203125 C 10.664062 -51.816406 13.957031 -55.242188 18.15625 -57.484375 C 22.351562 -59.722656 27.203125 -60.84375 32.703125 -60.84375 C 38.203125 -60.84375 43.039062 -59.726562 47.21875 -57.5 C 51.40625 -55.269531 54.679688 -51.84375 57.046875 -47.21875 C 59.421875 -42.601562 60.609375 -36.863281 60.609375 -30 C 60.609375 -23.125 59.421875 -17.375 57.046875 -12.75 C 54.679688 -8.132812 51.40625 -4.710938 47.21875 -2.484375 C 43.039062 -0.253906 38.203125 0.859375 32.703125 0.859375 Z M 32.703125 -9.4375 C 37.785156 -9.4375 41.664062 -11.070312 44.34375 -14.34375 C 47.03125 -17.613281 48.375 -22.832031 48.375 -30 C 48.375 -37.164062 47.03125 -42.390625 44.34375 -45.671875 C 41.664062 -48.953125 37.785156 -50.59375 32.703125 -50.59375 C 27.585938 -50.59375 23.679688 -48.953125 20.984375 -45.671875 C 18.296875 -42.390625 16.953125 -37.164062 16.953125 -30 C 16.953125 -22.832031 18.296875 -17.613281 20.984375 -14.34375 C 23.679688 -11.070312 27.585938 -9.4375 32.703125 -9.4375 Z M 32.703125 -9.4375 "/></g></g></g><g fill="#ffffff" fill-opacity="1"><g transform="translate(270.433733, 194.985212)"><g><path d="M 19.28125 0 L 7.796875 0 L 7.796875 -59.984375 L 21.375 -59.984375 L 45.46875 -21.34375 L 46.53125 -21.5 L 46.53125 -59.984375 L 57.9375 -59.984375 L 57.9375 0 L 45.796875 0 L 20.3125 -41.28125 L 19.28125 -41.109375 Z M 19.28125 0 "/></g></g></g></svg>