<svg xmlns="http://www.w3.org/2000/svg" xmlns:xlink="http://www.w3.org/1999/xlink" width="250" zoomAndPan="magnify" viewBox="0 0 187.5 112.499997" height="150" preserveAspectRatio="xMidYMid meet" version="1.0"><path fill="#ffffff" d="M 26.734375 32.511719 L 27.160156 45.625 C 27.203125 46.324219 27.328125 46.835938 27.535156 47.160156 C 27.742188 47.480469 27.984375 47.722656 28.253906 47.886719 C 28.523438 48.054688 28.753906 48.226562 28.949219 48.40625 C 29.148438 48.582031 29.25 48.875 29.25 49.289062 C 29.25 49.617188 29.121094 49.851562 28.867188 49.984375 C 28.621094 50.121094 28.195312 50.1875 27.597656 50.1875 L 22.816406 50.1875 C 22.214844 50.1875 21.777344 50.121094 21.507812 49.984375 C 21.242188 49.851562 21.109375 49.617188 21.109375 49.289062 C 21.109375 48.914062 21.195312 48.636719 21.371094 48.445312 C 21.546875 48.257812 21.753906 48.078125 21.992188 47.90625 C 22.230469 47.726562 22.433594 47.472656 22.609375 47.144531 C 22.785156 46.8125 22.875 46.304688 22.875 45.625 L 22.632812 33.878906 L 16.070312 48.011719 C 15.945312 48.28125 15.808594 48.476562 15.652344 48.601562 C 15.5 48.726562 15.265625 48.832031 14.957031 48.914062 C 14.3125 49.042969 13.90625 48.863281 13.742188 48.382812 L 7.722656 34.0625 L 7.320312 46.304688 C 7.296875 46.820312 7.363281 47.230469 7.511719 47.53125 C 7.667969 47.828125 7.847656 48.0625 8.054688 48.226562 C 8.265625 48.394531 8.453125 48.5625 8.621094 48.730469 C 8.789062 48.890625 8.871094 49.109375 8.871094 49.378906 C 8.871094 49.710938 8.75 49.925781 8.507812 50.015625 C 8.269531 50.109375 7.914062 50.152344 7.441406 50.152344 L 4.675781 50.152344 C 4.15625 50.152344 3.785156 50.097656 3.558594 49.984375 C 3.332031 49.871094 3.21875 49.65625 3.21875 49.34375 C 3.21875 49.097656 3.304688 48.890625 3.476562 48.730469 C 3.65625 48.5625 3.859375 48.394531 4.101562 48.226562 C 4.335938 48.0625 4.554688 47.828125 4.746094 47.53125 C 4.945312 47.230469 5.054688 46.820312 5.078125 46.304688 L 5.667969 32.511719 C 5.6875 31.949219 5.617188 31.527344 5.449219 31.242188 C 5.28125 30.949219 5.082031 30.722656 4.84375 30.554688 C 4.605469 30.386719 4.394531 30.21875 4.203125 30.042969 C 4.019531 29.867188 3.929688 29.625 3.929688 29.316406 C 3.929688 28.984375 4.046875 28.753906 4.285156 28.628906 C 4.523438 28.503906 4.902344 28.441406 5.417969 28.441406 L 9.027344 28.441406 C 9.601562 28.441406 9.996094 28.703125 10.207031 29.21875 L 16.046875 42.914062 L 22.382812 29.25 C 22.628906 28.714844 23.023438 28.441406 23.5625 28.441406 L 26.976562 28.441406 C 27.511719 28.441406 27.898438 28.503906 28.125 28.628906 C 28.355469 28.753906 28.472656 28.984375 28.472656 29.316406 C 28.472656 29.625 28.378906 29.863281 28.1875 30.027344 C 28.003906 30.195312 27.792969 30.363281 27.550781 30.53125 C 27.3125 30.691406 27.109375 30.917969 26.941406 31.207031 C 26.78125 31.5 26.710938 31.933594 26.734375 32.511719 Z M 26.734375 32.511719 " fill-opacity="1" fill-rule="nonzero"/><path fill="#ffffff" d="M 33.90625 33.253906 C 33.324219 33.234375 32.863281 33.042969 32.523438 32.679688 C 32.183594 32.320312 32.023438 31.878906 32.042969 31.363281 C 32.0625 30.890625 32.226562 30.421875 32.546875 29.957031 C 32.871094 29.484375 33.277344 29.105469 33.777344 28.816406 C 34.277344 28.523438 34.785156 28.390625 35.304688 28.410156 C 35.859375 28.433594 36.324219 28.628906 36.695312 29 C 37.070312 29.371094 37.261719 29.828125 37.261719 30.367188 C 37.238281 30.863281 37.0625 31.335938 36.726562 31.785156 C 36.398438 32.226562 35.980469 32.582031 35.472656 32.851562 C 34.96875 33.121094 34.441406 33.253906 33.90625 33.253906 Z M 32.84375 45.867188 L 32.84375 40.1875 C 32.84375 39.648438 32.773438 39.238281 32.628906 38.957031 C 32.484375 38.679688 32.316406 38.460938 32.117188 38.304688 C 31.921875 38.148438 31.746094 38 31.59375 37.867188 C 31.433594 37.734375 31.355469 37.550781 31.355469 37.324219 C 31.355469 37.097656 31.425781 36.917969 31.558594 36.78125 C 31.691406 36.648438 31.949219 36.496094 32.320312 36.328125 C 32.757812 36.125 33.257812 35.925781 33.824219 35.730469 C 34.394531 35.53125 34.917969 35.359375 35.394531 35.214844 C 35.871094 35.066406 36.195312 34.996094 36.355469 34.996094 C 36.835938 34.972656 37.078125 35.285156 37.078125 35.925781 L 37.042969 40.1875 L 37.042969 45.867188 C 37.042969 46.59375 37.117188 47.128906 37.269531 47.46875 C 37.425781 47.808594 37.601562 48.054688 37.796875 48.210938 C 37.996094 48.371094 38.171875 48.519531 38.328125 48.664062 C 38.484375 48.8125 38.566406 49.058594 38.566406 49.410156 C 38.566406 49.722656 38.4375 49.929688 38.191406 50.03125 C 37.945312 50.136719 37.613281 50.1875 37.199219 50.1875 L 32.757812 50.1875 C 32.296875 50.1875 31.945312 50.128906 31.695312 50.015625 C 31.449219 49.902344 31.324219 49.691406 31.324219 49.378906 C 31.324219 49.050781 31.402344 48.8125 31.558594 48.664062 C 31.714844 48.519531 31.890625 48.371094 32.085938 48.210938 C 32.285156 48.054688 32.460938 47.808594 32.609375 47.46875 C 32.765625 47.128906 32.84375 46.59375 32.84375 45.867188 Z M 32.84375 45.867188 " fill-opacity="1" fill-rule="nonzero"/><path fill="#ffffff" d="M 56.707031 41.359375 L 57.757812 46.675781 C 57.859375 47.152344 58 47.515625 58.179688 47.765625 C 58.355469 48.015625 58.539062 48.210938 58.722656 48.359375 C 58.910156 48.5 59.070312 48.640625 59.207031 48.785156 C 59.339844 48.933594 59.410156 49.140625 59.410156 49.410156 C 59.410156 49.722656 59.285156 49.929688 59.035156 50.03125 C 58.789062 50.136719 58.457031 50.1875 58.042969 50.1875 L 53.691406 50.1875 C 53.257812 50.1875 52.914062 50.128906 52.664062 50.015625 C 52.414062 49.902344 52.289062 49.691406 52.289062 49.378906 C 52.289062 49.128906 52.367188 48.929688 52.523438 48.769531 C 52.679688 48.613281 52.855469 48.449219 53.050781 48.277344 C 53.25 48.097656 53.402344 47.871094 53.503906 47.597656 C 53.605469 47.316406 53.605469 46.925781 53.503906 46.425781 L 52.542969 41.523438 C 52.414062 40.859375 52.25 40.234375 52.039062 39.644531 C 51.832031 39.054688 51.535156 38.570312 51.140625 38.199219 C 50.746094 37.824219 50.210938 37.648438 49.53125 37.664062 C 48.699219 37.664062 47.972656 38.027344 47.339844 38.757812 C 46.707031 39.480469 46.394531 40.527344 46.394531 41.894531 L 46.394531 45.867188 C 46.394531 46.59375 46.46875 47.128906 46.621094 47.46875 C 46.777344 47.808594 46.953125 48.054688 47.144531 48.210938 C 47.34375 48.371094 47.519531 48.519531 47.664062 48.664062 C 47.808594 48.8125 47.882812 49.058594 47.882812 49.410156 C 47.882812 49.722656 47.761719 49.929688 47.527344 50.03125 C 47.289062 50.136719 46.953125 50.1875 46.515625 50.1875 L 42.074219 50.1875 C 41.636719 50.1875 41.289062 50.128906 41.03125 50.015625 C 40.773438 49.902344 40.640625 49.691406 40.640625 49.378906 C 40.640625 49.050781 40.71875 48.8125 40.875 48.664062 C 41.03125 48.519531 41.210938 48.371094 41.417969 48.210938 C 41.628906 48.054688 41.808594 47.808594 41.960938 47.46875 C 42.117188 47.128906 42.195312 46.59375 42.195312 45.867188 L 42.195312 39.96875 C 42.195312 39.53125 42.109375 39.167969 41.945312 38.871094 C 41.78125 38.566406 41.542969 38.300781 41.234375 38.070312 C 41.085938 37.96875 40.953125 37.847656 40.828125 37.710938 C 40.703125 37.578125 40.640625 37.410156 40.640625 37.203125 C 40.640625 36.957031 40.714844 36.757812 40.859375 36.613281 C 41.007812 36.46875 41.265625 36.3125 41.636719 36.144531 C 42.03125 35.960938 42.46875 35.777344 42.957031 35.601562 C 43.445312 35.421875 43.902344 35.277344 44.324219 35.164062 C 44.746094 35.050781 45.042969 34.996094 45.210938 34.996094 C 45.707031 34.996094 45.957031 35.304688 45.957031 35.925781 L 45.957031 37.792969 C 46.554688 36.859375 47.300781 36.15625 48.1875 35.683594 C 49.082031 35.203125 50.027344 34.960938 51.019531 34.960938 C 52.203125 34.960938 53.15625 35.214844 53.890625 35.714844 C 54.625 36.210938 55.210938 36.9375 55.648438 37.890625 C 56.085938 38.839844 56.4375 39.996094 56.707031 41.359375 Z M 56.707031 41.359375 " fill-opacity="1" fill-rule="nonzero"/><path fill="#ffffff" d="M 74.285156 45.429688 C 74.597656 45.121094 74.882812 45.0625 75.144531 45.25 C 75.402344 45.4375 75.445312 45.753906 75.28125 46.207031 C 75.070312 46.789062 74.648438 47.410156 74.019531 48.074219 C 73.386719 48.738281 72.566406 49.308594 71.550781 49.78125 C 70.535156 50.253906 69.335938 50.492188 67.953125 50.492188 C 66.480469 50.492188 65.1875 50.183594 64.078125 49.5625 C 62.972656 48.945312 62.105469 48.082031 61.488281 46.972656 C 60.867188 45.863281 60.558594 44.605469 60.558594 43.195312 C 60.558594 41.601562 60.925781 40.183594 61.660156 38.941406 C 62.390625 37.703125 63.367188 36.730469 64.585938 36.023438 C 65.808594 35.316406 67.148438 34.960938 68.597656 34.960938 C 69.84375 34.960938 70.914062 35.1875 71.800781 35.632812 C 72.691406 36.082031 73.394531 36.675781 73.914062 37.421875 C 74.429688 38.164062 74.761719 38.984375 74.910156 39.871094 C 75.007812 40.414062 74.769531 40.816406 74.1875 41.085938 C 72.617188 41.789062 71.144531 42.410156 69.765625 42.945312 C 68.386719 43.484375 66.890625 44.054688 65.273438 44.652344 C 65.609375 45.359375 66.136719 46.011719 66.859375 46.601562 C 67.585938 47.191406 68.550781 47.484375 69.746094 47.484375 C 70.703125 47.484375 71.554688 47.277344 72.3125 46.859375 C 73.066406 46.445312 73.722656 45.96875 74.285156 45.429688 Z M 67.230469 37.015625 C 66.34375 37.121094 65.660156 37.546875 65.183594 38.304688 C 64.710938 39.058594 64.472656 39.933594 64.472656 40.933594 C 64.472656 41.675781 64.554688 42.328125 64.714844 42.890625 C 65.625 42.578125 66.523438 42.261719 67.402344 41.941406 C 68.285156 41.621094 69.140625 41.285156 69.964844 40.933594 C 70.234375 40.808594 70.445312 40.664062 70.605469 40.496094 C 70.761719 40.328125 70.785156 40.046875 70.6875 39.652344 C 70.476562 38.742188 70.03125 38.039062 69.359375 37.542969 C 68.691406 37.046875 67.980469 36.871094 67.230469 37.015625 Z M 67.230469 37.015625 " fill-opacity="1" fill-rule="nonzero"/><path fill="#ffffff" d="M 86.835938 34.960938 C 87.722656 34.960938 88.40625 35.21875 88.882812 35.730469 C 89.359375 36.238281 89.601562 36.875 89.601562 37.640625 C 89.601562 38.261719 89.457031 38.757812 89.164062 39.128906 C 88.875 39.5 88.511719 39.699219 88.082031 39.71875 C 87.703125 39.71875 87.402344 39.636719 87.175781 39.46875 C 86.949219 39.300781 86.75 39.117188 86.585938 38.910156 C 86.421875 38.707031 86.230469 38.519531 86.007812 38.351562 C 85.792969 38.1875 85.5 38.101562 85.128906 38.101562 C 84.566406 38.101562 84.066406 38.414062 83.632812 39.039062 C 83.199219 39.660156 82.984375 40.539062 82.984375 41.675781 L 82.984375 45.867188 C 82.984375 46.59375 83.058594 47.128906 83.210938 47.46875 C 83.367188 47.808594 83.542969 48.054688 83.738281 48.210938 C 83.933594 48.371094 84.109375 48.519531 84.253906 48.664062 C 84.398438 48.8125 84.472656 49.058594 84.472656 49.410156 C 84.472656 49.722656 84.351562 49.929688 84.117188 50.03125 C 83.878906 50.136719 83.542969 50.1875 83.105469 50.1875 L 78.664062 50.1875 C 78.226562 50.1875 77.878906 50.128906 77.621094 50.015625 C 77.363281 49.902344 77.234375 49.691406 77.234375 49.378906 C 77.234375 49.050781 77.308594 48.8125 77.46875 48.664062 C 77.625 48.519531 77.804688 48.371094 78.007812 48.210938 C 78.21875 48.054688 78.398438 47.808594 78.550781 47.46875 C 78.707031 47.128906 78.785156 46.59375 78.785156 45.867188 L 78.785156 39.96875 C 78.785156 39.53125 78.703125 39.167969 78.535156 38.871094 C 78.375 38.566406 78.136719 38.300781 77.824219 38.070312 C 77.679688 37.96875 77.542969 37.847656 77.417969 37.710938 C 77.292969 37.578125 77.234375 37.410156 77.234375 37.203125 C 77.234375 36.957031 77.304688 36.757812 77.453125 36.613281 C 77.597656 36.46875 77.855469 36.3125 78.226562 36.144531 C 78.621094 35.960938 79.0625 35.777344 79.546875 35.601562 C 80.035156 35.421875 80.492188 35.277344 80.914062 35.164062 C 81.339844 35.050781 81.636719 34.996094 81.804688 34.996094 C 82.300781 34.996094 82.546875 35.304688 82.546875 35.925781 L 82.546875 37.761719 C 83.128906 36.804688 83.804688 36.101562 84.570312 35.648438 C 85.335938 35.191406 86.089844 34.960938 86.835938 34.960938 Z M 86.835938 34.960938 " fill-opacity="1" fill-rule="nonzero"/><path fill="#ffffff" d="M 107.710938 47.792969 C 108.101562 47.792969 108.300781 47.96875 108.300781 48.324219 C 108.300781 48.675781 108.132812 49.011719 107.800781 49.335938 C 107.46875 49.65625 107.058594 49.917969 106.570312 50.128906 C 106.085938 50.332031 105.59375 50.4375 105.097656 50.4375 C 103.792969 50.4375 102.914062 49.671875 102.460938 48.140625 C 101.734375 48.945312 100.878906 49.535156 99.898438 49.910156 C 98.914062 50.28125 97.957031 50.46875 97.023438 50.46875 C 95.886719 50.46875 94.886719 50.265625 94.023438 49.863281 C 93.167969 49.457031 92.503906 48.910156 92.035156 48.21875 C 91.570312 47.523438 91.339844 46.753906 91.339844 45.898438 C 91.339844 44.410156 91.957031 43.183594 93.199219 42.21875 C 94.445312 41.253906 96.164062 40.769531 98.359375 40.769531 C 98.773438 40.769531 99.164062 40.792969 99.523438 40.835938 C 99.882812 40.878906 100.324219 40.941406 100.84375 41.019531 C 100.652344 40.359375 100.433594 39.761719 100.1875 39.234375 C 99.9375 38.707031 99.597656 38.285156 99.160156 37.980469 C 98.726562 37.667969 98.117188 37.511719 97.332031 37.511719 C 96.628906 37.511719 95.960938 37.636719 95.328125 37.882812 C 94.695312 38.132812 94.101562 38.414062 93.546875 38.722656 C 93.253906 38.914062 92.992188 38.914062 92.761719 38.722656 C 92.535156 38.535156 92.539062 38.246094 92.769531 37.859375 C 93.039062 37.421875 93.460938 36.984375 94.039062 36.539062 C 94.621094 36.09375 95.328125 35.71875 96.152344 35.414062 C 96.980469 35.113281 97.894531 34.960938 98.886719 34.960938 C 100.210938 34.960938 101.257812 35.226562 102.023438 35.753906 C 102.789062 36.285156 103.375 36.953125 103.78125 37.761719 C 104.183594 38.570312 104.5 39.410156 104.726562 40.277344 L 106.246094 46.117188 C 106.414062 46.761719 106.613281 47.203125 106.851562 47.453125 C 107.089844 47.699219 107.375 47.8125 107.710938 47.792969 Z M 98.699219 48.292969 C 99.28125 48.292969 99.832031 48.175781 100.359375 47.9375 C 100.886719 47.695312 101.300781 47.382812 101.601562 47 C 101.90625 46.617188 102.011719 46.21875 101.925781 45.808594 C 101.886719 45.539062 101.808594 45.210938 101.683594 44.816406 C 101.558594 44.421875 101.425781 43.957031 101.28125 43.414062 C 101.175781 43.066406 100.871094 42.808594 100.359375 42.640625 C 99.851562 42.472656 99.347656 42.386719 98.851562 42.386719 C 97.757812 42.386719 96.898438 42.648438 96.273438 43.164062 C 95.652344 43.683594 95.34375 44.367188 95.34375 45.21875 C 95.363281 46.109375 95.675781 46.84375 96.273438 47.425781 C 96.875 48.007812 97.683594 48.292969 98.699219 48.292969 Z M 98.699219 48.292969 " fill-opacity="1" fill-rule="nonzero"/><path fill="#ffffff" d="M 111.09375 45.867188 L 111.058594 33.320312 C 111.058594 32.78125 110.988281 32.371094 110.839844 32.089844 C 110.699219 31.8125 110.53125 31.59375 110.332031 31.445312 C 110.136719 31.289062 109.960938 31.140625 109.804688 31.007812 C 109.648438 30.875 109.570312 30.691406 109.570312 30.464844 C 109.570312 30.253906 109.644531 30.082031 109.789062 29.945312 C 109.933594 29.8125 110.195312 29.664062 110.566406 29.503906 C 111.003906 29.292969 111.5 29.085938 112.054688 28.878906 C 112.613281 28.667969 113.132812 28.496094 113.609375 28.355469 C 114.085938 28.207031 114.410156 28.136719 114.570312 28.136719 C 115.066406 28.136719 115.3125 28.445312 115.3125 29.066406 L 115.289062 33.320312 L 115.289062 45.867188 C 115.289062 46.59375 115.363281 47.128906 115.515625 47.46875 C 115.671875 47.808594 115.847656 48.054688 116.042969 48.210938 C 116.242188 48.371094 116.414062 48.519531 116.558594 48.664062 C 116.707031 48.8125 116.777344 49.058594 116.777344 49.410156 C 116.777344 49.722656 116.660156 49.929688 116.421875 50.03125 C 116.183594 50.136719 115.847656 50.1875 115.410156 50.1875 L 110.96875 50.1875 C 110.535156 50.1875 110.1875 50.128906 109.925781 50.015625 C 109.667969 49.902344 109.539062 49.691406 109.539062 49.378906 C 109.539062 49.050781 109.617188 48.8125 109.773438 48.664062 C 109.929688 48.519531 110.109375 48.371094 110.316406 48.210938 C 110.527344 48.054688 110.707031 47.808594 110.855469 47.46875 C 111.011719 47.128906 111.09375 46.59375 111.09375 45.867188 Z M 111.09375 45.867188 " fill-opacity="1" fill-rule="nonzero"/><path fill="#ffffff" d="M 136.066406 50.492188 C 133.957031 50.492188 132.09375 50.054688 130.476562 49.175781 C 128.863281 48.296875 127.601562 47.054688 126.691406 45.453125 C 125.777344 43.847656 125.324219 41.945312 125.324219 39.75 C 125.324219 38.132812 125.605469 36.625 126.171875 35.230469 C 126.742188 33.832031 127.542969 32.601562 128.566406 31.53125 C 129.589844 30.464844 130.792969 29.632812 132.167969 29.03125 C 133.546875 28.433594 135.042969 28.136719 136.65625 28.136719 C 137.632812 28.136719 138.414062 28.222656 139.003906 28.402344 C 139.59375 28.574219 140.078125 28.660156 140.449219 28.660156 C 140.84375 28.660156 141.136719 28.578125 141.332031 28.410156 C 141.53125 28.246094 141.804688 28.160156 142.15625 28.160156 C 142.449219 28.160156 142.683594 28.269531 142.867188 28.492188 C 143.054688 28.707031 143.242188 29.144531 143.425781 29.808594 C 143.59375 30.347656 143.757812 30.960938 143.921875 31.644531 C 144.085938 32.324219 144.242188 33.132812 144.390625 34.0625 C 144.453125 34.480469 144.4375 34.804688 144.339844 35.042969 C 144.246094 35.28125 144.027344 35.421875 143.675781 35.464844 C 143.347656 35.484375 143.082031 35.378906 142.882812 35.140625 C 142.691406 34.898438 142.4375 34.550781 142.125 34.097656 C 141.417969 33.0625 140.585938 32.15625 139.632812 31.378906 C 138.683594 30.601562 137.527344 30.214844 136.164062 30.214844 C 134.835938 30.214844 133.695312 30.550781 132.742188 31.226562 C 131.789062 31.894531 131.0625 32.800781 130.558594 33.941406 C 130.050781 35.082031 129.796875 36.367188 129.796875 37.792969 C 129.796875 39.574219 130.105469 41.222656 130.726562 42.734375 C 131.34375 44.246094 132.234375 45.457031 133.394531 46.367188 C 134.554688 47.28125 135.945312 47.734375 137.5625 47.734375 C 138.84375 47.734375 139.972656 47.476562 140.941406 46.957031 C 141.917969 46.441406 142.820312 45.738281 143.644531 44.847656 C 143.890625 44.578125 144.132812 44.476562 144.375 44.539062 C 144.617188 44.601562 144.78125 44.757812 144.875 45.015625 C 144.964844 45.277344 144.917969 45.570312 144.738281 45.898438 C 144.359375 46.6875 143.753906 47.433594 142.925781 48.140625 C 142.101562 48.839844 141.105469 49.410156 139.949219 49.847656 C 138.789062 50.277344 137.492188 50.492188 136.066406 50.492188 Z M 136.066406 50.492188 " fill-opacity="1" fill-rule="nonzero"/><path fill="#ffffff" d="M 149.488281 33.253906 C 148.902344 33.234375 148.441406 33.042969 148.101562 32.679688 C 147.765625 32.320312 147.605469 31.878906 147.625 31.363281 C 147.640625 30.890625 147.808594 30.421875 148.128906 29.957031 C 148.453125 29.484375 148.859375 29.105469 149.355469 28.816406 C 149.859375 28.523438 150.367188 28.390625 150.886719 28.410156 C 151.441406 28.433594 151.90625 28.628906 152.277344 29 C 152.652344 29.371094 152.84375 29.828125 152.84375 30.367188 C 152.820312 30.863281 152.644531 31.335938 152.308594 31.785156 C 151.980469 32.226562 151.5625 32.582031 151.054688 32.851562 C 150.546875 33.121094 150.023438 33.253906 149.488281 33.253906 Z M 148.425781 45.867188 L 148.425781 40.1875 C 148.425781 39.648438 148.355469 39.238281 148.207031 38.957031 C 148.066406 38.679688 147.898438 38.460938 147.699219 38.304688 C 147.503906 38.148438 147.328125 38 147.171875 37.867188 C 147.015625 37.734375 146.9375 37.550781 146.9375 37.324219 C 146.9375 37.097656 147.003906 36.917969 147.140625 36.78125 C 147.273438 36.648438 147.527344 36.496094 147.902344 36.328125 C 148.339844 36.125 148.839844 35.925781 149.40625 35.730469 C 149.976562 35.53125 150.5 35.359375 150.976562 35.214844 C 151.453125 35.066406 151.777344 34.996094 151.9375 34.996094 C 152.417969 34.972656 152.65625 35.285156 152.65625 35.925781 L 152.625 40.1875 L 152.625 45.867188 C 152.625 46.59375 152.699219 47.128906 152.851562 47.46875 C 153.007812 47.808594 153.183594 48.054688 153.378906 48.210938 C 153.574219 48.371094 153.753906 48.519531 153.910156 48.664062 C 154.066406 48.8125 154.144531 49.058594 154.144531 49.410156 C 154.144531 49.722656 154.019531 49.929688 153.773438 50.03125 C 153.523438 50.136719 153.195312 50.1875 152.777344 50.1875 L 148.339844 50.1875 C 147.878906 50.1875 147.523438 50.128906 147.277344 50.015625 C 147.03125 49.902344 146.90625 49.691406 146.90625 49.378906 C 146.90625 49.050781 146.984375 48.8125 147.140625 48.664062 C 147.296875 48.519531 147.472656 48.371094 147.667969 48.210938 C 147.863281 48.054688 148.039062 47.808594 148.191406 47.46875 C 148.347656 47.128906 148.425781 46.59375 148.425781 45.867188 Z M 148.425781 45.867188 " fill-opacity="1" fill-rule="nonzero"/><path fill="#ffffff" d="M 165.640625 46.675781 C 165.929688 46.449219 166.175781 46.421875 166.382812 46.585938 C 166.585938 46.746094 166.636719 46.996094 166.535156 47.332031 C 166.390625 47.785156 166.109375 48.261719 165.695312 48.761719 C 165.285156 49.257812 164.757812 49.671875 164.117188 50 C 163.476562 50.328125 162.71875 50.492188 161.84375 50.492188 C 160.457031 50.492188 159.378906 50.070312 158.601562 49.222656 C 157.824219 48.378906 157.4375 47.167969 157.4375 45.589844 L 157.4375 43.972656 C 157.4375 42.589844 157.445312 41.320312 157.46875 40.171875 C 157.488281 39.019531 157.511719 38.039062 157.535156 37.234375 L 156.691406 37.234375 C 156.277344 37.234375 155.992188 37.167969 155.835938 37.03125 C 155.683594 36.898438 155.609375 36.699219 155.609375 36.425781 C 155.609375 36.238281 155.644531 36.050781 155.714844 35.867188 C 155.78125 35.679688 155.902344 35.511719 156.070312 35.367188 C 156.652344 34.769531 157.289062 34.191406 157.980469 33.636719 C 158.675781 33.074219 159.34375 32.597656 159.984375 32.203125 C 160.335938 31.992188 160.59375 31.871094 160.761719 31.832031 C 160.925781 31.789062 161.050781 31.765625 161.132812 31.765625 C 161.359375 31.765625 161.535156 31.855469 161.660156 32.035156 C 161.78125 32.207031 161.835938 32.40625 161.820312 32.632812 C 161.777344 33.050781 161.746094 33.472656 161.722656 33.910156 C 161.703125 34.34375 161.679688 34.796875 161.660156 35.277344 L 164.742188 35.277344 C 165.027344 35.277344 165.269531 35.339844 165.476562 35.464844 C 165.6875 35.589844 165.742188 35.886719 165.640625 36.363281 C 165.558594 36.820312 165.390625 37.117188 165.136719 37.25 C 164.890625 37.386719 164.613281 37.445312 164.304688 37.421875 L 161.636719 37.324219 C 161.636719 38.175781 161.636719 39.148438 161.636719 40.238281 C 161.636719 41.320312 161.621094 42.566406 161.601562 43.972656 C 161.582031 45.359375 161.699219 46.308594 161.957031 46.8125 C 162.21875 47.320312 162.695312 47.574219 163.398438 47.574219 C 163.8125 47.574219 164.207031 47.488281 164.578125 47.3125 C 164.953125 47.136719 165.304688 46.925781 165.640625 46.675781 Z M 165.640625 46.675781 " fill-opacity="1" fill-rule="nonzero"/><path fill="#ffffff" d="M 181.105469 35.277344 L 183.25 35.277344 C 183.707031 35.277344 184.0625 35.335938 184.308594 35.449219 C 184.554688 35.5625 184.679688 35.761719 184.679688 36.054688 C 184.679688 36.34375 184.609375 36.570312 184.464844 36.726562 C 184.316406 36.878906 184.132812 37.03125 183.90625 37.1875 C 183.679688 37.34375 183.4375 37.582031 183.175781 37.90625 C 182.917969 38.226562 182.660156 38.707031 182.410156 39.347656 L 178.46875 49.472656 C 177.90625 50.941406 177.335938 52.21875 176.753906 53.308594 C 176.175781 54.394531 175.484375 55.234375 174.675781 55.824219 C 173.871094 56.410156 172.824219 56.707031 171.535156 56.707031 C 170.894531 56.707031 170.285156 56.59375 169.714844 56.367188 C 169.152344 56.140625 168.691406 55.8125 168.339844 55.386719 C 167.988281 54.960938 167.816406 54.449219 167.816406 53.851562 C 167.816406 53.308594 167.984375 52.816406 168.324219 52.371094 C 168.664062 51.925781 169.144531 51.695312 169.773438 51.675781 C 170.226562 51.675781 170.574219 51.8125 170.824219 52.09375 C 171.070312 52.375 171.292969 52.703125 171.488281 53.074219 C 171.6875 53.445312 171.90625 53.769531 172.144531 54.050781 C 172.378906 54.332031 172.707031 54.472656 173.121094 54.472656 C 173.617188 54.472656 174.03125 54.199219 174.359375 53.648438 C 174.695312 53.097656 174.863281 52.449219 174.863281 51.707031 C 174.863281 51.355469 174.820312 51.007812 174.738281 50.664062 C 174.660156 50.324219 174.546875 49.988281 174.398438 49.660156 L 170.300781 39.3125 C 170.050781 38.695312 169.792969 38.226562 169.523438 37.90625 C 169.25 37.582031 169.007812 37.34375 168.785156 37.1875 C 168.570312 37.03125 168.390625 36.878906 168.246094 36.726562 C 168.101562 36.570312 168.035156 36.34375 168.035156 36.054688 C 168.035156 35.742188 168.15625 35.535156 168.40625 35.429688 C 168.652344 35.332031 168.984375 35.277344 169.394531 35.277344 L 174.117188 35.277344 C 174.554688 35.277344 174.894531 35.335938 175.144531 35.449219 C 175.390625 35.5625 175.515625 35.761719 175.515625 36.054688 C 175.515625 36.34375 175.429688 36.570312 175.265625 36.726562 C 175.105469 36.878906 174.933594 37.03125 174.757812 37.1875 C 174.578125 37.34375 174.46875 37.582031 174.425781 37.90625 C 174.386719 38.226562 174.492188 38.707031 174.738281 39.347656 L 177.628906 46.738281 L 180.425781 39.347656 C 180.671875 38.707031 180.78125 38.226562 180.75 37.90625 C 180.71875 37.582031 180.617188 37.34375 180.449219 37.1875 C 180.289062 37.03125 180.128906 36.878906 179.972656 36.726562 C 179.816406 36.570312 179.738281 36.34375 179.738281 36.054688 C 179.738281 35.742188 179.863281 35.535156 180.109375 35.429688 C 180.359375 35.332031 180.691406 35.277344 181.105469 35.277344 Z M 181.105469 35.277344 " fill-opacity="1" fill-rule="nonzero"/><path fill="#ffffff" d="M 80.351562 67.117188 L 80.632812 75.496094 C 80.660156 75.949219 80.738281 76.277344 80.867188 76.484375 C 81 76.6875 81.15625 76.84375 81.328125 76.953125 C 81.5 77.054688 81.648438 77.160156 81.773438 77.273438 C 81.898438 77.386719 81.960938 77.578125 81.960938 77.839844 C 81.960938 78.050781 81.878906 78.203125 81.71875 78.285156 C 81.558594 78.375 81.289062 78.414062 80.90625 78.414062 L 77.851562 78.414062 C 77.464844 78.414062 77.1875 78.375 77.015625 78.285156 C 76.84375 78.203125 76.757812 78.050781 76.757812 77.839844 C 76.757812 77.605469 76.816406 77.425781 76.929688 77.308594 C 77.042969 77.183594 77.171875 77.070312 77.324219 76.960938 C 77.472656 76.847656 77.609375 76.683594 77.722656 76.472656 C 77.835938 76.261719 77.890625 75.933594 77.890625 75.496094 L 77.730469 67.988281 L 73.539062 77.023438 C 73.460938 77.199219 73.371094 77.324219 73.273438 77.40625 C 73.175781 77.484375 73.023438 77.550781 72.828125 77.597656 C 72.417969 77.679688 72.15625 77.570312 72.050781 77.265625 L 68.199219 68.109375 L 67.941406 75.933594 C 67.929688 76.261719 67.972656 76.523438 68.070312 76.71875 C 68.167969 76.910156 68.28125 77.0625 68.417969 77.171875 C 68.550781 77.273438 68.671875 77.378906 68.773438 77.484375 C 68.882812 77.589844 68.9375 77.726562 68.9375 77.898438 C 68.9375 78.109375 68.855469 78.246094 68.703125 78.3125 C 68.550781 78.371094 68.324219 78.398438 68.023438 78.398438 L 66.25 78.398438 C 65.921875 78.398438 65.683594 78.363281 65.539062 78.292969 C 65.394531 78.21875 65.320312 78.082031 65.320312 77.882812 C 65.320312 77.71875 65.378906 77.589844 65.488281 77.484375 C 65.601562 77.378906 65.734375 77.273438 65.886719 77.171875 C 66.035156 77.0625 66.171875 76.910156 66.300781 76.71875 C 66.429688 76.523438 66.496094 76.261719 66.507812 75.933594 L 66.890625 67.117188 C 66.898438 66.757812 66.851562 66.492188 66.742188 66.304688 C 66.640625 66.117188 66.511719 65.972656 66.363281 65.871094 C 66.210938 65.761719 66.074219 65.652344 65.953125 65.539062 C 65.832031 65.425781 65.773438 65.269531 65.773438 65.070312 C 65.773438 64.859375 65.847656 64.714844 66 64.632812 C 66.15625 64.550781 66.398438 64.511719 66.726562 64.511719 L 69.035156 64.511719 C 69.40625 64.511719 69.65625 64.679688 69.785156 65.011719 L 73.523438 73.773438 L 77.574219 65.027344 C 77.730469 64.683594 77.980469 64.511719 78.328125 64.511719 L 80.511719 64.511719 C 80.855469 64.511719 81.101562 64.550781 81.246094 64.632812 C 81.394531 64.714844 81.464844 64.859375 81.464844 65.070312 C 81.464844 65.269531 81.40625 65.421875 81.289062 65.53125 C 81.167969 65.632812 81.03125 65.738281 80.875 65.84375 C 80.722656 65.953125 80.59375 66.101562 80.488281 66.28125 C 80.382812 66.464844 80.335938 66.742188 80.351562 67.117188 Z M 80.351562 67.117188 " fill-opacity="1" fill-rule="nonzero"/><path fill="#ffffff" d="M 92.007812 75.375 C 92.207031 75.179688 92.386719 75.144531 92.550781 75.261719 C 92.714844 75.378906 92.746094 75.585938 92.648438 75.875 C 92.511719 76.242188 92.242188 76.640625 91.835938 77.066406 C 91.433594 77.492188 90.90625 77.859375 90.261719 78.164062 C 89.613281 78.464844 88.84375 78.617188 87.953125 78.617188 C 87.015625 78.617188 86.191406 78.417969 85.480469 78.019531 C 84.773438 77.621094 84.21875 77.070312 83.820312 76.359375 C 83.425781 75.65625 83.230469 74.851562 83.230469 73.949219 C 83.230469 72.929688 83.464844 72.027344 83.933594 71.234375 C 84.402344 70.4375 85.027344 69.8125 85.8125 69.363281 C 86.59375 68.910156 87.449219 68.683594 88.375 68.683594 C 89.167969 68.683594 89.847656 68.828125 90.414062 69.113281 C 90.984375 69.402344 91.433594 69.78125 91.765625 70.253906 C 92.097656 70.730469 92.3125 71.253906 92.402344 71.824219 C 92.472656 72.167969 92.324219 72.429688 91.949219 72.601562 C 90.941406 73.046875 89.996094 73.445312 89.121094 73.789062 C 88.238281 74.132812 87.285156 74.5 86.25 74.878906 C 86.457031 75.328125 86.792969 75.742188 87.257812 76.117188 C 87.722656 76.496094 88.339844 76.683594 89.113281 76.683594 C 89.71875 76.683594 90.265625 76.554688 90.746094 76.289062 C 91.230469 76.027344 91.652344 75.71875 92.007812 75.375 Z M 87.503906 69.996094 C 86.929688 70.058594 86.492188 70.335938 86.183594 70.820312 C 85.878906 71.304688 85.730469 71.863281 85.730469 72.496094 C 85.730469 72.976562 85.78125 73.390625 85.890625 73.75 C 86.476562 73.550781 87.046875 73.347656 87.605469 73.140625 C 88.171875 72.9375 88.71875 72.722656 89.25 72.496094 C 89.421875 72.417969 89.558594 72.328125 89.652344 72.21875 C 89.753906 72.113281 89.769531 71.933594 89.703125 71.6875 C 89.574219 71.101562 89.292969 70.65625 88.859375 70.335938 C 88.429688 70.015625 87.976562 69.902344 87.503906 69.996094 Z M 87.503906 69.996094 " fill-opacity="1" fill-rule="nonzero"/><path fill="#ffffff" d="M 103.707031 64.914062 L 103.683594 67.632812 L 103.640625 75.414062 C 103.640625 75.785156 103.699219 76.058594 103.820312 76.230469 C 103.945312 76.40625 104.082031 76.53125 104.234375 76.613281 C 104.382812 76.6875 104.519531 76.761719 104.636719 76.832031 C 104.753906 76.894531 104.816406 77 104.816406 77.144531 C 104.816406 77.382812 104.597656 77.628906 104.160156 77.882812 C 103.976562 77.976562 103.742188 78.074219 103.457031 78.1875 C 103.167969 78.300781 102.882812 78.394531 102.597656 78.464844 C 102.316406 78.539062 102.082031 78.578125 101.894531 78.578125 C 101.621094 78.578125 101.417969 78.484375 101.289062 78.300781 C 101.164062 78.113281 101.089844 77.816406 101.0625 77.40625 L 101.046875 77.007812 C 100.726562 77.457031 100.304688 77.839844 99.785156 78.15625 C 99.261719 78.472656 98.605469 78.621094 97.824219 78.59375 C 97.058594 78.582031 96.375 78.390625 95.769531 78.011719 C 95.167969 77.636719 94.695312 77.113281 94.355469 76.449219 C 94.019531 75.785156 93.855469 75.03125 93.855469 74.183594 C 93.855469 73.328125 94 72.5625 94.300781 71.886719 C 94.59375 71.207031 94.992188 70.632812 95.488281 70.15625 C 95.988281 69.675781 96.535156 69.3125 97.121094 69.066406 C 97.707031 68.8125 98.296875 68.683594 98.878906 68.683594 C 99.285156 68.683594 99.671875 68.730469 100.027344 68.820312 C 100.386719 68.914062 100.707031 69.039062 100.980469 69.203125 L 100.980469 67.648438 C 100.980469 67.308594 100.933594 67.046875 100.84375 66.863281 C 100.75 66.675781 100.640625 66.53125 100.511719 66.4375 C 100.386719 66.335938 100.277344 66.238281 100.1875 66.152344 C 100.09375 66.066406 100.050781 65.949219 100.050781 65.804688 C 100.050781 65.675781 100.09375 65.566406 100.179688 65.480469 C 100.265625 65.394531 100.425781 65.300781 100.664062 65.191406 C 100.945312 65.058594 101.265625 64.921875 101.628906 64.792969 C 101.992188 64.660156 102.328125 64.546875 102.632812 64.453125 C 102.9375 64.363281 103.140625 64.316406 103.246094 64.316406 C 103.554688 64.316406 103.707031 64.515625 103.707031 64.914062 Z M 99 76.886719 C 99.589844 76.886719 100.058594 76.671875 100.398438 76.238281 C 100.738281 75.808594 100.933594 75.289062 100.980469 74.679688 L 100.980469 73.488281 C 100.96875 73.082031 100.929688 72.683594 100.859375 72.300781 C 100.792969 71.917969 100.691406 71.585938 100.542969 71.304688 C 100.132812 70.394531 99.472656 69.9375 98.5625 69.9375 C 97.886719 69.9375 97.359375 70.214844 96.984375 70.761719 C 96.605469 71.308594 96.417969 72.046875 96.417969 72.972656 C 96.417969 73.78125 96.535156 74.484375 96.773438 75.074219 C 97.011719 75.664062 97.328125 76.113281 97.722656 76.425781 C 98.121094 76.734375 98.546875 76.886719 99 76.886719 Z M 99 76.886719 " fill-opacity="1" fill-rule="nonzero"/><path fill="#ffffff" d="M 107.496094 67.59375 C 107.121094 67.582031 106.824219 67.460938 106.605469 67.230469 C 106.390625 67 106.289062 66.714844 106.304688 66.378906 C 106.316406 66.078125 106.421875 65.777344 106.628906 65.480469 C 106.832031 65.179688 107.09375 64.9375 107.414062 64.753906 C 107.730469 64.570312 108.058594 64.484375 108.394531 64.496094 C 108.75 64.507812 109.042969 64.632812 109.28125 64.875 C 109.519531 65.113281 109.636719 65.40625 109.636719 65.75 C 109.625 66.066406 109.511719 66.367188 109.296875 66.652344 C 109.089844 66.933594 108.820312 67.160156 108.496094 67.332031 C 108.175781 67.507812 107.839844 67.59375 107.496094 67.59375 Z M 106.824219 75.65625 L 106.824219 72.015625 C 106.824219 71.675781 106.773438 71.417969 106.679688 71.242188 C 106.585938 71.058594 106.476562 70.917969 106.355469 70.820312 C 106.230469 70.722656 106.117188 70.632812 106.015625 70.546875 C 105.917969 70.460938 105.867188 70.34375 105.867188 70.199219 C 105.867188 70.050781 105.910156 69.9375 106 69.847656 C 106.082031 69.765625 106.246094 69.667969 106.484375 69.558594 C 106.757812 69.429688 107.078125 69.304688 107.445312 69.179688 C 107.8125 69.046875 108.144531 68.9375 108.449219 68.847656 C 108.75 68.753906 108.953125 68.707031 109.0625 68.707031 C 109.371094 68.691406 109.523438 68.890625 109.523438 69.300781 L 109.5 72.015625 L 109.5 75.65625 C 109.5 76.121094 109.550781 76.464844 109.648438 76.683594 C 109.746094 76.902344 109.859375 77.0625 109.988281 77.160156 C 110.117188 77.257812 110.230469 77.355469 110.324219 77.445312 C 110.421875 77.539062 110.472656 77.695312 110.472656 77.921875 C 110.472656 78.117188 110.390625 78.25 110.230469 78.320312 C 110.070312 78.382812 109.859375 78.414062 109.597656 78.414062 L 106.757812 78.414062 C 106.46875 78.414062 106.242188 78.382812 106.078125 78.3125 C 105.921875 78.234375 105.84375 78.097656 105.84375 77.898438 C 105.84375 77.6875 105.894531 77.539062 105.992188 77.445312 C 106.089844 77.355469 106.203125 77.257812 106.332031 77.160156 C 106.460938 77.0625 106.574219 76.902344 106.667969 76.683594 C 106.769531 76.464844 106.824219 76.121094 106.824219 75.65625 Z M 106.824219 75.65625 " fill-opacity="1" fill-rule="nonzero"/><path fill="#ffffff" d="M 122.070312 76.886719 C 122.324219 76.886719 122.449219 77 122.449219 77.226562 C 122.449219 77.449219 122.339844 77.664062 122.128906 77.875 C 121.917969 78.078125 121.652344 78.25 121.34375 78.382812 C 121.035156 78.511719 120.722656 78.578125 120.402344 78.578125 C 119.566406 78.578125 119.003906 78.089844 118.714844 77.105469 C 118.25 77.621094 117.703125 78 117.070312 78.238281 C 116.445312 78.472656 115.835938 78.59375 115.242188 78.59375 C 114.515625 78.59375 113.875 78.464844 113.324219 78.207031 C 112.777344 77.945312 112.347656 77.597656 112.046875 77.152344 C 111.75 76.714844 111.601562 76.21875 111.601562 75.671875 C 111.601562 74.71875 112 73.933594 112.792969 73.320312 C 113.589844 72.703125 114.6875 72.398438 116.09375 72.398438 C 116.355469 72.398438 116.605469 72.410156 116.835938 72.4375 C 117.066406 72.464844 117.351562 72.507812 117.6875 72.558594 C 117.566406 72.132812 117.425781 71.753906 117.265625 71.417969 C 117.109375 71.078125 116.890625 70.808594 116.609375 70.609375 C 116.328125 70.410156 115.9375 70.308594 115.4375 70.308594 C 114.988281 70.308594 114.5625 70.390625 114.160156 70.554688 C 113.753906 70.710938 113.375 70.890625 113.019531 71.085938 C 112.828125 71.207031 112.664062 71.207031 112.515625 71.085938 C 112.371094 70.96875 112.371094 70.785156 112.515625 70.527344 C 112.6875 70.253906 112.960938 69.976562 113.335938 69.6875 C 113.707031 69.402344 114.15625 69.164062 114.683594 68.976562 C 115.214844 68.78125 115.796875 68.683594 116.433594 68.683594 C 117.277344 68.683594 117.945312 68.855469 118.4375 69.195312 C 118.929688 69.53125 119.300781 69.953125 119.554688 70.472656 C 119.8125 70.988281 120.015625 71.527344 120.160156 72.082031 L 121.140625 75.8125 C 121.242188 76.222656 121.367188 76.507812 121.519531 76.667969 C 121.675781 76.828125 121.859375 76.898438 122.070312 76.886719 Z M 116.3125 77.203125 C 116.683594 77.203125 117.035156 77.128906 117.371094 76.976562 C 117.710938 76.828125 117.972656 76.628906 118.164062 76.386719 C 118.359375 76.140625 118.429688 75.882812 118.382812 75.617188 C 118.351562 75.445312 118.300781 75.234375 118.21875 74.984375 C 118.140625 74.734375 118.050781 74.433594 117.960938 74.089844 C 117.894531 73.863281 117.699219 73.699219 117.371094 73.59375 C 117.046875 73.488281 116.726562 73.433594 116.40625 73.433594 C 115.707031 73.433594 115.15625 73.601562 114.757812 73.933594 C 114.363281 74.265625 114.167969 74.699219 114.167969 75.238281 C 114.183594 75.808594 114.382812 76.28125 114.765625 76.652344 C 115.148438 77.019531 115.664062 77.203125 116.3125 77.203125 Z M 116.3125 77.203125 " fill-opacity="1" fill-rule="nonzero"/></svg>