<svg xmlns="http://www.w3.org/2000/svg" xmlns:xlink="http://www.w3.org/1999/xlink" width="500" zoomAndPan="magnify" viewBox="0 0 375 374.999991" height="500" preserveAspectRatio="xMidYMid meet" version="1.0"><defs><clipPath id="f35cc5fb0b"><path d="M 37.414062 131.054688 L 341.914062 131.054688 L 341.914062 257.804688 L 37.414062 257.804688 Z M 37.414062 131.054688 " clip-rule="nonzero"/></clipPath><clipPath id="9257189836"><path d="M 37.414062 236 L 341.914062 236 L 341.914062 242 L 37.414062 242 Z M 37.414062 236 " clip-rule="nonzero"/></clipPath><clipPath id="2eaac8cdaf"><path d="M 113 206 L 267 206 L 267 257.804688 L 113 257.804688 Z M 113 206 " clip-rule="nonzero"/></clipPath></defs><g clip-path="url(#f35cc5fb0b)"><rect x="-37.5" width="450" fill="#ffffff" y="-37.499999" height="449.999989" fill-opacity="1"/><rect x="-37.5" width="450" fill="#3a5f7d" y="-37.499999" height="449.999989" fill-opacity="1"/></g><g clip-path="url(#9257189836)"><path stroke-linecap="butt" transform="matrix(1.3132, 0, 0, 1.3132, 40.387931, 236.31243)" fill="none" stroke-linejoin="miter" d="M 0.00205114 1.998987 L 227.99953 1.998987 " stroke="#ffffff" stroke-width="4" stroke-opacity="1" stroke-miterlimit="4"/></g><g clip-path="url(#2eaac8cdaf)"><path fill="#3a5f7d" d="M 113.601562 206.6875 L 266.558594 206.6875 L 266.558594 269.878906 L 113.601562 269.878906 L 113.601562 206.6875 " fill-opacity="1" fill-rule="nonzero"/></g><path fill="#ffffff" d="M 129.652344 253.382812 L 124.214844 253.382812 L 124.214844 223.382812 L 131.980469 223.382812 L 139.574219 245.445312 L 139.996094 245.445312 L 147.542969 223.382812 L 155.121094 223.382812 L 155.121094 253.382812 L 149.496094 253.382812 L 149.496094 233.570312 L 148.980469 233.476562 L 142.042969 253.382812 L 137.105469 253.382812 L 130.167969 233.476562 L 129.652344 233.570312 Z M 129.652344 253.382812 " fill-opacity="1" fill-rule="nonzero"/><path fill="#ffffff" d="M 168.851562 240.210938 L 168.851562 248.414062 L 183.164062 248.414062 L 183.164062 253.382812 L 162.914062 253.382812 L 162.914062 223.382812 L 182.835938 223.382812 L 182.835938 228.351562 L 168.851562 228.351562 L 168.851562 235.367188 L 181.070312 235.367188 L 181.070312 240.210938 Z M 168.851562 240.210938 " fill-opacity="1" fill-rule="nonzero"/><path fill="#ffffff" d="M 199.492188 223.382812 C 204.367188 223.382812 208.085938 224.644531 210.648438 227.164062 C 213.210938 229.6875 214.492188 233.425781 214.492188 238.382812 C 214.492188 243.34375 213.210938 247.082031 210.648438 249.601562 C 208.085938 252.125 204.367188 253.382812 199.492188 253.382812 L 188.695312 253.382812 L 188.695312 223.382812 Z M 199.148438 248.398438 C 202.242188 248.398438 204.554688 247.613281 206.085938 246.039062 C 207.617188 244.457031 208.382812 241.90625 208.382812 238.382812 C 208.382812 234.875 207.617188 232.328125 206.085938 230.742188 C 204.554688 229.160156 202.242188 228.367188 199.148438 228.367188 L 194.632812 228.367188 L 194.632812 248.398438 Z M 199.148438 248.398438 " fill-opacity="1" fill-rule="nonzero"/><path fill="#ffffff" d="M 220.75 223.382812 L 226.6875 223.382812 L 226.6875 253.382812 L 220.75 253.382812 Z M 220.75 223.382812 " fill-opacity="1" fill-rule="nonzero"/><path fill="#ffffff" d="M 259.382812 253.382812 L 253.148438 253.382812 L 250.898438 246.476562 L 239.398438 246.476562 L 237.148438 253.382812 L 231.054688 253.382812 L 241.414062 223.382812 L 249.023438 223.382812 Z M 244.867188 229.648438 L 241.007812 241.476562 L 249.257812 241.476562 L 245.367188 229.648438 Z M 244.867188 229.648438 " fill-opacity="1" fill-rule="nonzero"/><path fill="#ffffff" d="M 87.828125 196.390625 L 43.8125 196.390625 L 43.8125 185.921875 L 73.875 147.1875 L 73.59375 146.328125 L 45 146.328125 L 45 136.40625 L 87.546875 136.40625 L 87.546875 146.859375 L 57.46875 185.59375 L 57.75 186.46875 L 87.828125 186.46875 Z M 87.828125 196.390625 " fill-opacity="1" fill-rule="nonzero"/><path fill="#ffffff" d="M 109.988281 170.046875 L 109.988281 186.46875 L 138.628906 186.46875 L 138.628906 196.390625 L 98.128906 196.390625 L 98.128906 136.40625 L 137.972656 136.40625 L 137.972656 146.328125 L 109.988281 146.328125 L 109.988281 160.359375 L 134.441406 160.359375 L 134.441406 170.046875 Z M 109.988281 170.046875 " fill-opacity="1" fill-rule="nonzero"/><path fill="#ffffff" d="M 161.183594 196.390625 L 149.699219 196.390625 L 149.699219 136.40625 L 163.277344 136.40625 L 187.371094 175.046875 L 188.433594 174.890625 L 188.433594 136.40625 L 199.839844 136.40625 L 199.839844 196.390625 L 187.699219 196.390625 L 162.214844 155.109375 L 161.183594 155.28125 Z M 161.183594 196.390625 " fill-opacity="1" fill-rule="nonzero"/><path fill="#ffffff" d="M 240.375 197.25 C 234.875 197.25 230.023438 196.132812 225.828125 193.890625 C 221.628906 191.640625 218.335938 188.214844 215.953125 183.609375 C 213.578125 179.007812 212.390625 173.265625 212.390625 166.390625 C 212.390625 159.527344 213.578125 153.792969 215.953125 149.1875 C 218.335938 144.574219 221.628906 141.148438 225.828125 138.90625 C 230.023438 136.667969 234.875 135.546875 240.375 135.546875 C 245.875 135.546875 250.710938 136.664062 254.890625 138.890625 C 259.078125 141.121094 262.351562 144.546875 264.71875 149.171875 C 267.09375 153.789062 268.28125 159.527344 268.28125 166.390625 C 268.28125 173.265625 267.09375 179.015625 264.71875 183.640625 C 262.351562 188.257812 259.078125 191.679688 254.890625 193.90625 C 250.710938 196.136719 245.875 197.25 240.375 197.25 Z M 240.375 186.953125 C 245.457031 186.953125 249.335938 185.320312 252.015625 182.046875 C 254.703125 178.777344 256.046875 173.558594 256.046875 166.390625 C 256.046875 159.226562 254.703125 154 252.015625 150.71875 C 249.335938 147.4375 245.457031 145.796875 240.375 145.796875 C 235.257812 145.796875 231.351562 147.4375 228.65625 150.71875 C 225.96875 154 224.625 159.226562 224.625 166.390625 C 224.625 173.558594 225.96875 178.777344 228.65625 182.046875 C 231.351562 185.320312 235.257812 186.953125 240.375 186.953125 Z M 240.375 186.953125 " fill-opacity="1" fill-rule="nonzero"/><path fill="#ffffff" d="M 292.308594 196.390625 L 280.824219 196.390625 L 280.824219 136.40625 L 294.402344 136.40625 L 318.496094 175.046875 L 319.558594 174.890625 L 319.558594 136.40625 L 330.964844 136.40625 L 330.964844 196.390625 L 318.824219 196.390625 L 293.339844 155.109375 L 292.308594 155.28125 Z M 292.308594 196.390625 " fill-opacity="1" fill-rule="nonzero"/></svg>